<?xml version="1.0" encoding="UTF-8" standalone="no"?>
<svg xmlns:xlink="http://www.w3.org/1999/xlink" height="69.7px" width="52.55px" xmlns="http://www.w3.org/2000/svg">
  <g transform="matrix(1.0, 0.0, 0.0, 1.0, -137.45, 58.95)">
    <path d="M137.45 -58.95 L137.75 -58.75 139.65 -57.85 Q144.7 -55.3 149.25 -52.3 180.7 -31.55 188.7 10.75 L188.5 10.0 Q175.65 -37.55 147.35 -49.6 145.85 -52.75 137.45 -54.95 L137.45 -56.45 Q137.45 -57.6 137.45 -58.75 L137.45 -58.95" fill="#e2f0f7" fill-rule="evenodd" stroke="none">
      <animate attributeName="fill" dur="2s" repeatCount="indefinite" values="#e2f0f7;#e2f0f8"/>
      <animate attributeName="fill-opacity" dur="2s" repeatCount="indefinite" values="1.0;1.0"/>
      <animate attributeName="d" dur="2s" repeatCount="indefinite" values="M137.45 -58.95 L137.75 -58.75 139.65 -57.85 Q144.7 -55.3 149.25 -52.3 180.7 -31.55 188.7 10.75 L188.5 10.0 Q175.65 -37.55 147.35 -49.6 145.85 -52.75 137.45 -54.95 L137.45 -56.45 Q137.45 -57.6 137.45 -58.75 L137.45 -58.95;M138.75 -58.35 L138.75 -58.35 138.75 -56.15 Q147.15 -53.95 148.65 -50.8 178.8 -39.8 189.8 8.85 L190.0 9.55 Q182.3 -31.3 152.7 -52.05 147.95 -55.35 142.65 -58.15 L141.35 -58.85 Q140.3 -58.35 138.95 -58.35 L138.75 -58.35"/>
    </path>
    <path d="M137.45 -58.95 L137.45 -58.75 Q137.45 -57.6 137.45 -56.45 L137.45 -54.95 Q145.85 -52.75 147.35 -49.6 175.65 -37.55 188.5 10.0 L188.7 10.75 Q180.7 -31.55 149.25 -52.3 144.7 -55.3 139.65 -57.85 L137.75 -58.75 137.45 -58.95" fill="none" stroke="#000000" stroke-linecap="round" stroke-linejoin="round" stroke-opacity="0.0" stroke-width="1.0">
      <animate attributeName="stroke" dur="2s" repeatCount="indefinite" values="#000000;#000001"/>
      <animate attributeName="stroke-width" dur="2s" repeatCount="indefinite" values="0.0;0.0"/>
      <animate attributeName="fill-opacity" dur="2s" repeatCount="indefinite" values="0.0;0.0"/>
      <animate attributeName="d" dur="2s" repeatCount="indefinite" values="M137.45 -58.95 L137.45 -58.75 Q137.45 -57.6 137.45 -56.45 L137.45 -54.95 Q145.85 -52.75 147.35 -49.6 175.65 -37.55 188.5 10.0 L188.7 10.75 Q180.7 -31.55 149.25 -52.3 144.7 -55.3 139.65 -57.85 L137.75 -58.75 137.45 -58.95;M138.75 -58.35 L138.95 -58.35 Q140.3 -58.35 141.35 -58.85 L142.65 -58.15 Q147.95 -55.35 152.7 -52.05 182.3 -31.3 190.0 9.55 L189.8 8.85 Q178.8 -39.8 148.65 -50.8 147.15 -53.95 138.75 -56.15 L138.75 -58.35 138.75 -58.35"/>
    </path>
  </g>
</svg>
