<?xml version="1.0" encoding="UTF-8" standalone="no"?>
<svg xmlns:xlink="http://www.w3.org/1999/xlink" height="25.3px" width="53.85px" xmlns="http://www.w3.org/2000/svg">
  <g transform="matrix(1.0, 0.0, 0.0, 1.0, -41.3, -80.85)">
    <path d="M44.7 99.0 L44.7 99.0 Q46.1 100.6 47.45 102.2 L47.45 102.2 Q48.55 103.6 50.3 104.05 L54.65 103.9 Q54.5 104.85 55.6 105.35 58.05 106.5 66.75 105.25 67.9 103.9 68.3 104.25 L68.4 105.3 68.4 105.4 70.25 105.95 75.05 106.1 75.75 106.0 77.2 105.8 78.2 105.6 85.05 103.95 Q86.55 103.4 88.05 102.9 93.35 100.9 94.65 98.45 95.4 97.0 94.75 95.4 95.25 94.4 95.15 93.7 95.0 92.75 93.95 92.25 92.75 91.7 90.4 91.65 89.6 90.8 88.2 90.05 L86.95 89.5 83.25 88.3 79.4 87.4 78.55 87.3 76.9 87.35 74.0 87.65 70.95 87.95 69.65 88.1 67.7 88.4 64.0 88.85 59.9 89.55 Q57.0 90.15 55.35 90.85 54.15 91.35 53.6 91.95 L52.9 92.85 Q51.75 94.1 51.0 95.65 50.5 95.85 50.0 96.05 L48.6 96.55 Q44.8 98.05 44.7 99.0" fill="#e2faff" fill-rule="evenodd" stroke="none">
      <animate attributeName="fill" dur="2s" repeatCount="indefinite" values="#e2faff;#e2faff"/>
      <animate attributeName="fill-opacity" dur="2s" repeatCount="indefinite" values="1.0;1.0"/>
      <animate attributeName="d" dur="2s" repeatCount="indefinite" values="M44.7 99.0 L44.7 99.0 Q46.1 100.6 47.45 102.2 L47.45 102.2 Q48.55 103.6 50.3 104.05 L54.65 103.9 Q54.5 104.85 55.6 105.35 58.05 106.5 66.75 105.25 67.9 103.9 68.3 104.25 L68.4 105.3 68.4 105.4 70.25 105.95 75.05 106.1 75.75 106.0 77.2 105.8 78.2 105.6 85.05 103.95 Q86.55 103.4 88.05 102.9 93.35 100.9 94.65 98.45 95.4 97.0 94.75 95.4 95.25 94.4 95.15 93.7 95.0 92.75 93.95 92.25 92.75 91.7 90.4 91.65 89.6 90.8 88.2 90.05 L86.95 89.5 83.25 88.3 79.4 87.4 78.55 87.3 76.9 87.35 74.0 87.65 70.95 87.95 69.65 88.1 67.7 88.4 64.0 88.85 59.9 89.55 Q57.0 90.15 55.35 90.85 54.15 91.35 53.6 91.95 L52.9 92.85 Q51.75 94.1 51.0 95.65 50.5 95.85 50.0 96.05 L48.6 96.55 Q44.8 98.05 44.7 99.0;M41.3 93.0 L41.3 93.1 Q41.3 96.3 42.25 98.35 L42.25 98.45 Q43.2 100.55 44.65 101.1 L49.25 102.6 Q50.25 102.95 51.2 103.25 55.8 104.7 64.25 105.05 65.3 105.1 66.3 105.15 L67.65 105.15 67.75 105.15 70.05 105.15 75.65 104.7 76.4 104.6 78.1 104.3 79.3 104.1 87.75 102.35 Q90.25 101.7 91.0 101.25 95.2 100.05 95.0 94.0 94.85 92.25 94.7 90.55 94.45 89.5 94.25 88.45 94.65 87.5 94.65 86.4 94.65 85.05 91.85 84.0 90.55 83.5 88.65 83.05 L87.0 82.65 82.4 81.9 78.15 81.45 77.25 81.35 75.25 81.25 71.75 80.95 68.05 80.85 66.55 80.85 64.3 80.95 59.95 81.4 55.35 81.8 Q52.75 82.25 50.15 82.65 48.9 82.95 47.65 83.25 L46.55 83.55 Q44.05 84.35 43.1 85.25 42.55 85.8 42.55 86.4 L42.2 88.0 Q41.3 90.25 41.3 93.0"/>
    </path>
    <path d="M44.7 99.0 Q44.8 98.05 48.6 96.55 L50.0 96.05 Q50.5 95.85 51.0 95.65 51.75 94.1 52.9 92.85 L53.6 91.95 Q54.15 91.35 55.35 90.85 57.0 90.15 59.9 89.55 L64.0 88.85 67.7 88.4 69.65 88.1 70.95 87.95 74.0 87.65 76.9 87.35 78.55 87.3 79.4 87.4 83.25 88.3 86.95 89.5 88.2 90.05 Q89.6 90.8 90.4 91.65 92.75 91.7 93.95 92.25 95.0 92.75 95.15 93.7 95.25 94.4 94.75 95.4 95.4 97.0 94.65 98.45 93.35 100.9 88.05 102.9 86.55 103.4 85.05 103.95 L78.2 105.6 77.2 105.8 75.75 106.0 75.05 106.1 70.25 105.95 68.4 105.4 68.4 105.3 68.3 104.25 Q67.9 103.9 66.75 105.25 58.05 106.5 55.6 105.35 54.5 104.85 54.65 103.9 L50.3 104.05 Q48.55 103.6 47.45 102.2 L47.45 102.2 Q46.1 100.6 44.7 99.0 L44.7 99.0" fill="none" stroke="#000000" stroke-linecap="round" stroke-linejoin="round" stroke-opacity="0.0" stroke-width="1.0">
      <animate attributeName="stroke" dur="2s" repeatCount="indefinite" values="#000000;#000001"/>
      <animate attributeName="stroke-width" dur="2s" repeatCount="indefinite" values="0.0;0.0"/>
      <animate attributeName="fill-opacity" dur="2s" repeatCount="indefinite" values="0.0;0.0"/>
      <animate attributeName="d" dur="2s" repeatCount="indefinite" values="M44.7 99.0 Q44.8 98.05 48.6 96.55 L50.0 96.05 Q50.5 95.85 51.0 95.65 51.75 94.1 52.9 92.85 L53.6 91.95 Q54.15 91.35 55.35 90.85 57.0 90.15 59.9 89.55 L64.0 88.85 67.7 88.4 69.65 88.1 70.95 87.95 74.0 87.65 76.9 87.35 78.55 87.3 79.4 87.4 83.25 88.3 86.95 89.5 88.2 90.05 Q89.6 90.8 90.4 91.65 92.75 91.7 93.95 92.25 95.0 92.75 95.15 93.7 95.25 94.4 94.75 95.4 95.4 97.0 94.65 98.45 93.35 100.9 88.05 102.9 86.55 103.4 85.05 103.95 L78.2 105.6 77.2 105.8 75.75 106.0 75.05 106.1 70.25 105.95 68.4 105.4 68.4 105.3 68.3 104.25 Q67.9 103.9 66.75 105.25 58.05 106.5 55.6 105.35 54.5 104.85 54.65 103.9 L50.3 104.05 Q48.55 103.6 47.45 102.2 L47.45 102.2 Q46.1 100.6 44.7 99.0 L44.7 99.0;M41.3 93.0 Q41.3 90.25 42.2 88.0 L42.55 86.4 Q42.55 85.8 43.1 85.25 44.05 84.35 46.55 83.55 L47.65 83.25 Q48.9 82.95 50.15 82.65 52.75 82.25 55.35 81.8 L59.95 81.4 64.3 80.95 66.55 80.85 68.05 80.85 71.75 80.95 75.25 81.25 77.25 81.35 78.15 81.45 82.4 81.9 87.0 82.65 88.65 83.05 Q90.55 83.5 91.85 84.0 94.65 85.05 94.65 86.4 94.65 87.5 94.25 88.45 94.45 89.5 94.7 90.55 94.85 92.25 95.0 94.0 95.2 100.05 91.0 101.25 90.25 101.7 87.75 102.35 L79.3 104.1 78.1 104.3 76.4 104.6 75.65 104.7 70.05 105.15 67.75 105.15 67.65 105.15 66.3 105.15 Q65.3 105.1 64.25 105.05 55.8 104.7 51.2 103.25 50.25 102.95 49.25 102.6 L44.65 101.1 Q43.2 100.55 42.25 98.45 L42.25 98.35 Q41.3 96.3 41.3 93.1 L41.3 93.0"/>
    </path>
  </g>
</svg>
