<?xml version="1.0" encoding="UTF-8" standalone="no"?>
<svg xmlns:xlink="http://www.w3.org/1999/xlink" height="31.75px" width="55.1px" xmlns="http://www.w3.org/2000/svg">
  <g transform="matrix(1.0, 0.0, 0.0, 1.0, -41.3, -73.4)">
    <path d="M41.3 85.0 L41.3 85.0 41.3 85.2 Q41.3 88.0 41.75 90.95 L41.75 91.15 42.0 92.3 Q42.35 93.5 41.9 95.05 L41.7 95.75 Q43.45 96.45 42.2 99.15 L44.45 101.15 44.95 101.45 47.15 102.05 54.0 103.65 Q57.55 104.55 62.35 104.95 L62.35 104.95 63.85 105.0 66.5 105.1 66.5 105.1 69.6 105.05 70.8 105.0 72.7 104.95 72.9 104.95 73.0 104.95 73.6 104.9 73.8 104.9 75.5 104.75 75.75 104.75 76.85 104.65 77.2 104.65 78.0 104.55 Q86.7 103.15 89.8 102.0 L90.55 101.75 Q94.05 100.55 94.65 98.35 95.0 97.0 95.0 94.55 L95.0 93.35 Q94.8 90.85 94.65 88.35 L94.85 87.0 94.85 86.6 94.85 86.05 94.9 84.5 Q95.1 81.95 96.0 79.4 97.2 76.05 94.8 76.35 L93.25 76.55 91.15 76.85 89.8 76.9 89.25 76.25 88.05 75.65 Q86.1 75.05 83.05 74.6 L79.95 74.15 79.65 74.15 75.1 73.6 72.35 73.5 72.15 73.5 71.95 73.45 71.8 73.45 71.7 73.45 67.7 73.45 65.2 73.5 65.0 73.5 64.9 73.5 62.85 73.5 62.65 73.5 62.0 73.55 58.75 73.9 55.95 74.15 55.85 74.15 55.75 74.15 51.95 74.45 51.15 74.6 Q48.95 75.05 46.85 75.75 L45.05 76.45 Q43.65 77.15 42.7 76.95 42.0 76.8 41.7 77.3 L41.55 77.7 Q41.35 78.45 41.45 79.15 L41.5 79.45 41.7 80.35 Q41.25 82.45 41.3 85.0" fill="#e2faff" fill-rule="evenodd" stroke="none">
      <animate attributeName="fill" dur="2s" repeatCount="indefinite" values="#e2faff;#e2faff"/>
      <animate attributeName="fill-opacity" dur="2s" repeatCount="indefinite" values="1.0;1.0"/>
      <animate attributeName="d" dur="2s" repeatCount="indefinite" values="M41.3 85.0 L41.3 85.0 41.3 85.2 Q41.3 88.0 41.75 90.95 L41.75 91.15 42.0 92.3 Q42.35 93.5 41.9 95.05 L41.7 95.75 Q43.45 96.45 42.2 99.15 L44.45 101.15 44.95 101.45 47.15 102.05 54.0 103.65 Q57.55 104.55 62.35 104.95 L62.35 104.95 63.85 105.0 66.5 105.1 66.5 105.1 69.6 105.05 70.8 105.0 72.7 104.95 72.9 104.95 73.0 104.95 73.6 104.9 73.8 104.9 75.5 104.75 75.75 104.75 76.85 104.65 77.2 104.65 78.0 104.55 Q86.7 103.15 89.8 102.0 L90.55 101.75 Q94.05 100.55 94.65 98.35 95.0 97.0 95.0 94.55 L95.0 93.35 Q94.8 90.85 94.65 88.35 L94.85 87.0 94.85 86.6 94.85 86.05 94.9 84.5 Q95.1 81.95 96.0 79.4 97.2 76.05 94.8 76.35 L93.25 76.55 91.15 76.85 89.8 76.9 89.25 76.25 88.05 75.65 Q86.1 75.05 83.05 74.6 L79.95 74.15 79.65 74.15 75.1 73.6 72.35 73.5 72.15 73.5 71.95 73.45 71.8 73.45 71.7 73.45 67.7 73.45 65.2 73.5 65.0 73.5 64.9 73.5 62.85 73.5 62.65 73.5 62.0 73.55 58.75 73.9 55.95 74.15 55.85 74.15 55.75 74.15 51.95 74.45 51.15 74.6 Q48.95 75.05 46.85 75.75 L45.05 76.45 Q43.65 77.15 42.7 76.95 42.0 76.8 41.7 77.3 L41.55 77.7 Q41.35 78.45 41.45 79.15 L41.5 79.45 41.7 80.35 Q41.25 82.45 41.3 85.0;M41.3 93.0 L41.3 93.2 41.3 93.3 Q41.35 96.45 42.25 98.45 L42.25 98.45 42.8 99.45 Q43.6 100.7 44.65 101.1 L45.1 101.25 Q46.7 101.8 48.3 102.35 L50.75 103.15 51.2 103.25 53.15 103.8 59.1 104.7 Q62.7 104.95 66.3 105.15 L66.35 105.15 67.65 105.15 70.05 105.15 70.05 105.15 72.75 104.95 73.85 104.85 75.55 104.7 75.65 104.7 75.9 104.7 76.3 104.6 76.4 104.6 77.9 104.3 78.1 104.3 79.1 104.1 79.3 104.1 80.0 104.0 Q87.9 102.5 90.3 101.55 L91.0 101.25 Q93.45 100.55 94.4 98.2 94.95 96.9 95.0 95.05 L95.0 94.0 Q94.95 91.7 94.55 89.8 L94.25 88.45 94.35 88.15 94.5 87.75 94.65 86.4 Q94.65 85.0 91.55 83.9 89.9 83.4 88.25 82.95 L87.0 82.65 85.25 82.35 84.1 82.15 83.5 82.05 82.25 81.85 Q80.1 81.6 78.0 81.4 L75.25 81.25 74.85 81.25 70.8 80.9 68.35 80.85 68.25 80.85 68.05 80.85 68.05 80.85 67.95 80.85 64.35 80.95 62.2 81.15 62.0 81.15 61.9 81.15 60.15 81.4 59.95 81.4 59.75 81.4 56.9 81.65 54.4 81.95 54.3 81.95 54.2 81.95 50.95 82.45 50.15 82.65 Q48.15 83.2 46.15 83.7 L44.5 84.35 Q43.35 84.9 42.9 85.5 42.55 85.95 42.55 86.4 L42.55 86.8 Q42.35 87.4 42.2 88.0 L42.1 88.2 41.85 89.0 Q41.3 90.85 41.3 93.0"/>
    </path>
    <path d="M41.3 85.0 Q41.25 82.45 41.7 80.35 L41.5 79.45 41.45 79.15 Q41.35 78.45 41.55 77.7 L41.7 77.3 Q42.0 76.8 42.7 76.95 43.65 77.15 45.05 76.45 L46.85 75.75 Q48.95 75.05 51.15 74.6 L51.95 74.45 55.75 74.15 55.85 74.15 55.95 74.15 58.75 73.9 62.0 73.55 62.65 73.5 62.85 73.5 64.9 73.5 65.0 73.5 65.2 73.5 67.7 73.45 71.7 73.45 71.8 73.45 71.95 73.45 72.15 73.5 72.35 73.5 75.1 73.6 79.65 74.15 79.95 74.15 83.05 74.6 Q86.1 75.05 88.05 75.65 L89.25 76.25 89.8 76.9 91.15 76.85 93.25 76.55 94.8 76.35 Q97.2 76.05 96.0 79.4 95.1 81.95 94.9 84.5 L94.85 86.05 94.85 86.6 94.85 87.0 94.65 88.35 Q94.8 90.85 95.0 93.35 L95.0 94.55 Q95.0 97.0 94.65 98.35 94.05 100.55 90.55 101.75 L89.8 102.0 Q86.7 103.15 78.0 104.55 L77.2 104.65 76.85 104.65 75.75 104.75 75.5 104.75 73.8 104.9 73.6 104.9 73.0 104.95 72.9 104.95 72.7 104.95 70.8 105.0 69.6 105.05 66.5 105.1 66.5 105.1 63.85 105.0 62.35 104.95 62.35 104.95 Q57.55 104.55 54.0 103.65 L47.15 102.05 44.95 101.45 44.45 101.15 42.2 99.15 Q43.45 96.45 41.7 95.75 L41.9 95.05 Q42.35 93.5 42.0 92.3 L41.75 91.15 41.75 90.95 Q41.3 88.0 41.3 85.2 L41.3 85.0 41.3 85.0" fill="none" stroke="#000000" stroke-linecap="round" stroke-linejoin="round" stroke-opacity="0.0" stroke-width="1.0">
      <animate attributeName="stroke" dur="2s" repeatCount="indefinite" values="#000000;#000001"/>
      <animate attributeName="stroke-width" dur="2s" repeatCount="indefinite" values="0.0;0.0"/>
      <animate attributeName="fill-opacity" dur="2s" repeatCount="indefinite" values="0.0;0.0"/>
      <animate attributeName="d" dur="2s" repeatCount="indefinite" values="M41.3 85.0 Q41.25 82.45 41.7 80.35 L41.5 79.45 41.45 79.15 Q41.35 78.45 41.55 77.7 L41.7 77.3 Q42.0 76.8 42.7 76.95 43.65 77.15 45.05 76.45 L46.85 75.75 Q48.95 75.05 51.15 74.6 L51.95 74.45 55.75 74.15 55.85 74.15 55.95 74.15 58.75 73.9 62.0 73.55 62.65 73.5 62.85 73.5 64.9 73.5 65.0 73.5 65.2 73.5 67.7 73.45 71.7 73.45 71.8 73.45 71.95 73.45 72.15 73.5 72.35 73.5 75.1 73.6 79.65 74.15 79.95 74.15 83.05 74.6 Q86.1 75.05 88.05 75.65 L89.25 76.25 89.8 76.9 91.15 76.85 93.25 76.55 94.8 76.35 Q97.2 76.05 96.0 79.4 95.1 81.95 94.9 84.5 L94.85 86.05 94.85 86.6 94.85 87.0 94.65 88.35 Q94.8 90.85 95.0 93.35 L95.0 94.55 Q95.0 97.0 94.65 98.35 94.05 100.55 90.55 101.75 L89.8 102.0 Q86.7 103.15 78.0 104.55 L77.2 104.65 76.85 104.65 75.75 104.75 75.5 104.75 73.8 104.9 73.6 104.9 73.0 104.95 72.9 104.95 72.7 104.95 70.8 105.0 69.6 105.05 66.5 105.1 66.5 105.1 63.85 105.0 62.35 104.95 62.35 104.95 Q57.55 104.55 54.0 103.65 L47.15 102.05 44.95 101.45 44.45 101.15 42.2 99.15 Q43.45 96.45 41.7 95.75 L41.9 95.05 Q42.35 93.5 42.0 92.3 L41.75 91.15 41.75 90.95 Q41.3 88.0 41.3 85.2 L41.3 85.0 41.3 85.0;M41.3 93.0 Q41.3 90.85 41.85 89.0 L42.1 88.2 42.2 88.0 Q42.35 87.4 42.55 86.8 L42.55 86.4 Q42.55 85.95 42.9 85.5 43.35 84.9 44.5 84.35 L46.15 83.7 Q48.15 83.2 50.15 82.65 L50.95 82.45 54.2 81.95 54.3 81.95 54.4 81.95 56.9 81.65 59.75 81.4 59.95 81.4 60.15 81.4 61.9 81.15 62.0 81.15 62.2 81.15 64.35 80.95 67.95 80.85 68.05 80.85 68.05 80.85 68.25 80.85 68.35 80.85 70.8 80.9 74.85 81.25 75.25 81.25 78.0 81.4 Q80.1 81.6 82.25 81.85 L83.5 82.05 84.1 82.15 85.25 82.35 87.0 82.65 88.25 82.95 Q89.9 83.4 91.55 83.9 94.65 85.0 94.65 86.4 L94.5 87.75 94.35 88.15 94.25 88.45 94.55 89.8 Q94.95 91.7 95.0 94.0 L95.0 95.05 Q94.95 96.9 94.4 98.2 93.45 100.55 91.0 101.25 L90.3 101.55 Q87.9 102.5 80.0 104.0 L79.3 104.1 79.1 104.1 78.1 104.3 77.9 104.3 76.4 104.6 76.3 104.6 75.9 104.7 75.65 104.7 75.55 104.7 73.85 104.85 72.75 104.95 70.05 105.15 70.05 105.15 67.65 105.15 66.35 105.15 66.3 105.15 Q62.7 104.95 59.1 104.7 L53.15 103.8 51.2 103.25 50.75 103.15 48.3 102.35 Q46.7 101.8 45.1 101.25 L44.65 101.1 Q43.6 100.7 42.8 99.45 L42.25 98.45 42.25 98.45 Q41.35 96.45 41.3 93.3 L41.3 93.2 41.3 93.0"/>
    </path>
  </g>
</svg>
