<?xml version="1.0" encoding="UTF-8" standalone="no"?>
<svg xmlns:xlink="http://www.w3.org/1999/xlink" height="68.4px" width="63.0px" xmlns="http://www.w3.org/2000/svg">
  <g transform="matrix(1.0, 0.0, 0.0, 1.0, -33.85, 85.6)">
    <path d="M33.95 -66.65 L34.25 -65.05 34.25 -65.0 Q36.35 -48.95 39.95 -37.15 41.3 -32.75 42.8 -28.9 L43.0 -28.5 Q45.5 -22.65 47.5 -20.05 L48.1 -19.3 48.2 -19.2 Q50.85 -15.85 56.7 -18.05 L57.1 -18.15 62.35 -20.9 62.75 -21.1 Q65.4 -25.6 78.3 -34.05 L78.5 -34.15 83.05 -37.1 90.55 -41.65 90.85 -41.8 Q86.55 -43.4 82.2 -56.45 L82.1 -56.75 Q76.25 -70.05 58.2 -72.65 L57.9 -72.65 39.95 -75.15 39.85 -75.15 Q34.6 -75.1 34.0 -70.1 33.7 -68.5 33.95 -66.65" fill="#e2f0f7" fill-rule="evenodd" stroke="none">
      <animate attributeName="fill" dur="2s" repeatCount="indefinite" values="#e2f0f7;#e2f0f8"/>
      <animate attributeName="fill-opacity" dur="2s" repeatCount="indefinite" values="1.0;1.0"/>
      <animate attributeName="d" dur="2s" repeatCount="indefinite" values="M33.95 -66.65 L34.25 -65.05 34.25 -65.0 Q36.35 -48.95 39.95 -37.15 41.3 -32.75 42.8 -28.9 L43.0 -28.5 Q45.5 -22.65 47.5 -20.05 L48.1 -19.3 48.2 -19.2 Q50.85 -15.85 56.7 -18.05 L57.1 -18.15 62.35 -20.9 62.75 -21.1 Q65.4 -25.6 78.3 -34.05 L78.5 -34.15 83.05 -37.1 90.55 -41.65 90.85 -41.8 Q86.55 -43.4 82.2 -56.45 L82.1 -56.75 Q76.25 -70.05 58.2 -72.65 L57.9 -72.65 39.95 -75.15 39.85 -75.15 Q34.6 -75.1 34.0 -70.1 33.7 -68.5 33.95 -66.65;M43.75 -77.9 L43.85 -76.3 43.85 -76.25 Q43.8 -59.85 45.8 -47.6 46.55 -42.95 47.65 -38.9 L47.85 -38.1 Q49.55 -32.0 51.25 -29.4 L51.55 -28.95 51.65 -28.85 Q53.85 -25.2 60.2 -26.75 L60.6 -26.85 66.2 -28.85 66.4 -29.15 Q69.9 -33.2 83.55 -39.75 L83.75 -39.85 88.55 -42.1 96.85 -45.65 96.65 -45.75 Q92.7 -48.2 90.2 -61.65 L90.1 -61.95 Q85.95 -75.7 68.35 -80.65 L68.15 -80.75 50.95 -85.5 50.85 -85.5 Q45.55 -86.2 44.3 -81.3 43.75 -79.75 43.75 -77.9"/>
    </path>
    <path d="M33.95 -66.65 Q33.7 -68.5 34.0 -70.1 34.6 -75.1 39.85 -75.15 L39.95 -75.15 57.9 -72.65 58.2 -72.65 Q76.25 -70.05 82.1 -56.75 L82.2 -56.45 Q86.55 -43.4 90.85 -41.8 L90.55 -41.65 83.05 -37.1 78.5 -34.15 78.3 -34.05 Q65.4 -25.6 62.75 -21.1 L62.35 -20.9 57.1 -18.15 56.7 -18.05 Q50.85 -15.85 48.2 -19.2 L48.1 -19.3 47.5 -20.05 Q45.5 -22.65 43.0 -28.5 L42.8 -28.9 Q41.3 -32.75 39.95 -37.15 36.35 -48.95 34.25 -65.0 L34.25 -65.05 33.95 -66.65" fill="none" stroke="#000000" stroke-linecap="round" stroke-linejoin="round" stroke-opacity="0.0" stroke-width="1.0">
      <animate attributeName="stroke" dur="2s" repeatCount="indefinite" values="#000000;#000001"/>
      <animate attributeName="stroke-width" dur="2s" repeatCount="indefinite" values="0.0;0.0"/>
      <animate attributeName="fill-opacity" dur="2s" repeatCount="indefinite" values="0.0;0.0"/>
      <animate attributeName="d" dur="2s" repeatCount="indefinite" values="M33.95 -66.65 Q33.7 -68.5 34.0 -70.1 34.6 -75.1 39.85 -75.15 L39.95 -75.15 57.9 -72.65 58.2 -72.65 Q76.25 -70.05 82.1 -56.75 L82.2 -56.45 Q86.55 -43.4 90.85 -41.8 L90.55 -41.65 83.05 -37.1 78.5 -34.15 78.3 -34.05 Q65.4 -25.6 62.75 -21.1 L62.35 -20.9 57.1 -18.15 56.7 -18.05 Q50.85 -15.85 48.2 -19.2 L48.1 -19.3 47.5 -20.05 Q45.5 -22.65 43.0 -28.5 L42.8 -28.9 Q41.3 -32.75 39.95 -37.15 36.35 -48.95 34.25 -65.0 L34.25 -65.05 33.95 -66.65;M43.75 -77.9 Q43.75 -79.75 44.3 -81.3 45.55 -86.2 50.85 -85.5 L50.95 -85.5 68.15 -80.75 68.35 -80.65 Q85.95 -75.7 90.1 -61.95 L90.2 -61.65 Q92.7 -48.2 96.65 -45.75 L96.85 -45.65 88.55 -42.1 83.75 -39.85 83.55 -39.75 Q69.9 -33.2 66.4 -29.15 L66.2 -28.85 60.6 -26.85 60.2 -26.75 Q53.85 -25.2 51.65 -28.85 L51.55 -28.95 51.25 -29.4 Q49.55 -32.0 47.85 -38.1 L47.65 -38.9 Q46.55 -42.95 45.8 -47.6 43.8 -59.85 43.85 -76.25 L43.85 -76.3 43.75 -77.9"/>
    </path>
  </g>
</svg>
