<?xml version="1.0" encoding="UTF-8" standalone="no"?>
<svg xmlns:xlink="http://www.w3.org/1999/xlink" height="67.85px" width="90.4px" xmlns="http://www.w3.org/2000/svg">
  <g transform="matrix(1.0, 0.0, 0.0, 1.0, -48.05, 98.55)">
    <path d="M48.1 -60.65 L48.3 -55.85 Q48.45 -53.7 48.55 -51.6 48.95 -47.25 49.6 -43.4 L49.8 -42.3 50.75 -37.85 Q52.0 -33.0 53.5 -31.65 56.3 -29.3 64.2 -32.7 L67.0 -34.0 68.65 -34.85 Q72.9 -37.2 77.15 -39.5 81.35 -41.65 83.05 -41.35 87.4 -43.2 91.7 -45.0 100.75 -48.65 102.05 -48.35 104.15 -47.95 102.65 -50.35 100.95 -53.0 96.25 -55.5 94.0 -56.7 92.9 -59.6 91.75 -62.55 86.9 -67.25 83.45 -70.6 84.6 -69.9 85.45 -69.25 86.3 -68.6 88.15 -67.1 88.75 -66.85 89.55 -66.55 88.25 -68.3 85.9 -71.4 80.15 -74.4 74.4 -77.45 75.5 -78.4 L80.65 -79.55 Q76.05 -82.25 70.3 -84.7 L69.1 -85.2 Q63.8 -87.35 59.9 -88.0 58.4 -88.15 56.95 -88.25 L55.55 -88.2 53.6 -87.8 Q50.65 -86.8 49.2 -78.6 47.9 -71.35 48.1 -60.65" fill="#e2f0f7" fill-rule="evenodd" stroke="none">
      <animate attributeName="fill" dur="2s" repeatCount="indefinite" values="#e2f0f7;#e2f0f8"/>
      <animate attributeName="fill-opacity" dur="2s" repeatCount="indefinite" values="1.0;1.0"/>
      <animate attributeName="d" dur="2s" repeatCount="indefinite" values="M48.1 -60.65 L48.3 -55.85 Q48.45 -53.7 48.55 -51.6 48.95 -47.25 49.6 -43.4 L49.8 -42.3 50.75 -37.85 Q52.0 -33.0 53.5 -31.65 56.3 -29.3 64.2 -32.7 L67.0 -34.0 68.65 -34.85 Q72.9 -37.2 77.15 -39.5 81.35 -41.65 83.05 -41.35 87.4 -43.2 91.7 -45.0 100.75 -48.65 102.05 -48.35 104.15 -47.95 102.65 -50.35 100.95 -53.0 96.25 -55.5 94.0 -56.7 92.9 -59.6 91.75 -62.55 86.9 -67.25 83.45 -70.6 84.6 -69.9 85.45 -69.25 86.3 -68.6 88.15 -67.1 88.75 -66.85 89.55 -66.55 88.25 -68.3 85.9 -71.4 80.15 -74.4 74.4 -77.45 75.5 -78.4 L80.65 -79.55 Q76.05 -82.25 70.3 -84.7 L69.1 -85.2 Q63.8 -87.35 59.9 -88.0 58.4 -88.15 56.95 -88.25 L55.55 -88.2 53.6 -87.8 Q50.65 -86.8 49.2 -78.6 47.9 -71.35 48.1 -60.65;M56.05 -55.6 L56.45 -50.0 Q56.85 -46.75 57.65 -44.95 58.95 -41.0 65.6 -41.05 L66.9 -41.25 72.05 -41.95 Q73.85 -43.35 78.85 -45.4 83.7 -47.4 91.55 -50.0 L95.25 -51.2 97.35 -51.85 Q102.7 -53.4 108.45 -54.1 112.0 -54.4 115.5 -54.65 120.9 -54.85 126.6 -54.4 132.55 -53.6 138.45 -52.8 136.5 -53.25 134.55 -53.7 129.5 -54.9 124.5 -56.1 121.35 -56.9 118.25 -57.7 110.8 -59.7 106.3 -61.35 103.35 -62.4 101.7 -63.35 99.7 -61.95 99.05 -62.2 98.35 -62.5 99.4 -64.85 99.65 -65.45 99.2 -66.3 97.9 -69.0 90.2 -74.3 87.1 -76.3 84.05 -78.3 L78.75 -81.55 Q72.95 -84.9 67.15 -88.25 L65.8 -89.0 Q64.55 -101.85 62.15 -97.45 61.45 -96.05 61.0 -94.15 L60.75 -92.6 60.25 -90.6 Q58.65 -83.6 57.65 -77.35 55.65 -65.05 56.05 -55.6"/>
    </path>
    <path d="M48.1 -60.65 Q47.9 -71.35 49.2 -78.6 50.65 -86.8 53.6 -87.8 L55.55 -88.2 56.95 -88.25 Q58.4 -88.15 59.9 -88.0 63.8 -87.35 69.1 -85.2 L70.3 -84.7 Q76.05 -82.25 80.65 -79.55 L75.5 -78.4 Q74.4 -77.45 80.15 -74.4 85.9 -71.4 88.25 -68.3 89.55 -66.55 88.75 -66.85 88.15 -67.1 86.3 -68.6 85.45 -69.25 84.6 -69.9 83.45 -70.6 86.9 -67.25 91.75 -62.55 92.9 -59.6 94.0 -56.7 96.25 -55.5 100.95 -53.0 102.65 -50.35 104.15 -47.95 102.05 -48.35 100.75 -48.65 91.7 -45.0 87.4 -43.2 83.05 -41.35 81.35 -41.65 77.15 -39.5 72.9 -37.2 68.65 -34.85 L67.0 -34.0 64.2 -32.7 Q56.3 -29.3 53.5 -31.65 52.0 -33.0 50.75 -37.85 L49.8 -42.3 49.6 -43.4 Q48.95 -47.25 48.55 -51.6 48.45 -53.7 48.3 -55.85 L48.1 -60.65" fill="none" stroke="#000000" stroke-linecap="round" stroke-linejoin="round" stroke-opacity="0.0" stroke-width="1.0">
      <animate attributeName="stroke" dur="2s" repeatCount="indefinite" values="#000000;#000001"/>
      <animate attributeName="stroke-width" dur="2s" repeatCount="indefinite" values="0.0;0.0"/>
      <animate attributeName="fill-opacity" dur="2s" repeatCount="indefinite" values="0.0;0.0"/>
      <animate attributeName="d" dur="2s" repeatCount="indefinite" values="M48.1 -60.65 Q47.9 -71.35 49.2 -78.6 50.65 -86.8 53.6 -87.8 L55.55 -88.2 56.95 -88.25 Q58.4 -88.15 59.9 -88.0 63.8 -87.35 69.1 -85.2 L70.3 -84.7 Q76.05 -82.25 80.65 -79.55 L75.5 -78.4 Q74.4 -77.45 80.15 -74.4 85.9 -71.4 88.25 -68.3 89.55 -66.55 88.75 -66.85 88.15 -67.1 86.3 -68.6 85.45 -69.25 84.6 -69.9 83.45 -70.6 86.9 -67.25 91.75 -62.55 92.9 -59.6 94.0 -56.7 96.25 -55.5 100.95 -53.0 102.65 -50.35 104.15 -47.95 102.05 -48.35 100.75 -48.65 91.7 -45.0 87.4 -43.2 83.05 -41.35 81.35 -41.65 77.15 -39.5 72.9 -37.2 68.65 -34.85 L67.0 -34.0 64.2 -32.7 Q56.3 -29.3 53.5 -31.65 52.0 -33.0 50.75 -37.85 L49.8 -42.3 49.6 -43.4 Q48.95 -47.25 48.55 -51.6 48.45 -53.7 48.3 -55.85 L48.1 -60.65;M56.05 -55.6 Q55.65 -65.05 57.65 -77.35 58.65 -83.6 60.25 -90.6 L60.75 -92.6 61.0 -94.15 Q61.45 -96.05 62.15 -97.45 64.55 -101.85 65.8 -89.0 L67.15 -88.25 Q72.95 -84.9 78.75 -81.55 L84.05 -78.3 Q87.1 -76.3 90.2 -74.3 97.9 -69.0 99.2 -66.3 99.65 -65.45 99.4 -64.85 98.35 -62.5 99.05 -62.2 99.7 -61.95 101.7 -63.35 103.35 -62.4 106.3 -61.35 110.8 -59.7 118.25 -57.7 121.35 -56.9 124.5 -56.1 129.5 -54.9 134.55 -53.7 136.5 -53.25 138.45 -52.8 132.55 -53.6 126.6 -54.4 120.9 -54.85 115.5 -54.65 112.0 -54.4 108.45 -54.1 102.7 -53.4 97.35 -51.85 L95.25 -51.2 91.55 -50.0 Q83.7 -47.4 78.85 -45.4 73.85 -43.35 72.05 -41.95 L66.9 -41.25 65.6 -41.05 Q58.95 -41.0 57.65 -44.95 56.85 -46.75 56.45 -50.0 L56.05 -55.6"/>
    </path>
  </g>
</svg>
