<?xml version="1.0" encoding="UTF-8" standalone="no"?>
<svg xmlns:xlink="http://www.w3.org/1999/xlink" height="66.05px" width="87.45px" xmlns="http://www.w3.org/2000/svg">
  <g transform="matrix(1.0, 0.0, 0.0, 1.0, -56.0, 107.1)">
    <path d="M56.05 -55.6 L56.05 -55.6 Q56.25 -52.8 56.45 -50.0 56.85 -46.85 57.65 -45.05 L57.65 -44.95 Q58.9 -41.1 65.3 -41.05 L65.6 -41.05 71.7 -41.95 72.05 -41.95 Q75.65 -44.75 91.55 -50.0 L95.25 -51.2 Q114.25 -57.35 138.65 -52.8 L138.15 -52.9 Q108.7 -59.45 101.7 -63.35 L101.0 -62.9 Q97.6 -60.8 99.4 -64.85 L99.45 -65.5 Q99.0 -70.6 65.8 -89.0 L65.8 -89.4 Q64.5 -101.75 62.15 -97.45 L62.05 -97.15 Q61.4 -95.85 61.0 -94.15 L61.0 -93.9 60.75 -92.6 60.65 -92.3 Q55.45 -70.4 56.05 -55.6" fill="#e2f0f7" fill-rule="evenodd" stroke="none">
      <animate attributeName="fill" dur="2s" repeatCount="indefinite" values="#e2f0f7;#e2f0f8"/>
      <animate attributeName="fill-opacity" dur="2s" repeatCount="indefinite" values="1.0;1.0"/>
      <animate attributeName="d" dur="2s" repeatCount="indefinite" values="M56.05 -55.6 L56.05 -55.6 Q56.25 -52.8 56.45 -50.0 56.85 -46.85 57.65 -45.05 L57.65 -44.95 Q58.9 -41.1 65.3 -41.05 L65.6 -41.05 71.7 -41.95 72.05 -41.95 Q75.65 -44.75 91.55 -50.0 L95.25 -51.2 Q114.25 -57.35 138.65 -52.8 L138.15 -52.9 Q108.7 -59.45 101.7 -63.35 L101.0 -62.9 Q97.6 -60.8 99.4 -64.85 L99.45 -65.5 Q99.0 -70.6 65.8 -89.0 L65.8 -89.4 Q64.5 -101.75 62.15 -97.45 L62.05 -97.15 Q61.4 -95.85 61.0 -94.15 L61.0 -93.9 60.75 -92.6 60.65 -92.3 Q55.45 -70.4 56.05 -55.6;M61.45 -65.35 L61.45 -65.3 Q61.15 -62.15 61.15 -59.7 61.15 -56.4 61.7 -54.55 L61.7 -54.45 Q62.65 -50.5 69.15 -49.75 L69.45 -49.75 75.65 -49.85 75.85 -49.95 Q80.1 -52.25 96.15 -55.45 L99.8 -56.15 Q119.4 -59.95 143.05 -52.5 L143.45 -52.4 Q115.7 -62.15 108.45 -67.0 L107.7 -67.5 Q103.5 -65.25 105.25 -68.65 L105.6 -69.2 Q107.95 -73.5 75.45 -97.1 L75.15 -97.3 Q75.5 -109.85 72.8 -106.35 L72.6 -106.15 Q71.8 -104.95 71.15 -103.2 L71.05 -103.0 70.7 -101.75 70.6 -101.45 Q62.65 -80.2 61.45 -65.35"/>
    </path>
    <path d="M56.05 -55.6 Q55.45 -70.4 60.65 -92.3 L60.75 -92.6 61.0 -93.9 61.0 -94.15 Q61.4 -95.85 62.05 -97.15 L62.15 -97.45 Q64.5 -101.75 65.8 -89.4 L65.8 -89.0 Q99.0 -70.6 99.45 -65.5 L99.4 -64.85 Q97.6 -60.8 101.0 -62.9 L101.7 -63.35 Q108.7 -59.45 138.15 -52.9 L138.65 -52.8 Q114.25 -57.35 95.25 -51.2 L91.55 -50.0 Q75.65 -44.75 72.05 -41.95 L71.7 -41.95 65.6 -41.05 65.3 -41.05 Q58.9 -41.1 57.65 -44.95 L57.65 -45.05 Q56.85 -46.85 56.45 -50.0 56.25 -52.8 56.05 -55.6 L56.05 -55.6" fill="none" stroke="#000000" stroke-linecap="round" stroke-linejoin="round" stroke-opacity="0.0" stroke-width="1.0">
      <animate attributeName="stroke" dur="2s" repeatCount="indefinite" values="#000000;#000001"/>
      <animate attributeName="stroke-width" dur="2s" repeatCount="indefinite" values="0.0;0.0"/>
      <animate attributeName="fill-opacity" dur="2s" repeatCount="indefinite" values="0.0;0.0"/>
      <animate attributeName="d" dur="2s" repeatCount="indefinite" values="M56.05 -55.6 Q55.45 -70.4 60.65 -92.3 L60.75 -92.6 61.0 -93.9 61.0 -94.15 Q61.4 -95.85 62.05 -97.15 L62.15 -97.45 Q64.5 -101.75 65.8 -89.4 L65.8 -89.0 Q99.0 -70.6 99.45 -65.5 L99.4 -64.85 Q97.6 -60.8 101.0 -62.9 L101.7 -63.35 Q108.7 -59.45 138.15 -52.9 L138.65 -52.8 Q114.25 -57.35 95.25 -51.2 L91.55 -50.0 Q75.65 -44.75 72.05 -41.95 L71.7 -41.95 65.6 -41.05 65.3 -41.05 Q58.9 -41.1 57.65 -44.95 L57.65 -45.05 Q56.85 -46.85 56.45 -50.0 56.25 -52.8 56.05 -55.6 L56.05 -55.6;M61.45 -65.35 Q62.65 -80.2 70.6 -101.45 L70.7 -101.75 71.05 -103.0 71.15 -103.2 Q71.8 -104.95 72.6 -106.15 L72.8 -106.35 Q75.5 -109.85 75.15 -97.3 L75.45 -97.1 Q107.95 -73.5 105.6 -69.2 L105.25 -68.65 Q103.5 -65.25 107.7 -67.5 L108.45 -67.0 Q115.7 -62.15 143.45 -52.4 L143.05 -52.5 Q119.4 -59.95 99.8 -56.15 L96.15 -55.45 Q80.1 -52.25 75.85 -49.95 L75.65 -49.85 69.45 -49.75 69.15 -49.75 Q62.65 -50.5 61.7 -54.45 L61.7 -54.55 Q61.15 -56.4 61.15 -59.7 61.15 -62.15 61.45 -65.3 L61.45 -65.35"/>
    </path>
  </g>
</svg>
