<?xml version="1.0" encoding="UTF-8" standalone="no"?>
<svg xmlns:xlink="http://www.w3.org/1999/xlink" height="90.65px" width="127.15px" xmlns="http://www.w3.org/2000/svg">
  <g transform="matrix(1.0, 0.0, 0.0, 1.0, -63.1, 82.4)">
    <path d="M63.55 -68.95 L63.55 -68.95 Q62.85 -63.35 63.2 -60.1 63.3 -59.0 63.55 -58.15 63.75 -57.0 64.4 -56.1 65.4 -54.75 67.4 -53.95 68.85 -53.4 70.8 -53.1 L72.8 -53.1 Q75.05 -53.05 77.3 -53.05 77.05 -54.75 81.2 -56.1 87.65 -58.25 104.7 -59.65 110.1 -60.05 115.5 -60.4 131.4 -61.35 143.85 -56.1 161.85 -48.5 172.7 -27.9 171.85 -32.25 170.1 -36.2 164.1 -49.45 147.85 -57.95 133.1 -65.75 109.9 -69.65 105.25 -67.4 107.8 -71.5 109.2 -73.8 100.55 -77.4 L93.0 -78.5 Q91.55 -78.7 90.1 -78.9 L89.4 -79.0 66.2 -82.4 Q64.45 -75.8 63.7 -70.05 L63.55 -68.95" fill="#e2f0f7" fill-rule="evenodd" stroke="none">
      <animate attributeName="fill" dur="2s" repeatCount="indefinite" values="#e2f0f7;#e2f0f8"/>
      <animate attributeName="fill-opacity" dur="2s" repeatCount="indefinite" values="1.0;1.0"/>
      <animate attributeName="d" dur="2s" repeatCount="indefinite" values="M63.55 -68.95 L63.55 -68.95 Q62.85 -63.35 63.2 -60.1 63.3 -59.0 63.55 -58.15 63.75 -57.0 64.4 -56.1 65.4 -54.75 67.4 -53.95 68.85 -53.4 70.8 -53.1 L72.8 -53.1 Q75.05 -53.05 77.3 -53.05 77.05 -54.75 81.2 -56.1 87.65 -58.25 104.7 -59.65 110.1 -60.05 115.5 -60.4 131.4 -61.35 143.85 -56.1 161.85 -48.5 172.7 -27.9 171.85 -32.25 170.1 -36.2 164.1 -49.45 147.85 -57.95 133.1 -65.75 109.9 -69.65 105.25 -67.4 107.8 -71.5 109.2 -73.8 100.55 -77.4 L93.0 -78.5 Q91.55 -78.7 90.1 -78.9 L89.4 -79.0 66.2 -82.4 Q64.45 -75.8 63.7 -70.05 L63.55 -68.95;M65.85 -70.05 L65.85 -69.95 Q64.9 -62.6 65.85 -59.25 66.05 -58.1 66.75 -57.2 67.55 -56.1 69.0 -55.35 70.65 -54.55 73.1 -54.2 75.15 -54.15 77.2 -54.15 L79.6 -54.15 Q79.4 -55.75 83.05 -57.05 85.35 -57.9 89.2 -58.6 98.75 -60.35 117.8 -61.5 124.25 -61.9 130.55 -60.25 145.15 -56.4 159.0 -41.5 172.75 -26.7 185.75 -1.0 188.0 3.65 190.25 8.25 183.75 -12.5 174.2 -27.9 160.1 -50.6 139.35 -61.7 136.2 -63.2 133.1 -64.7 127.3 -67.2 121.05 -68.85 L112.2 -70.75 Q108.9 -69.15 109.25 -70.75 L109.5 -71.5 81.1 -71.5 Q73.55 -71.5 66.05 -71.5 L65.85 -70.05"/>
    </path>
    <path d="M63.55 -68.95 L63.7 -70.05 Q64.45 -75.8 66.2 -82.4 L89.4 -79.0 90.1 -78.9 Q91.55 -78.7 93.0 -78.5 L100.55 -77.4 Q109.2 -73.8 107.8 -71.5 105.25 -67.4 109.9 -69.65 133.1 -65.75 147.85 -57.95 164.1 -49.45 170.1 -36.2 171.85 -32.25 172.7 -27.9 161.85 -48.5 143.85 -56.1 131.4 -61.35 115.5 -60.4 110.1 -60.05 104.7 -59.65 87.65 -58.25 81.2 -56.1 77.05 -54.75 77.3 -53.05 75.05 -53.05 72.8 -53.1 L70.8 -53.1 Q68.85 -53.4 67.4 -53.95 65.4 -54.75 64.4 -56.1 63.75 -57.0 63.55 -58.15 63.3 -59.0 63.2 -60.1 62.85 -63.35 63.55 -68.95 L63.55 -68.95" fill="none" stroke="#000000" stroke-linecap="round" stroke-linejoin="round" stroke-opacity="0.0" stroke-width="1.0">
      <animate attributeName="stroke" dur="2s" repeatCount="indefinite" values="#000000;#000001"/>
      <animate attributeName="stroke-width" dur="2s" repeatCount="indefinite" values="0.0;0.0"/>
      <animate attributeName="fill-opacity" dur="2s" repeatCount="indefinite" values="0.0;0.0"/>
      <animate attributeName="d" dur="2s" repeatCount="indefinite" values="M63.55 -68.95 L63.7 -70.05 Q64.45 -75.8 66.2 -82.4 L89.4 -79.0 90.1 -78.9 Q91.55 -78.7 93.0 -78.5 L100.55 -77.4 Q109.2 -73.8 107.8 -71.5 105.25 -67.4 109.9 -69.65 133.1 -65.75 147.85 -57.95 164.1 -49.45 170.1 -36.2 171.85 -32.25 172.7 -27.9 161.85 -48.5 143.85 -56.1 131.4 -61.35 115.5 -60.4 110.1 -60.05 104.7 -59.65 87.65 -58.25 81.2 -56.1 77.05 -54.75 77.3 -53.05 75.05 -53.05 72.8 -53.1 L70.8 -53.1 Q68.85 -53.4 67.4 -53.95 65.4 -54.75 64.4 -56.1 63.75 -57.0 63.55 -58.15 63.3 -59.0 63.2 -60.1 62.85 -63.35 63.55 -68.95 L63.55 -68.95;M65.85 -70.05 L66.05 -71.5 Q73.55 -71.5 81.1 -71.5 L109.5 -71.5 109.25 -70.75 Q108.9 -69.15 112.2 -70.75 L121.05 -68.85 Q127.3 -67.2 133.1 -64.7 136.2 -63.2 139.35 -61.7 160.1 -50.6 174.2 -27.9 183.75 -12.5 190.25 8.25 188.0 3.65 185.75 -1.0 172.75 -26.7 159.0 -41.5 145.15 -56.4 130.55 -60.25 124.25 -61.9 117.8 -61.5 98.75 -60.35 89.2 -58.6 85.35 -57.9 83.05 -57.05 79.4 -55.75 79.6 -54.15 L77.2 -54.15 Q75.15 -54.15 73.1 -54.2 70.65 -54.55 69.0 -55.35 67.55 -56.1 66.75 -57.2 66.05 -58.1 65.85 -59.25 64.9 -62.6 65.85 -69.95 L65.85 -70.05"/>
    </path>
  </g>
</svg>
