<?xml version="1.0" encoding="UTF-8" standalone="no"?>
<svg xmlns:xlink="http://www.w3.org/1999/xlink" height="79.75px" width="125.4px" xmlns="http://www.w3.org/2000/svg">
  <g transform="matrix(1.0, 0.0, 0.0, 1.0, -64.85, 71.5)">
    <path d="M65.85 -70.05 L65.85 -70.05 Q65.6 -67.5 65.4 -65.0 65.25 -61.35 65.85 -59.25 66.2 -57.1 68.15 -55.8 69.95 -54.65 73.1 -54.2 L74.4 -54.2 Q77.0 -54.15 79.6 -54.15 79.15 -57.3 94.0 -59.4 L113.0 -61.2 117.8 -61.5 Q156.0 -63.8 189.15 5.95 L190.25 8.25 Q171.95 -50.25 129.2 -66.25 121.15 -69.25 112.2 -70.75 108.9 -69.15 109.25 -70.75 L109.5 -71.5 66.05 -71.5 65.85 -70.05" fill="#e2f0f7" fill-rule="evenodd" stroke="none">
      <animate attributeName="fill" dur="2s" repeatCount="indefinite" values="#e2f0f7;#e2f0f8"/>
      <animate attributeName="fill-opacity" dur="2s" repeatCount="indefinite" values="1.0;1.0"/>
      <animate attributeName="d" dur="2s" repeatCount="indefinite" values="M65.85 -70.05 L65.85 -70.05 Q65.6 -67.5 65.4 -65.0 65.25 -61.35 65.85 -59.25 66.2 -57.1 68.15 -55.8 69.95 -54.65 73.1 -54.2 L74.4 -54.2 Q77.0 -54.15 79.6 -54.15 79.15 -57.3 94.0 -59.4 L113.0 -61.2 117.8 -61.5 Q156.0 -63.8 189.15 5.95 L190.25 8.25 Q171.95 -50.25 129.2 -66.25 121.15 -69.25 112.2 -70.75 108.9 -69.15 109.25 -70.75 L109.5 -71.5 66.05 -71.5 65.85 -70.05;M64.85 -64.3 L64.85 -64.2 Q64.75 -61.15 65.3 -59.3 65.75 -56.65 68.65 -55.3 70.25 -54.6 72.55 -54.25 75.2 -54.2 77.85 -54.2 L79.05 -54.2 Q78.85 -55.75 82.35 -57.05 87.0 -58.75 98.2 -60.0 L117.25 -61.55 122.2 -61.55 Q158.25 -59.3 189.7 8.2 L189.35 5.65 Q181.9 -42.9 130.45 -64.3 121.75 -64.3 113.05 -64.3 111.35 -64.3 109.65 -64.3 L108.75 -64.3 66.25 -64.3 64.85 -64.3"/>
    </path>
    <path d="M65.85 -70.05 L66.05 -71.5 109.5 -71.5 109.25 -70.75 Q108.9 -69.15 112.2 -70.75 121.15 -69.25 129.2 -66.25 171.95 -50.25 190.25 8.25 L189.15 5.95 Q156.0 -63.8 117.8 -61.5 L113.0 -61.2 94.0 -59.4 Q79.15 -57.3 79.6 -54.15 77.0 -54.15 74.4 -54.2 L73.1 -54.2 Q69.95 -54.65 68.15 -55.8 66.2 -57.1 65.85 -59.25 65.25 -61.35 65.4 -65.0 65.6 -67.5 65.85 -70.05 L65.85 -70.05" fill="none" stroke="#000000" stroke-linecap="round" stroke-linejoin="round" stroke-opacity="0.0" stroke-width="1.0">
      <animate attributeName="stroke" dur="2s" repeatCount="indefinite" values="#000000;#000001"/>
      <animate attributeName="stroke-width" dur="2s" repeatCount="indefinite" values="0.0;0.0"/>
      <animate attributeName="fill-opacity" dur="2s" repeatCount="indefinite" values="0.0;0.0"/>
      <animate attributeName="d" dur="2s" repeatCount="indefinite" values="M65.85 -70.05 L66.05 -71.5 109.5 -71.5 109.25 -70.75 Q108.9 -69.15 112.2 -70.75 121.15 -69.25 129.2 -66.25 171.95 -50.25 190.25 8.25 L189.15 5.95 Q156.0 -63.8 117.8 -61.5 L113.0 -61.2 94.0 -59.4 Q79.15 -57.3 79.6 -54.15 77.0 -54.15 74.4 -54.2 L73.1 -54.2 Q69.95 -54.65 68.15 -55.8 66.2 -57.1 65.85 -59.25 65.25 -61.35 65.4 -65.0 65.6 -67.5 65.85 -70.05 L65.85 -70.05;M64.85 -64.3 L66.25 -64.3 108.75 -64.3 109.65 -64.3 Q111.35 -64.3 113.05 -64.3 121.75 -64.3 130.45 -64.3 181.9 -42.9 189.35 5.65 L189.7 8.2 Q158.25 -59.3 122.2 -61.55 L117.25 -61.55 98.2 -60.0 Q87.0 -58.75 82.35 -57.05 78.85 -55.75 79.05 -54.2 L77.85 -54.2 Q75.2 -54.2 72.55 -54.25 70.25 -54.6 68.65 -55.3 65.75 -56.65 65.3 -59.3 64.75 -61.15 64.85 -64.2 L64.85 -64.3"/>
    </path>
  </g>
</svg>
