<?xml version="1.0" encoding="UTF-8" standalone="no"?>
<svg xmlns:xlink="http://www.w3.org/1999/xlink" height="72.7px" width="125.2px" xmlns="http://www.w3.org/2000/svg">
  <g transform="matrix(1.0, 0.0, 0.0, 1.0, -64.85, 64.5)">
    <path d="M64.85 -64.3 L64.85 -64.1 Q64.8 -62.35 65.0 -61.0 65.15 -60.15 65.3 -59.3 65.7 -57.15 67.7 -55.85 69.15 -54.9 71.5 -54.45 72.05 -54.35 72.55 -54.25 75.0 -54.2 77.45 -54.2 L79.05 -54.2 Q78.9 -55.3 80.6 -56.25 82.7 -57.4 87.5 -58.4 92.85 -59.2 98.2 -60.0 L105.6 -60.75 108.05 -60.95 109.45 -61.05 109.65 -61.05 112.5 -61.25 112.8 -61.25 117.25 -61.55 122.35 -61.55 Q157.15 -59.25 187.7 4.05 L189.7 8.2 Q183.25 -42.2 130.75 -64.2 L130.45 -64.3 77.55 -64.3 74.75 -64.3 64.85 -64.3" fill="#e2f0f7" fill-rule="evenodd" stroke="none">
      <animate attributeName="fill" dur="2s" repeatCount="indefinite" values="#e2f0f7;#e2f0f8"/>
      <animate attributeName="fill-opacity" dur="2s" repeatCount="indefinite" values="1.0;1.0"/>
      <animate attributeName="d" dur="2s" repeatCount="indefinite" values="M64.85 -64.3 L64.85 -64.1 Q64.8 -62.35 65.0 -61.0 65.15 -60.15 65.3 -59.3 65.7 -57.15 67.7 -55.85 69.15 -54.9 71.5 -54.45 72.05 -54.35 72.55 -54.25 75.0 -54.2 77.45 -54.2 L79.05 -54.2 Q78.9 -55.3 80.6 -56.25 82.7 -57.4 87.5 -58.4 92.85 -59.2 98.2 -60.0 L105.6 -60.75 108.05 -60.95 109.45 -61.05 109.65 -61.05 112.5 -61.25 112.8 -61.25 117.25 -61.55 122.35 -61.55 Q157.15 -59.25 187.7 4.05 L189.7 8.2 Q183.25 -42.2 130.75 -64.2 L130.45 -64.3 77.55 -64.3 74.75 -64.3 64.85 -64.3;M71.9 -61.45 L71.9 -61.45 Q71.9 -59.65 72.25 -58.55 72.45 -57.7 73.1 -57.1 74.25 -56.05 76.85 -55.75 78.9 -55.8 80.9 -55.8 80.9 -56.25 81.35 -56.7 82.35 -57.65 85.55 -58.45 L86.8 -57.65 Q88.05 -57.1 89.85 -56.85 93.5 -56.8 97.15 -56.8 99.15 -58.1 107.1 -58.85 L114.1 -59.35 116.5 -59.2 117.9 -58.65 118.15 -58.7 120.85 -58.8 120.5 -58.95 124.9 -58.6 130.05 -58.0 Q164.75 -54.55 190.05 8.0 L189.45 3.45 Q181.75 -45.6 130.8 -64.5 L130.5 -64.5 79.55 -63.25 81.5 -61.6 71.9 -61.45"/>
    </path>
    <path d="M64.85 -64.3 L74.75 -64.3 77.55 -64.3 130.45 -64.3 130.75 -64.2 Q183.25 -42.2 189.7 8.2 L187.7 4.05 Q157.15 -59.25 122.35 -61.55 L117.25 -61.55 112.8 -61.25 112.5 -61.25 109.65 -61.05 109.45 -61.05 108.05 -60.95 105.6 -60.75 98.2 -60.0 Q92.85 -59.2 87.5 -58.4 82.7 -57.4 80.6 -56.25 78.9 -55.3 79.05 -54.2 L77.45 -54.2 Q75.0 -54.2 72.55 -54.25 72.05 -54.35 71.5 -54.45 69.15 -54.9 67.7 -55.85 65.7 -57.15 65.3 -59.3 65.15 -60.15 65.0 -61.0 64.8 -62.35 64.85 -64.1 L64.85 -64.3" fill="none" stroke="#000000" stroke-linecap="round" stroke-linejoin="round" stroke-opacity="0.0" stroke-width="1.0">
      <animate attributeName="stroke" dur="2s" repeatCount="indefinite" values="#000000;#000001"/>
      <animate attributeName="stroke-width" dur="2s" repeatCount="indefinite" values="0.0;0.0"/>
      <animate attributeName="fill-opacity" dur="2s" repeatCount="indefinite" values="0.0;0.0"/>
      <animate attributeName="d" dur="2s" repeatCount="indefinite" values="M64.85 -64.3 L74.75 -64.3 77.55 -64.3 130.45 -64.3 130.75 -64.2 Q183.25 -42.2 189.7 8.2 L187.7 4.05 Q157.15 -59.25 122.35 -61.55 L117.25 -61.55 112.8 -61.25 112.5 -61.25 109.65 -61.05 109.45 -61.05 108.05 -60.95 105.6 -60.75 98.2 -60.0 Q92.85 -59.2 87.5 -58.4 82.7 -57.4 80.6 -56.25 78.9 -55.3 79.05 -54.2 L77.45 -54.2 Q75.0 -54.2 72.55 -54.25 72.05 -54.35 71.5 -54.45 69.15 -54.9 67.7 -55.85 65.7 -57.15 65.3 -59.3 65.15 -60.15 65.0 -61.0 64.8 -62.35 64.85 -64.1 L64.85 -64.3;M71.9 -61.45 L81.5 -61.6 79.55 -63.25 130.5 -64.5 130.8 -64.5 Q181.75 -45.6 189.45 3.45 L190.05 8.0 Q164.75 -54.55 130.05 -58.0 L124.9 -58.6 120.5 -58.95 120.85 -58.8 118.15 -58.7 117.9 -58.65 116.5 -59.2 114.1 -59.35 107.1 -58.85 Q99.15 -58.1 97.15 -56.8 93.5 -56.8 89.85 -56.85 88.05 -57.1 86.8 -57.65 L85.55 -58.45 Q82.35 -57.65 81.35 -56.7 80.9 -56.25 80.9 -55.8 78.9 -55.8 76.85 -55.75 74.25 -56.05 73.1 -57.1 72.45 -57.7 72.25 -58.55 71.9 -59.65 71.9 -61.45 L71.9 -61.45"/>
    </path>
  </g>
</svg>
