<?xml version="1.0" encoding="UTF-8" standalone="no"?>
<svg xmlns:xlink="http://www.w3.org/1999/xlink" height="32.0px" width="32.0px" xmlns="http://www.w3.org/2000/svg">
  <g transform="matrix(1.0, 0.0, 0.0, 1.0, 16.0, 16.0)">
    <use height="32.0" transform="matrix(1.0, 0.0, 0.0, 1.0, -16.0, -16.0)" width="32.0" xlink:href="#shape0"/>
  </g>
  <defs>
    <g id="shape0" transform="matrix(1.0, 0.0, 0.0, 1.0, 16.0, 16.0)">
      <path d="M7.7 6.95 L0.7 -0.1 8.15 -7.55 0.7 -0.1 7.7 6.95 M10.95 -10.95 Q15.5 -6.4 15.5 0.0 15.5 6.4 10.95 10.95 6.4 15.5 0.0 15.5 -6.4 15.5 -10.95 10.95 -15.5 6.4 -15.5 0.0 -15.5 -6.4 -10.95 -10.95 -6.4 -15.5 0.0 -15.5 6.4 -15.5 10.95 -10.95 M0.7 -0.1 L-7.1 -7.9 0.7 -0.1 -6.65 7.2 0.7 -0.1" fill="#ff3333" fill-rule="evenodd" stroke="none"/>
      <path d="M10.95 -10.95 Q15.5 -6.4 15.5 0.0 15.5 6.4 10.95 10.95 6.4 15.5 0.0 15.5 -6.4 15.5 -10.95 10.95 -15.5 6.4 -15.5 0.0 -15.5 -6.4 -10.95 -10.95 -6.4 -15.5 0.0 -15.5 6.4 -15.5 10.95 -10.95" fill="none" stroke="#000000" stroke-linecap="round" stroke-linejoin="round" stroke-width="1.0"/>
      <path d="M8.15 -7.55 L0.7 -0.1 7.7 6.95 M0.7 -0.1 L-6.65 7.2 M-7.1 -7.9 L0.7 -0.1" fill="none" stroke="#ffffff" stroke-linecap="round" stroke-linejoin="round" stroke-width="3.0"/>
    </g>
  </defs>
</svg>
