<?xml version="1.0" encoding="UTF-8" standalone="no"?>
<svg xmlns:xlink="http://www.w3.org/1999/xlink" height="133.5px" width="127.05px" xmlns="http://www.w3.org/2000/svg">
  <g transform="matrix(1.0, 0.0, 0.0, 1.0, 56.3, 126.75)">
    <use height="117.9" transform="matrix(0.8619, -0.5042, 0.5042, 0.8619, -38.9923, -97.2669)" width="56.9" xlink:href="#shape0"/>
    <use height="117.9" transform="matrix(0.8664, -0.4965, 0.4965, 0.8664, -39.0665, -97.7523)" width="56.9" xlink:href="#shape0"/>
    <use height="6.1" transform="matrix(1.0, 0.0, 0.0, 1.0, -15.55, -91.05)" width="67.1" xlink:href="#shape1"/>
    <use height="8.6" transform="matrix(1.0, 0.0, 0.0, 1.0, -15.55, -88.55)" width="67.1" xlink:href="#shape2"/>
    <use height="30.15" transform="matrix(1.0, 0.0, 0.0, 1.0, -7.25, -23.65)" width="48.4" xlink:href="#shape3"/>
  </g>
  <defs>
    <g id="shape0" transform="matrix(1.0, 0.0, 0.0, 1.0, 28.45, 58.95)">
      <path d="M-26.5 57.0 L26.5 -57.0" fill="none" stroke="url(#gradient0)" stroke-linecap="round" stroke-linejoin="round" stroke-width="3.9000000000000004"/>
    </g>
    <linearGradient gradientTransform="matrix(0.0347, 0.0, 0.0, 0.072, 0.0, 0.0)" gradientUnits="userSpaceOnUse" id="gradient0" spreadMethod="pad" x1="-819.2" x2="819.2">
      <stop offset="0.0" stop-color="#041200"/>
      <stop offset="0.2627450980392157" stop-color="#dbdbdc"/>
      <stop offset="1.0" stop-color="#e8e8e8"/>
    </linearGradient>
    <g id="shape1" transform="matrix(1.0, 0.0, 0.0, 1.0, 15.55, 91.05)">
      <path d="M31.5 -90.75 L41.7 -90.15 Q51.5 -89.25 51.5 -88.0 51.5 -86.75 41.7 -85.9 L33.75 -85.35 M7.75 -90.85 L18.0 -91.0 29.5 -90.8 M30.75 -85.2 L18.0 -85.0 -5.7 -85.9 -6.5 -85.95 M-10.75 -86.45 Q-15.5 -87.15 -15.5 -88.0 -15.5 -89.25 -5.7 -90.15 L6.5 -90.8" fill="none" stroke="#ffffff" stroke-linecap="round" stroke-linejoin="round" stroke-width="0.1"/>
    </g>
    <g id="shape2" transform="matrix(1.0, 0.0, 0.0, 1.0, 15.55, 88.55)">
      <path d="M31.5 -88.25 L41.7 -87.65 Q51.5 -86.75 51.5 -85.5 51.5 -84.25 41.7 -83.4 L33.75 -82.85 M7.75 -88.35 L18.0 -88.5 29.5 -88.3 M30.75 -82.7 L18.0 -82.5 -5.7 -83.4 -6.5 -83.45 M-10.75 -83.95 Q-15.5 -84.65 -15.5 -85.5 -15.5 -86.75 -5.7 -87.65 L6.5 -88.3" fill="none" stroke="#ffffff" stroke-linecap="round" stroke-linejoin="round" stroke-width="0.1"/>
      <path d="M31.5 -85.75 L41.7 -85.15 Q51.5 -84.25 51.5 -83.0 51.5 -81.75 41.7 -80.9 L33.75 -80.35 M30.75 -80.2 L18.0 -80.0 -5.7 -80.9 -6.5 -80.95 M7.75 -85.85 L18.0 -86.0 29.5 -85.8 M-10.75 -81.45 Q-15.5 -82.15 -15.5 -83.0 -15.5 -84.25 -5.7 -85.15 L6.5 -85.8" fill="none" stroke="#ffffff" stroke-linecap="round" stroke-linejoin="round" stroke-width="0.1"/>
    </g>
    <g id="shape3" transform="matrix(1.0, 0.0, 0.0, 1.0, 7.25, 23.65)">
      <path d="M19.05 -19.95 L19.5 -20.55 19.05 -20.65 Q18.75 -20.7 18.75 -20.8 18.75 -20.9 19.05 -21.0 L19.9 -21.05 20.7 -21.0 20.85 -20.95 21.5 -21.0 23.2 -20.7 Q23.95 -20.4 23.95 -19.95 L23.9 -19.65 24.5 -19.8 25.2 -19.65 25.5 -19.3 25.2 -18.95 24.75 -18.8 24.85 -18.5 24.9 -17.55 24.85 -16.65 24.7 -16.25 24.55 -16.65 24.5 -17.55 24.55 -18.5 24.65 -18.8 24.5 -18.8 23.8 -18.95 23.5 -19.3 23.5 -19.35 23.2 -19.2 21.5 -18.9 19.75 -19.2 Q19.05 -19.5 19.05 -19.95 M10.7 -19.25 L10.55 -19.25 9.6 -19.25 Q7.3 -19.25 5.65 -19.9 4.0 -20.55 4.0 -21.45 4.0 -22.35 5.65 -23.0 L9.6 -23.65 13.55 -23.0 Q15.2 -22.35 15.2 -21.45 15.2 -20.55 13.55 -19.9 L10.95 -19.3 10.7 -19.25 M20.0 -17.1 L20.25 -16.75 20.0 -16.4 19.5 -16.25 18.95 -16.4 18.75 -16.75 18.95 -17.1 19.5 -17.25 20.0 -17.1 M17.55 -13.3 L18.4 -13.6 Q18.9 -13.6 19.2 -13.3 L19.25 -13.25 19.65 -14.05 20.65 -14.35 21.65 -14.05 Q22.05 -13.7 22.05 -13.2 22.05 -12.7 21.65 -12.4 21.25 -12.05 20.65 -12.05 20.05 -12.05 19.65 -12.4 L19.55 -12.45 Q19.55 -11.95 19.2 -11.65 18.9 -11.3 18.4 -11.3 17.9 -11.3 17.55 -11.65 17.25 -11.95 17.25 -12.45 17.25 -12.95 17.55 -13.3 M4.85 -16.75 L6.0 -16.3 Q6.5 -15.85 6.5 -15.25 6.5 -14.65 6.0 -14.2 5.55 -13.75 4.85 -13.75 4.15 -13.75 3.65 -14.2 3.2 -14.65 3.2 -15.25 3.2 -15.85 3.65 -16.3 L4.85 -16.75 M9.05 -11.95 Q9.9 -12.55 11.05 -12.55 12.15 -12.55 13.0 -11.95 13.8 -11.35 13.8 -10.5 13.8 -9.65 13.0 -9.1 12.15 -8.5 11.05 -8.5 9.9 -8.5 9.05 -9.1 8.25 -9.65 8.25 -10.5 8.25 -11.35 9.05 -11.95 M2.15 -6.5 L3.65 -6.4 4.3 -6.1 Q4.3 -5.95 3.65 -5.85 L2.15 -5.7 0.6 -5.85 Q0.0 -5.95 0.0 -6.1 0.0 -6.25 0.6 -6.4 L2.15 -6.5 M2.8 -0.7 Q3.3 -0.4 3.3 0.0 3.3 0.4 2.8 0.7 L1.65 1.0 0.45 0.7 Q0.0 0.4 0.0 0.0 0.0 -0.4 0.45 -0.7 L1.65 -1.0 2.8 -0.7 M4.35 -4.1 L5.25 -4.25 6.1 -4.1 6.5 -3.75 6.1 -3.4 5.25 -3.25 4.35 -3.4 Q4.0 -3.55 4.0 -3.75 L4.35 -4.1 M36.05 -21.45 L36.75 -21.55 37.45 -21.45 37.75 -21.15 Q37.75 -21.0 37.45 -20.9 L36.75 -20.75 36.05 -20.9 35.75 -21.15 36.05 -21.45 M31.0 -20.5 L29.75 -20.55 29.25 -20.65 29.75 -20.75 31.0 -20.8 32.2 -20.75 32.75 -20.65 32.2 -20.55 31.0 -20.5 M31.95 -17.95 L32.4 -18.0 32.85 -17.95 33.05 -17.75 32.85 -17.6 32.4 -17.5 31.95 -17.6 31.75 -17.75 31.95 -17.95 M31.15 -12.55 Q30.5 -12.55 30.0 -12.85 29.55 -13.1 29.55 -13.45 29.55 -13.8 30.0 -14.1 L31.15 -14.35 32.25 -14.1 32.75 -13.45 Q32.75 -13.1 32.25 -12.85 31.8 -12.55 31.15 -12.55 M39.1 -16.95 L39.95 -17.25 40.8 -16.95 41.15 -16.2 Q41.15 -15.75 40.8 -15.45 40.45 -15.15 39.95 -15.15 39.45 -15.15 39.1 -15.45 38.75 -15.75 38.75 -16.2 38.75 -16.65 39.1 -16.95 M39.0 -13.0 L39.05 -12.15 39.0 -11.35 38.9 -11.0 38.8 -11.35 38.75 -12.15 38.8 -13.0 38.9 -13.3 39.0 -13.0 M26.75 -19.5 Q26.75 -19.6 27.05 -19.7 L27.9 -19.75 28.7 -19.7 29.05 -19.5 28.7 -19.35 27.9 -19.25 27.05 -19.35 Q26.75 -19.4 26.75 -19.5 M25.0 -13.5 L25.3 -13.7 26.0 -13.75 26.7 -13.7 27.0 -13.5 26.7 -13.35 26.0 -13.25 25.3 -13.35 Q25.0 -13.4 25.0 -13.5 M28.35 -9.05 Q29.95 -9.05 31.1 -8.2 32.25 -7.35 32.25 -6.15 32.25 -5.45 31.9 -4.85 L32.9 -4.9 34.4 -4.85 35.05 -4.7 34.4 -4.55 32.9 -4.5 31.6 -4.5 31.1 -4.1 Q29.95 -3.25 28.35 -3.25 26.75 -3.25 25.6 -4.1 24.45 -4.95 24.45 -6.15 24.45 -7.35 25.6 -8.2 26.75 -9.05 28.35 -9.05 M22.75 -4.75 L22.2 -4.85 22.0 -5.0 22.2 -5.2 22.75 -5.25 23.25 -5.2 23.5 -5.0 23.25 -4.85 22.75 -4.75 M34.45 -7.55 L34.9 -7.75 35.35 -7.55 35.55 -7.0 35.35 -6.5 34.9 -6.25 Q34.65 -6.25 34.45 -6.5 L34.25 -7.0 34.45 -7.55 M30.95 3.1 Q30.25 2.7 30.25 2.1 30.25 1.5 30.95 1.1 31.7 0.7 32.75 0.7 L34.5 1.1 Q35.25 1.5 35.25 2.1 35.25 2.7 34.5 3.1 L32.75 3.5 Q31.7 3.5 30.95 3.1 M20.8 2.25 L19.25 1.9 Q18.6 1.6 18.6 1.1 18.6 0.6 19.25 0.25 19.9 -0.05 20.8 -0.05 L22.35 0.25 Q23.0 0.6 23.0 1.1 23.0 1.6 22.35 1.9 L20.8 2.25 M28.95 6.25 L29.25 6.35 28.95 6.45 28.25 6.5 27.55 6.45 27.25 6.35 27.55 6.25 28.25 6.2 28.95 6.25 M17.25 6.35 L17.55 6.25 18.25 6.2 18.95 6.25 19.25 6.35 18.95 6.45 18.25 6.5 17.55 6.45 17.25 6.35 M-1.7 -18.75 Q-1.7 -18.15 -2.35 -17.7 -2.95 -17.25 -3.85 -17.25 -4.75 -17.25 -5.4 -17.7 -6.0 -18.15 -6.0 -18.75 -6.0 -19.35 -5.4 -19.8 -4.75 -20.25 -3.85 -20.25 -2.95 -20.25 -2.35 -19.8 -1.7 -19.35 -1.7 -18.75 M-3.55 -15.05 Q-3.85 -14.75 -4.25 -14.75 -4.65 -14.75 -4.95 -15.05 L-5.25 -15.75 -4.95 -16.45 -4.25 -16.75 -3.55 -16.45 Q-3.25 -16.15 -3.25 -15.75 -3.25 -15.35 -3.55 -15.05 M-4.15 -9.1 L-3.95 -8.65 -4.15 -8.2 Q-4.35 -8.0 -4.6 -8.0 L-5.05 -8.2 -5.25 -8.65 -5.05 -9.1 -4.6 -9.3 Q-4.35 -9.3 -4.15 -9.1 M-5.85 -6.5 L-4.85 -6.3 -4.45 -5.75 Q-4.45 -5.45 -4.85 -5.25 L-5.85 -5.0 -6.85 -5.25 Q-7.25 -5.45 -7.25 -5.75 L-6.85 -6.3 -5.85 -6.5 M-3.35 1.0 L-3.8 0.85 -4.0 0.6 -3.8 0.3 -3.35 0.2 -2.9 0.3 -2.7 0.6 -2.9 0.85 -3.35 1.0" fill="#6699ff" fill-rule="evenodd" stroke="none"/>
    </g>
  </defs>
</svg>
