<?xml version="1.0" encoding="UTF-8" standalone="no"?>
<svg xmlns:xlink="http://www.w3.org/1999/xlink" height="133.5px" width="127.05px" xmlns="http://www.w3.org/2000/svg">
  <g transform="matrix(1.0, 0.0, 0.0, 1.0, 56.3, 126.75)">
    <use height="117.9" transform="matrix(0.6398, -0.7685, 0.7685, 0.6398, -56.3063, -69.6553)" width="56.9" xlink:href="#shape0"/>
    <use height="117.9" transform="matrix(0.6597, -0.7494, 0.7494, 0.6597, -55.1941, -72.1673)" width="56.9" xlink:href="#shape0"/>
    <use height="6.1" transform="matrix(1.0, 0.0, 0.0, 1.0, -15.55, -91.05)" width="67.1" xlink:href="#shape1"/>
    <use height="8.6" transform="matrix(1.0, 0.0, 0.0, 1.0, -15.55, -88.55)" width="67.1" xlink:href="#shape2"/>
    <use height="34.05" transform="matrix(1.0, 0.0, 0.0, 1.0, -7.25, -27.3)" width="46.3" xlink:href="#shape3"/>
  </g>
  <defs>
    <g id="shape0" transform="matrix(1.0, 0.0, 0.0, 1.0, 28.45, 58.95)">
      <path d="M-26.5 57.0 L26.5 -57.0" fill="none" stroke="url(#gradient0)" stroke-linecap="round" stroke-linejoin="round" stroke-width="3.9000000000000004"/>
    </g>
    <linearGradient gradientTransform="matrix(0.0347, 0.0, 0.0, 0.072, 0.0, 0.0)" gradientUnits="userSpaceOnUse" id="gradient0" spreadMethod="pad" x1="-819.2" x2="819.2">
      <stop offset="0.0" stop-color="#041200"/>
      <stop offset="0.2627450980392157" stop-color="#dbdbdc"/>
      <stop offset="1.0" stop-color="#e8e8e8"/>
    </linearGradient>
    <g id="shape1" transform="matrix(1.0, 0.0, 0.0, 1.0, 15.55, 91.05)">
      <path d="M42.0 -90.1 Q51.5 -89.25 51.5 -88.0 51.5 -86.75 41.7 -85.9 L25.75 -85.05 M24.0 -85.05 L18.0 -85.0 8.75 -85.1 M17.75 -91.0 L18.0 -91.0 39.5 -90.3 M-7.25 -86.05 Q-15.5 -86.85 -15.5 -88.0 -15.5 -89.25 -5.7 -90.15 L-2.75 -90.35 M-1.25 -90.45 L14.0 -90.95 M7.75 -85.1 L-3.75 -85.7" fill="none" stroke="#ffffff" stroke-linecap="round" stroke-linejoin="round" stroke-width="0.1"/>
    </g>
    <g id="shape2" transform="matrix(1.0, 0.0, 0.0, 1.0, 15.55, 88.55)">
      <path d="M42.0 -87.6 Q51.5 -86.75 51.5 -85.5 51.5 -84.25 41.7 -83.4 L25.75 -82.55 M24.0 -82.55 L18.0 -82.5 -3.75 -83.2 M-1.25 -87.95 Q7.1 -88.5 18.0 -88.5 L39.5 -87.8 M-7.25 -83.55 Q-15.5 -84.35 -15.5 -85.5 -15.5 -86.75 -5.7 -87.65 L-2.75 -87.85" fill="none" stroke="#ffffff" stroke-linecap="round" stroke-linejoin="round" stroke-width="0.1"/>
      <path d="M42.0 -85.1 Q51.5 -84.25 51.5 -83.0 51.5 -81.75 41.7 -80.9 L25.75 -80.05 M-1.25 -85.45 Q7.1 -86.0 18.0 -86.0 L39.5 -85.3 M24.0 -80.05 L18.0 -80.0 -3.75 -80.7 M-7.25 -81.05 Q-15.5 -81.85 -15.5 -83.0 -15.5 -84.25 -5.7 -85.15 L-2.75 -85.35" fill="none" stroke="#ffffff" stroke-linecap="round" stroke-linejoin="round" stroke-width="0.1"/>
    </g>
    <g id="shape3" transform="matrix(1.0, 0.0, 0.0, 1.0, 7.25, 27.3)">
      <path d="M19.5 -16.25 L18.95 -16.4 18.75 -16.75 18.95 -17.1 19.5 -17.25 20.0 -17.1 20.25 -16.75 20.0 -16.4 19.5 -16.25 M11.15 -17.6 Q10.0 -16.75 8.4 -16.75 6.8 -16.75 5.65 -17.6 4.5 -18.45 4.5 -19.65 4.5 -20.85 5.65 -21.7 6.8 -22.55 8.4 -22.55 10.0 -22.55 11.15 -21.7 12.3 -20.85 12.3 -19.65 12.3 -18.45 11.15 -17.6 M0.2 -23.8 Q-0.15 -23.5 -0.65 -23.5 -1.15 -23.5 -1.5 -23.8 -1.85 -24.1 -1.85 -24.55 -1.85 -25.0 -1.5 -25.3 L-0.65 -25.6 0.2 -25.3 0.55 -24.55 Q0.55 -24.1 0.2 -23.8 M8.45 -10.55 L9.65 -11.0 10.8 -10.55 Q11.3 -10.1 11.3 -9.5 11.3 -8.9 10.8 -8.45 10.35 -8.0 9.65 -8.0 8.95 -8.0 8.45 -8.45 8.0 -8.9 8.0 -9.5 8.0 -10.1 8.45 -10.55 M4.35 -4.1 L5.25 -4.25 6.1 -4.1 6.5 -3.75 6.1 -3.4 5.25 -3.25 4.35 -3.4 Q4.0 -3.55 4.0 -3.75 L4.35 -4.1 M19.05 -10.5 Q19.05 -9.65 18.25 -9.1 17.4 -8.5 16.3 -8.5 15.15 -8.5 14.3 -9.1 13.5 -9.65 13.5 -10.5 13.5 -11.35 14.3 -11.95 15.15 -12.55 16.3 -12.55 17.4 -12.55 18.25 -11.95 19.05 -11.35 19.05 -10.5 M13.05 -0.55 Q12.6 -0.25 11.9 -0.25 11.2 -0.25 10.7 -0.55 10.25 -0.85 10.25 -1.25 10.25 -1.65 10.7 -1.95 L11.9 -2.25 13.05 -1.95 Q13.55 -1.65 13.55 -1.25 13.55 -0.85 13.05 -0.55 M37.75 -21.15 Q37.75 -21.0 37.45 -20.9 L36.75 -20.75 36.05 -20.9 35.75 -21.15 36.05 -21.45 36.75 -21.55 37.45 -21.45 37.75 -21.15 M32.2 -20.55 L31.0 -20.5 29.75 -20.55 29.25 -20.65 29.75 -20.75 31.0 -20.8 32.2 -20.75 32.75 -20.65 32.2 -20.55 M33.5 -17.55 L34.65 -17.8 35.75 -17.55 36.25 -16.9 Q36.25 -16.55 35.75 -16.3 35.3 -16.0 34.65 -16.0 34.0 -16.0 33.5 -16.3 33.05 -16.55 33.05 -16.9 33.05 -17.25 33.5 -17.55 M32.4 -17.5 L31.95 -17.6 31.75 -17.75 31.95 -17.95 32.4 -18.0 32.85 -17.95 33.05 -17.75 32.85 -17.6 32.4 -17.5 M38.9 -13.3 L39.0 -13.0 39.05 -12.15 39.0 -11.35 38.9 -11.0 38.8 -11.35 38.75 -12.15 38.8 -13.0 38.9 -13.3 M27.05 -19.7 L27.9 -19.75 28.7 -19.7 29.05 -19.5 28.7 -19.35 27.9 -19.25 27.05 -19.35 Q26.75 -19.4 26.75 -19.5 26.75 -19.6 27.05 -19.7 M25.0 -13.5 L25.3 -13.7 26.0 -13.75 26.7 -13.7 27.0 -13.5 26.7 -13.35 26.0 -13.25 25.3 -13.35 Q25.0 -13.4 25.0 -13.5 M30.2 -12.2 L30.35 -12.15 31.0 -12.2 32.7 -11.9 Q33.45 -11.6 33.45 -11.15 L33.4 -10.85 34.0 -11.0 34.7 -10.85 35.0 -10.5 34.7 -10.15 34.25 -10.0 34.35 -9.7 34.4 -8.75 34.35 -7.85 34.2 -7.45 34.05 -7.85 34.0 -8.75 34.05 -9.7 34.15 -10.0 34.0 -10.0 33.3 -10.15 Q33.0 -10.3 33.0 -10.5 L33.0 -10.55 32.7 -10.4 Q32.0 -10.1 31.0 -10.1 L29.25 -10.4 Q28.55 -10.7 28.55 -11.15 28.55 -11.5 29.0 -11.75 L28.55 -11.85 Q28.25 -11.9 28.25 -12.0 28.25 -12.1 28.55 -12.2 L29.4 -12.25 30.2 -12.2 M25.6 -6.25 L24.65 -6.25 Q22.35 -6.25 20.7 -6.9 19.05 -7.55 19.05 -8.45 19.05 -9.35 20.7 -10.0 22.35 -10.65 24.65 -10.65 26.95 -10.65 28.6 -10.0 30.25 -9.35 30.25 -8.45 30.25 -7.55 28.6 -6.9 27.45 -6.45 26.0 -6.3 L25.75 -6.25 25.6 -6.25 M23.25 -4.85 L22.75 -4.75 22.2 -4.85 22.0 -5.0 22.2 -5.2 22.75 -5.25 23.25 -5.2 23.5 -5.0 23.25 -4.85 M30.0 -5.05 L30.5 -5.0 30.75 -4.9 30.5 -4.8 30.0 -4.75 29.45 -4.8 29.25 -4.9 29.45 -5.0 30.0 -5.05 M34.45 -7.55 L34.9 -7.75 35.35 -7.55 35.55 -7.0 35.35 -6.5 34.9 -6.25 Q34.65 -6.25 34.45 -6.5 L34.25 -7.0 34.45 -7.55 M34.4 -4.55 L32.9 -4.5 31.35 -4.55 30.75 -4.7 31.35 -4.85 32.9 -4.9 34.4 -4.85 35.05 -4.7 34.4 -4.55 M35.25 2.1 Q35.25 2.7 34.5 3.1 L32.75 3.5 Q31.7 3.5 30.95 3.1 30.25 2.7 30.25 2.1 30.25 1.5 30.95 1.1 31.7 0.7 32.75 0.7 L34.5 1.1 Q35.25 1.5 35.25 2.1 M23.0 1.1 Q23.0 1.6 22.35 1.9 L20.8 2.25 19.25 1.9 Q18.6 1.6 18.6 1.1 18.6 0.6 19.25 0.25 19.9 -0.05 20.8 -0.05 L22.35 0.25 Q23.0 0.6 23.0 1.1 M28.95 6.45 L28.25 6.5 27.55 6.45 27.25 6.35 27.55 6.25 28.25 6.2 28.95 6.25 29.25 6.35 28.95 6.45 M11.9 6.05 L12.55 6.35 11.9 6.6 10.4 6.75 8.85 6.6 8.25 6.35 8.85 6.05 10.4 5.95 11.9 6.05 M18.95 6.45 L18.25 6.5 17.55 6.45 17.25 6.35 17.55 6.25 18.25 6.2 18.95 6.25 19.25 6.35 18.95 6.45 M1.4 4.75 Q0.5 4.75 -0.15 4.3 -0.75 3.85 -0.75 3.25 -0.75 2.65 -0.15 2.2 0.5 1.75 1.4 1.75 2.3 1.75 2.9 2.2 3.55 2.65 3.55 3.25 3.55 3.85 2.9 4.3 2.3 4.75 1.4 4.75 M-6.2 -26.25 L-5.35 -26.55 -4.55 -26.25 -4.5 -26.2 Q-4.5 -26.65 -4.1 -27.0 L-3.1 -27.3 -2.1 -27.0 Q-1.7 -26.65 -1.7 -26.15 -1.7 -25.65 -2.1 -25.35 -2.5 -25.0 -3.1 -25.0 -3.7 -25.0 -4.1 -25.35 L-4.2 -25.4 Q-4.2 -24.9 -4.55 -24.6 -4.85 -24.25 -5.35 -24.25 -5.85 -24.25 -6.2 -24.6 L-6.5 -25.4 -6.2 -26.25 M-3.25 -15.75 Q-3.25 -15.35 -3.55 -15.05 -3.85 -14.75 -4.25 -14.75 -4.65 -14.75 -4.95 -15.05 L-5.25 -15.75 -4.95 -16.45 -4.25 -16.75 -3.55 -16.45 Q-3.25 -16.15 -3.25 -15.75 M-3.95 -8.65 L-4.15 -8.2 Q-4.35 -8.0 -4.6 -8.0 L-5.05 -8.2 -5.25 -8.65 -5.05 -9.1 -4.6 -9.3 Q-4.35 -9.3 -4.15 -9.1 L-3.95 -8.65 M-5.85 -6.5 L-4.85 -6.3 -4.45 -5.75 Q-4.45 -5.45 -4.85 -5.25 L-5.85 -5.0 -6.85 -5.25 Q-7.25 -5.45 -7.25 -5.75 L-6.85 -6.3 -5.85 -6.5 M-2.9 0.85 L-3.35 1.0 -3.8 0.85 -4.0 0.6 -3.8 0.3 -3.35 0.2 -2.9 0.3 -2.7 0.6 -2.9 0.85" fill="#6699ff" fill-rule="evenodd" stroke="none"/>
    </g>
  </defs>
</svg>
