<?xml version="1.0" encoding="UTF-8" standalone="no"?>
<svg xmlns:xlink="http://www.w3.org/1999/xlink" height="518.7px" width="958.8px" xmlns="http://www.w3.org/2000/svg">
  <g transform="matrix(1.0, 0.0, 0.0, 1.0, 388.45, 337.45)">
    <use height="8.0" transform="matrix(1.0, 0.0, 0.0, 1.0, -386.95, -313.0)" width="5.0" xlink:href="#text0"/>
    <use height="8.0" transform="matrix(1.0, 0.0, 0.0, 1.0, -363.95, -313.0)" width="26.0" xlink:href="#text1"/>
    <use height="8.0" transform="matrix(1.0, 0.0, 0.0, 1.0, -321.95, -313.0)" width="26.0" xlink:href="#text2"/>
    <use height="8.0" transform="matrix(1.0, 0.0, 0.0, 1.0, -283.95, -313.0)" width="26.0" xlink:href="#text3"/>
    <use height="8.0" transform="matrix(1.0, 0.0, 0.0, 1.0, -241.95, -313.0)" width="26.0" xlink:href="#text4"/>
    <use height="8.0" transform="matrix(1.0, 0.0, 0.0, 1.0, -207.95, -313.0)" width="26.0" xlink:href="#text5"/>
    <use height="8.0" transform="matrix(1.0, 0.0, 0.0, 1.0, -167.95, -313.0)" width="26.0" xlink:href="#text6"/>
    <use height="8.0" transform="matrix(1.0, 0.0, 0.0, 1.0, -122.0, -313.0)" width="26.0" xlink:href="#text7"/>
    <use height="8.0" transform="matrix(1.0, 0.0, 0.0, 1.0, -82.0, -313.0)" width="26.0" xlink:href="#text8"/>
    <use height="8.0" transform="matrix(1.0, 0.0, 0.0, 1.0, -44.0, -313.0)" width="26.0" xlink:href="#text9"/>
    <use height="8.0" transform="matrix(1.0, 0.0, 0.0, 1.0, -7.0, -313.0)" width="26.0" xlink:href="#text10"/>
    <use height="8.0" transform="matrix(1.0, 0.0, 0.0, 1.0, 34.0, -313.0)" width="25.0" xlink:href="#text11"/>
    <use height="8.0" transform="matrix(1.0, 0.0, 0.0, 1.0, 73.0, -313.0)" width="25.0" xlink:href="#text12"/>
    <use height="8.0" transform="matrix(1.0, 0.0, 0.0, 1.0, 110.0, -313.0)" width="25.0" xlink:href="#text13"/>
    <use height="8.0" transform="matrix(1.0, 0.0, 0.0, 1.0, 155.0, -313.0)" width="25.0" xlink:href="#text14"/>
    <use height="8.0" transform="matrix(1.0, 0.0, 0.0, 1.0, 196.0, -313.0)" width="25.0" xlink:href="#text15"/>
    <use height="8.0" transform="matrix(1.0, 0.0, 0.0, 1.0, 229.0, -313.0)" width="25.0" xlink:href="#text16"/>
    <use height="8.0" transform="matrix(1.0, 0.0, 0.0, 1.0, 268.0, -313.0)" width="26.0" xlink:href="#text17"/>
    <use height="14.0" transform="matrix(1.0, 0.0, 0.0, 1.0, -166.7, -337.45)" width="217.0" xlink:href="#text18"/>
    <use height="272.0" id="spmScroll" transform="matrix(8.407, 0.0, 0.0, 1.0, -388.45, -294.2)" width="114.05" xlink:href="#sprite0"/>
  </g>
  <defs>
    <g id="text0" transform="matrix(1.0, 0.0, 0.0, 1.0, 0.0, -2.0)">
      <g transform="matrix(1.0, 0.0, 0.0, 1.0, 0.0, 0.0)">
        <use fill="#000000" height="8.0" transform="matrix(0.0078, 0.0, 0.0, 0.0078, 0.0, 8.0)" width="5.0" xlink:href="#font_Verdana_8pt_st_00"/>
      </g>
    </g>
    <g id="font_Verdana_8pt_st_00">
      <path d="M256.0 -512.0 L256.0 0.0 512.0 0.0 512.0 -384.0 384.0 -384.0 384.0 -512.0 256.0 -512.0 M640.0 -512.0 L640.0 128.0 128.0 128.0 128.0 -128.0 0.0 -128.0 0.0 -384.0 128.0 -384.0 128.0 -640.0 512.0 -640.0 512.0 -512.0 640.0 -512.0" fill-rule="evenodd" stroke="none"/>
    </g>
    <g id="text1" transform="matrix(1.0, 0.0, 0.0, 1.0, 0.0, -2.0)">
      <g transform="matrix(1.0, 0.0, 0.0, 1.0, 0.0, 0.0)">
        <use fill="#000000" height="8.0" transform="matrix(0.0078, 0.0, 0.0, 0.0078, 0.0, 8.0)" width="26.0" xlink:href="#font_Verdana_8pt_st_00"/>
        <use fill="#000000" height="8.0" transform="matrix(0.0078, 0.0, 0.0, 0.0078, 6.0, 8.0)" width="26.0" xlink:href="#font_Verdana_8pt_st_.0"/>
        <use fill="#000000" height="8.0" transform="matrix(0.0078, 0.0, 0.0, 0.0078, 9.0, 8.0)" width="26.0" xlink:href="#font_Verdana_8pt_st_00"/>
        <use fill="#000000" height="8.0" transform="matrix(0.0078, 0.0, 0.0, 0.0078, 15.0, 8.0)" width="26.0" xlink:href="#font_Verdana_8pt_st_40"/>
        <use fill="#000000" height="8.0" transform="matrix(0.0078, 0.0, 0.0, 0.0078, 21.0, 8.0)" width="26.0" xlink:href="#font_Verdana_8pt_st_00"/>
      </g>
    </g>
    <g id="font_Verdana_8pt_st_.0">
      <path d="M256.0 -128.0 L256.0 128.0 128.0 128.0 128.0 -128.0 256.0 -128.0" fill-rule="evenodd" stroke="none"/>
    </g>
    <g id="font_Verdana_8pt_st_40">
      <path d="M384.0 -640.0 L640.0 -640.0 640.0 128.0 384.0 128.0 384.0 0.0 0.0 0.0 0.0 -256.0 128.0 -256.0 128.0 -384.0 256.0 -384.0 256.0 -128.0 384.0 -128.0 384.0 -384.0 256.0 -384.0 256.0 -512.0 384.0 -512.0 384.0 -640.0" fill-rule="evenodd" stroke="none"/>
    </g>
    <g id="text2" transform="matrix(1.0, 0.0, 0.0, 1.0, 0.0, -2.0)">
      <g transform="matrix(1.0, 0.0, 0.0, 1.0, 0.0, 0.0)">
        <use fill="#000000" height="8.0" transform="matrix(0.0078, 0.0, 0.0, 0.0078, 0.0, 8.0)" width="26.0" xlink:href="#font_Verdana_8pt_st_00"/>
        <use fill="#000000" height="8.0" transform="matrix(0.0078, 0.0, 0.0, 0.0078, 6.0, 8.0)" width="26.0" xlink:href="#font_Verdana_8pt_st_.0"/>
        <use fill="#000000" height="8.0" transform="matrix(0.0078, 0.0, 0.0, 0.0078, 9.0, 8.0)" width="26.0" xlink:href="#font_Verdana_8pt_st_00"/>
        <use fill="#000000" height="8.0" transform="matrix(0.0078, 0.0, 0.0, 0.0078, 15.0, 8.0)" width="26.0" xlink:href="#font_Verdana_8pt_st_70"/>
        <use fill="#000000" height="8.0" transform="matrix(0.0078, 0.0, 0.0, 0.0078, 21.0, 8.0)" width="26.0" xlink:href="#font_Verdana_8pt_st_00"/>
      </g>
    </g>
    <g id="font_Verdana_8pt_st_70">
      <path d="M128.0 -640.0 L640.0 -640.0 640.0 -256.0 512.0 -256.0 512.0 -128.0 384.0 -128.0 384.0 128.0 128.0 128.0 128.0 0.0 256.0 0.0 256.0 -256.0 384.0 -256.0 384.0 -512.0 128.0 -512.0 128.0 -640.0" fill-rule="evenodd" stroke="none"/>
    </g>
    <g id="text3" transform="matrix(1.0, 0.0, 0.0, 1.0, 0.0, -2.0)">
      <g transform="matrix(1.0, 0.0, 0.0, 1.0, 0.0, 0.0)">
        <use fill="#000000" height="8.0" transform="matrix(0.0078, 0.0, 0.0, 0.0078, 0.0, 8.0)" width="26.0" xlink:href="#font_Verdana_8pt_st_00"/>
        <use fill="#000000" height="8.0" transform="matrix(0.0078, 0.0, 0.0, 0.0078, 6.0, 8.0)" width="26.0" xlink:href="#font_Verdana_8pt_st_.0"/>
        <use fill="#000000" height="8.0" transform="matrix(0.0078, 0.0, 0.0, 0.0078, 9.0, 8.0)" width="26.0" xlink:href="#font_Verdana_8pt_st_10"/>
        <use fill="#000000" height="8.0" transform="matrix(0.0078, 0.0, 0.0, 0.0078, 15.0, 8.0)" width="26.0" xlink:href="#font_Verdana_8pt_st_00"/>
        <use fill="#000000" height="8.0" transform="matrix(0.0078, 0.0, 0.0, 0.0078, 21.0, 8.0)" width="26.0" xlink:href="#font_Verdana_8pt_st_00"/>
      </g>
    </g>
    <g id="font_Verdana_8pt_st_10">
      <path d="M256.0 -640.0 L512.0 -640.0 512.0 0.0 640.0 0.0 640.0 128.0 128.0 128.0 128.0 0.0 256.0 0.0 256.0 -384.0 128.0 -384.0 128.0 -512.0 256.0 -512.0 256.0 -640.0" fill-rule="evenodd" stroke="none"/>
    </g>
    <g id="text4" transform="matrix(1.0, 0.0, 0.0, 1.0, 0.0, -2.0)">
      <g transform="matrix(1.0, 0.0, 0.0, 1.0, 0.0, 0.0)">
        <use fill="#000000" height="8.0" transform="matrix(0.0078, 0.0, 0.0, 0.0078, 0.0, 8.0)" width="26.0" xlink:href="#font_Verdana_8pt_st_00"/>
        <use fill="#000000" height="8.0" transform="matrix(0.0078, 0.0, 0.0, 0.0078, 6.0, 8.0)" width="26.0" xlink:href="#font_Verdana_8pt_st_.0"/>
        <use fill="#000000" height="8.0" transform="matrix(0.0078, 0.0, 0.0, 0.0078, 9.0, 8.0)" width="26.0" xlink:href="#font_Verdana_8pt_st_10"/>
        <use fill="#000000" height="8.0" transform="matrix(0.0078, 0.0, 0.0, 0.0078, 15.0, 8.0)" width="26.0" xlink:href="#font_Verdana_8pt_st_50"/>
        <use fill="#000000" height="8.0" transform="matrix(0.0078, 0.0, 0.0, 0.0078, 21.0, 8.0)" width="26.0" xlink:href="#font_Verdana_8pt_st_00"/>
      </g>
    </g>
    <g id="font_Verdana_8pt_st_50">
      <path d="M640.0 -512.0 L256.0 -512.0 256.0 -384.0 512.0 -384.0 512.0 -256.0 640.0 -256.0 640.0 128.0 128.0 128.0 128.0 0.0 512.0 0.0 512.0 -128.0 384.0 -128.0 384.0 -256.0 128.0 -256.0 128.0 -640.0 640.0 -640.0 640.0 -512.0" fill-rule="evenodd" stroke="none"/>
    </g>
    <g id="text5" transform="matrix(1.0, 0.0, 0.0, 1.0, 0.0, -2.0)">
      <g transform="matrix(1.0, 0.0, 0.0, 1.0, 0.0, 0.0)">
        <use fill="#000000" height="8.0" transform="matrix(0.0078, 0.0, 0.0, 0.0078, 0.0, 8.0)" width="26.0" xlink:href="#font_Verdana_8pt_st_00"/>
        <use fill="#000000" height="8.0" transform="matrix(0.0078, 0.0, 0.0, 0.0078, 6.0, 8.0)" width="26.0" xlink:href="#font_Verdana_8pt_st_.0"/>
        <use fill="#000000" height="8.0" transform="matrix(0.0078, 0.0, 0.0, 0.0078, 9.0, 8.0)" width="26.0" xlink:href="#font_Verdana_8pt_st_30"/>
        <use fill="#000000" height="8.0" transform="matrix(0.0078, 0.0, 0.0, 0.0078, 15.0, 8.0)" width="26.0" xlink:href="#font_Verdana_8pt_st_00"/>
        <use fill="#000000" height="8.0" transform="matrix(0.0078, 0.0, 0.0, 0.0078, 21.0, 8.0)" width="26.0" xlink:href="#font_Verdana_8pt_st_00"/>
      </g>
    </g>
    <g id="font_Verdana_8pt_st_30">
      <path d="M640.0 -512.0 L640.0 128.0 128.0 128.0 128.0 0.0 512.0 0.0 512.0 -128.0 384.0 -128.0 384.0 -256.0 256.0 -256.0 256.0 -384.0 384.0 -384.0 384.0 -512.0 128.0 -512.0 128.0 -640.0 512.0 -640.0 512.0 -512.0 640.0 -512.0" fill-rule="evenodd" stroke="none"/>
    </g>
    <g id="text6" transform="matrix(1.0, 0.0, 0.0, 1.0, 0.0, -2.0)">
      <g transform="matrix(1.0, 0.0, 0.0, 1.0, 0.0, 0.0)">
        <use fill="#000000" height="8.0" transform="matrix(0.0078, 0.0, 0.0, 0.0078, 0.0, 8.0)" width="26.0" xlink:href="#font_Verdana_8pt_st_00"/>
        <use fill="#000000" height="8.0" transform="matrix(0.0078, 0.0, 0.0, 0.0078, 6.0, 8.0)" width="26.0" xlink:href="#font_Verdana_8pt_st_.0"/>
        <use fill="#000000" height="8.0" transform="matrix(0.0078, 0.0, 0.0, 0.0078, 9.0, 8.0)" width="26.0" xlink:href="#font_Verdana_8pt_st_30"/>
        <use fill="#000000" height="8.0" transform="matrix(0.0078, 0.0, 0.0, 0.0078, 15.0, 8.0)" width="26.0" xlink:href="#font_Verdana_8pt_st_50"/>
        <use fill="#000000" height="8.0" transform="matrix(0.0078, 0.0, 0.0, 0.0078, 21.0, 8.0)" width="26.0" xlink:href="#font_Verdana_8pt_st_00"/>
      </g>
    </g>
    <g id="text7" transform="matrix(1.0, 0.0, 0.0, 1.0, 0.0, -2.0)">
      <g transform="matrix(1.0, 0.0, 0.0, 1.0, 0.0, 0.0)">
        <use fill="#000000" height="8.0" transform="matrix(0.0078, 0.0, 0.0, 0.0078, 0.0, 8.0)" width="26.0" xlink:href="#font_Verdana_8pt_st_00"/>
        <use fill="#000000" height="8.0" transform="matrix(0.0078, 0.0, 0.0, 0.0078, 6.0, 8.0)" width="26.0" xlink:href="#font_Verdana_8pt_st_.0"/>
        <use fill="#000000" height="8.0" transform="matrix(0.0078, 0.0, 0.0, 0.0078, 9.0, 8.0)" width="26.0" xlink:href="#font_Verdana_8pt_st_40"/>
        <use fill="#000000" height="8.0" transform="matrix(0.0078, 0.0, 0.0, 0.0078, 15.0, 8.0)" width="26.0" xlink:href="#font_Verdana_8pt_st_00"/>
        <use fill="#000000" height="8.0" transform="matrix(0.0078, 0.0, 0.0, 0.0078, 21.0, 8.0)" width="26.0" xlink:href="#font_Verdana_8pt_st_00"/>
      </g>
    </g>
    <g id="text8" transform="matrix(1.0, 0.0, 0.0, 1.0, 0.0, -2.0)">
      <g transform="matrix(1.0, 0.0, 0.0, 1.0, 0.0, 0.0)">
        <use fill="#000000" height="8.0" transform="matrix(0.0078, 0.0, 0.0, 0.0078, 0.0, 8.0)" width="26.0" xlink:href="#font_Verdana_8pt_st_00"/>
        <use fill="#000000" height="8.0" transform="matrix(0.0078, 0.0, 0.0, 0.0078, 6.0, 8.0)" width="26.0" xlink:href="#font_Verdana_8pt_st_.0"/>
        <use fill="#000000" height="8.0" transform="matrix(0.0078, 0.0, 0.0, 0.0078, 9.0, 8.0)" width="26.0" xlink:href="#font_Verdana_8pt_st_50"/>
        <use fill="#000000" height="8.0" transform="matrix(0.0078, 0.0, 0.0, 0.0078, 15.0, 8.0)" width="26.0" xlink:href="#font_Verdana_8pt_st_00"/>
        <use fill="#000000" height="8.0" transform="matrix(0.0078, 0.0, 0.0, 0.0078, 21.0, 8.0)" width="26.0" xlink:href="#font_Verdana_8pt_st_00"/>
      </g>
    </g>
    <g id="text9" transform="matrix(1.0, 0.0, 0.0, 1.0, 0.0, -2.0)">
      <g transform="matrix(1.0, 0.0, 0.0, 1.0, 0.0, 0.0)">
        <use fill="#000000" height="8.0" transform="matrix(0.0078, 0.0, 0.0, 0.0078, 0.0, 8.0)" width="26.0" xlink:href="#font_Verdana_8pt_st_00"/>
        <use fill="#000000" height="8.0" transform="matrix(0.0078, 0.0, 0.0, 0.0078, 6.0, 8.0)" width="26.0" xlink:href="#font_Verdana_8pt_st_.0"/>
        <use fill="#000000" height="8.0" transform="matrix(0.0078, 0.0, 0.0, 0.0078, 9.0, 8.0)" width="26.0" xlink:href="#font_Verdana_8pt_st_60"/>
        <use fill="#000000" height="8.0" transform="matrix(0.0078, 0.0, 0.0, 0.0078, 15.0, 8.0)" width="26.0" xlink:href="#font_Verdana_8pt_st_00"/>
        <use fill="#000000" height="8.0" transform="matrix(0.0078, 0.0, 0.0, 0.0078, 21.0, 8.0)" width="26.0" xlink:href="#font_Verdana_8pt_st_00"/>
      </g>
    </g>
    <g id="font_Verdana_8pt_st_60">
      <path d="M256.0 0.0 L512.0 0.0 512.0 -256.0 256.0 -256.0 256.0 0.0 M640.0 -512.0 L384.0 -512.0 384.0 -384.0 640.0 -384.0 640.0 128.0 128.0 128.0 128.0 -512.0 256.0 -512.0 256.0 -640.0 640.0 -640.0 640.0 -512.0" fill-rule="evenodd" stroke="none"/>
    </g>
    <g id="text10" transform="matrix(1.0, 0.0, 0.0, 1.0, 0.0, -2.0)">
      <g transform="matrix(1.0, 0.0, 0.0, 1.0, 0.0, 0.0)">
        <use fill="#000000" height="8.0" transform="matrix(0.0078, 0.0, 0.0, 0.0078, 0.0, 8.0)" width="26.0" xlink:href="#font_Verdana_8pt_st_00"/>
        <use fill="#000000" height="8.0" transform="matrix(0.0078, 0.0, 0.0, 0.0078, 6.0, 8.0)" width="26.0" xlink:href="#font_Verdana_8pt_st_.0"/>
        <use fill="#000000" height="8.0" transform="matrix(0.0078, 0.0, 0.0, 0.0078, 9.0, 8.0)" width="26.0" xlink:href="#font_Verdana_8pt_st_80"/>
        <use fill="#000000" height="8.0" transform="matrix(0.0078, 0.0, 0.0, 0.0078, 15.0, 8.0)" width="26.0" xlink:href="#font_Verdana_8pt_st_00"/>
        <use fill="#000000" height="8.0" transform="matrix(0.0078, 0.0, 0.0, 0.0078, 21.0, 8.0)" width="26.0" xlink:href="#font_Verdana_8pt_st_00"/>
      </g>
    </g>
    <g id="font_Verdana_8pt_st_80">
      <path d="M512.0 -384.0 L512.0 -512.0 256.0 -512.0 256.0 -384.0 512.0 -384.0 M256.0 -256.0 L256.0 0.0 512.0 0.0 512.0 -128.0 384.0 -128.0 384.0 -256.0 256.0 -256.0 M128.0 -128.0 L128.0 -640.0 640.0 -640.0 640.0 128.0 128.0 128.0 128.0 0.0 0.0 0.0 0.0 -128.0 128.0 -128.0" fill-rule="evenodd" stroke="none"/>
    </g>
    <g id="text11" transform="matrix(1.0, 0.0, 0.0, 1.0, -1.0, -2.0)">
      <g transform="matrix(1.0, 0.0, 0.0, 1.0, 0.0, 0.0)">
        <use fill="#000000" height="8.0" transform="matrix(0.0078, 0.0, 0.0, 0.0078, 0.0, 8.0)" width="25.0" xlink:href="#font_Verdana_8pt_st_10"/>
        <use fill="#000000" height="8.0" transform="matrix(0.0078, 0.0, 0.0, 0.0078, 6.0, 8.0)" width="25.0" xlink:href="#font_Verdana_8pt_st_.0"/>
        <use fill="#000000" height="8.0" transform="matrix(0.0078, 0.0, 0.0, 0.0078, 9.0, 8.0)" width="25.0" xlink:href="#font_Verdana_8pt_st_00"/>
        <use fill="#000000" height="8.0" transform="matrix(0.0078, 0.0, 0.0, 0.0078, 15.0, 8.0)" width="25.0" xlink:href="#font_Verdana_8pt_st_00"/>
        <use fill="#000000" height="8.0" transform="matrix(0.0078, 0.0, 0.0, 0.0078, 21.0, 8.0)" width="25.0" xlink:href="#font_Verdana_8pt_st_00"/>
      </g>
    </g>
    <g id="text12" transform="matrix(1.0, 0.0, 0.0, 1.0, -1.0, -2.0)">
      <g transform="matrix(1.0, 0.0, 0.0, 1.0, 0.0, 0.0)">
        <use fill="#000000" height="8.0" transform="matrix(0.0078, 0.0, 0.0, 0.0078, 0.0, 8.0)" width="25.0" xlink:href="#font_Verdana_8pt_st_10"/>
        <use fill="#000000" height="8.0" transform="matrix(0.0078, 0.0, 0.0, 0.0078, 6.0, 8.0)" width="25.0" xlink:href="#font_Verdana_8pt_st_.0"/>
        <use fill="#000000" height="8.0" transform="matrix(0.0078, 0.0, 0.0, 0.0078, 9.0, 8.0)" width="25.0" xlink:href="#font_Verdana_8pt_st_30"/>
        <use fill="#000000" height="8.0" transform="matrix(0.0078, 0.0, 0.0, 0.0078, 15.0, 8.0)" width="25.0" xlink:href="#font_Verdana_8pt_st_00"/>
        <use fill="#000000" height="8.0" transform="matrix(0.0078, 0.0, 0.0, 0.0078, 21.0, 8.0)" width="25.0" xlink:href="#font_Verdana_8pt_st_00"/>
      </g>
    </g>
    <g id="text13" transform="matrix(1.0, 0.0, 0.0, 1.0, -1.0, -2.0)">
      <g transform="matrix(1.0, 0.0, 0.0, 1.0, 0.0, 0.0)">
        <use fill="#000000" height="8.0" transform="matrix(0.0078, 0.0, 0.0, 0.0078, 0.0, 8.0)" width="25.0" xlink:href="#font_Verdana_8pt_st_10"/>
        <use fill="#000000" height="8.0" transform="matrix(0.0078, 0.0, 0.0, 0.0078, 6.0, 8.0)" width="25.0" xlink:href="#font_Verdana_8pt_st_.0"/>
        <use fill="#000000" height="8.0" transform="matrix(0.0078, 0.0, 0.0, 0.0078, 9.0, 8.0)" width="25.0" xlink:href="#font_Verdana_8pt_st_60"/>
        <use fill="#000000" height="8.0" transform="matrix(0.0078, 0.0, 0.0, 0.0078, 15.0, 8.0)" width="25.0" xlink:href="#font_Verdana_8pt_st_00"/>
        <use fill="#000000" height="8.0" transform="matrix(0.0078, 0.0, 0.0, 0.0078, 21.0, 8.0)" width="25.0" xlink:href="#font_Verdana_8pt_st_00"/>
      </g>
    </g>
    <g id="text14" transform="matrix(1.0, 0.0, 0.0, 1.0, -1.0, -2.0)">
      <g transform="matrix(1.0, 0.0, 0.0, 1.0, 0.0, 0.0)">
        <use fill="#000000" height="8.0" transform="matrix(0.0078, 0.0, 0.0, 0.0078, 0.0, 8.0)" width="25.0" xlink:href="#font_Verdana_8pt_st_20"/>
        <use fill="#000000" height="8.0" transform="matrix(0.0078, 0.0, 0.0, 0.0078, 6.0, 8.0)" width="25.0" xlink:href="#font_Verdana_8pt_st_.0"/>
        <use fill="#000000" height="8.0" transform="matrix(0.0078, 0.0, 0.0, 0.0078, 9.0, 8.0)" width="25.0" xlink:href="#font_Verdana_8pt_st_00"/>
        <use fill="#000000" height="8.0" transform="matrix(0.0078, 0.0, 0.0, 0.0078, 15.0, 8.0)" width="25.0" xlink:href="#font_Verdana_8pt_st_00"/>
        <use fill="#000000" height="8.0" transform="matrix(0.0078, 0.0, 0.0, 0.0078, 21.0, 8.0)" width="25.0" xlink:href="#font_Verdana_8pt_st_00"/>
      </g>
    </g>
    <g id="font_Verdana_8pt_st_20">
      <path d="M384.0 0.0 L640.0 0.0 640.0 128.0 128.0 128.0 128.0 -128.0 384.0 -128.0 384.0 0.0 M640.0 -512.0 L640.0 -256.0 512.0 -256.0 512.0 -128.0 384.0 -128.0 384.0 -512.0 128.0 -512.0 128.0 -640.0 512.0 -640.0 512.0 -512.0 640.0 -512.0" fill-rule="evenodd" stroke="none"/>
    </g>
    <g id="text15" transform="matrix(1.0, 0.0, 0.0, 1.0, -1.0, -2.0)">
      <g transform="matrix(1.0, 0.0, 0.0, 1.0, 0.0, 0.0)">
        <use fill="#000000" height="8.0" transform="matrix(0.0078, 0.0, 0.0, 0.0078, 0.0, 8.0)" width="25.0" xlink:href="#font_Verdana_8pt_st_20"/>
        <use fill="#000000" height="8.0" transform="matrix(0.0078, 0.0, 0.0, 0.0078, 6.0, 8.0)" width="25.0" xlink:href="#font_Verdana_8pt_st_.0"/>
        <use fill="#000000" height="8.0" transform="matrix(0.0078, 0.0, 0.0, 0.0078, 9.0, 8.0)" width="25.0" xlink:href="#font_Verdana_8pt_st_50"/>
        <use fill="#000000" height="8.0" transform="matrix(0.0078, 0.0, 0.0, 0.0078, 15.0, 8.0)" width="25.0" xlink:href="#font_Verdana_8pt_st_00"/>
        <use fill="#000000" height="8.0" transform="matrix(0.0078, 0.0, 0.0, 0.0078, 21.0, 8.0)" width="25.0" xlink:href="#font_Verdana_8pt_st_00"/>
      </g>
    </g>
    <g id="text16" transform="matrix(1.0, 0.0, 0.0, 1.0, -1.0, -2.0)">
      <g transform="matrix(1.0, 0.0, 0.0, 1.0, 0.0, 0.0)">
        <use fill="#000000" height="8.0" transform="matrix(0.0078, 0.0, 0.0, 0.0078, 0.0, 8.0)" width="25.0" xlink:href="#font_Verdana_8pt_st_30"/>
        <use fill="#000000" height="8.0" transform="matrix(0.0078, 0.0, 0.0, 0.0078, 6.0, 8.0)" width="25.0" xlink:href="#font_Verdana_8pt_st_.0"/>
        <use fill="#000000" height="8.0" transform="matrix(0.0078, 0.0, 0.0, 0.0078, 9.0, 8.0)" width="25.0" xlink:href="#font_Verdana_8pt_st_00"/>
        <use fill="#000000" height="8.0" transform="matrix(0.0078, 0.0, 0.0, 0.0078, 15.0, 8.0)" width="25.0" xlink:href="#font_Verdana_8pt_st_00"/>
        <use fill="#000000" height="8.0" transform="matrix(0.0078, 0.0, 0.0, 0.0078, 21.0, 8.0)" width="25.0" xlink:href="#font_Verdana_8pt_st_00"/>
      </g>
    </g>
    <g id="text17" transform="matrix(1.0, 0.0, 0.0, 1.0, 0.0, -2.0)">
      <g transform="matrix(1.0, 0.0, 0.0, 1.0, 0.0, 0.0)">
        <use fill="#000000" height="8.0" transform="matrix(0.0078, 0.0, 0.0, 0.0078, 0.0, 8.0)" width="26.0" xlink:href="#font_Verdana_8pt_st_40"/>
        <use fill="#000000" height="8.0" transform="matrix(0.0078, 0.0, 0.0, 0.0078, 6.0, 8.0)" width="26.0" xlink:href="#font_Verdana_8pt_st_.0"/>
        <use fill="#000000" height="8.0" transform="matrix(0.0078, 0.0, 0.0, 0.0078, 9.0, 8.0)" width="26.0" xlink:href="#font_Verdana_8pt_st_00"/>
        <use fill="#000000" height="8.0" transform="matrix(0.0078, 0.0, 0.0, 0.0078, 15.0, 8.0)" width="26.0" xlink:href="#font_Verdana_8pt_st_00"/>
        <use fill="#000000" height="8.0" transform="matrix(0.0078, 0.0, 0.0, 0.0078, 21.0, 8.0)" width="26.0" xlink:href="#font_Verdana_8pt_st_00"/>
      </g>
    </g>
    <g id="text18" transform="matrix(1.0, 0.0, 0.0, 1.0, -44.0, -1.0)">
      <g transform="matrix(1.0, 0.0, 0.0, 1.0, 43.0, 0.0)">
        <use fill="#000000" height="14.0" transform="matrix(0.0107, 0.0, 0.0, 0.0107, 0.0, 11.0)" width="217.0" xlink:href="#font_Verdana_11pt_st_c0"/>
        <use fill="#000000" height="14.0" transform="matrix(0.0107, 0.0, 0.0, 0.0107, 6.0, 11.0)" width="217.0" xlink:href="#font_Verdana_11pt_st_o0"/>
        <use fill="#000000" height="14.0" transform="matrix(0.0107, 0.0, 0.0, 0.0107, 14.0, 11.0)" width="217.0" xlink:href="#font_Verdana_11pt_st_n0"/>
        <use fill="#000000" height="14.0" transform="matrix(0.0107, 0.0, 0.0, 0.0107, 22.0, 11.0)" width="217.0" xlink:href="#font_Verdana_11pt_st_c0"/>
        <use fill="#000000" height="14.0" transform="matrix(0.0107, 0.0, 0.0, 0.0107, 28.0, 11.0)" width="217.0" xlink:href="#font_Verdana_11pt_st_e0"/>
        <use fill="#000000" height="14.0" transform="matrix(0.0107, 0.0, 0.0, 0.0107, 35.0, 11.0)" width="217.0" xlink:href="#font_Verdana_11pt_st_n0"/>
        <use fill="#000000" height="14.0" transform="matrix(0.0107, 0.0, 0.0, 0.0107, 43.0, 11.0)" width="217.0" xlink:href="#font_Verdana_11pt_st_t0"/>
        <use fill="#000000" height="14.0" transform="matrix(0.0107, 0.0, 0.0, 0.0107, 48.0, 11.0)" width="217.0" xlink:href="#font_Verdana_11pt_st_r0"/>
        <use fill="#000000" height="14.0" transform="matrix(0.0107, 0.0, 0.0, 0.0107, 53.0, 11.0)" width="217.0" xlink:href="#font_Verdana_11pt_st_a0"/>
        <use fill="#000000" height="14.0" transform="matrix(0.0107, 0.0, 0.0, 0.0107, 60.0, 11.0)" width="217.0" xlink:href="#font_Verdana_11pt_st_t0"/>
        <use fill="#000000" height="14.0" transform="matrix(0.0107, 0.0, 0.0, 0.0107, 65.0, 11.0)" width="217.0" xlink:href="#font_Verdana_11pt_st_i0"/>
        <use fill="#000000" height="14.0" transform="matrix(0.0107, 0.0, 0.0, 0.0107, 69.0, 11.0)" width="217.0" xlink:href="#font_Verdana_11pt_st_o0"/>
        <use fill="#000000" height="14.0" transform="matrix(0.0107, 0.0, 0.0, 0.0107, 77.0, 11.0)" width="217.0" xlink:href="#font_Verdana_11pt_st_n0"/>
        <use fill="#000000" height="14.0" transform="matrix(0.0107, 0.0, 0.0, 0.0107, 85.0, 11.0)" width="217.0" xlink:href="#font_Verdana_11pt_st__0"/>
        <use fill="#000000" height="14.0" transform="matrix(0.0107, 0.0, 0.0, 0.0107, 89.0, 11.0)" width="217.0" xlink:href="#font_Verdana_11pt_st_o0"/>
        <use fill="#000000" height="14.0" transform="matrix(0.0107, 0.0, 0.0, 0.0107, 97.0, 11.0)" width="217.0" xlink:href="#font_Verdana_11pt_st_f0"/>
        <use fill="#000000" height="14.0" transform="matrix(0.0107, 0.0, 0.0, 0.0107, 102.0, 11.0)" width="217.0" xlink:href="#font_Verdana_11pt_st__0"/>
        <use fill="#000000" height="14.0" transform="matrix(0.0107, 0.0, 0.0, 0.0107, 106.0, 11.0)" width="217.0" xlink:href="#font_Verdana_11pt_st__0"/>
        <use fill="#000000" height="14.0" transform="matrix(0.0107, 0.0, 0.0, 0.0107, 110.0, 11.0)" width="217.0" xlink:href="#font_Verdana_11pt_st_S0"/>
        <use fill="#000000" height="14.0" transform="matrix(0.0107, 0.0, 0.0, 0.0107, 118.0, 11.0)" width="217.0" xlink:href="#font_Verdana_11pt_st_D0"/>
        <use fill="#000000" height="14.0" transform="matrix(0.0107, 0.0, 0.0, 0.0107, 127.0, 11.0)" width="217.0" xlink:href="#font_Verdana_11pt_st_S0"/>
        <use fill="#000000" height="14.0" transform="matrix(0.0107, 0.0, 0.0, 0.0107, 135.0, 11.0)" width="217.0" xlink:href="#font_Verdana_11pt_st__0"/>
        <use fill="#000000" height="14.0" transform="matrix(0.0107, 0.0, 0.0, 0.0107, 139.0, 11.0)" width="217.0" xlink:href="#font_Verdana_11pt_st__0"/>
        <use fill="#000000" height="14.0" transform="matrix(0.0107, 0.0, 0.0, 0.0107, 143.0, 11.0)" width="217.0" xlink:href="#font_Verdana_11pt_st__1"/>
        <use fill="#000000" height="14.0" transform="matrix(0.0107, 0.0, 0.0, 0.0107, 149.0, 11.0)" width="217.0" xlink:href="#font_Verdana_11pt_st_10"/>
        <use fill="#000000" height="14.0" transform="matrix(0.0107, 0.0, 0.0, 0.0107, 157.0, 11.0)" width="217.0" xlink:href="#font_Verdana_11pt_st_00"/>
      </g>
      <g transform="matrix(1.0, 0.0, 0.0, 1.0, 43.0, 0.0)">
        <use fill="#000000" height="14.0" transform="matrix(0.0068, 0.0, 0.0, 0.0068, 165.0, 7.0)" width="217.0" xlink:href="#font_Verdana_11pt_st_20"/>
      </g>
      <g transform="matrix(1.0, 0.0, 0.0, 1.0, 43.0, 0.0)">
        <use fill="#000000" height="14.0" transform="matrix(0.0107, 0.0, 0.0, 0.0107, 170.0, 11.0)" width="217.0" xlink:href="#font_Verdana_11pt_st__0"/>
        <use fill="#000000" height="14.0" transform="matrix(0.0107, 0.0, 0.0, 0.0107, 174.0, 11.0)" width="217.0" xlink:href="#font_Verdana_11pt_st_m0"/>
        <use fill="#000000" height="14.0" transform="matrix(0.0107, 0.0, 0.0, 0.0107, 186.0, 11.0)" width="217.0" xlink:href="#font_Verdana_11pt_st_o0"/>
        <use fill="#000000" height="14.0" transform="matrix(0.0107, 0.0, 0.0, 0.0107, 194.0, 11.0)" width="217.0" xlink:href="#font_Verdana_11pt_st_l0"/>
        <use fill="#000000" height="14.0" transform="matrix(0.0107, 0.0, 0.0, 0.0107, 198.0, 11.0)" width="217.0" xlink:href="#font_Verdana_11pt_st__2"/>
        <use fill="#000000" height="14.0" transform="matrix(0.0107, 0.0, 0.0, 0.0107, 206.0, 11.0)" width="217.0" xlink:href="#font_Verdana_11pt_st_L0"/>
        <use fill="#000000" height="14.0" transform="matrix(0.0107, 0.0, 0.0, 0.0107, 213.0, 11.0)" width="217.0" xlink:href="#font_Verdana_11pt_st__3"/>
      </g>
    </g>
    <g id="font_Verdana_11pt_st_c0">
      <path d="M558.55 -372.35 L279.25 -372.35 279.25 0.0 558.55 0.0 558.55 93.1 186.2 93.1 186.2 0.0 93.1 0.0 93.1 -372.35 186.2 -372.35 186.2 -465.45 558.55 -465.45 558.55 -372.35" fill-rule="evenodd" stroke="none"/>
    </g>
    <g id="font_Verdana_11pt_st_o0">
      <path d="M465.45 -372.35 L279.25 -372.35 279.25 0.0 465.45 0.0 465.45 -372.35 M558.55 -372.35 L651.65 -372.35 651.65 0.0 558.55 0.0 558.55 93.1 186.2 93.1 186.2 0.0 93.1 0.0 93.1 -372.35 186.2 -372.35 186.2 -465.45 558.55 -465.45 558.55 -372.35" fill-rule="evenodd" stroke="none"/>
    </g>
    <g id="font_Verdana_11pt_st_n0">
      <path d="M558.55 -372.35 L651.65 -372.35 651.65 93.1 465.45 93.1 465.45 -372.35 279.25 -372.35 279.25 93.1 93.1 93.1 93.1 -465.45 558.55 -465.45 558.55 -372.35" fill-rule="evenodd" stroke="none"/>
    </g>
    <g id="font_Verdana_11pt_st_e0">
      <path d="M558.55 -93.1 L651.65 -93.1 651.65 0.0 558.55 0.0 558.55 -93.1 M465.45 -279.25 L465.45 -372.35 279.25 -372.35 279.25 -279.25 465.45 -279.25 M558.55 -372.35 L651.65 -372.35 651.65 -186.2 279.25 -186.2 279.25 0.0 558.55 0.0 558.55 93.1 186.2 93.1 186.2 0.0 93.1 0.0 93.1 -372.35 186.2 -372.35 186.2 -465.45 558.55 -465.45 558.55 -372.35" fill-rule="evenodd" stroke="none"/>
    </g>
    <g id="font_Verdana_11pt_st_t0">
      <path d="M465.45 -372.35 L279.25 -372.35 279.25 0.0 465.45 0.0 465.45 93.1 186.2 93.1 186.2 0.0 93.1 0.0 93.1 -372.35 0.0 -372.35 0.0 -465.45 93.1 -465.45 93.1 -651.65 279.25 -651.65 279.25 -465.45 465.45 -465.45 465.45 -372.35" fill-rule="evenodd" stroke="none"/>
    </g>
    <g id="font_Verdana_11pt_st_r0">
      <path d="M558.55 -465.45 L558.55 -279.25 279.25 -279.25 279.25 93.1 93.1 93.1 93.1 -465.45 279.25 -465.45 279.25 -372.35 372.35 -372.35 372.35 -465.45 558.55 -465.45" fill-rule="evenodd" stroke="none"/>
    </g>
    <g id="font_Verdana_11pt_st_a0">
      <path d="M279.25 0.0 L465.45 0.0 465.45 -186.2 279.25 -186.2 279.25 0.0 M558.55 -372.35 L651.65 -372.35 651.65 93.1 186.2 93.1 186.2 0.0 93.1 0.0 93.1 -186.2 186.2 -186.2 186.2 -279.25 465.45 -279.25 465.45 -372.35 186.2 -372.35 186.2 -465.45 558.55 -465.45 558.55 -372.35" fill-rule="evenodd" stroke="none"/>
    </g>
    <g id="font_Verdana_11pt_st_i0">
      <path d="M279.25 -465.45 L279.25 93.1 93.1 93.1 93.1 -465.45 279.25 -465.45 M279.25 -558.55 L93.1 -558.55 93.1 -651.65 279.25 -651.65 279.25 -558.55" fill-rule="evenodd" stroke="none"/>
    </g>
    <g id="font_Verdana_11pt_st_f0">
      <path d="M465.45 -744.75 L465.45 -651.65 279.25 -651.65 279.25 -465.45 465.45 -465.45 465.45 -372.35 279.25 -372.35 279.25 93.1 93.1 93.1 93.1 -372.35 0.0 -372.35 0.0 -465.45 93.1 -465.45 93.1 -651.65 186.2 -651.65 186.2 -744.75 465.45 -744.75" fill-rule="evenodd" stroke="none"/>
    </g>
    <g id="font_Verdana_11pt_st_S0">
      <path d="M93.1 -93.1 L186.2 -93.1 186.2 0.0 93.1 0.0 93.1 -93.1 M558.55 -558.55 L279.25 -558.55 279.25 -372.35 558.55 -372.35 558.55 -279.25 651.65 -279.25 651.65 0.0 558.55 0.0 558.55 93.1 186.2 93.1 186.2 0.0 465.45 0.0 465.45 -186.2 186.2 -186.2 186.2 -279.25 93.1 -279.25 93.1 -558.55 186.2 -558.55 186.2 -651.65 558.55 -651.65 558.55 -558.55 651.65 -558.55 651.65 -465.45 558.55 -465.45 558.55 -558.55" fill-rule="evenodd" stroke="none"/>
    </g>
    <g id="font_Verdana_11pt_st_D0">
      <path d="M465.45 -465.45 L465.45 -558.55 279.25 -558.55 279.25 0.0 465.45 0.0 465.45 -93.1 558.55 -93.1 558.55 -465.45 465.45 -465.45 M558.55 -558.55 L651.65 -558.55 651.65 -465.45 744.75 -465.45 744.75 -93.1 651.65 -93.1 651.65 0.0 558.55 0.0 558.55 93.1 93.1 93.1 93.1 -651.65 558.55 -651.65 558.55 -558.55" fill-rule="evenodd" stroke="none"/>
    </g>
    <g id="font_Verdana_11pt_st__1">
      <path d="M465.45 -744.75 L465.45 -651.65 372.35 -651.65 372.35 -465.45 279.25 -465.45 279.25 0.0 372.35 0.0 372.35 186.2 465.45 186.2 465.45 279.25 279.25 279.25 279.25 186.2 186.2 186.2 186.2 0.0 93.1 0.0 93.1 -465.45 186.2 -465.45 186.2 -651.65 279.25 -651.65 279.25 -744.75 465.45 -744.75" fill-rule="evenodd" stroke="none"/>
    </g>
    <g id="font_Verdana_11pt_st_10">
      <path d="M186.2 -558.55 L279.25 -558.55 279.25 -651.65 465.45 -651.65 465.45 0.0 558.55 0.0 558.55 93.1 186.2 93.1 186.2 0.0 279.25 0.0 279.25 -465.45 186.2 -465.45 186.2 -558.55" fill-rule="evenodd" stroke="none"/>
    </g>
    <g id="font_Verdana_11pt_st_00">
      <path d="M465.45 -558.55 L279.25 -558.55 279.25 0.0 465.45 0.0 465.45 -558.55 M558.55 -558.55 L651.65 -558.55 651.65 0.0 558.55 0.0 558.55 93.1 186.2 93.1 186.2 0.0 93.1 0.0 93.1 -558.55 186.2 -558.55 186.2 -651.65 558.55 -651.65 558.55 -558.55" fill-rule="evenodd" stroke="none"/>
    </g>
    <g id="font_Verdana_11pt_st_20">
      <path d="M146.3 -585.15 L146.3 -731.45 585.15 -731.45 585.15 -292.55 438.85 -292.55 438.85 -585.15 146.3 -585.15 M438.85 -146.3 L731.45 -146.3 731.45 0.0 146.3 0.0 146.3 -146.3 292.55 -146.3 292.55 -292.55 438.85 -292.55 438.85 -146.3" fill-rule="evenodd" stroke="none"/>
    </g>
    <g id="font_Verdana_11pt_st_m0">
      <path d="M930.9 -372.35 L1024.0 -372.35 1024.0 93.1 837.8 93.1 837.8 -372.35 651.65 -372.35 651.65 -465.45 930.9 -465.45 930.9 -372.35 M558.55 -372.35 L651.65 -372.35 651.65 93.1 465.45 93.1 465.45 -372.35 279.25 -372.35 279.25 93.1 93.1 93.1 93.1 -465.45 558.55 -465.45 558.55 -372.35" fill-rule="evenodd" stroke="none"/>
    </g>
    <g id="font_Verdana_11pt_st_l0">
      <path d="M279.25 -744.75 L279.25 93.1 93.1 93.1 93.1 -744.75 279.25 -744.75" fill-rule="evenodd" stroke="none"/>
    </g>
    <g id="font_Verdana_11pt_st__2">
      <path d="M372.35 -558.55 L465.45 -558.55 465.45 -744.75 651.65 -744.75 651.65 -558.55 558.55 -558.55 558.55 -372.35 465.45 -372.35 465.45 -93.1 372.35 -93.1 372.35 93.1 279.25 93.1 279.25 279.25 93.1 279.25 93.1 93.1 186.2 93.1 186.2 -93.1 279.25 -93.1 279.25 -372.35 372.35 -372.35 372.35 -558.55" fill-rule="evenodd" stroke="none"/>
    </g>
    <g id="font_Verdana_11pt_st_L0">
      <path d="M279.25 -651.65 L279.25 0.0 651.65 0.0 651.65 93.1 93.1 93.1 93.1 -651.65 279.25 -651.65" fill-rule="evenodd" stroke="none"/>
    </g>
    <g id="font_Verdana_11pt_st__3">
      <path d="M279.25 -744.75 L279.25 -651.65 372.35 -651.65 372.35 -465.45 465.45 -465.45 465.45 0.0 372.35 0.0 372.35 186.2 279.25 186.2 279.25 279.25 93.1 279.25 93.1 186.2 186.2 186.2 186.2 0.0 279.25 0.0 279.25 -465.45 186.2 -465.45 186.2 -651.65 93.1 -651.65 93.1 -744.75 279.25 -744.75" fill-rule="evenodd" stroke="none"/>
    </g>
    <g id="sprite0" transform="matrix(1.0, 0.0, 0.0, 1.0, 0.0, 0.0)">
      <use height="22.0" transform="matrix(1.0, 0.0, 0.0, 0.1364, 0.0, 0.0)" width="80.0" xlink:href="#sprite1"/>
    </g>
    <g id="sprite1" transform="matrix(1.0, 0.0, 0.0, 1.0, 0.0, 0.0)">
      <use height="22.0" transform="matrix(1.0, 0.0, 0.0, 1.0, 0.0, 0.0)" width="80.0" xlink:href="#shape0"/>
    </g>
    <g id="shape0" transform="matrix(1.0, 0.0, 0.0, 1.0, 0.0, 0.0)">
      <path d="M80.0 22.0 L0.0 22.0 0.0 0.0 80.0 0.0 80.0 22.0" fill="#ffffff" fill-rule="evenodd" stroke="none"/>
      <path d="M80.0 22.0 L0.0 22.0 0.0 0.0 80.0 0.0 80.0 22.0 Z" fill="none" stroke="#000000" stroke-linecap="round" stroke-linejoin="round" stroke-width="0.05"/>
    </g>
  </defs>
</svg>
