<?xml version="1.0" encoding="UTF-8" standalone="no"?>
<svg xmlns:xlink="http://www.w3.org/1999/xlink" height="428.15px" width="1109.45px" xmlns="http://www.w3.org/2000/svg">
  <g transform="matrix(1.0, 0.0, 0.0, 1.0, 831.65, 126.8)">
    <use height="17.2" transform="matrix(1.0, 0.0, 0.0, 1.0, -628.2, 268.75)" width="52.8" xlink:href="#shape0"/>
    <use height="444.7" transform="matrix(0.1781, 0.0047, -0.0036, 0.1782, -636.6915, 204.1181)" width="365.1" xlink:href="#sprite0"/>
    <use height="41.7" transform="matrix(0.1781, 0.0047, -0.0036, 0.1782, -604.3, 273.55)" width="134.4" xlink:href="#sprite1"/>
    <use height="267.05" transform="matrix(0.1781, 0.0047, -0.0036, 0.1782, -587.65, 206.2)" width="78.55" xlink:href="#sprite2"/>
    <use height="269.15" transform="matrix(0.1781, 0.0047, -0.0036, 0.1782, -636.7, 206.2)" width="61.55" xlink:href="#sprite3"/>
    <use height="182.3" transform="matrix(0.1781, 0.0047, -0.0036, 0.1782, -592.8698, 235.3495)" width="13.35" xlink:href="#sprite4"/>
    <use height="297.35" transform="matrix(0.1781, 0.0047, -0.0036, 0.1782, -590.539, 221.5477)" width="63.8" xlink:href="#sprite5"/>
    <use height="8.45" transform="matrix(1.0, 0.0, 0.0, 1.0, -635.8, 201.05)" width="64.15" xlink:href="#shape6"/>
    <use height="40.55" id="fill_mc" transform="matrix(1.0, 0.0, 0.0, 1.0, -628.95, 243.3)" width="55.2" xlink:href="#sprite6"/>
    <use height="31.5" transform="matrix(0.9323, -0.3617, -0.4375, -1.0752, -595.84, 198.8549)" width="62.6" xlink:href="#shape8"/>
    <use height="18.5" transform="matrix(1.3106, 0.0, 0.0, 1.0, -612.8597, 258.1)" width="22.55" xlink:href="#shape9"/>
    <use height="133.55" transform="matrix(1.0, 0.0, 0.0, 1.0, -674.45, 146.45)" width="127.15" xlink:href="#sprite7"/>
    <use height="16.5" transform="matrix(1.0, 0.0, 0.0, 1.0, -629.15, 247.9)" width="56.25" xlink:href="#shape11"/>
    <use height="25.95" transform="matrix(1.0, 0.0, 0.0, 1.0, -642.15, 215.8)" width="80.75" xlink:href="#sprite8"/>
    <use height="93.05" id="solag_btn" transform="matrix(1.0, 0.0, 0.0, 1.0, -643.65, 198.3)" width="85.0" xlink:href="#button0"/>
  </g>
  <defs>
    <g id="shape0" transform="matrix(1.0, 0.0, 0.0, 1.0, 23.25, -25.75)">
      <path d="M2.45 41.95 Q-7.55 41.7 -15.1 38.7 -18.45 37.35 -20.35 35.75 -22.25 34.1 -22.25 32.55 -22.2 29.6 -14.85 28.0 -8.0 26.55 2.75 26.8 13.9 27.15 20.9 28.7 28.6 30.4 28.55 33.4 28.55 34.9 26.4 36.45 24.3 38.1 20.65 39.35 16.85 40.65 12.35 41.35 L2.45 41.95" fill="#cccccc" fill-rule="evenodd" stroke="none"/>
      <path d="M2.45 41.95 Q-7.55 41.7 -15.1 38.7 -18.45 37.35 -20.35 35.75 -22.25 34.1 -22.25 32.55 -22.2 29.6 -14.85 28.0 -8.0 26.55 2.75 26.8 13.9 27.15 20.9 28.7 28.6 30.4 28.55 33.4 28.55 34.9 26.4 36.45 24.3 38.1 20.65 39.35 16.85 40.65 12.35 41.35 L2.45 41.95 Z" fill="none" stroke="#c9d1d4" stroke-linecap="round" stroke-linejoin="round" stroke-width="2.0"/>
    </g>
    <g id="sprite0" transform="matrix(1.0, 0.0, 0.0, 1.0, -0.05, -0.1)">
      <use height="444.7" transform="matrix(1.0, 0.0, 0.0, 1.0, 0.05, 0.1)" width="365.1" xlink:href="#shape1"/>
    </g>
    <g id="shape1" transform="matrix(1.0, 0.0, 0.0, 1.0, -0.05, -0.1)">
      <path d="M364.05 1.1 Q361.05 3.9 358.5 10.0 354.2 20.4 353.75 35.85 L355.75 383.8 Q355.75 387.65 353.55 390.75 351.35 393.8 347.85 395.1 334.1 416.65 294.7 430.35 254.6 444.3 204.0 444.3 153.05 444.3 112.8 430.2 73.2 416.3 59.8 394.5 56.85 393.0 55.05 390.15 53.25 387.25 53.25 383.8 L43.15 64.2 Q39.7 43.9 18.25 36.4 16.05 35.65 4.8 32.85 -0.45 31.5 0.8 29.85 11.2 15.9 33.6 15.65 40.55 15.6 48.95 16.9 L57.4 18.2 106.85 21.3 186.1 23.7 268.75 20.4 305.75 16.15 340.75 9.2 Q354.15 6.25 361.55 2.5 L364.05 1.1" fill="url(#gradient0)" fill-rule="evenodd" stroke="none"/>
      <path d="M364.05 1.1 L364.3 0.85 Q364.8 0.4 364.55 0.7 L364.05 1.1 Q361.05 3.9 358.5 10.0 354.2 20.4 353.75 35.85 L355.75 383.8 Q355.75 387.65 353.55 390.75 351.35 393.8 347.85 395.1 334.1 416.65 294.7 430.35 254.6 444.3 204.0 444.3 153.05 444.3 112.8 430.2 73.2 416.3 59.8 394.5 56.85 393.0 55.05 390.15 53.25 387.25 53.25 383.8 L43.15 64.2 Q39.7 43.9 18.25 36.4 16.05 35.65 4.8 32.85 -0.45 31.5 0.8 29.85 11.2 15.9 33.6 15.65 40.55 15.6 48.95 16.9 L57.4 18.2 106.85 21.3 186.1 23.7 268.75 20.4 305.75 16.15 340.75 9.2 Q354.15 6.25 361.55 2.5 L364.05 1.1" fill="none" stroke="#a0a09d" stroke-linecap="round" stroke-linejoin="miter" stroke-miterlimit="10.0" stroke-width="1.0"/>
    </g>
    <radialGradient cx="0" cy="0" gradientTransform="matrix(0.2478, 0.0, 0.0, -0.2478, 182.65, 222.4)" gradientUnits="userSpaceOnUse" id="gradient0" r="819.2" spreadMethod="pad">
      <stop offset="0.0" stop-color="#ffffff"/>
      <stop offset="1.0" stop-color="#cccccc"/>
    </radialGradient>
    <g id="sprite1" transform="matrix(1.0, 0.0, 0.0, 1.0, 0.0, 0.0)">
      <use height="41.7" transform="matrix(1.0, 0.0, 0.0, 1.0, 0.0, 0.0)" width="134.4" xlink:href="#shape2"/>
    </g>
    <g id="shape2" transform="matrix(1.0, 0.0, 0.0, 1.0, 0.0, 0.0)">
      <path d="M127.95 26.3 Q121.0 32.85 111.6 37.05 100.4 42.05 89.85 41.7 77.2 41.25 67.2 33.1 45.3 15.2 19.7 16.9 13.6 17.3 5.3 18.75 0.0 19.35 0.0 16.55 0.0 9.7 19.7 4.85 39.35 0.0 67.2 0.0 95.05 0.0 114.75 4.85 134.4 9.7 134.4 16.55 134.4 20.2 127.95 26.3" fill="#ffffff" fill-rule="evenodd" stroke="none"/>
    </g>
    <g id="sprite2" transform="matrix(1.0, 0.0, 0.0, 1.0, 0.0, 0.0)">
      <use height="267.05" transform="matrix(1.0, 0.0, 0.0, 1.0, 0.0, 0.0)" width="78.55" xlink:href="#shape3"/>
    </g>
    <g id="shape3" transform="matrix(1.0, 0.0, 0.0, 1.0, 0.0, 0.0)">
      <path d="M0.0 21.45 L0.65 0.0 74.2 0.0 74.2 175.8 Q74.2 211.8 78.55 267.05 70.75 249.95 67.05 212.0 65.8 198.95 64.45 177.2 L62.15 141.05 Q58.75 94.2 41.6 60.05 23.85 24.7 0.0 21.45" fill="url(#gradient1)" fill-rule="evenodd" stroke="none"/>
    </g>
    <linearGradient gradientTransform="matrix(-0.0362, 0.0, 0.0, 0.0362, 43.5, 133.55)" gradientUnits="userSpaceOnUse" id="gradient1" spreadMethod="pad" x1="-819.2" x2="819.2">
      <stop offset="0.0" stop-color="#ffffff"/>
      <stop offset="1.0" stop-color="#cccccc"/>
    </linearGradient>
    <g id="sprite3" transform="matrix(1.0, 0.0, 0.0, 1.0, 0.0, 0.0)">
      <use height="269.15" transform="matrix(1.0, 0.0, 0.0, 1.0, 0.0, 0.0)" width="61.55" xlink:href="#shape4"/>
    </g>
    <g id="shape4" transform="matrix(1.0, 0.0, 0.0, 1.0, 0.0, 0.0)">
      <path d="M35.95 34.25 Q24.9 23.5 0.0 21.4 L11.65 0.0 57.2 0.0 57.2 175.75 Q57.2 211.7 61.55 267.05 55.2 273.15 52.0 261.7 49.4 252.45 48.4 229.15 48.15 224.2 47.25 184.05 46.6 155.6 45.1 141.05 43.4 124.8 45.4 98.1 47.4 70.4 46.7 61.15 45.3 43.35 35.95 34.25" fill="url(#gradient2)" fill-rule="evenodd" stroke="none"/>
    </g>
    <linearGradient gradientTransform="matrix(-0.0284, 0.0, 0.0, 0.0284, 34.05, 134.6)" gradientUnits="userSpaceOnUse" id="gradient2" spreadMethod="pad" x1="-819.2" x2="819.2">
      <stop offset="0.0" stop-color="#ffffff"/>
      <stop offset="1.0" stop-color="#999999"/>
    </linearGradient>
    <g id="sprite4" transform="matrix(1.0, 0.0, 0.0, 1.0, -24.95, -17.3)">
      <use height="13.35" transform="matrix(0.0, -1.0, 1.0, 0.0, 24.95, 199.6)" width="182.3" xlink:href="#text0"/>
    </g>
    <g id="text0" transform="matrix(1.0, 0.0, 0.0, 1.0, 0.0, -0.45)">
      <g transform="matrix(1.0, 0.0, 0.0, 1.0, 0.0, 0.0)">
        <use fill="#858789" height="13.35" transform="matrix(0.0137, 0.0, 0.0, 0.0137, 0.0, 13.0)" width="182.3" xlink:href="#font_Arial_A0"/>
        <use fill="#858789" height="13.35" transform="matrix(0.0137, 0.0, 0.0, 0.0137, 9.35, 13.0)" width="182.3" xlink:href="#font_Arial_P0"/>
        <use fill="#858789" height="13.35" transform="matrix(0.0137, 0.0, 0.0, 0.0137, 18.7, 13.0)" width="182.3" xlink:href="#font_Arial_P0"/>
        <use fill="#858789" height="13.35" transform="matrix(0.0137, 0.0, 0.0, 0.0137, 28.05, 13.0)" width="182.3" xlink:href="#font_Arial_R0"/>
        <use fill="#858789" height="13.35" transform="matrix(0.0137, 0.0, 0.0, 0.0137, 38.15, 13.0)" width="182.3" xlink:href="#font_Arial_O0"/>
        <use fill="#858789" height="13.35" transform="matrix(0.0137, 0.0, 0.0, 0.0137, 49.05, 13.0)" width="182.3" xlink:href="#font_Arial_X0"/>
        <use fill="#858789" height="13.35" transform="matrix(0.0137, 0.0, 0.0, 0.0137, 58.4, 13.0)" width="182.3" xlink:href="#font_Arial_I0"/>
        <use fill="#858789" height="13.35" transform="matrix(0.0137, 0.0, 0.0, 0.0137, 62.3, 13.0)" width="182.3" xlink:href="#font_Arial_M0"/>
        <use fill="#858789" height="13.35" transform="matrix(0.0137, 0.0, 0.0, 0.0137, 73.95, 13.0)" width="182.3" xlink:href="#font_Arial_A0"/>
        <use fill="#858789" height="13.35" transform="matrix(0.0137, 0.0, 0.0, 0.0137, 82.25, 13.0)" width="182.3" xlink:href="#font_Arial_T0"/>
        <use fill="#858789" height="13.35" transform="matrix(0.0137, 0.0, 0.0, 0.0137, 90.8, 13.0)" width="182.3" xlink:href="#font_Arial_E0"/>
        <use fill="#858789" height="13.35" transform="matrix(0.0137, 0.0, 0.0, 0.0137, 100.15, 13.0)" width="182.3" xlink:href="#font_Arial__0"/>
        <use fill="#858789" height="13.35" transform="matrix(0.0137, 0.0, 0.0, 0.0137, 104.05, 13.0)" width="182.3" xlink:href="#font_Arial_V0"/>
        <use fill="#858789" height="13.35" transform="matrix(0.0137, 0.0, 0.0, 0.0137, 113.4, 13.0)" width="182.3" xlink:href="#font_Arial_O0"/>
        <use fill="#858789" height="13.35" transform="matrix(0.0137, 0.0, 0.0, 0.0137, 124.3, 13.0)" width="182.3" xlink:href="#font_Arial_L0"/>
        <use fill="#858789" height="13.35" transform="matrix(0.0137, 0.0, 0.0, 0.0137, 132.1, 13.0)" width="182.3" xlink:href="#font_Arial_U0"/>
        <use fill="#858789" height="13.35" transform="matrix(0.0137, 0.0, 0.0, 0.0137, 142.2, 13.0)" width="182.3" xlink:href="#font_Arial_M0"/>
        <use fill="#858789" height="13.35" transform="matrix(0.0137, 0.0, 0.0, 0.0137, 153.85, 13.0)" width="182.3" xlink:href="#font_Arial_E0"/>
        <use fill="#858789" height="13.35" transform="matrix(0.0137, 0.0, 0.0, 0.0137, 163.2, 13.0)" width="182.3" xlink:href="#font_Arial_S0"/>
      </g>
    </g>
    <g id="font_Arial_A0">
      <path d="M210.0 -301.0 L290.5 -516.0 Q316.0 -585.5 330.0 -656.0 347.0 -596.5 382.0 -504.0 L458.5 -301.0 210.0 -301.0 M-1.5 0.0 L101.5 0.0 182.0 -222.0 488.5 -222.0 574.0 0.0 684.5 0.0 384.5 -733.0 280.0 -733.0 -1.5 0.0" fill-rule="evenodd" stroke="none"/>
    </g>
    <g id="font_Arial_P0">
      <path d="M176.0 -384.5 L176.0 -646.5 363.5 -646.5 Q429.5 -646.5 454.0 -640.0 492.0 -629.5 515.5 -596.5 538.5 -564.0 538.5 -518.0 538.5 -454.5 499.0 -419.5 459.5 -384.5 365.5 -384.5 L176.0 -384.5 M79.0 0.0 L176.0 0.0 176.0 -298.0 364.0 -298.0 Q519.5 -298.0 579.0 -362.5 638.5 -427.5 638.5 -521.0 638.5 -575.5 616.5 -621.0 594.0 -666.5 557.5 -691.5 521.0 -717.0 467.0 -726.0 428.5 -733.0 355.5 -733.0 L79.0 -733.0 79.0 0.0" fill-rule="evenodd" stroke="none"/>
    </g>
    <g id="font_Arial_R0">
      <path d="M177.5 -409.5 L177.5 -652.0 409.5 -652.0 Q491.0 -652.0 529.0 -618.5 566.5 -585.0 566.5 -533.0 566.5 -497.5 547.0 -467.0 527.5 -437.0 490.0 -423.0 452.5 -409.5 386.0 -409.5 L177.5 -409.5 M80.5 0.0 L177.5 0.0 177.5 -325.5 290.0 -325.5 Q327.5 -325.5 344.0 -322.0 366.5 -316.5 388.5 -302.5 410.0 -288.5 437.5 -253.5 465.0 -218.5 507.5 -152.5 L604.5 0.0 726.5 0.0 599.0 -199.5 Q561.0 -258.0 518.5 -297.0 498.5 -315.0 460.0 -333.5 565.5 -348.0 616.0 -401.5 666.5 -455.0 666.5 -533.0 666.5 -593.5 636.0 -643.5 605.5 -693.5 554.5 -713.0 503.5 -733.0 405.5 -733.0 L80.5 -733.0 80.5 0.0" fill-rule="evenodd" stroke="none"/>
    </g>
    <g id="font_Arial_O0">
      <path d="M149.5 -355.5 L149.5 -355.5 Q149.5 -521.0 224.0 -591.5 298.0 -662.5 401.0 -662.5 473.5 -662.5 532.0 -625.5 590.0 -589.0 620.5 -522.0 650.5 -455.5 650.5 -366.0 650.5 -224.5 580.0 -147.5 509.0 -70.5 399.5 -70.5 292.0 -70.5 221.0 -146.5 149.5 -223.0 149.5 -355.5 M49.5 -357.0 L49.5 -357.0 Q49.5 -260.5 91.5 -174.0 133.5 -87.5 215.0 -37.5 296.5 12.5 400.0 12.5 495.5 12.5 578.0 -32.5 660.5 -78.0 705.5 -166.0 750.5 -254.0 750.5 -365.5 750.5 -475.5 708.0 -562.0 665.0 -649.0 583.5 -697.5 502.0 -746.0 400.5 -746.0 245.5 -746.0 147.5 -642.5 49.5 -539.5 49.5 -357.0" fill-rule="evenodd" stroke="none"/>
    </g>
    <g id="font_Arial_X0">
      <path d="M4.5 0.0 L121.0 0.0 305.0 -255.5 Q315.5 -270.5 340.0 -310.5 356.5 -284.0 372.0 -261.5 L556.5 0.0 676.5 0.0 399.0 -387.5 656.5 -733.0 551.0 -733.0 403.5 -538.5 Q370.0 -495.0 345.5 -455.0 328.0 -486.5 286.5 -545.0 L153.5 -733.0 38.0 -733.0 288.0 -382.0 4.5 0.0" fill-rule="evenodd" stroke="none"/>
    </g>
    <g id="font_Arial_I0">
      <path d="M95.5 0.0 L192.5 0.0 192.5 -733.0 95.5 -733.0 95.5 0.0" fill-rule="evenodd" stroke="none"/>
    </g>
    <g id="font_Arial_M0">
      <path d="M76.0 0.0 L169.5 0.0 169.5 -624.0 381.5 0.0 469.0 0.0 682.0 -613.5 682.0 0.0 775.5 0.0 775.5 -733.0 645.0 -733.0 469.5 -223.0 Q443.0 -145.5 430.5 -105.5 419.5 -141.5 395.5 -214.0 L222.0 -733.0 76.0 -733.0 76.0 0.0" fill-rule="evenodd" stroke="none"/>
    </g>
    <g id="font_Arial_T0">
      <path d="M265.5 0.0 L362.5 0.0 362.5 -646.5 605.0 -646.5 605.0 -733.0 24.0 -733.0 24.0 -646.5 265.5 -646.5 265.5 0.0" fill-rule="evenodd" stroke="none"/>
    </g>
    <g id="font_Arial_E0">
      <path d="M81.0 0.0 L628.0 0.0 628.0 -86.5 178.0 -86.5 178.0 -336.0 583.5 -336.0 583.5 -422.0 178.0 -422.0 178.0 -646.5 611.0 -646.5 611.0 -733.0 81.0 -733.0 81.0 0.0" fill-rule="evenodd" stroke="none"/>
    </g>
    <g id="font_Arial_V0">
      <path d="M288.5 0.0 L388.0 0.0 675.0 -733.0 576.0 -733.0 378.0 -200.5 Q355.5 -140.5 338.5 -80.5 323.0 -136.5 300.0 -200.5 L109.5 -733.0 4.5 -733.0 288.5 0.0" fill-rule="evenodd" stroke="none"/>
    </g>
    <g id="font_Arial_L0">
      <path d="M75.0 0.0 L533.0 0.0 533.0 -86.5 172.0 -86.5 172.0 -733.0 75.0 -733.0 75.0 0.0" fill-rule="evenodd" stroke="none"/>
    </g>
    <g id="font_Arial_U0">
      <path d="M560.0 -733.0 L560.0 -310.0 Q560.0 -172.0 514.5 -123.5 469.0 -75.0 362.0 -75.0 299.5 -75.0 256.5 -99.5 213.0 -124.0 195.5 -169.0 177.5 -214.5 177.5 -310.0 L177.5 -733.0 80.5 -733.0 80.5 -309.5 Q80.5 -193.0 108.5 -125.5 136.5 -58.5 202.0 -23.0 267.5 12.5 370.5 12.5 476.5 12.5 542.0 -28.0 607.0 -69.0 632.0 -134.0 657.0 -199.0 657.0 -309.5 L657.0 -733.0 560.0 -733.0" fill-rule="evenodd" stroke="none"/>
    </g>
    <g id="font_Arial_S0">
      <path d="M46.0 -235.5 L46.0 -235.5 Q48.0 -162.0 86.5 -103.5 124.5 -45.5 192.0 -16.5 259.0 12.5 358.5 12.5 437.0 12.5 500.0 -16.0 562.5 -45.0 596.0 -96.5 629.5 -148.5 629.5 -207.0 629.5 -266.0 599.0 -311.0 568.5 -356.5 504.5 -386.0 460.5 -406.0 342.5 -432.5 224.0 -459.5 196.0 -485.0 167.5 -510.5 167.5 -550.0 167.5 -595.5 208.0 -627.5 248.0 -660.0 336.0 -660.0 420.5 -660.0 464.0 -624.5 507.0 -589.0 514.5 -519.5 L607.5 -526.5 Q605.0 -591.0 571.5 -642.0 538.0 -693.0 476.0 -719.0 413.5 -745.5 332.0 -745.5 258.0 -745.5 197.5 -720.5 137.0 -695.5 105.5 -647.0 74.0 -599.0 74.0 -543.5 74.0 -493.0 100.0 -452.0 125.5 -411.5 178.0 -384.0 218.5 -362.5 319.5 -338.0 420.5 -314.0 450.0 -302.5 496.0 -285.0 516.0 -259.0 536.0 -233.5 536.0 -199.0 536.0 -165.0 515.5 -136.0 494.5 -107.5 452.0 -91.0 409.5 -74.5 354.0 -74.5 291.5 -74.5 241.5 -96.0 191.5 -118.0 168.0 -153.0 144.0 -188.5 137.5 -243.5 L46.0 -235.5" fill-rule="evenodd" stroke="none"/>
    </g>
    <g id="sprite5" transform="matrix(1.0, 0.0, 0.0, 1.0, 0.5, 0.0)">
      <use height="297.35" transform="matrix(1.0, 0.0, 0.0, 1.0, -0.5, 0.0)" width="63.8" xlink:href="#shape5"/>
    </g>
    <g id="shape5" transform="matrix(1.0, 0.0, 0.0, 1.0, 0.5, 0.0)">
      <path d="M35.6 296.85 L4.1 296.85" fill="none" stroke="#868a8b" stroke-linecap="butt" stroke-linejoin="miter" stroke-miterlimit="10.0" stroke-width="1.0"/>
      <path d="M20.65 94.2 L1.1 94.55" fill="none" stroke="#868a8b" stroke-linecap="butt" stroke-linejoin="miter" stroke-miterlimit="10.0" stroke-width="1.0"/>
      <path d="M0.75 1.05 L4.3 296.45" fill="none" stroke="#868a8b" stroke-linecap="butt" stroke-linejoin="miter" stroke-miterlimit="10.0" stroke-width="1.0"/>
      <path d="M32.25 0.5 L0.0 1.05" fill="none" stroke="#868a8b" stroke-linecap="butt" stroke-linejoin="miter" stroke-miterlimit="10.0" stroke-width="1.0"/>
      <path d="M19.8 21.55 L0.25 21.9" fill="none" stroke="#868a8b" stroke-linecap="butt" stroke-linejoin="miter" stroke-miterlimit="10.0" stroke-width="1.0"/>
      <path d="M20.05 43.25 L0.5 43.6" fill="none" stroke="#868a8b" stroke-linecap="butt" stroke-linejoin="miter" stroke-miterlimit="10.0" stroke-width="1.0"/>
      <path d="M20.3 66.85 L0.8 67.2" fill="none" stroke="#868a8b" stroke-linecap="butt" stroke-linejoin="miter" stroke-miterlimit="10.0" stroke-width="1.0"/>
      <path d="M21.0 121.55 L1.45 121.9" fill="none" stroke="#868a8b" stroke-linecap="butt" stroke-linejoin="miter" stroke-miterlimit="10.0" stroke-width="1.0"/>
      <path d="M21.3 148.9 L1.75 149.25" fill="none" stroke="#868a8b" stroke-linecap="butt" stroke-linejoin="miter" stroke-miterlimit="10.0" stroke-width="1.0"/>
      <path d="M21.65 176.3 L2.1 176.6" fill="none" stroke="#868a8b" stroke-linecap="butt" stroke-linejoin="miter" stroke-miterlimit="10.0" stroke-width="1.0"/>
      <path d="M22.3 230.05 L2.75 230.4" fill="none" stroke="#868a8b" stroke-linecap="butt" stroke-linejoin="miter" stroke-miterlimit="10.0" stroke-width="1.0"/>
      <path d="M22.55 252.7 L3.0 253.05" fill="none" stroke="#868a8b" stroke-linecap="butt" stroke-linejoin="miter" stroke-miterlimit="10.0" stroke-width="1.0"/>
      <path d="M22.85 275.35 L3.3 275.7" fill="none" stroke="#868a8b" stroke-linecap="butt" stroke-linejoin="miter" stroke-miterlimit="10.0" stroke-width="1.0"/>
      <path d="M21.95 202.7 L2.4 203.05" fill="none" stroke="#868a8b" stroke-linecap="butt" stroke-linejoin="miter" stroke-miterlimit="10.0" stroke-width="1.0"/>
      <path d="M36.6 18.15 L35.8 18.95 Q36.55 19.15 36.9 19.75 37.3 20.4 37.3 21.25 37.3 22.6 36.6 23.35 35.85 24.25 34.7 24.25 33.7 24.3 33.0 23.55 32.25 22.75 32.2 21.65 L33.15 21.45 Q33.3 22.45 33.75 22.9 34.15 23.3 34.7 23.3 35.4 23.3 35.85 22.7 36.3 22.2 36.3 21.3 36.3 20.55 35.85 20.0 35.4 19.5 34.75 19.5 L34.05 19.65 34.15 18.6 34.3 18.6 Q35.0 18.6 35.4 18.2 35.9 17.85 35.9 17.0 35.9 16.45 35.5 15.95 35.1 15.55 34.6 15.55 34.05 15.55 33.65 16.0 33.25 16.45 33.2 17.3 L32.25 17.1 Q32.4 15.95 33.0 15.25 33.65 14.6 34.55 14.6 L35.75 14.9 Q36.35 15.35 36.55 15.8 L36.9 17.0 36.6 18.15" fill="#4c4c4d" fill-rule="evenodd" stroke="none"/>
      <path d="M42.65 15.65 L43.15 17.05 43.35 19.3 43.1 21.95 42.25 23.55 Q41.75 24.15 40.85 24.15 39.7 24.15 39.05 23.2 38.25 21.9 38.25 19.35 38.25 17.55 38.5 16.65 38.75 15.7 39.3 15.1 39.9 14.5 40.75 14.5 41.4 14.5 41.85 14.8 L42.65 15.65 M40.75 15.45 Q40.1 15.45 39.7 16.15 39.2 17.05 39.25 19.35 39.25 21.7 39.7 22.45 40.15 23.2 40.85 23.2 41.45 23.2 41.95 22.4 42.45 21.6 42.35 19.3 42.35 16.9 41.85 16.2 41.4 15.45 40.75 15.45" fill="#4c4c4d" fill-rule="evenodd" stroke="none"/>
      <path d="M46.8 15.35 Q46.2 15.35 45.75 16.05 45.3 16.95 45.3 19.25 45.4 21.65 45.8 22.35 46.25 23.1 46.95 23.1 47.55 23.1 48.05 22.3 48.45 21.65 48.45 19.2 48.45 16.95 47.95 16.1 47.5 15.35 46.8 15.35 M49.25 16.95 L49.45 19.2 49.2 21.85 Q48.9 23.0 48.35 23.45 47.85 24.05 46.95 24.05 45.8 24.05 45.15 23.1 44.35 21.95 44.35 19.25 44.3 17.7 44.6 16.55 44.8 15.6 45.4 14.95 46.05 14.4 46.8 14.4 47.45 14.4 47.95 14.7 L48.75 15.55 49.25 16.95" fill="#4c4c4d" fill-rule="evenodd" stroke="none"/>
      <path d="M56.4 17.7 Q55.75 17.8 55.4 18.2 55.0 18.75 55.0 19.75 L55.05 23.75 54.1 23.75 54.05 19.3 53.8 18.15 Q53.55 17.75 53.05 17.8 52.55 17.8 52.3 18.05 52.0 18.25 51.8 18.8 51.65 19.35 51.65 20.25 L51.7 23.8 50.75 23.8 50.65 16.95 51.5 16.95 51.5 17.9 52.25 17.1 Q52.7 16.75 53.25 16.75 L54.25 17.05 54.85 17.95 Q55.55 16.7 56.6 16.7 57.45 16.7 57.9 17.25 58.35 17.8 58.35 19.0 L58.4 23.7 57.45 23.7 57.4 19.4 57.3 18.4 56.95 17.9 56.4 17.7" fill="#4c4c4d" fill-rule="evenodd" stroke="none"/>
      <path d="M59.85 23.65 L59.7 14.2 60.7 14.2 60.8 23.65 59.85 23.65" fill="#4c4c4d" fill-rule="evenodd" stroke="none"/>
      <path d="M35.45 67.8 L34.35 68.8 33.95 69.3 37.8 69.25 37.8 70.15 32.65 70.25 32.75 69.6 33.35 68.55 34.6 67.35 36.3 65.65 36.75 64.5 Q36.75 63.95 36.35 63.55 35.95 63.2 35.25 63.2 34.65 63.2 34.15 63.6 33.75 64.1 33.75 64.75 L32.75 64.7 Q32.8 63.6 33.5 63.0 34.2 62.4 35.25 62.4 36.4 62.4 37.05 63.0 37.75 63.6 37.75 64.5 L37.55 65.45 36.95 66.4 35.45 67.8" fill="#4c4c4d" fill-rule="evenodd" stroke="none"/>
      <path d="M38.85 68.1 L39.85 68.0 Q39.9 68.65 40.35 69.1 L41.35 69.45 Q42.0 69.45 42.55 68.9 43.0 68.4 43.0 67.5 43.0 66.7 42.5 66.25 42.05 65.8 41.3 65.8 L40.45 66.0 39.9 66.55 39.0 66.45 39.7 62.45 43.6 62.4 43.6 63.3 40.45 63.35 40.05 65.45 Q40.75 64.95 41.55 64.95 42.6 64.95 43.3 65.6 44.0 66.4 44.0 67.4 44.0 68.5 43.4 69.25 42.7 70.2 41.35 70.25 40.3 70.25 39.6 69.65 38.95 69.15 38.85 68.1" fill="#4c4c4d" fill-rule="evenodd" stroke="none"/>
      <path d="M49.8 64.3 L50.0 66.1 49.75 68.35 48.9 69.65 Q48.4 70.05 47.5 70.15 46.35 70.15 45.7 69.35 44.9 68.3 44.9 66.2 44.9 64.7 45.15 64.0 45.45 63.05 46.0 62.65 46.55 62.2 47.4 62.2 L48.5 62.4 Q49.1 62.8 49.3 63.15 L49.8 64.3 M46.35 63.55 Q45.85 64.3 45.9 66.2 45.9 68.1 46.35 68.75 46.8 69.35 47.5 69.35 L48.6 68.7 Q49.0 68.1 49.0 66.15 49.0 64.2 48.55 63.6 48.05 62.95 47.4 62.95 46.7 63.05 46.35 63.55" fill="#4c4c4d" fill-rule="evenodd" stroke="none"/>
      <path d="M55.95 65.3 Q55.6 65.65 55.6 66.6 L55.6 69.85 54.65 69.85 54.6 66.2 54.35 65.25 Q54.15 64.95 53.6 64.95 L52.85 65.2 52.35 65.8 Q52.2 66.25 52.2 67.0 L52.25 69.9 51.3 69.95 51.2 64.3 52.1 64.3 52.1 65.05 Q52.35 64.6 52.8 64.4 53.25 64.1 53.8 64.1 L54.85 64.35 55.4 65.1 Q56.1 64.05 57.15 64.05 58.0 64.05 58.45 64.5 58.85 64.9 58.95 65.9 L59.0 69.8 58.0 69.8 58.0 66.25 57.9 65.45 57.55 65.05 56.95 64.9 Q56.35 64.9 55.95 65.3" fill="#4c4c4d" fill-rule="evenodd" stroke="none"/>
      <path d="M60.4 69.75 L60.3 62.0 61.25 61.95 61.35 69.75 60.4 69.75" fill="#4c4c4d" fill-rule="evenodd" stroke="none"/>
      <path d="M37.7 116.25 Q38.4 117.05 38.4 118.15 L38.2 119.25 37.6 120.4 36.1 122.1 35.0 123.3 34.6 123.95 38.45 123.9 38.5 125.0 33.3 125.1 33.4 124.3 34.0 123.0 35.25 121.55 36.95 119.55 37.4 118.1 36.95 116.95 Q36.6 116.5 35.9 116.5 35.2 116.5 34.8 117.05 34.4 117.45 34.4 118.45 L33.4 118.35 Q33.5 117.0 34.15 116.3 34.85 115.55 35.9 115.55 37.0 115.55 37.7 116.25" fill="#4c4c4d" fill-rule="evenodd" stroke="none"/>
      <path d="M43.05 115.75 L43.85 116.6 44.35 118.0 44.55 120.25 44.3 122.9 Q44.1 123.9 43.5 124.5 42.9 125.1 42.05 125.1 40.9 125.1 40.25 124.15 39.45 122.85 39.45 120.3 39.45 118.5 39.7 117.6 40.05 116.5 40.55 116.05 41.1 115.45 41.95 115.45 42.6 115.45 43.05 115.75 M40.9 117.1 Q40.4 118.15 40.45 120.3 40.45 122.7 40.95 123.4 41.4 124.15 42.05 124.15 42.65 124.15 43.15 123.35 43.65 122.55 43.55 120.25 43.55 117.9 43.1 117.15 42.65 116.4 41.95 116.4 41.3 116.4 40.9 117.1" fill="#4c4c4d" fill-rule="evenodd" stroke="none"/>
      <path d="M48.05 116.3 Q47.4 116.3 47.0 117.0 46.5 117.9 46.55 120.2 46.55 122.55 47.0 123.3 47.45 124.05 48.15 124.05 48.75 124.05 49.25 123.25 49.7 122.4 49.65 120.15 49.65 117.75 49.15 117.05 48.7 116.3 48.05 116.3 M49.95 116.5 L50.45 117.9 50.65 120.1 50.4 122.8 Q50.1 123.95 49.55 124.4 49.05 125.0 48.15 125.0 47.0 125.0 46.35 124.05 45.55 122.75 45.55 120.2 45.55 118.4 45.8 117.5 46.0 116.6 46.6 115.9 47.25 115.35 48.05 115.35 48.7 115.35 49.15 115.65 49.65 115.9 49.95 116.5" fill="#4c4c4d" fill-rule="evenodd" stroke="none"/>
      <path d="M55.5 118.0 L56.05 118.9 Q56.75 117.65 57.8 117.65 58.65 117.65 59.1 118.2 59.5 118.7 59.6 119.95 L59.65 124.65 58.7 124.65 58.65 120.35 58.5 119.35 58.2 118.85 57.6 118.65 Q57.0 118.65 56.6 119.15 56.25 119.65 56.25 120.7 L56.3 124.7 55.3 124.7 55.25 120.25 55.0 119.1 Q54.75 118.7 54.25 118.75 53.75 118.75 53.5 119.0 53.2 119.2 53.0 119.75 52.85 120.3 52.85 121.2 L52.9 124.75 51.95 124.75 51.85 117.9 52.75 117.9 52.75 118.85 Q52.95 118.4 53.45 118.05 54.0 117.7 54.45 117.7 55.05 117.7 55.5 118.0" fill="#4c4c4d" fill-rule="evenodd" stroke="none"/>
      <path d="M61.05 124.6 L60.95 115.15 61.9 115.15 62.0 124.6 61.05 124.6" fill="#4c4c4d" fill-rule="evenodd" stroke="none"/>
      <path d="M36.1 170.1 L36.95 168.8 37.55 168.8 37.7 178.3 36.7 178.3 36.65 170.9 35.75 171.75 34.75 172.35 34.7 171.25 36.1 170.1" fill="#4c4c4d" fill-rule="evenodd" stroke="none"/>
      <path d="M44.55 172.75 Q45.3 173.65 45.3 174.95 45.3 176.25 44.7 177.2 43.95 178.35 42.65 178.35 41.6 178.4 40.9 177.7 40.25 177.0 40.1 175.8 L41.15 175.65 Q41.2 176.5 41.65 177.0 42.05 177.4 42.65 177.4 43.35 177.4 43.85 176.75 44.3 176.15 44.3 175.1 44.3 174.15 43.8 173.5 43.35 172.95 42.6 172.95 42.15 172.95 41.75 173.25 L41.15 173.9 40.25 173.8 40.95 168.9 44.85 168.85 44.9 169.95 41.75 170.0 41.35 172.55 Q42.05 171.95 42.85 171.95 43.85 171.9 44.55 172.75" fill="#4c4c4d" fill-rule="evenodd" stroke="none"/>
      <path d="M48.7 169.55 Q48.0 169.65 47.65 170.25 47.15 171.1 47.15 173.45 47.25 175.85 47.65 176.55 48.1 177.3 48.8 177.3 49.45 177.3 49.9 176.5 50.3 175.85 50.3 173.4 50.3 171.15 49.8 170.3 49.35 169.55 48.7 169.55 M51.1 171.15 L51.3 173.4 51.05 176.1 Q50.7 177.2 50.2 177.7 49.65 178.25 48.8 178.25 47.65 178.25 47.0 177.3 46.2 176.2 46.2 173.5 46.15 171.85 46.45 170.8 46.65 169.8 47.25 169.2 47.85 168.6 48.7 168.6 L49.8 168.9 50.6 169.75 51.1 171.15" fill="#4c4c4d" fill-rule="evenodd" stroke="none"/>
      <path d="M53.65 173.05 Q53.5 173.5 53.5 174.45 L53.55 178.0 52.6 178.05 52.5 171.2 53.35 171.15 53.4 172.15 54.1 171.3 Q54.5 171.0 55.1 171.0 55.75 171.0 56.1 171.3 L56.7 172.15 Q57.4 170.95 58.45 170.95 59.25 170.9 59.75 171.45 60.2 172.05 60.2 173.2 L60.3 177.9 59.3 177.9 59.25 173.6 59.15 172.6 58.8 172.1 58.25 171.95 Q57.6 171.95 57.25 172.45 56.85 172.95 56.9 174.0 L56.9 177.95 55.95 177.95 55.9 173.55 55.65 172.35 Q55.45 172.0 54.9 172.0 54.5 172.0 54.15 172.25 L53.65 173.05" fill="#4c4c4d" fill-rule="evenodd" stroke="none"/>
      <path d="M61.7 177.85 L61.55 168.4 62.55 168.4 62.65 177.85 61.7 177.85" fill="#4c4c4d" fill-rule="evenodd" stroke="none"/>
      <path d="M38.2 222.6 L38.35 232.05 37.35 232.1 37.3 224.7 36.4 225.5 35.4 226.1 35.35 225.0 36.75 223.85 37.6 222.6 38.2 222.6" fill="#4c4c4d" fill-rule="evenodd" stroke="none"/>
      <path d="M45.85 227.3 L45.6 229.95 Q45.3 231.1 44.75 231.55 44.25 232.15 43.35 232.15 42.2 232.15 41.55 231.2 40.75 229.9 40.75 227.35 40.75 225.55 41.0 224.65 41.35 223.6 41.8 223.05 42.45 222.5 43.25 222.5 L44.35 222.8 45.15 223.65 45.65 225.05 45.85 227.3 M44.35 224.2 Q43.9 223.45 43.25 223.45 42.6 223.45 42.2 224.15 41.7 225.05 41.75 227.35 41.75 229.7 42.2 230.45 42.65 231.2 43.35 231.2 43.95 231.2 44.45 230.4 44.95 229.6 44.85 227.3 44.85 224.9 44.35 224.2" fill="#4c4c4d" fill-rule="evenodd" stroke="none"/>
      <path d="M50.45 222.65 L51.25 223.55 51.75 224.95 51.95 227.15 51.7 229.85 Q51.4 231.0 50.85 231.45 50.35 232.05 49.45 232.05 48.3 232.05 47.65 231.1 46.85 229.95 46.85 227.25 46.8 225.7 47.1 224.55 47.3 223.65 47.9 222.95 48.55 222.4 49.3 222.4 L50.45 222.65 M49.3 223.35 Q48.7 223.35 48.25 224.05 47.8 224.9 47.8 227.25 47.9 229.55 48.3 230.35 48.75 231.1 49.45 231.1 50.05 231.1 50.55 230.3 50.95 229.55 50.95 227.2 50.95 224.95 50.45 224.1 50.0 223.35 49.3 223.35" fill="#4c4c4d" fill-rule="evenodd" stroke="none"/>
      <path d="M60.4 225.25 Q60.85 225.8 60.85 226.95 L60.9 231.7 59.95 231.7 59.9 227.4 59.8 226.4 59.45 225.9 58.9 225.7 Q58.3 225.7 57.9 226.2 57.5 226.75 57.5 227.75 L57.55 231.75 56.6 231.75 56.55 227.3 56.3 226.15 Q56.05 225.75 55.55 225.75 L54.8 226.05 Q54.45 226.25 54.3 226.8 54.15 227.35 54.15 228.25 L54.2 231.8 53.25 231.8 53.15 224.95 54.0 224.95 54.0 225.9 54.75 225.1 Q55.2 224.75 55.75 224.75 56.4 224.75 56.75 225.05 57.2 225.35 57.35 225.95 58.0 224.7 59.1 224.7 60.0 224.7 60.4 225.25" fill="#4c4c4d" fill-rule="evenodd" stroke="none"/>
      <path d="M62.35 231.65 L62.2 222.2 63.2 222.2 63.3 231.65 62.35 231.65" fill="#4c4c4d" fill-rule="evenodd" stroke="none"/>
      <path d="M39.95 265.15 L39.95 266.25 36.8 266.3 36.45 268.85 Q37.15 268.25 37.9 268.25 38.9 268.25 39.65 269.05 40.35 270.0 40.35 271.25 40.4 272.5 39.8 273.5 39.05 274.65 37.75 274.7 36.7 274.7 36.0 274.0 35.25 273.2 35.2 272.1 L36.2 271.95 Q36.35 272.9 36.75 273.3 37.15 273.75 37.75 273.75 38.5 273.65 38.9 273.05 39.35 272.45 39.35 271.4 39.35 270.35 38.85 269.85 38.4 269.25 37.65 269.3 L36.8 269.55 Q36.55 269.7 36.25 270.2 L35.35 270.1 36.05 265.2 39.95 265.15" fill="#4c4c4d" fill-rule="evenodd" stroke="none"/>
      <path d="M44.85 265.2 L45.65 266.1 46.15 267.45 46.35 269.7 46.1 272.4 Q45.9 273.3 45.3 274.0 44.65 274.55 43.85 274.55 42.75 274.6 42.05 273.6 41.25 272.4 41.25 269.8 41.25 268.0 41.5 267.1 41.8 266.05 42.35 265.5 42.8 265.0 43.75 264.9 44.4 264.9 44.85 265.2 M44.9 266.65 Q44.4 265.85 43.75 265.9 43.05 265.9 42.7 266.6 42.2 267.45 42.25 269.8 42.25 272.15 42.75 272.85 43.2 273.65 43.85 273.6 44.5 273.6 44.95 272.85 45.45 272.0 45.35 269.7 45.35 267.4 44.9 266.65" fill="#4c4c4d" fill-rule="evenodd" stroke="none"/>
      <path d="M48.6 270.8 L48.6 274.35 47.65 274.35 47.6 267.5 48.45 267.5 48.45 268.45 Q48.65 268.05 49.15 267.6 49.6 267.3 50.15 267.3 L51.2 267.6 51.75 268.45 Q52.45 267.25 53.5 267.25 54.4 267.25 54.8 267.8 55.3 268.4 55.3 269.5 L55.35 274.2 54.4 274.25 54.35 269.9 54.25 268.9 53.9 268.45 53.3 268.25 Q52.75 268.25 52.3 268.75 51.95 269.15 51.95 270.3 L52.0 274.25 51.05 274.3 51.0 269.85 50.75 268.7 Q50.45 268.3 49.95 268.3 49.6 268.3 49.2 268.6 L48.7 269.35 48.6 270.8" fill="#4c4c4d" fill-rule="evenodd" stroke="none"/>
      <path d="M56.75 274.2 L56.65 264.75 57.6 264.7 57.7 274.15 56.75 274.2" fill="#4c4c4d" fill-rule="evenodd" stroke="none"/>
    </g>
    <g id="shape6" transform="matrix(1.0, 0.0, 0.0, 1.0, 30.85, 41.95)">
      <path d="M32.9 -38.05 Q32.0 -37.3 29.75 -36.7 22.5 -34.65 3.55 -34.0 -0.8 -33.8 -6.65 -33.85 -18.05 -33.9 -25.0 -35.4 L-28.25 -35.05 Q-29.5 -34.6 -30.8 -33.55 -29.9 -35.45 -27.85 -37.3 -23.75 -41.05 -18.25 -41.25 -5.7 -41.9 7.05 -41.9 32.5 -41.8 33.25 -38.6 L32.9 -38.05" fill="url(#gradient3)" fill-rule="evenodd" stroke="none"/>
      <path d="M32.9 -38.05 Q32.0 -37.3 29.75 -36.7 22.5 -34.65 3.55 -34.0 -0.8 -33.8 -6.65 -33.85 -18.05 -33.9 -25.0 -35.4 L-28.25 -35.05 Q-29.5 -34.6 -30.8 -33.55 -29.9 -35.45 -27.85 -37.3 -23.75 -41.05 -18.25 -41.25 -5.7 -41.9 7.05 -41.9 32.5 -41.8 33.25 -38.6 L32.9 -38.05 Z" fill="none" stroke="#666666" stroke-linecap="round" stroke-linejoin="round" stroke-width="0.1"/>
    </g>
    <linearGradient gradientTransform="matrix(0.039, 0.001, -1.0E-4, 0.0058, 1.3, -37.5)" gradientUnits="userSpaceOnUse" id="gradient3" spreadMethod="pad" x1="-819.2" x2="819.2">
      <stop offset="0.0" stop-color="#ffffff"/>
      <stop offset="1.0" stop-color="#cccccc"/>
    </linearGradient>
    <g id="sprite6" transform="matrix(1.0, 0.0, 0.0, 1.0, -41.2, -65.6)">
      <use height="10.9" transform="matrix(1.0, 0.0, 0.0, 1.0, 73.35, 93.3)" width="16.7" xlink:href="#shape7"/>
    </g>
    <g id="shape7" transform="matrix(1.0, 0.0, 0.0, 1.0, -73.35, -93.3)">
      <path d="M86.3 94.9 Q90.05 96.85 90.05 99.65 90.05 102.45 88.35 103.9 86.65 105.35 85.05 99.4 84.95 99.05 86.9 97.0 83.65 94.1 76.8 95.2 69.95 96.3 76.75 95.1 83.55 93.9 83.05 93.4 82.55 92.9 86.3 94.9" fill="#33ccff" fill-opacity="0.0" fill-rule="evenodd" stroke="none"/>
    </g>
    <g id="shape8" transform="matrix(1.0, 0.0, 0.0, 1.0, 31.3, 15.75)">
      <path d="M-9.05 1.25 Q5.1 -3.3 17.8 -9.75 L21.9 -11.9 27.8 -15.25 30.8 -12.6 29.05 -11.9 23.85 -9.75 Q8.95 -3.4 -5.95 5.25 L-8.55 10.0 Q-14.1 12.85 -19.8 14.25 L-25.45 15.25 -27.45 15.15 Q-28.3 14.85 -28.95 14.25 -30.1 13.2 -30.8 11.25 -29.05 13.75 -26.55 13.9 -24.05 14.05 -18.85 12.3 -13.7 10.5 -5.95 5.25 -5.4 4.3 -6.95 3.05 L-9.05 1.25" fill="#cc3366" fill-opacity="0.0" fill-rule="evenodd" stroke="none"/>
      <path d="M-9.05 1.25 Q5.1 -3.3 17.8 -9.75 L21.9 -11.9 27.8 -15.25 30.8 -12.6 29.05 -11.9 23.85 -9.75 Q8.95 -3.4 -5.95 5.25 L-8.55 10.0 Q-14.1 12.85 -19.8 14.25 L-25.45 15.25 -27.45 15.15 Q-28.3 14.85 -28.95 14.25 -30.1 13.2 -30.8 11.25 -30.9 9.9 -30.05 7.75 -29.25 5.6 -26.05 4.0 -19.4 0.9 -10.95 0.5 L-9.05 1.25 -6.95 3.05 Q-5.4 4.3 -5.95 5.25 -13.7 10.5 -18.85 12.3 -24.05 14.05 -26.55 13.9 -29.05 13.75 -30.8 11.25" fill="none" stroke="#ffffff" stroke-linecap="round" stroke-linejoin="round" stroke-opacity="0.0" stroke-width="1.0"/>
    </g>
    <g id="shape9" transform="matrix(1.0, 0.0, 0.0, 1.0, 11.3, 9.25)">
      <path d="M-10.0 7.9 Q-11.3 5.35 -11.3 1.05 -11.45 -3.25 -9.05 -6.7 -6.7 -10.25 -2.2 -8.9 L4.3 -8.65 Q6.3 -9.65 9.9 -7.1 13.4 -4.45 7.85 0.8 2.25 6.0 -3.3 8.25 -8.8 10.4 -10.0 7.9" fill="#ffffff" fill-opacity="0.0" fill-rule="evenodd" stroke="none"/>
    </g>
    <g id="sprite7" transform="matrix(1.0, 0.0, 0.0, 1.0, 56.3, 126.8)">
      <use height="117.9" transform="matrix(0.9989, 0.0478, -0.0478, 0.9989, 3.6016, -115.943)" width="56.9" xlink:href="#shape10"/>
    </g>
    <g id="shape10" transform="matrix(1.0, 0.0, 0.0, 1.0, 28.45, 58.95)">
      <path d="M-26.5 57.0 L26.5 -57.0" fill="none" stroke="url(#gradient4)" stroke-linecap="round" stroke-linejoin="round" stroke-width="3.9000000000000004"/>
    </g>
    <linearGradient gradientTransform="matrix(0.0347, 0.0, 0.0, 0.072, 0.0, 0.0)" gradientUnits="userSpaceOnUse" id="gradient4" spreadMethod="pad" x1="-819.2" x2="819.2">
      <stop offset="0.0" stop-color="#041200"/>
      <stop offset="0.2627450980392157" stop-color="#dbdbdc"/>
      <stop offset="1.0" stop-color="#e8e8e8"/>
    </linearGradient>
    <g id="shape11" transform="matrix(1.0, 0.0, 0.0, 1.0, 28.15, 8.25)">
      <path d="M-18.25 -2.0 L-17.15 -1.9 -16.45 -2.8 Q-15.35 -3.75 -13.8 -3.75 -12.25 -3.75 -11.15 -2.8 L-10.6 -2.15 -10.35 -2.35 Q-9.25 -3.05 -7.7 -3.05 L-6.0 -2.8 -5.65 -3.3 -5.6 -3.3 Q-6.3 -4.1 -6.3 -5.25 -6.3 -6.5 -5.5 -7.4 -4.7 -8.25 -3.6 -8.25 -2.45 -8.25 -1.65 -7.4 -0.85 -6.5 -0.85 -5.25 -0.85 -4.1 -1.55 -3.3 L-0.9 -2.25 -0.3 -1.8 0.05 -1.4 0.7 -1.9 Q1.35 -2.8 2.25 -2.8 3.15 -2.8 3.8 -1.9 L5.4 -1.35 5.65 -1.15 6.2 -1.95 7.2 -2.55 Q7.4 -3.3 8.0 -3.85 8.95 -4.75 10.35 -4.75 11.7 -4.75 12.65 -3.85 L13.2 -3.15 13.25 -3.2 Q14.15 -4.1 15.45 -4.1 16.75 -4.1 17.65 -3.2 L18.15 -2.55 Q18.65 -3.25 19.4 -3.25 20.15 -3.25 20.65 -2.55 L20.8 -2.35 20.9 -2.45 Q21.8 -3.2 23.1 -3.2 24.4 -3.2 25.3 -2.45 26.2 -1.65 26.2 -0.55 26.2 0.55 25.3 1.3 24.45 2.05 23.3 2.1 L23.45 2.15 24.9 1.95 Q26.2 1.95 27.15 2.55 28.1 3.2 28.1 4.1 28.1 5.0 27.15 5.6 L25.6 6.2 24.7 7.3 Q23.65 8.25 22.15 8.25 20.65 8.25 19.55 7.3 L19.15 6.9 18.4 7.0 Q17.6 7.0 17.0 6.45 16.55 6.05 16.45 5.45 L15.85 5.35 15.4 5.2 14.75 6.05 13.3 6.5 Q12.4 6.5 11.8 6.05 L11.45 5.7 9.55 6.0 7.85 5.75 7.55 5.75 Q7.4 6.3 6.75 6.7 5.9 7.3 4.65 7.3 3.4 7.3 2.5 6.7 L2.0 6.25 0.05 6.5 -1.9 6.2 Q-2.6 6.75 -3.5 6.75 -4.4 6.75 -5.1 6.2 L-5.55 5.65 -5.6 5.7 Q-6.0 6.25 -6.55 6.25 L-7.4 5.8 -6.65 5.2 Q-5.85 4.4 -5.85 3.25 L-5.85 3.0 -5.6 3.25 -5.55 3.4 -5.2 3.75 -5.1 3.6 Q-4.45 3.1 -3.6 3.05 L-4.5 2.55 -5.65 1.65 -5.85 1.45 -6.35 1.6 -6.65 1.25 Q-7.4 0.45 -8.5 0.45 L-9.4 0.6 -9.4 0.55 Q-9.4 0.05 -9.8 -0.3 -10.15 -0.65 -10.65 -0.65 L-11.55 -0.3 Q-11.9 0.05 -11.9 0.55 -11.9 1.05 -11.55 1.4 L-10.75 1.75 Q-11.15 2.4 -11.15 3.25 -11.15 4.4 -10.4 5.2 -9.6 6.05 -8.5 6.05 L-8.15 6.05 Q-8.35 6.85 -9.2 7.45 -10.3 8.25 -11.8 8.25 -13.3 8.25 -14.35 7.45 L-14.45 7.4 Q-14.95 7.85 -15.6 7.85 -16.35 7.85 -16.95 7.1 -17.45 6.5 -17.55 5.65 L-16.05 5.3 Q-14.65 4.85 -14.65 4.25 -14.65 3.65 -16.05 3.2 L-19.4 2.75 -20.1 2.8 -20.4 2.1 Q-20.65 1.75 -21.0 1.75 -21.35 1.75 -21.65 2.1 L-21.9 2.95 -21.9 3.0 -22.75 3.2 Q-24.15 3.65 -24.15 4.25 L-23.5 5.0 Q-25.15 4.95 -26.3 4.15 -27.55 3.3 -27.55 2.1 -27.55 1.05 -26.6 0.25 L-27.05 -0.15 Q-28.15 -1.3 -28.15 -2.9 -28.15 -4.5 -27.05 -5.65 -25.9 -6.8 -24.3 -6.8 -22.65 -6.8 -21.55 -5.65 -20.7 -4.8 -20.45 -3.7 L-20.65 -3.15 -20.4 -2.5 -20.55 -1.75 -19.4 -1.95 -18.9 -1.9 -18.25 -2.0 M17.95 0.75 L18.15 0.75 19.25 0.6 19.7 0.25 Q19.7 0.05 19.25 -0.1 L18.15 -0.25 17.05 -0.1 Q16.6 0.05 16.6 0.25 L17.05 0.6 17.95 0.75 17.65 1.1 17.4 1.35 17.4 1.55 17.25 2.15 Q17.15 2.4 16.9 2.4 L16.55 2.15 16.45 1.85 15.45 2.0 14.75 1.95 14.8 1.9 15.35 1.75 14.8 1.55 13.75 1.5 13.45 1.3 13.6 1.5 12.35 1.55 11.85 1.75 12.35 1.9 13.6 2.0 13.8 2.0 13.9 2.75 13.8 3.55 Q14.35 3.65 14.75 3.95 15.25 4.3 15.4 4.75 L15.85 4.55 16.4 4.45 16.4 4.05 Q16.4 3.15 17.25 2.5 17.75 2.15 18.4 1.95 L18.45 1.95 19.45 2.15 20.45 2.0 20.9 2.15 22.05 1.95 Q21.4 1.75 20.95 1.35 L20.5 0.95 19.45 0.75 18.4 0.95 18.2 1.1 18.15 1.0 17.95 0.75 M21.45 5.05 L22.35 5.25 23.2 5.05 23.6 4.6 23.2 4.15 22.35 3.95 21.45 4.15 Q21.1 4.35 21.1 4.6 21.1 4.85 21.45 5.05 M12.85 0.55 L12.8 0.6 12.9 0.65 12.85 0.55 M13.2 2.45 Q12.95 2.45 12.75 2.6 L12.6 3.0 12.75 3.4 13.2 3.55 13.6 3.4 13.8 3.0 13.6 2.6 13.2 2.45 M5.4 1.75 L5.7 1.9 7.2 2.15 7.6 2.15 7.65 2.15 8.5 2.25 9.3 2.15 9.65 2.0 Q9.65 1.9 9.3 1.8 L8.95 1.75 9.3 1.3 Q9.3 0.95 8.65 0.7 L7.2 0.45 5.7 0.7 Q5.1 0.95 5.1 1.3 L5.2 1.55 5.15 1.55 4.3 1.55 3.45 1.55 3.1 1.65 3.45 1.7 4.3 1.75 5.15 1.7 5.35 1.7 5.35 1.75 4.45 3.05 4.3 3.2 4.65 3.2 5.2 3.25 5.15 2.75 Q5.15 2.2 5.4 1.75 M10.85 5.4 Q11.45 5.1 11.45 4.7 11.45 4.3 10.85 4.0 L9.4 3.7 7.95 4.0 Q7.35 4.3 7.35 4.7 7.35 5.1 7.95 5.4 L9.4 5.7 10.85 5.4 M3.35 1.0 Q3.35 0.7 2.75 0.5 L1.4 0.3 0.0 0.5 Q-0.55 0.7 -0.55 1.0 L-0.4 1.25 -0.75 1.25 -2.3 1.45 Q-2.9 1.7 -2.9 2.0 L-2.3 2.5 -0.75 2.75 0.75 2.5 1.4 2.0 1.25 1.7 1.4 1.7 2.75 1.5 3.35 1.0 M-24.2 -1.75 Q-24.65 -1.4 -24.65 -0.9 -24.65 -0.4 -24.2 -0.1 L-23.0 0.25 Q-22.3 0.25 -21.85 -0.1 -21.35 -0.4 -21.35 -0.9 -21.35 -1.4 -21.85 -1.75 L-23.0 -2.05 -24.2 -1.75 M-13.2 -0.85 L-13.4 -0.5 -13.2 -0.15 -12.65 0.0 -12.15 -0.15 -11.9 -0.5 -12.15 -0.85 -12.65 -1.0 -13.2 -0.85 M-0.5 0.6 Q-0.5 0.35 -0.85 0.15 L-1.7 -0.05 -2.55 0.15 -2.9 0.6 -2.55 1.05 -1.7 1.25 -0.85 1.05 Q-0.5 0.85 -0.5 0.6 M-0.6 3.05 L-0.05 3.0 -0.25 2.8 -0.6 3.05 M-3.6 3.65 L-3.2 4.05 -2.25 4.25 -1.3 4.05 -0.9 3.65 -1.3 3.2 -2.25 3.05 -3.2 3.2 -3.6 3.65 M-12.25 2.5 L-13.8 2.75 -14.35 2.7 -13.85 3.35 Q-13.0 2.9 -11.95 2.85 L-12.25 2.5" fill="#e6e6e6" fill-opacity="0.6666667" fill-rule="evenodd" stroke="none"/>
      <path d="M-17.55 5.65 L-19.4 5.75 -22.75 5.3 -23.5 5.0 -24.15 4.25 Q-24.15 3.65 -22.75 3.2 L-21.9 3.0 -20.1 2.8 -19.4 2.75 -16.05 3.2 Q-14.65 3.65 -14.65 4.25 -14.65 4.85 -16.05 5.3 L-17.55 5.65 M17.95 0.75 L17.05 0.6 16.6 0.25 Q16.6 0.05 17.05 -0.1 L18.15 -0.25 19.25 -0.1 Q19.7 0.05 19.7 0.25 L19.25 0.6 18.15 0.75 17.95 0.75 M18.2 1.1 L18.4 0.95 19.45 0.75 20.5 0.95 20.95 1.35 20.95 1.45 20.5 1.95 20.45 2.0 19.45 2.15 18.45 1.95 18.4 1.95 17.95 1.45 18.2 1.1 M13.8 2.0 L13.6 2.0 12.35 1.9 11.85 1.75 12.35 1.55 13.6 1.5 13.75 1.5 14.8 1.55 15.35 1.75 14.8 1.9 14.75 1.95 13.8 2.0 M21.45 5.05 Q21.1 4.85 21.1 4.6 21.1 4.35 21.45 4.15 L22.35 3.95 23.2 4.15 23.6 4.6 23.2 5.05 22.35 5.25 21.45 5.05 M13.2 2.45 L13.6 2.6 13.8 3.0 13.6 3.4 13.2 3.55 12.75 3.4 12.6 3.0 12.75 2.6 Q12.95 2.45 13.2 2.45 M10.85 5.4 L9.4 5.7 7.95 5.4 Q7.35 5.1 7.35 4.7 7.35 4.3 7.95 4.0 L9.4 3.7 10.85 4.0 Q11.45 4.3 11.45 4.7 11.45 5.1 10.85 5.4 M5.35 1.75 L5.35 1.7 5.15 1.7 4.3 1.75 3.45 1.7 3.1 1.65 3.45 1.55 4.3 1.55 5.15 1.55 5.2 1.55 5.1 1.3 Q5.1 0.95 5.7 0.7 L7.2 0.45 8.65 0.7 Q9.3 0.95 9.3 1.3 L8.95 1.75 9.3 1.8 Q9.65 1.9 9.65 2.0 L9.3 2.15 8.5 2.25 7.65 2.15 7.6 2.15 7.2 2.15 5.7 1.9 5.4 1.75 5.35 1.75 M3.35 1.0 L2.75 1.5 1.4 1.7 1.25 1.7 1.4 2.0 0.75 2.5 -0.75 2.75 -2.3 2.5 -2.9 2.0 Q-2.9 1.7 -2.3 1.45 L-0.75 1.25 -0.4 1.25 -0.55 1.0 Q-0.55 0.7 0.0 0.5 L1.4 0.3 2.75 0.5 Q3.35 0.7 3.35 1.0 M-10.75 1.75 L-11.55 1.4 Q-11.9 1.05 -11.9 0.55 -11.9 0.05 -11.55 -0.3 L-10.65 -0.65 Q-10.15 -0.65 -9.8 -0.3 -9.4 0.05 -9.4 0.55 L-9.4 0.6 Q-9.4 1.05 -9.8 1.4 -10.15 1.75 -10.65 1.75 L-10.75 1.75 M-0.5 0.6 Q-0.5 0.85 -0.85 1.05 L-1.7 1.25 -2.55 1.05 -2.9 0.6 -2.55 0.15 -1.7 -0.05 -0.85 0.15 Q-0.5 0.35 -0.5 0.6 M-3.6 3.65 L-3.2 3.2 -2.25 3.05 -1.3 3.2 -0.9 3.65 -1.3 4.05 -2.25 4.25 -3.2 4.05 -3.6 3.65" fill="#96e6e6" fill-opacity="0.6666667" fill-rule="evenodd" stroke="none"/>
      <path d="M-7.4 5.8 L-8.15 6.05 -8.5 6.05 Q-9.6 6.05 -10.4 5.2 -11.15 4.4 -11.15 3.25 -11.15 2.4 -10.75 1.75 L-10.65 1.75 Q-10.15 1.75 -9.8 1.4 -9.4 1.05 -9.4 0.6 L-8.5 0.45 Q-7.4 0.45 -6.65 1.25 L-6.35 1.6 Q-5.9 2.25 -5.85 3.0 L-5.85 3.25 Q-5.85 4.4 -6.65 5.2 L-7.4 5.8 M-20.45 -3.7 L-20.15 -4.05 -18.9 -4.4 -17.7 -4.05 Q-17.15 -3.65 -17.15 -3.15 -17.15 -2.65 -17.7 -2.3 L-18.25 -2.0 -18.9 -1.9 -19.4 -1.95 Q-19.8 -2.05 -20.15 -2.3 L-20.4 -2.5 -20.65 -3.15 -20.45 -3.7 M-24.2 -1.75 L-23.0 -2.05 -21.85 -1.75 Q-21.35 -1.4 -21.35 -0.9 -21.35 -0.4 -21.85 -0.1 -22.3 0.25 -23.0 0.25 L-24.2 -0.1 Q-24.65 -0.4 -24.65 -0.9 -24.65 -1.4 -24.2 -1.75 M-13.2 -0.85 L-12.65 -1.0 -12.15 -0.85 -11.9 -0.5 -12.15 -0.15 -12.65 0.0 -13.2 -0.15 -13.4 -0.5 -13.2 -0.85 M-21.9 3.0 L-21.9 2.95 -21.65 2.1 Q-21.35 1.75 -21.0 1.75 -20.65 1.75 -20.4 2.1 L-20.1 2.8 -21.9 3.0" fill="#62cbcb" fill-opacity="0.6666667" fill-rule="evenodd" stroke="none"/>
    </g>
    <g id="sprite8" transform="matrix(1.0, 0.0, 0.0, 1.0, 40.4, 11.7)">
      <use height="23.45" transform="matrix(1.0, 0.0, 0.0, 1.0, -40.4, -11.7)" width="80.75" xlink:href="#shape12"/>
      <use height="18.05" transform="matrix(1.0, 0.0, 0.0, 1.0, -34.2, -3.8)" width="68.0" xlink:href="#text1"/>
    </g>
    <g id="shape12" transform="matrix(1.0, 0.0, 0.0, 1.0, 40.4, 11.7)">
      <path d="M27.3 -11.7 L40.35 -3.4 27.3 -3.3 27.3 -11.7 M-35.25 -3.25 L-40.2 -3.35 -27.15 -11.65 -27.15 -3.25 -35.25 -3.25" fill="#000000" fill-rule="evenodd" stroke="none"/>
      <path d="M-27.15 -3.25 L40.25 -3.25 40.25 11.75 -40.4 11.75 -40.4 -3.25 -35.25 -3.25 -27.15 -3.25" fill="#ffff00" fill-rule="evenodd" stroke="none"/>
    </g>
  </defs>
</svg>
