<?xml version="1.0" encoding="UTF-8" standalone="no"?>
<svg xmlns:xlink="http://www.w3.org/1999/xlink" height="18.9px" width="50.45px" xmlns="http://www.w3.org/2000/svg">
  <g transform="matrix(1.0, 0.0, 0.0, 1.0, -44.7, -87.25)">
    <path d="M60.65 98.25 L60.65 98.25 Q57.3 98.95 58.65 99.5 61.15 99.85 63.6 100.2 65.2 100.3 66.75 100.4 59.45 100.35 62.85 101.4 63.8 101.65 64.75 101.85 66.3 102.15 67.8 102.45 72.25 103.2 76.7 103.9 84.5 104.95 86.8 104.05 L86.9 103.95 Q89.6 102.65 90.0 100.4 L90.05 99.65 Q89.95 99.05 89.9 98.5 89.4 96.9 87.5 95.6 L86.3 94.9 85.3 94.35 84.75 94.05 Q82.65 93.0 83.05 93.4 83.25 93.6 82.1 93.95 L79.1 94.65 77.8 94.9 76.75 95.1 72.75 95.85 Q70.5 96.3 68.25 96.75 L67.55 96.85 Q66.45 97.1 65.35 97.3 63.0 97.8 60.65 98.25" fill="#e2faff" fill-rule="evenodd" stroke="none">
      <animate attributeName="fill" dur="2s" repeatCount="indefinite" values="#e2faff;#e2faff"/>
      <animate attributeName="fill-opacity" dur="2s" repeatCount="indefinite" values="1.0;1.0"/>
      <animate attributeName="d" dur="2s" repeatCount="indefinite" values="M60.65 98.25 L60.65 98.25 Q57.3 98.95 58.65 99.5 61.15 99.85 63.6 100.2 65.2 100.3 66.75 100.4 59.45 100.35 62.85 101.4 63.8 101.65 64.75 101.85 66.3 102.15 67.8 102.45 72.25 103.2 76.7 103.9 84.5 104.95 86.8 104.05 L86.9 103.95 Q89.6 102.65 90.0 100.4 L90.05 99.65 Q89.95 99.05 89.9 98.5 89.4 96.9 87.5 95.6 L86.3 94.9 85.3 94.35 84.75 94.05 Q82.65 93.0 83.05 93.4 83.25 93.6 82.1 93.95 L79.1 94.65 77.8 94.9 76.75 95.1 72.75 95.85 Q70.5 96.3 68.25 96.75 L67.55 96.85 Q66.45 97.1 65.35 97.3 63.0 97.8 60.65 98.25;M44.7 99.0 L44.8 99.1 Q46.15 100.65 47.45 102.2 49.7 105.05 54.65 103.9 54.4 105.7 58.35 105.9 62.55 105.55 66.75 105.25 68.65 103.0 68.4 105.4 70.2 106.15 72.9 106.15 77.6 106.15 85.05 103.95 96.8 100.4 94.75 95.4 L94.85 95.2 Q96.4 91.75 90.4 91.65 L89.75 91.05 Q89.1 90.5 88.2 90.05 86.2 89.05 83.25 88.3 L81.25 87.8 79.4 87.4 78.55 87.3 Q77.2 87.4 75.9 87.45 74.95 87.55 74.0 87.65 L69.65 88.1 67.7 88.4 66.1 88.6 59.9 89.55 Q54.9 90.55 53.6 91.95 L52.9 92.85 Q51.75 94.1 51.0 95.65 44.85 97.8 44.7 99.0"/>
    </path>
    <path d="M60.65 98.25 Q63.0 97.8 65.35 97.3 66.45 97.1 67.55 96.85 L68.25 96.75 Q70.5 96.3 72.75 95.85 L76.75 95.1 77.8 94.9 79.1 94.65 82.1 93.95 Q83.25 93.6 83.05 93.4 82.65 93.0 84.75 94.05 L85.3 94.35 86.3 94.9 87.5 95.6 Q89.4 96.9 89.9 98.5 89.95 99.05 90.05 99.65 L90.0 100.4 Q89.6 102.65 86.9 103.95 L86.8 104.05 Q84.5 104.95 76.7 103.9 72.25 103.2 67.8 102.45 66.3 102.15 64.75 101.85 63.8 101.65 62.85 101.4 59.45 100.35 66.75 100.4 65.2 100.3 63.6 100.2 61.15 99.85 58.65 99.5 57.3 98.95 60.65 98.25 L60.65 98.25" fill="none" stroke="#000000" stroke-linecap="round" stroke-linejoin="round" stroke-opacity="0.0" stroke-width="1.0">
      <animate attributeName="stroke" dur="2s" repeatCount="indefinite" values="#000000;#000001"/>
      <animate attributeName="stroke-width" dur="2s" repeatCount="indefinite" values="0.0;0.0"/>
      <animate attributeName="fill-opacity" dur="2s" repeatCount="indefinite" values="0.0;0.0"/>
      <animate attributeName="d" dur="2s" repeatCount="indefinite" values="M60.65 98.25 Q63.0 97.8 65.35 97.3 66.45 97.1 67.55 96.85 L68.25 96.75 Q70.5 96.3 72.75 95.85 L76.75 95.1 77.8 94.9 79.1 94.65 82.1 93.95 Q83.25 93.6 83.05 93.4 82.65 93.0 84.75 94.05 L85.3 94.35 86.3 94.9 87.5 95.6 Q89.4 96.9 89.9 98.5 89.95 99.05 90.05 99.65 L90.0 100.4 Q89.6 102.65 86.9 103.95 L86.8 104.05 Q84.5 104.95 76.7 103.9 72.25 103.2 67.8 102.45 66.3 102.15 64.75 101.85 63.8 101.65 62.85 101.4 59.45 100.35 66.75 100.4 65.2 100.3 63.6 100.2 61.15 99.85 58.65 99.5 57.3 98.95 60.65 98.25 L60.65 98.25;M44.7 99.0 Q44.85 97.8 51.0 95.65 51.75 94.1 52.9 92.85 L53.6 91.95 Q54.9 90.55 59.9 89.55 L66.1 88.6 67.7 88.4 69.65 88.1 74.0 87.65 Q74.95 87.55 75.9 87.45 77.2 87.4 78.55 87.3 L79.4 87.4 81.25 87.8 83.25 88.3 Q86.2 89.05 88.2 90.05 89.1 90.5 89.75 91.05 L90.4 91.65 Q96.4 91.75 94.85 95.2 L94.75 95.4 Q96.8 100.4 85.05 103.95 77.6 106.15 72.9 106.15 70.2 106.15 68.4 105.4 68.65 103.0 66.75 105.25 62.55 105.55 58.35 105.9 54.4 105.7 54.65 103.9 49.7 105.05 47.45 102.2 46.15 100.65 44.8 99.1 L44.7 99.0"/>
    </path>
  </g>
</svg>
