<?xml version="1.0" encoding="UTF-8" standalone="no"?>
<svg xmlns:xlink="http://www.w3.org/1999/xlink" height="39.55px" width="54.3px" xmlns="http://www.w3.org/2000/svg">
  <g transform="matrix(1.0, 0.0, 0.0, 1.0, -41.2, -65.6)">
    <path d="M41.3 82.35 L41.3 82.35 41.3 82.5 41.3 82.7 Q41.3 85.5 41.6 88.8 L41.75 89.9 41.75 90.0 Q42.0 91.6 41.55 93.55 42.7 94.8 41.9 97.25 L42.1 97.55 43.45 99.7 Q43.95 100.45 44.9 100.85 L45.75 101.25 52.2 103.25 52.5 103.35 59.15 104.65 61.1 104.85 62.6 104.95 65.3 105.05 68.45 105.1 68.55 105.1 69.7 105.05 69.9 105.05 71.6 105.0 71.9 105.0 72.2 105.0 72.5 105.0 74.5 104.9 75.85 104.8 77.0 104.75 77.55 104.7 Q85.6 103.45 89.1 102.35 93.55 101.1 94.45 98.95 L94.75 97.95 94.95 95.15 94.75 88.9 94.9 87.05 94.9 86.45 94.9 85.45 94.8 79.3 Q94.55 76.15 94.9 76.15 L94.2 76.0 Q93.15 75.85 92.3 75.2 L92.05 75.1 Q91.5 75.0 91.35 74.75 L91.3 74.65 90.8 74.1 90.2 73.75 89.55 73.45 84.9 72.35 84.5 72.25 81.05 71.75 76.55 71.15 76.35 71.15 73.7 71.05 73.5 71.05 73.3 71.05 73.1 71.0 72.95 71.0 72.85 71.0 68.8 70.95 68.7 70.95 66.25 70.95 66.15 70.95 66.05 70.95 65.95 70.95 65.85 70.95 63.95 70.9 63.05 70.9 62.65 70.9 59.7 71.25 59.2 71.25 56.7 71.5 56.05 71.5 52.85 71.65 Q50.3 72.05 47.6 72.9 L46.8 73.15 45.8 73.55 44.75 73.95 42.15 75.0 Q41.65 75.8 41.65 77.5 41.2 79.65 41.3 82.35 L41.3 82.35 41.3 82.5 41.3 82.7 Q41.3 85.5 41.6 88.8 L41.65 89.2 41.75 89.9 41.75 90.0 Q42.0 91.6 41.55 93.55 42.7 94.8 41.9 97.15 L41.9 97.25 42.1 97.55 Q42.8 98.65 43.45 99.7 43.85 100.3 44.55 100.7 L44.9 100.85 45.75 101.25 Q48.8 102.2 51.8 103.15 L52.2 103.25 52.5 103.35 Q56.1 104.4 61.1 104.85 L62.6 104.95 65.3 105.05 68.35 105.1 68.45 105.1 68.55 105.1 69.6 105.05 69.7 105.05 69.9 105.05 71.6 105.0 71.9 105.0 72.2 105.0 72.5 105.0 74.5 104.9 75.85 104.8 77.0 104.75 77.35 104.7 77.55 104.7 Q85.6 103.45 89.1 102.35 93.55 101.1 94.45 98.95 L94.65 98.4 94.75 97.95 94.95 95.15 94.75 88.9 94.9 87.05 94.9 86.45 94.9 86.25 94.9 85.45 Q94.85 82.35 94.8 79.3 L94.7 77.5 Q94.65 76.15 94.9 76.15 L94.2 76.0 Q93.15 75.85 92.35 75.2 L92.3 75.2 92.15 75.15 92.05 75.1 91.65 75.0 91.35 74.75 91.3 74.65 90.95 74.25 90.8 74.1 90.2 73.75 89.8 73.55 89.55 73.45 Q87.2 72.9 84.9 72.35 L84.5 72.25 84.4 72.25 81.05 71.75 76.55 71.15 76.35 71.15 76.15 71.15 73.7 71.05 73.5 71.05 73.4 71.05 73.3 71.05 73.2 71.0 73.1 71.0 72.95 71.0 72.85 71.0 72.75 71.0 68.8 70.95 68.7 70.95 68.4 70.95 66.25 70.95 66.15 70.95 66.05 70.95 65.95 70.95 65.95 70.95 65.85 70.95 65.75 70.95 65.65 70.95 63.95 70.9 63.05 70.9 62.65 70.9 62.45 70.9 59.7 71.25 59.2 71.25 59.15 71.25 56.9 71.5 56.8 71.5 56.7 71.5 56.25 71.5 56.15 71.5 56.05 71.5 56.05 71.5 55.95 71.5 55.85 71.5 52.85 71.65 Q50.3 72.05 47.6 72.9 L46.8 73.15 46.6 73.25 45.8 73.55 44.75 73.95 44.55 74.05 43.35 74.25 Q42.45 74.25 42.15 75.0 41.65 75.8 41.65 76.6 L41.65 77.3 41.65 77.5 41.65 77.7 Q41.2 79.75 41.3 82.35" fill="#e2faff" fill-rule="evenodd" stroke="none">
      <animate attributeName="fill" dur="2s" repeatCount="indefinite" values="#e2faff;#e2faff"/>
      <animate attributeName="fill-opacity" dur="2s" repeatCount="indefinite" values="1.0;1.0"/>
      <animate attributeName="d" dur="2s" repeatCount="indefinite" values="M41.3 82.35 L41.3 82.35 41.3 82.5 41.3 82.7 Q41.3 85.5 41.6 88.8 L41.75 89.9 41.75 90.0 Q42.0 91.6 41.55 93.55 42.7 94.8 41.9 97.25 L42.1 97.55 43.45 99.7 Q43.95 100.45 44.9 100.85 L45.75 101.25 52.2 103.25 52.5 103.35 59.15 104.65 61.1 104.85 62.6 104.95 65.3 105.05 68.45 105.1 68.55 105.1 69.7 105.05 69.9 105.05 71.6 105.0 71.9 105.0 72.2 105.0 72.5 105.0 74.5 104.9 75.85 104.8 77.0 104.75 77.55 104.7 Q85.6 103.45 89.1 102.35 93.55 101.1 94.45 98.95 L94.75 97.95 94.95 95.15 94.75 88.9 94.9 87.05 94.9 86.45 94.9 85.45 94.8 79.3 Q94.55 76.15 94.9 76.15 L94.2 76.0 Q93.15 75.85 92.3 75.2 L92.05 75.1 Q91.5 75.0 91.35 74.75 L91.3 74.65 90.8 74.1 90.2 73.75 89.55 73.45 84.9 72.35 84.5 72.25 81.05 71.75 76.55 71.15 76.35 71.15 73.7 71.05 73.5 71.05 73.3 71.05 73.1 71.0 72.95 71.0 72.85 71.0 68.8 70.95 68.7 70.95 66.25 70.95 66.15 70.95 66.05 70.95 65.95 70.95 65.85 70.95 63.95 70.9 63.05 70.9 62.65 70.9 59.7 71.25 59.2 71.25 56.7 71.5 56.05 71.5 52.85 71.65 Q50.3 72.05 47.6 72.9 L46.8 73.15 45.8 73.55 44.75 73.95 42.15 75.0 Q41.65 75.8 41.65 77.5 41.2 79.65 41.3 82.35 L41.3 82.35 41.3 82.5 41.3 82.7 Q41.3 85.5 41.6 88.8 L41.65 89.2 41.75 89.9 41.75 90.0 Q42.0 91.6 41.55 93.55 42.7 94.8 41.9 97.15 L41.9 97.25 42.1 97.55 Q42.8 98.65 43.45 99.7 43.85 100.3 44.55 100.7 L44.9 100.85 45.75 101.25 Q48.8 102.2 51.8 103.15 L52.2 103.25 52.5 103.35 Q56.1 104.4 61.1 104.85 L62.6 104.95 65.3 105.05 68.35 105.1 68.45 105.1 68.55 105.1 69.6 105.05 69.7 105.05 69.9 105.05 71.6 105.0 71.9 105.0 72.2 105.0 72.5 105.0 74.5 104.9 75.85 104.8 77.0 104.75 77.35 104.7 77.55 104.7 Q85.6 103.45 89.1 102.35 93.55 101.1 94.45 98.95 L94.65 98.4 94.75 97.95 94.95 95.15 94.75 88.9 94.9 87.05 94.9 86.45 94.9 86.25 94.9 85.45 Q94.85 82.35 94.8 79.3 L94.7 77.5 Q94.65 76.15 94.9 76.15 L94.2 76.0 Q93.15 75.85 92.35 75.2 L92.3 75.2 92.15 75.15 92.05 75.1 91.65 75.0 91.35 74.75 91.3 74.65 90.95 74.25 90.8 74.1 90.2 73.75 89.8 73.55 89.55 73.45 Q87.2 72.9 84.9 72.35 L84.5 72.25 84.4 72.25 81.05 71.75 76.55 71.15 76.35 71.15 76.15 71.15 73.7 71.05 73.5 71.05 73.4 71.05 73.3 71.05 73.2 71.0 73.1 71.0 72.95 71.0 72.85 71.0 72.75 71.0 68.8 70.95 68.7 70.95 68.4 70.95 66.25 70.95 66.15 70.95 66.05 70.95 65.95 70.95 65.95 70.95 65.85 70.95 65.75 70.95 65.65 70.95 63.95 70.9 63.05 70.9 62.65 70.9 62.45 70.9 59.7 71.25 59.2 71.25 59.15 71.25 56.9 71.5 56.8 71.5 56.7 71.5 56.25 71.5 56.15 71.5 56.05 71.5 56.05 71.5 55.95 71.5 55.85 71.5 52.85 71.65 Q50.3 72.05 47.6 72.9 L46.8 73.15 46.6 73.25 45.8 73.55 44.75 73.95 44.55 74.05 43.35 74.25 Q42.45 74.25 42.15 75.0 41.65 75.8 41.65 76.6 L41.65 77.3 41.65 77.5 41.65 77.7 Q41.2 79.75 41.3 82.35;M46.85 72.05 L47.25 71.75 47.25 71.75 47.25 71.75 Q47.55 71.55 47.8 71.4 L47.9 71.4 47.9 71.4 Q48.05 71.35 48.2 71.3 48.4 71.25 48.6 71.2 L48.6 71.2 48.8 71.1 Q48.9 71.05 49.0 71.0 L49.1 71.0 49.7 70.8 49.7 70.8 50.3 70.65 50.8 70.55 50.9 70.55 51.2 70.45 51.5 70.35 51.5 70.35 51.6 70.35 51.6 70.35 51.7 70.35 51.7 70.35 51.7 70.35 51.7 70.35 51.9 70.25 52.0 70.25 52.1 70.25 52.15 70.25 Q52.7 70.1 53.25 70.0 53.55 69.9 53.85 69.85 L53.95 69.85 54.15 69.8 53.6 70.05 53.4 70.15 53.3 70.15 53.2 70.15 52.55 70.4 Q52.4 70.45 52.3 70.5 L52.2 70.5 Q52.1 70.55 52.0 70.6 L52.0 70.6 Q51.95 70.6 51.9 70.6 L51.9 70.6 51.9 70.6 51.8 70.6 51.7 70.6 51.25 70.8 51.15 70.8 50.8 70.9 50.4 71.0 50.4 71.0 50.2 71.1 50.2 71.1 50.2 71.1 50.2 71.1 50.2 71.1 50.2 71.1 49.85 71.2 49.85 71.2 49.65 71.3 49.65 71.3 49.65 71.3 49.65 71.3 49.65 71.3 49.45 71.4 49.35 71.4 49.25 71.4 48.95 71.5 48.95 71.5 48.75 71.6 48.75 71.6 48.45 71.7 Q48.2 71.8 47.95 71.9 L47.85 71.9 47.75 71.9 47.65 71.9 47.45 71.9 Q47.4 71.9 47.35 71.9 47.1 72.0 46.85 72.05 L41.25 77.95 41.25 78.05 41.25 78.2 Q41.25 81.45 41.25 84.7 L41.25 85.1 41.25 85.9 41.25 86.0 Q41.2 87.9 41.2 89.75 41.25 91.8 41.25 93.8 L41.25 94.05 41.25 94.45 Q41.35 96.05 41.6 97.2 41.9 98.05 42.2 98.85 L42.5 99.25 43.25 99.85 Q44.95 101.05 49.2 102.65 L49.7 102.85 50.0 102.95 Q53.7 104.1 58.75 104.7 L60.3 104.85 63.2 105.05 66.3 105.15 66.45 105.15 66.55 105.15 67.65 105.15 67.75 105.15 67.95 105.15 69.75 105.15 70.05 105.15 70.35 105.15 70.65 105.15 72.75 105.15 74.25 105.15 75.35 105.15 75.65 105.15 75.65 105.15 Q83.15 104.15 87.7 103.0 93.05 101.6 94.25 99.9 L94.6 99.2 94.7 98.9 94.95 95.8 95.0 89.3 95.0 87.2 95.0 86.45 95.0 86.25 95.0 85.45 Q94.95 81.9 95.25 78.85 L95.5 76.9 Q95.25 76.2 95.0 75.5 L94.85 74.5 Q94.75 73.4 94.65 72.35 L94.65 72.25 94.65 71.95 94.65 71.85 94.65 71.5 94.6 71.1 94.6 70.95 94.45 70.3 94.45 70.3 93.7 69.65 93.2 69.35 92.95 69.25 Q91.4 68.45 88.35 67.8 L87.95 67.7 87.75 67.7 84.3 67.0 79.45 66.3 79.25 66.3 79.05 66.3 76.45 66.1 76.25 66.1 76.05 66.1 76.0 66.1 75.8 66.1 75.8 66.1 75.7 66.1 75.6 66.05 75.4 66.05 71.3 65.9 71.2 65.9 70.9 65.9 68.6 65.85 68.5 65.85 68.4 65.85 68.3 65.85 68.2 65.85 68.15 65.85 67.95 65.85 67.9 65.85 66.35 65.6 65.3 65.65 64.9 65.65 64.7 65.65 61.75 65.95 61.15 66.05 61.05 66.05 58.95 66.15 58.85 66.15 58.75 66.15 58.35 66.25 58.25 66.25 58.15 66.25 58.05 66.25 57.95 66.25 57.9 66.25 54.85 66.1 Q52.45 66.25 49.25 67.2 L48.45 67.4 48.25 67.5 47.75 67.65 46.6 68.05 46.25 68.15 44.7 68.8 Q44.0 69.2 43.3 69.6 42.65 70.2 42.0 70.75 L41.7 71.35 41.6 71.55 41.55 71.75 Q41.15 74.05 41.25 77.0"/>
    </path>
    <path d="M41.3 82.35 Q41.2 79.75 41.65 77.7 L41.65 77.5 41.65 77.3 41.65 76.6 Q41.65 75.8 42.15 75.0 42.45 74.25 43.35 74.25 L44.55 74.05 44.75 73.95 45.8 73.55 46.6 73.25 46.8 73.15 47.6 72.9 Q50.3 72.05 52.85 71.65 L55.85 71.5 55.95 71.5 56.05 71.5 56.05 71.5 56.15 71.5 56.25 71.5 56.7 71.5 56.8 71.5 56.9 71.5 59.15 71.25 59.2 71.25 59.7 71.25 62.45 70.9 62.65 70.9 63.05 70.9 63.95 70.9 65.65 70.95 65.75 70.95 65.85 70.95 65.95 70.95 65.95 70.95 66.05 70.95 66.15 70.95 66.25 70.95 68.4 70.95 68.7 70.95 68.8 70.95 72.75 71.0 72.85 71.0 72.95 71.0 73.1 71.0 73.2 71.0 73.3 71.05 73.4 71.05 73.5 71.05 73.7 71.05 76.15 71.15 76.35 71.15 76.55 71.15 81.05 71.75 84.4 72.25 84.5 72.25 84.9 72.35 Q87.2 72.9 89.55 73.45 L89.8 73.55 90.2 73.75 90.8 74.1 90.95 74.25 91.3 74.65 91.35 74.75 91.65 75.0 92.05 75.1 92.15 75.15 92.3 75.2 92.35 75.2 Q93.15 75.85 94.2 76.0 L94.9 76.15 Q94.65 76.15 94.7 77.5 L94.8 79.3 Q94.85 82.35 94.9 85.45 L94.9 86.25 94.9 86.45 94.9 87.05 94.75 88.9 94.95 95.15 94.75 97.95 94.65 98.4 94.45 98.95 Q93.55 101.1 89.1 102.35 85.6 103.45 77.55 104.7 L77.35 104.7 77.0 104.75 75.85 104.8 74.5 104.9 72.5 105.0 72.2 105.0 71.9 105.0 71.6 105.0 69.9 105.05 69.7 105.05 69.6 105.05 68.55 105.1 68.45 105.1 68.35 105.1 65.3 105.05 62.6 104.95 61.1 104.85 Q56.1 104.4 52.5 103.35 L52.2 103.25 51.8 103.15 Q48.8 102.2 45.75 101.25 L44.9 100.85 44.55 100.7 Q43.85 100.3 43.45 99.7 42.8 98.65 42.1 97.55 L41.9 97.25 41.9 97.15 Q42.7 94.8 41.55 93.55 42.0 91.6 41.75 90.0 L41.75 89.9 41.65 89.2 41.6 88.8 Q41.3 85.5 41.3 82.7 L41.3 82.5 41.3 82.35 41.3 82.35 Q41.2 79.65 41.65 77.5 41.65 75.8 42.15 75.0 L44.75 73.95 45.8 73.55 46.8 73.15 47.6 72.9 Q50.3 72.05 52.85 71.65 L56.05 71.5 56.7 71.5 59.2 71.25 59.7 71.25 62.65 70.9 63.05 70.9 63.95 70.9 65.85 70.95 65.95 70.95 66.05 70.95 66.15 70.95 66.25 70.95 68.7 70.95 68.8 70.95 72.85 71.0 72.95 71.0 73.1 71.0 73.3 71.05 73.5 71.05 73.7 71.05 76.35 71.15 76.55 71.15 81.05 71.75 84.5 72.25 84.9 72.35 89.55 73.45 90.2 73.75 90.8 74.1 91.3 74.65 91.35 74.75 Q91.5 75.0 92.05 75.1 L92.3 75.2 Q93.15 75.85 94.2 76.0 L94.9 76.15 Q94.55 76.15 94.8 79.3 L94.9 85.45 94.9 86.45 94.9 87.05 94.75 88.9 94.95 95.15 94.75 97.95 94.45 98.95 Q93.55 101.1 89.1 102.35 85.6 103.45 77.55 104.7 L77.0 104.75 75.85 104.8 74.5 104.9 72.5 105.0 72.2 105.0 71.9 105.0 71.6 105.0 69.9 105.05 69.7 105.05 68.55 105.1 68.45 105.1 65.3 105.05 62.6 104.95 61.1 104.85 59.15 104.65 52.5 103.35 52.2 103.25 45.75 101.25 44.9 100.85 Q43.95 100.45 43.45 99.7 L42.1 97.55 41.9 97.25 Q42.7 94.8 41.55 93.55 42.0 91.6 41.75 90.0 L41.75 89.9 41.6 88.8 Q41.3 85.5 41.3 82.7 L41.3 82.5 41.3 82.35 41.3 82.35 Q41.2 79.65 41.65 77.5 41.65 75.8 42.15 75.0 L44.75 73.95 45.8 73.55 46.8 73.15 47.6 72.9 Q50.3 72.05 52.85 71.65 L56.05 71.5 56.7 71.5 59.2 71.25 59.7 71.25 62.65 70.9 63.05 70.9 63.95 70.9 65.85 70.95 65.95 70.95 66.05 70.95 66.15 70.95 66.25 70.95 68.7 70.95 68.8 70.95 72.85 71.0 72.95 71.0 73.1 71.0 73.3 71.05 73.5 71.05 73.7 71.05 76.35 71.15 76.55 71.15 81.05 71.75 84.5 72.25 84.9 72.35 89.55 73.45 90.2 73.75 90.8 74.1 91.3 74.65 91.35 74.75 Q91.5 75.0 92.05 75.1 L92.3 75.2 Q93.15 75.85 94.2 76.0 L94.9 76.15 Q94.55 76.15 94.8 79.3 L94.9 85.45 94.9 86.45 94.9 87.05 94.75 88.9 94.95 95.15 94.75 97.95 94.45 98.95 Q93.55 101.1 89.1 102.35 85.6 103.45 77.55 104.7 L77.0 104.75 75.85 104.8 74.5 104.9 72.5 105.0 72.2 105.0 71.9 105.0 71.6 105.0 69.9 105.05 69.7 105.05 68.55 105.1 68.45 105.1 65.3 105.05 62.6 104.95 61.1 104.85 59.15 104.65 52.5 103.35 52.2 103.25 45.75 101.25 44.9 100.85 Q43.95 100.45 43.45 99.7 L42.1 97.55 41.9 97.25 Q42.7 94.8 41.55 93.55 42.0 91.6 41.75 90.0 L41.75 89.9 41.6 88.8 Q41.3 85.5 41.3 82.7 L41.3 82.5 41.3 82.35 41.3 82.35" fill="none" stroke="#000000" stroke-linecap="round" stroke-linejoin="round" stroke-opacity="0.0" stroke-width="1.0">
      <animate attributeName="stroke" dur="2s" repeatCount="indefinite" values="#000000;#000001"/>
      <animate attributeName="stroke-width" dur="2s" repeatCount="indefinite" values="0.0;0.0"/>
      <animate attributeName="fill-opacity" dur="2s" repeatCount="indefinite" values="0.0;0.0"/>
      <animate attributeName="d" dur="2s" repeatCount="indefinite" values="M41.3 82.35 Q41.2 79.75 41.65 77.7 L41.65 77.5 41.65 77.3 41.65 76.6 Q41.65 75.8 42.15 75.0 42.45 74.25 43.35 74.25 L44.55 74.05 44.75 73.95 45.8 73.55 46.6 73.25 46.8 73.15 47.6 72.9 Q50.3 72.05 52.85 71.65 L55.85 71.5 55.95 71.5 56.05 71.5 56.05 71.5 56.15 71.5 56.25 71.5 56.7 71.5 56.8 71.5 56.9 71.5 59.15 71.25 59.2 71.25 59.7 71.25 62.45 70.9 62.65 70.9 63.05 70.9 63.95 70.9 65.65 70.95 65.75 70.95 65.85 70.95 65.95 70.95 65.95 70.95 66.05 70.95 66.15 70.95 66.25 70.95 68.4 70.95 68.7 70.95 68.8 70.95 72.75 71.0 72.85 71.0 72.95 71.0 73.1 71.0 73.2 71.0 73.3 71.05 73.4 71.05 73.5 71.05 73.7 71.05 76.15 71.15 76.35 71.15 76.55 71.15 81.05 71.75 84.4 72.25 84.5 72.25 84.9 72.35 Q87.2 72.9 89.55 73.45 L89.8 73.55 90.2 73.75 90.8 74.1 90.95 74.25 91.3 74.65 91.35 74.75 91.65 75.0 92.05 75.1 92.15 75.15 92.3 75.2 92.35 75.2 Q93.15 75.85 94.2 76.0 L94.9 76.15 Q94.65 76.15 94.7 77.5 L94.8 79.3 Q94.85 82.35 94.9 85.45 L94.9 86.25 94.9 86.45 94.9 87.05 94.75 88.9 94.95 95.15 94.75 97.95 94.65 98.4 94.45 98.95 Q93.55 101.1 89.1 102.35 85.6 103.45 77.55 104.7 L77.35 104.7 77.0 104.75 75.85 104.8 74.5 104.9 72.5 105.0 72.2 105.0 71.9 105.0 71.6 105.0 69.9 105.05 69.7 105.05 69.6 105.05 68.55 105.1 68.45 105.1 68.35 105.1 65.3 105.05 62.6 104.95 61.1 104.85 Q56.1 104.4 52.5 103.35 L52.2 103.25 51.8 103.15 Q48.8 102.2 45.75 101.25 L44.9 100.85 44.55 100.7 Q43.85 100.3 43.45 99.7 42.8 98.65 42.1 97.55 L41.9 97.25 41.9 97.15 Q42.7 94.8 41.55 93.55 42.0 91.6 41.75 90.0 L41.75 89.9 41.65 89.2 41.6 88.8 Q41.3 85.5 41.3 82.7 L41.3 82.5 41.3 82.35 41.3 82.35 Q41.2 79.65 41.65 77.5 41.65 75.8 42.15 75.0 L44.75 73.95 45.8 73.55 46.8 73.15 47.6 72.9 Q50.3 72.05 52.85 71.65 L56.05 71.5 56.7 71.5 59.2 71.25 59.7 71.25 62.65 70.9 63.05 70.9 63.95 70.9 65.85 70.95 65.95 70.95 66.05 70.95 66.15 70.95 66.25 70.95 68.7 70.95 68.8 70.95 72.85 71.0 72.95 71.0 73.1 71.0 73.3 71.05 73.5 71.05 73.7 71.05 76.35 71.15 76.55 71.15 81.05 71.75 84.5 72.25 84.9 72.35 89.55 73.45 90.2 73.75 90.8 74.1 91.3 74.65 91.35 74.75 Q91.5 75.0 92.05 75.1 L92.3 75.2 Q93.15 75.85 94.2 76.0 L94.9 76.15 Q94.55 76.15 94.8 79.3 L94.9 85.45 94.9 86.45 94.9 87.05 94.75 88.9 94.95 95.15 94.75 97.95 94.45 98.95 Q93.55 101.1 89.1 102.35 85.6 103.45 77.55 104.7 L77.0 104.75 75.85 104.8 74.5 104.9 72.5 105.0 72.2 105.0 71.9 105.0 71.6 105.0 69.9 105.05 69.7 105.05 68.55 105.1 68.45 105.1 65.3 105.05 62.6 104.95 61.1 104.85 59.15 104.65 52.5 103.35 52.2 103.25 45.75 101.25 44.9 100.85 Q43.95 100.45 43.45 99.7 L42.1 97.55 41.9 97.25 Q42.7 94.8 41.55 93.55 42.0 91.6 41.75 90.0 L41.75 89.9 41.6 88.8 Q41.3 85.5 41.3 82.7 L41.3 82.5 41.3 82.35 41.3 82.35 Q41.2 79.65 41.65 77.5 41.65 75.8 42.15 75.0 L44.75 73.95 45.8 73.55 46.8 73.15 47.6 72.9 Q50.3 72.05 52.85 71.65 L56.05 71.5 56.7 71.5 59.2 71.25 59.7 71.25 62.65 70.9 63.05 70.9 63.95 70.9 65.85 70.95 65.95 70.95 66.05 70.95 66.15 70.95 66.25 70.95 68.7 70.95 68.8 70.95 72.85 71.0 72.95 71.0 73.1 71.0 73.3 71.05 73.5 71.05 73.7 71.05 76.35 71.15 76.55 71.15 81.05 71.75 84.5 72.25 84.9 72.35 89.55 73.45 90.2 73.75 90.8 74.1 91.3 74.65 91.35 74.75 Q91.5 75.0 92.05 75.1 L92.3 75.2 Q93.15 75.85 94.2 76.0 L94.9 76.15 Q94.55 76.15 94.8 79.3 L94.9 85.45 94.9 86.45 94.9 87.05 94.75 88.9 94.95 95.15 94.75 97.95 94.45 98.95 Q93.55 101.1 89.1 102.35 85.6 103.45 77.55 104.7 L77.0 104.75 75.85 104.8 74.5 104.9 72.5 105.0 72.2 105.0 71.9 105.0 71.6 105.0 69.9 105.05 69.7 105.05 68.55 105.1 68.45 105.1 65.3 105.05 62.6 104.95 61.1 104.85 59.15 104.65 52.5 103.35 52.2 103.25 45.75 101.25 44.9 100.85 Q43.95 100.45 43.45 99.7 L42.1 97.55 41.9 97.25 Q42.7 94.8 41.55 93.55 42.0 91.6 41.75 90.0 L41.75 89.9 41.6 88.8 Q41.3 85.5 41.3 82.7 L41.3 82.5 41.3 82.35 41.3 82.35;M41.25 77.0 Q41.15 74.05 41.55 71.75 L41.6 71.55 41.7 71.35 42.0 70.75 Q42.65 70.2 43.3 69.6 44.0 69.2 44.7 68.8 L46.25 68.15 46.6 68.05 47.75 67.65 48.25 67.5 48.45 67.4 49.25 67.2 Q52.45 66.25 54.85 66.1 L57.9 66.25 57.95 66.25 58.05 66.25 58.15 66.25 58.25 66.25 58.35 66.25 58.75 66.15 58.85 66.15 58.95 66.15 61.05 66.05 61.15 66.05 61.75 65.95 64.7 65.65 64.9 65.65 65.3 65.65 66.35 65.6 67.9 65.85 67.95 65.85 68.15 65.85 68.2 65.85 68.3 65.85 68.4 65.85 68.5 65.85 68.6 65.85 70.9 65.9 71.2 65.9 71.3 65.9 75.4 66.05 75.6 66.05 75.7 66.1 75.8 66.1 75.8 66.1 76.0 66.1 76.05 66.1 76.25 66.1 76.45 66.1 79.05 66.3 79.25 66.3 79.45 66.3 84.3 67.0 87.75 67.7 87.95 67.7 88.35 67.8 Q91.4 68.45 92.95 69.25 L93.2 69.35 93.7 69.65 94.45 70.3 94.45 70.3 94.6 70.95 94.6 71.1 94.65 71.5 94.65 71.85 94.65 71.95 94.65 72.25 94.65 72.35 Q94.75 73.4 94.85 74.5 L95.0 75.5 Q95.25 76.2 95.5 76.9 L95.25 78.85 Q94.95 81.9 95.0 85.45 L95.0 86.25 95.0 86.45 95.0 87.2 95.0 89.3 94.95 95.8 94.7 98.9 94.6 99.2 94.25 99.9 Q93.05 101.6 87.7 103.0 83.15 104.15 75.65 105.15 L75.65 105.15 75.35 105.15 74.25 105.15 72.75 105.15 70.65 105.15 70.35 105.15 70.05 105.15 69.75 105.15 67.95 105.15 67.75 105.15 67.65 105.15 66.55 105.15 66.45 105.15 66.3 105.15 63.2 105.05 60.3 104.85 58.75 104.7 Q53.7 104.1 50.0 102.95 L49.7 102.85 49.2 102.65 Q44.95 101.05 43.25 99.85 L42.5 99.25 42.2 98.85 Q41.9 98.05 41.6 97.2 41.35 96.05 41.25 94.45 L41.25 94.05 41.25 93.8 Q41.25 91.8 41.2 89.75 41.2 87.9 41.25 86.0 L41.25 85.9 41.25 85.1 41.25 84.7 Q41.25 81.45 41.25 78.2 L41.25 78.05 41.25 77.95 41.25 77.0 Q47.1 72.0 47.35 71.9 47.4 71.9 47.45 71.9 L47.65 71.9 47.75 71.9 47.85 71.9 47.95 71.9 Q48.2 71.8 48.45 71.7 L48.75 71.6 48.75 71.6 48.95 71.5 48.95 71.5 49.25 71.4 49.35 71.4 49.45 71.4 49.65 71.3 49.65 71.3 49.65 71.3 49.65 71.3 49.65 71.3 49.85 71.2 49.85 71.2 50.2 71.1 50.2 71.1 50.2 71.1 50.2 71.1 50.2 71.1 50.2 71.1 50.4 71.0 50.4 71.0 50.8 70.9 51.15 70.8 51.25 70.8 51.7 70.6 51.8 70.6 51.9 70.6 51.9 70.6 51.9 70.6 Q51.95 70.6 52.0 70.6 L52.0 70.6 Q52.1 70.55 52.2 70.5 L52.3 70.5 Q52.4 70.45 52.55 70.4 L53.2 70.15 53.3 70.15 53.4 70.15 53.6 70.05 54.15 69.8 53.95 69.85 53.85 69.85 Q53.55 69.9 53.25 70.0 52.7 70.1 52.15 70.25 L52.1 70.25 52.0 70.25 51.9 70.25 51.7 70.35 51.7 70.35 51.7 70.35 51.7 70.35 51.6 70.35 51.6 70.35 51.5 70.35 51.5 70.35 51.2 70.45 50.9 70.55 50.8 70.55 50.3 70.65 49.7 70.8 49.7 70.8 49.1 71.0 49.0 71.0 Q48.9 71.05 48.8 71.1 L48.6 71.2 48.6 71.2 Q48.4 71.25 48.2 71.3 48.05 71.35 47.9 71.4 L47.9 71.4 47.8 71.4 Q47.55 71.55 47.25 71.75 L47.25 71.75 47.25 71.75 46.85 72.05 Q47.1 72.0 47.35 71.9 47.4 71.9 47.45 71.9 L47.65 71.9 47.75 71.9 47.85 71.9 47.95 71.9 Q48.2 71.8 48.45 71.7 L48.75 71.6 48.75 71.6 48.95 71.5 48.95 71.5 49.25 71.4 49.35 71.4 49.45 71.4 49.65 71.3 49.65 71.3 49.65 71.3 49.65 71.3 49.65 71.3 49.85 71.2 49.85 71.2 50.2 71.1 50.2 71.1 50.2 71.1 50.2 71.1 50.2 71.1 50.2 71.1 50.4 71.0 50.4 71.0 50.8 70.9 51.15 70.8 51.25 70.8 51.7 70.6 51.8 70.6 51.9 70.6 51.9 70.6 51.9 70.6 Q51.95 70.6 52.0 70.6 L52.0 70.6 Q52.1 70.55 52.2 70.5 L52.3 70.5 Q52.4 70.45 52.55 70.4 L53.2 70.15 53.3 70.15 53.4 70.15 53.6 70.05 54.15 69.8 53.95 69.85 53.85 69.85 Q53.55 69.9 53.25 70.0 52.7 70.1 52.15 70.25 L52.1 70.25 52.0 70.25 51.9 70.25 51.7 70.35 51.7 70.35 51.7 70.35 51.7 70.35 51.6 70.35 51.6 70.35 51.5 70.35 51.5 70.35 51.2 70.45 50.9 70.55 50.8 70.55 50.3 70.65 49.7 70.8 49.7 70.8 49.1 71.0 49.0 71.0 Q48.9 71.05 48.8 71.1 L48.6 71.2 48.6 71.2 Q48.4 71.25 48.2 71.3 48.05 71.35 47.9 71.4 L47.9 71.4 47.8 71.4 Q47.55 71.55 47.25 71.75 L47.25 71.75 47.25 71.75 46.85 72.05"/>
    </path>
  </g>
</svg>
