<?xml version="1.0" encoding="UTF-8" standalone="no"?>
<svg xmlns:xlink="http://www.w3.org/1999/xlink" height="10.9px" width="16.7px" xmlns="http://www.w3.org/2000/svg">
  <g transform="matrix(1.0, 0.0, 0.0, 1.0, -73.35, -93.3)">
    <path d="M76.75 95.1 Q69.95 96.3 76.8 95.2 83.65 94.1 78.15 100.75 84.95 99.05 85.05 99.4 86.65 105.35 88.35 103.9 90.05 102.45 90.05 99.65 90.05 96.85 86.3 94.9 82.55 92.9 83.05 93.4 83.55 93.9 76.75 95.1" fill="#e2faff" fill-rule="evenodd" stroke="none">
      <animate attributeName="fill" dur="2s" repeatCount="indefinite" values="#e2faff;#e2faff"/>
      <animate attributeName="fill-opacity" dur="2s" repeatCount="indefinite" values="1.0;1.0"/>
      <animate attributeName="d" dur="2s" repeatCount="indefinite" values="M76.75 95.1 Q69.95 96.3 76.8 95.2 83.65 94.1 78.15 100.75 84.95 99.05 85.05 99.4 86.65 105.35 88.35 103.9 90.05 102.45 90.05 99.65 90.05 96.85 86.3 94.9 82.55 92.9 83.05 93.4 83.55 93.9 76.75 95.1;M76.75 95.1 Q69.95 96.3 76.8 95.2 83.65 94.1 79.65 100.1 82.35 99.75 85.05 99.4 86.65 105.35 88.35 103.9 90.05 102.45 90.05 99.65 90.05 96.85 86.3 94.9 82.55 92.9 83.05 93.4 83.55 93.9 76.75 95.1"/>
    </path>
    <path d="M76.75 95.1 Q83.55 93.9 83.05 93.4 82.55 92.9 86.3 94.9 90.05 96.85 90.05 99.65 90.05 102.45 88.35 103.9 86.65 105.35 85.05 99.4 84.95 99.05 78.15 100.75 83.65 94.1 76.8 95.2 69.95 96.3 76.75 95.1" fill="none" stroke="#000000" stroke-linecap="round" stroke-linejoin="round" stroke-opacity="0.0" stroke-width="1.0">
      <animate attributeName="stroke" dur="2s" repeatCount="indefinite" values="#000000;#000001"/>
      <animate attributeName="stroke-width" dur="2s" repeatCount="indefinite" values="0.0;0.0"/>
      <animate attributeName="fill-opacity" dur="2s" repeatCount="indefinite" values="0.0;0.0"/>
      <animate attributeName="d" dur="2s" repeatCount="indefinite" values="M76.75 95.1 Q83.55 93.9 83.05 93.4 82.55 92.9 86.3 94.9 90.05 96.85 90.05 99.65 90.05 102.45 88.35 103.9 86.65 105.35 85.05 99.4 84.95 99.05 78.15 100.75 83.65 94.1 76.8 95.2 69.95 96.3 76.75 95.1;M76.75 95.1 Q83.55 93.9 83.05 93.4 82.55 92.9 86.3 94.9 90.05 96.85 90.05 99.65 90.05 102.45 88.35 103.9 86.65 105.35 85.05 99.4 82.35 99.75 79.65 100.1 83.65 94.1 76.8 95.2 69.95 96.3 76.75 95.1"/>
    </path>
  </g>
</svg>
