<?xml version="1.0" encoding="UTF-8" standalone="no"?>
<svg xmlns:xlink="http://www.w3.org/1999/xlink" height="80.45px" width="88.6px" xmlns="http://www.w3.org/2000/svg">
  <g transform="matrix(1.0, 0.0, 0.0, 1.0, 8.8, 57.9)">
    <path d="M-8.8 -7.95 L-8.8 -7.95 Q-7.5 -7.15 -7.65 -6.85 -7.8 -6.55 -7.3 -6.4 L-6.4 -5.95 -6.4 -5.95 -5.9 -5.75 -5.4 -4.7 -5.4 -4.6 -5.4 -4.55 -5.25 -4.35 Q-4.35 -2.6 -3.0 -1.1 L-0.8 1.15 0.25 1.9 5.35 6.35 Q13.85 13.4 21.4 17.65 L21.5 17.75 21.55 17.8 21.85 18.0 21.9 18.05 22.0 18.15 22.9 18.7 Q25.85 20.45 28.35 21.3 L30.35 22.05 30.75 22.2 31.1 22.3 31.3 22.35 32.45 22.5 Q35.85 22.75 39.05 20.55 L39.25 20.45 39.8 20.1 40.15 19.8 40.45 19.55 40.65 19.35 40.8 19.2 Q42.3 17.7 43.35 15.8 L43.7 15.05 43.75 14.85 43.85 14.3 44.05 13.5 44.2 12.6 Q44.5 9.9 45.45 6.55 46.45 1.05 47.45 -4.4 L47.55 -4.55 47.55 -4.85 47.65 -5.25 47.85 -6.05 48.95 -10.0 49.1 -10.6 51.3 -17.25 51.35 -17.55 51.35 -17.65 51.3 -17.8 50.8 -18.6 50.05 -19.35 Q48.95 -20.65 47.85 -21.9 45.1 -22.35 38.9 -25.3 L38.4 -25.6 38.3 -25.65 37.8 -25.95 36.15 -26.3 34.2 -25.95 31.7 -25.3 Q28.1 -24.35 15.6 -27.25 17.35 -31.05 12.15 -26.65 L11.95 -26.55 11.85 -26.55 11.45 -26.35 9.6 -25.2 9.15 -24.9 5.0 -22.15 -1.45 -17.95 -2.1 -17.55 -2.35 -17.35 -5.25 -14.8 -5.35 -14.7 Q-7.05 -13.0 -8.1 -11.05 -9.2 -9.1 -8.25 -9.05 -7.3 -9.0 -8.8 -7.95" fill="#e2f0f7" fill-rule="evenodd" stroke="none">
      <animate attributeName="fill" dur="2s" repeatCount="indefinite" values="#e2f0f7;#e2f0f8"/>
      <animate attributeName="fill-opacity" dur="2s" repeatCount="indefinite" values="1.0;1.0"/>
      <animate attributeName="d" dur="2s" repeatCount="indefinite" values="M-8.8 -7.95 L-8.8 -7.95 Q-7.5 -7.15 -7.65 -6.85 -7.8 -6.55 -7.3 -6.4 L-6.4 -5.95 -6.4 -5.95 -5.9 -5.75 -5.4 -4.7 -5.4 -4.6 -5.4 -4.55 -5.25 -4.35 Q-4.35 -2.6 -3.0 -1.1 L-0.8 1.15 0.25 1.9 5.35 6.35 Q13.85 13.4 21.4 17.65 L21.5 17.75 21.55 17.8 21.85 18.0 21.9 18.05 22.0 18.15 22.9 18.7 Q25.85 20.45 28.35 21.3 L30.35 22.05 30.75 22.2 31.1 22.3 31.3 22.35 32.45 22.5 Q35.85 22.75 39.05 20.55 L39.25 20.45 39.8 20.1 40.15 19.8 40.45 19.55 40.65 19.35 40.8 19.2 Q42.3 17.7 43.35 15.8 L43.7 15.05 43.75 14.85 43.85 14.3 44.05 13.5 44.2 12.6 Q44.5 9.9 45.45 6.55 46.45 1.05 47.45 -4.4 L47.55 -4.55 47.55 -4.85 47.65 -5.25 47.85 -6.05 48.95 -10.0 49.1 -10.6 51.3 -17.25 51.35 -17.55 51.35 -17.65 51.3 -17.8 50.8 -18.6 50.05 -19.35 Q48.95 -20.65 47.85 -21.9 45.1 -22.35 38.9 -25.3 L38.4 -25.6 38.3 -25.65 37.8 -25.95 36.15 -26.3 34.2 -25.95 31.7 -25.3 Q28.1 -24.35 15.6 -27.25 17.35 -31.05 12.15 -26.65 L11.95 -26.55 11.85 -26.55 11.45 -26.35 9.6 -25.2 9.15 -24.9 5.0 -22.15 -1.45 -17.95 -2.1 -17.55 -2.35 -17.35 -5.25 -14.8 -5.35 -14.7 Q-7.05 -13.0 -8.1 -11.05 -9.2 -9.1 -8.25 -9.05 -7.3 -9.0 -8.8 -7.95;M18.1 -49.05 L18.2 -48.55 Q18.35 -47.8 18.45 -47.05 18.55 -46.75 18.6 -46.5 L18.9 -45.7 19.0 -45.6 19.2 -45.15 19.6 -44.35 19.6 -44.25 19.6 -44.25 19.6 -44.25 Q20.4 -42.15 21.2 -40.05 L22.35 -37.2 22.75 -36.3 25.55 -30.1 Q30.35 -19.85 35.4 -12.6 L35.6 -12.4 35.6 -12.4 35.8 -12.05 35.8 -11.95 35.9 -11.85 36.55 -11.0 Q38.8 -7.9 40.65 -5.95 L42.15 -4.5 42.45 -4.25 42.65 -4.05 42.85 -3.85 43.8 -3.15 Q46.5 -1.1 50.45 -3.1 L50.75 -3.2 51.45 -3.6 51.95 -3.9 52.25 -4.1 52.65 -4.35 52.95 -4.65 Q54.55 -6.15 56.15 -7.6 L56.75 -8.1 56.85 -8.2 57.45 -8.7 57.6 -9.1 58.0 -10.1 Q59.0 -12.2 61.15 -15.2 63.8 -18.85 68.25 -23.8 L68.35 -23.9 68.65 -24.3 68.95 -24.7 69.55 -25.35 72.3 -28.3 73.0 -29.0 77.9 -34.05 78.2 -34.35 78.3 -34.45 78.4 -34.55 79.0 -35.1 79.8 -35.9 Q78.45 -36.0 76.9 -37.1 74.1 -39.05 70.5 -44.15 L70.2 -44.55 70.1 -44.65 69.8 -45.15 68.85 -46.6 67.8 -48.25 66.3 -50.05 Q60.55 -56.25 51.3 -57.55 48.0 -57.75 44.75 -57.9 L44.35 -57.9 44.25 -57.9 43.65 -57.9 41.25 -57.7 40.65 -57.6 35.6 -57.0 28.05 -56.15 27.25 -56.05 26.85 -56.05 22.7 -55.55 22.3 -55.45 Q19.7 -54.55 18.7 -52.7 18.2 -51.8 18.1 -50.65 18.1 -49.85 18.1 -49.05"/>
    </path>
    <path d="M-8.8 -7.95 Q-7.3 -9.0 -8.25 -9.05 -9.2 -9.1 -8.1 -11.05 -7.05 -13.0 -5.35 -14.7 L-5.25 -14.8 -2.35 -17.35 -2.1 -17.55 -1.45 -17.95 5.0 -22.15 9.15 -24.9 9.6 -25.2 11.45 -26.35 11.85 -26.55 11.95 -26.55 12.15 -26.65 Q17.35 -31.05 15.6 -27.25 28.1 -24.35 31.7 -25.3 L34.2 -25.95 36.15 -26.3 37.8 -25.95 38.3 -25.65 38.4 -25.6 38.9 -25.3 Q45.1 -22.35 47.85 -21.9 48.95 -20.65 50.05 -19.35 L50.8 -18.6 51.3 -17.8 51.35 -17.65 51.35 -17.55 51.3 -17.25 49.1 -10.6 48.95 -10.0 47.85 -6.05 47.65 -5.25 47.55 -4.85 47.55 -4.55 47.45 -4.4 Q46.45 1.05 45.45 6.55 44.5 9.9 44.2 12.6 L44.05 13.5 43.85 14.3 43.75 14.85 43.7 15.05 43.35 15.8 Q42.3 17.7 40.8 19.2 L40.65 19.35 40.45 19.55 40.15 19.8 39.8 20.1 39.25 20.45 39.05 20.55 Q35.85 22.75 32.45 22.5 L31.3 22.35 31.1 22.3 30.75 22.2 30.35 22.05 28.35 21.3 Q25.85 20.45 22.9 18.7 L22.0 18.15 21.9 18.05 21.85 18.0 21.55 17.8 21.5 17.75 21.4 17.65 Q13.85 13.4 5.35 6.35 L0.25 1.9 -0.8 1.15 -3.0 -1.1 Q-4.35 -2.6 -5.25 -4.35 L-5.4 -4.55 -5.4 -4.6 -5.4 -4.7 -5.9 -5.75 -6.4 -5.95 -6.4 -5.95 -7.3 -6.4 Q-7.8 -6.55 -7.65 -6.85 -7.5 -7.15 -8.8 -7.95 L-8.8 -7.95" fill="none" stroke="#000000" stroke-linecap="round" stroke-linejoin="round" stroke-opacity="0.0" stroke-width="1.0">
      <animate attributeName="stroke" dur="2s" repeatCount="indefinite" values="#000000;#000001"/>
      <animate attributeName="stroke-width" dur="2s" repeatCount="indefinite" values="0.0;0.0"/>
      <animate attributeName="fill-opacity" dur="2s" repeatCount="indefinite" values="0.0;0.0"/>
      <animate attributeName="d" dur="2s" repeatCount="indefinite" values="M-8.8 -7.95 Q-7.3 -9.0 -8.25 -9.05 -9.2 -9.1 -8.1 -11.05 -7.05 -13.0 -5.35 -14.7 L-5.25 -14.8 -2.35 -17.35 -2.1 -17.55 -1.45 -17.95 5.0 -22.15 9.15 -24.9 9.6 -25.2 11.45 -26.35 11.85 -26.55 11.95 -26.55 12.15 -26.65 Q17.35 -31.05 15.6 -27.25 28.1 -24.35 31.7 -25.3 L34.2 -25.95 36.15 -26.3 37.8 -25.95 38.3 -25.65 38.4 -25.6 38.9 -25.3 Q45.1 -22.35 47.85 -21.9 48.95 -20.65 50.05 -19.35 L50.8 -18.6 51.3 -17.8 51.35 -17.65 51.35 -17.55 51.3 -17.25 49.1 -10.6 48.95 -10.0 47.85 -6.05 47.65 -5.25 47.55 -4.85 47.55 -4.55 47.45 -4.4 Q46.45 1.05 45.45 6.55 44.5 9.9 44.2 12.6 L44.05 13.5 43.85 14.3 43.75 14.85 43.7 15.05 43.35 15.8 Q42.3 17.7 40.8 19.2 L40.65 19.35 40.45 19.55 40.15 19.8 39.8 20.1 39.25 20.45 39.05 20.55 Q35.85 22.75 32.45 22.5 L31.3 22.35 31.1 22.3 30.75 22.2 30.35 22.05 28.35 21.3 Q25.85 20.45 22.9 18.7 L22.0 18.15 21.9 18.05 21.85 18.0 21.55 17.8 21.5 17.75 21.4 17.65 Q13.85 13.4 5.35 6.35 L0.25 1.9 -0.8 1.15 -3.0 -1.1 Q-4.35 -2.6 -5.25 -4.35 L-5.4 -4.55 -5.4 -4.6 -5.4 -4.7 -5.9 -5.75 -6.4 -5.95 -6.4 -5.95 -7.3 -6.4 Q-7.8 -6.55 -7.65 -6.85 -7.5 -7.15 -8.8 -7.95 L-8.8 -7.95;M18.1 -49.05 Q18.1 -49.85 18.1 -50.65 18.2 -51.8 18.7 -52.7 19.7 -54.55 22.3 -55.45 L22.7 -55.55 26.85 -56.05 27.25 -56.05 28.05 -56.15 35.6 -57.0 40.65 -57.6 41.25 -57.7 43.65 -57.9 44.25 -57.9 44.35 -57.9 44.75 -57.9 Q48.0 -57.75 51.3 -57.55 60.55 -56.25 66.3 -50.05 L67.8 -48.25 68.85 -46.6 69.8 -45.15 70.1 -44.65 70.2 -44.55 70.5 -44.15 Q74.1 -39.05 76.9 -37.1 78.45 -36.0 79.8 -35.9 L79.0 -35.1 78.4 -34.55 78.3 -34.45 78.2 -34.35 77.9 -34.05 73.0 -29.0 72.3 -28.3 69.55 -25.35 68.95 -24.7 68.65 -24.3 68.35 -23.9 68.25 -23.8 Q63.8 -18.85 61.15 -15.2 59.0 -12.2 58.0 -10.1 L57.6 -9.1 57.45 -8.7 56.85 -8.2 56.75 -8.1 56.15 -7.6 Q54.55 -6.15 52.95 -4.65 L52.65 -4.35 52.25 -4.1 51.95 -3.9 51.45 -3.6 50.75 -3.2 50.45 -3.1 Q46.5 -1.1 43.8 -3.15 L42.85 -3.85 42.65 -4.05 42.45 -4.25 42.15 -4.5 40.65 -5.95 Q38.8 -7.9 36.55 -11.0 L35.9 -11.85 35.8 -11.95 35.8 -12.05 35.6 -12.4 35.6 -12.4 35.4 -12.6 Q30.35 -19.85 25.55 -30.1 L22.75 -36.3 22.35 -37.2 21.2 -40.05 Q20.4 -42.15 19.6 -44.25 L19.6 -44.25 19.6 -44.25 19.6 -44.35 19.2 -45.15 19.0 -45.6 18.9 -45.7 18.6 -46.5 Q18.55 -46.75 18.45 -47.05 18.35 -47.8 18.2 -48.55 L18.1 -49.05"/>
    </path>
  </g>
</svg>
