<?xml version="1.0" encoding="UTF-8" standalone="no"?>
<svg xmlns:xlink="http://www.w3.org/1999/xlink" height="823.5px" width="2040.05px" xmlns="http://www.w3.org/2000/svg">
  <g transform="matrix(1.0, 0.0, 0.0, 1.0, 412.0, 344.65)">
    <use height="500.0" id="trans_mc" transform="matrix(1.0, 0.0, 0.0, 1.0, -412.0, -223.0)" width="800.0" xlink:href="#sprite0"/>
    <use height="371.95" transform="matrix(1.0, 0.0, 0.0, 1.0, -258.95, -185.95)" width="517.95" xlink:href="#shape1"/>
    <use height="18.05" transform="matrix(1.0, 0.0, 0.0, 1.0, -241.65, -176.0)" width="122.85" xlink:href="#text0"/>
    <use height="32.0" id="close_btn" transform="matrix(0.6438, 0.0, 0.0, 0.6438, 227.3992, -179.7008)" width="32.0" xlink:href="#button0"/>
    <use height="32.7" transform="matrix(1.0, 0.0, 0.0, 1.0, -163.85, 99.6)" width="104.55" xlink:href="#shape3"/>
    <use height="444.7" transform="matrix(0.3592, 0.0095, -0.0073, 0.3594, -181.8328, -31.8636)" width="365.1" xlink:href="#sprite1"/>
    <use height="41.7" transform="matrix(0.3592, 0.0095, -0.0073, 0.3594, -116.5, 108.05)" width="134.4" xlink:href="#sprite2"/>
    <use height="267.05" transform="matrix(0.3592, 0.0095, -0.0073, 0.3594, -82.95, -27.7)" width="78.55" xlink:href="#sprite3"/>
    <use height="269.15" transform="matrix(0.3592, 0.0095, -0.0073, 0.3594, -181.85, -27.7)" width="61.55" xlink:href="#sprite4"/>
    <use height="182.3" transform="matrix(0.3592, 0.0095, -0.0073, 0.3594, -93.2138, 30.9045)" width="13.35" xlink:href="#sprite5"/>
    <use height="297.35" transform="matrix(0.3592, 0.0095, -0.0073, 0.3594, -88.7796, 3.0453)" width="63.8" xlink:href="#sprite6"/>
    <use height="16.95" transform="matrix(1.0, 0.0, 0.0, 1.0, -180.1, -38.0)" width="129.35" xlink:href="#shape9"/>
    <use height="117.2" transform="matrix(1.0, 0.0, 0.0, 1.0, -167.0, 12.05)" width="112.0" xlink:href="#shape10"/>
    <use height="60.0" transform="matrix(1.0, 0.0, 0.0, 1.0, 26.05, 29.05)" width="138.85" xlink:href="#shape11"/>
    <clipPath id="clipPath0" transform="matrix(1.0, 0.0, 0.0, 1.0, 412.0, 344.65)">
      <use height="149.05" id="mask_mc" transform="matrix(1.0, 0.0, 0.0, 1.0, -289.95, -28.9)" width="893.1" xlink:href="#sprite7"/>
    </clipPath>
    <g clip-path="url(#clipPath0)">
      <use height="69.5" transform="matrix(1.0, 0.0, 0.0, 1.0, -258.95, 24.55)" width="301.95" xlink:href="#shape13"/>
    </g>
    <use height="13.6" transform="matrix(1.0, 0.0, 0.0, 1.0, -245.95, 142.3)" width="197.55" xlink:href="#text2"/>
    <use height="13.6" transform="matrix(1.0, 0.0, 0.0, 1.0, -22.0, 142.3)" width="247.3" xlink:href="#text3"/>
    <use height="321.9" id="ok_btn" transform="matrix(1.0, 0.0, 0.0, 1.0, 146.35, 156.95)" width="111.0" xlink:href="#sprite8"/>
    <use height="280.0" id="yesc1" transform="matrix(1.0, 0.0, 0.0, 1.0, -255.1, 156.95)" width="108.05" xlink:href="#sprite10"/>
    <use height="280.0" id="noc1" transform="matrix(1.0, 0.0, 0.0, 1.0, -161.1, 158.95)" width="108.05" xlink:href="#sprite10"/>
    <use height="280.0" id="truesc1" transform="matrix(1.0, 0.0, 0.0, 1.0, -24.25, 159.95)" width="108.05" xlink:href="#sprite10"/>
    <use height="280.0" id="colloidc1" transform="matrix(1.0, 0.0, 0.0, 1.0, 69.75, 160.95)" width="108.05" xlink:href="#sprite10"/>
    <use height="47.0" id="get_mc" transform="matrix(1.0, 0.0, 0.0, 1.0, -29.65, 189.15)" width="283.05" xlink:href="#sprite11"/>
    <use height="17.25" id="error_txt" transform="matrix(1.0, 0.0, 0.0, 1.0, -38.0, 105.75)" width="289.0" xlink:href="#text4"/>
    <use height="528.2" id="results_mc" transform="matrix(1.0, 0.0, 0.0, 1.0, -267.95, -184.95)" width="537.95" xlink:href="#sprite12"/>
    <use height="695.2" id="finaloutput_mc" transform="matrix(1.0, 0.0, 0.0, 1.0, 466.0, -344.65)" width="1162.05" xlink:href="#sprite14"/>
    <use height="39.0" id="done_btn" transform="matrix(1.0, 0.0, 0.0, 1.0, 814.45, 191.9)" width="130.0" xlink:href="#button1"/>
  </g>
  <defs>
    <g id="sprite0" transform="matrix(1.0, 0.0, 0.0, 1.0, 400.0, 250.0)">
      <use height="500.0" transform="matrix(1.0, 0.0, 0.0, 1.0, -400.0, -250.0)" width="800.0" xlink:href="#shape0"/>
    </g>
    <g id="shape0" transform="matrix(1.0, 0.0, 0.0, 1.0, 400.0, 250.0)">
      <path d="M399.0 -250.0 Q400.0 -250.0 400.0 -249.0 L400.0 249.0 Q400.0 250.0 399.0 250.0 L-399.0 250.0 Q-400.0 250.0 -400.0 249.0 L-400.0 -249.0 Q-400.0 -250.0 -399.0 -250.0 L399.0 -250.0" fill="#000000" fill-opacity="0.60784316" fill-rule="evenodd" stroke="none"/>
    </g>
    <g id="shape1" transform="matrix(1.0, 0.0, 0.0, 1.0, 258.95, 185.95)">
      <path d="M-258.95 -151.95 L259.0 -151.95 259.0 94.05 -258.95 94.05 -258.95 -151.95" fill="#000000" fill-rule="evenodd" stroke="none"/>
      <path d="M259.0 94.05 L259.0 176.0 Q259.0 186.0 249.0 186.0 L-248.95 186.0 Q-258.95 186.0 -258.95 176.0 L-258.95 94.05 259.0 94.05" fill="#993333" fill-rule="evenodd" stroke="none"/>
      <path d="M-258.95 -151.95 L-258.95 -175.95 Q-258.95 -185.95 -248.95 -185.95 L249.0 -185.95 Q259.0 -185.95 259.0 -175.95 L259.0 -151.95 -258.95 -151.95" fill="#333333" fill-rule="evenodd" stroke="none"/>
    </g>
    <g id="button0" transform="matrix(1.0, 0.0, 0.0, 1.0, 16.0, 16.0)">
      <use height="32.0" transform="matrix(1.0, 0.0, 0.0, 1.0, -16.0, -16.0)" width="32.0" xlink:href="#shape2"/>
    </g>
    <g id="shape2" transform="matrix(1.0, 0.0, 0.0, 1.0, 16.0, 16.0)">
      <path d="M7.7 6.95 L0.7 -0.1 8.15 -7.55 0.7 -0.1 7.7 6.95 M10.95 -10.95 Q15.5 -6.4 15.5 0.0 15.5 6.4 10.95 10.95 6.4 15.5 0.0 15.5 -6.4 15.5 -10.95 10.95 -15.5 6.4 -15.5 0.0 -15.5 -6.4 -10.95 -10.95 -6.4 -15.5 0.0 -15.5 6.4 -15.5 10.95 -10.95 M0.7 -0.1 L-7.1 -7.9 0.7 -0.1 -6.65 7.2 0.7 -0.1" fill="#ff3333" fill-rule="evenodd" stroke="none"/>
      <path d="M10.95 -10.95 Q15.5 -6.4 15.5 0.0 15.5 6.4 10.95 10.95 6.4 15.5 0.0 15.5 -6.4 15.5 -10.95 10.95 -15.5 6.4 -15.5 0.0 -15.5 -6.4 -10.95 -10.95 -6.4 -15.5 0.0 -15.5 6.4 -15.5 10.95 -10.95" fill="none" stroke="#000000" stroke-linecap="round" stroke-linejoin="round" stroke-width="1.0"/>
      <path d="M8.15 -7.55 L0.7 -0.1 7.7 6.95 M0.7 -0.1 L-6.65 7.2 M-7.1 -7.9 L0.7 -0.1" fill="none" stroke="#ffffff" stroke-linecap="round" stroke-linejoin="round" stroke-width="3.0"/>
    </g>
    <g id="shape3" transform="matrix(1.0, 0.0, 0.0, 1.0, 163.85, -99.6)">
      <path d="M-112.95 131.25 Q-133.15 130.75 -148.35 124.6 -155.1 121.85 -158.95 118.65 -162.85 115.4 -162.85 112.25 -162.7 106.3 -147.85 103.05 -134.0 100.15 -112.3 100.65 -89.85 101.3 -75.75 104.4 -60.15 107.9 -60.3 113.9 -60.3 117.0 -64.65 120.15 -68.9 123.35 -76.25 126.0 -83.85 128.6 -93.0 130.0 -102.95 131.5 -112.95 131.25" fill="#cccccc" fill-rule="evenodd" stroke="none"/>
      <path d="M-112.95 131.25 Q-133.15 130.75 -148.35 124.6 -155.1 121.85 -158.95 118.65 -162.85 115.4 -162.85 112.25 -162.7 106.3 -147.85 103.05 -134.0 100.15 -112.3 100.65 -89.85 101.3 -75.75 104.4 -60.15 107.9 -60.3 113.9 -60.3 117.0 -64.65 120.15 -68.9 123.35 -76.25 126.0 -83.85 128.6 -93.0 130.0 -102.95 131.5 -112.95 131.25 Z" fill="none" stroke="#c9d1d4" stroke-linecap="round" stroke-linejoin="round" stroke-width="2.0"/>
    </g>
    <g id="sprite1" transform="matrix(1.0, 0.0, 0.0, 1.0, -0.05, -0.1)">
      <use height="444.7" transform="matrix(1.0, 0.0, 0.0, 1.0, 0.05, 0.1)" width="365.1" xlink:href="#shape4"/>
    </g>
    <g id="shape4" transform="matrix(1.0, 0.0, 0.0, 1.0, -0.05, -0.1)">
      <path d="M364.05 1.1 Q361.05 3.9 358.5 10.0 354.2 20.4 353.75 35.85 L355.75 383.8 Q355.75 387.65 353.55 390.75 351.35 393.8 347.85 395.1 334.1 416.65 294.7 430.35 254.6 444.3 204.0 444.3 153.05 444.3 112.8 430.2 73.2 416.3 59.8 394.5 56.85 393.0 55.05 390.15 53.25 387.25 53.25 383.8 L43.15 64.2 Q39.7 43.9 18.25 36.4 16.05 35.65 4.8 32.85 -0.45 31.5 0.8 29.85 11.2 15.9 33.6 15.65 40.55 15.6 48.95 16.9 L57.4 18.2 106.85 21.3 186.1 23.7 268.75 20.4 305.75 16.15 340.75 9.2 Q354.15 6.25 361.55 2.5 L364.05 1.1" fill="url(#gradient0)" fill-rule="evenodd" stroke="none"/>
      <path d="M364.05 1.1 L364.3 0.85 Q364.8 0.4 364.55 0.7 L364.05 1.1 Q361.05 3.9 358.5 10.0 354.2 20.4 353.75 35.85 L355.75 383.8 Q355.75 387.65 353.55 390.75 351.35 393.8 347.85 395.1 334.1 416.65 294.7 430.35 254.6 444.3 204.0 444.3 153.05 444.3 112.8 430.2 73.2 416.3 59.8 394.5 56.85 393.0 55.05 390.15 53.25 387.25 53.25 383.8 L43.15 64.2 Q39.7 43.9 18.25 36.4 16.05 35.65 4.8 32.85 -0.45 31.5 0.8 29.85 11.2 15.9 33.6 15.65 40.55 15.6 48.95 16.9 L57.4 18.2 106.85 21.3 186.1 23.7 268.75 20.4 305.75 16.15 340.75 9.2 Q354.15 6.25 361.55 2.5 L364.05 1.1" fill="none" stroke="#a0a09d" stroke-linecap="round" stroke-linejoin="miter" stroke-miterlimit="10.0" stroke-width="1.0"/>
    </g>
    <radialGradient cx="0" cy="0" gradientTransform="matrix(0.2478, 0.0, 0.0, -0.2478, 182.65, 222.4)" gradientUnits="userSpaceOnUse" id="gradient0" r="819.2" spreadMethod="pad">
      <stop offset="0.0" stop-color="#ffffff"/>
      <stop offset="1.0" stop-color="#cccccc"/>
    </radialGradient>
    <g id="sprite2" transform="matrix(1.0, 0.0, 0.0, 1.0, 0.0, 0.0)">
      <use height="41.7" transform="matrix(1.0, 0.0, 0.0, 1.0, 0.0, 0.0)" width="134.4" xlink:href="#shape5"/>
    </g>
    <g id="shape5" transform="matrix(1.0, 0.0, 0.0, 1.0, 0.0, 0.0)">
      <path d="M127.95 26.3 Q121.0 32.85 111.6 37.05 100.4 42.05 89.85 41.7 77.2 41.25 67.2 33.1 45.3 15.2 19.7 16.9 13.6 17.3 5.3 18.75 0.0 19.35 0.0 16.55 0.0 9.7 19.7 4.85 39.35 0.0 67.2 0.0 95.05 0.0 114.75 4.85 134.4 9.7 134.4 16.55 134.4 20.2 127.95 26.3" fill="#ffffff" fill-rule="evenodd" stroke="none"/>
    </g>
    <g id="sprite3" transform="matrix(1.0, 0.0, 0.0, 1.0, 0.0, 0.0)">
      <use height="267.05" transform="matrix(1.0, 0.0, 0.0, 1.0, 0.0, 0.0)" width="78.55" xlink:href="#shape6"/>
    </g>
    <g id="shape6" transform="matrix(1.0, 0.0, 0.0, 1.0, 0.0, 0.0)">
      <path d="M0.0 21.45 L0.65 0.0 74.2 0.0 74.2 175.8 Q74.2 211.8 78.55 267.05 70.75 249.95 67.05 212.0 65.8 198.95 64.45 177.2 L62.15 141.05 Q58.75 94.2 41.6 60.05 23.85 24.7 0.0 21.45" fill="url(#gradient1)" fill-rule="evenodd" stroke="none"/>
    </g>
    <linearGradient gradientTransform="matrix(-0.0362, 0.0, 0.0, 0.0362, 43.5, 133.55)" gradientUnits="userSpaceOnUse" id="gradient1" spreadMethod="pad" x1="-819.2" x2="819.2">
      <stop offset="0.0" stop-color="#ffffff"/>
      <stop offset="1.0" stop-color="#cccccc"/>
    </linearGradient>
    <g id="sprite4" transform="matrix(1.0, 0.0, 0.0, 1.0, 0.0, 0.0)">
      <use height="269.15" transform="matrix(1.0, 0.0, 0.0, 1.0, 0.0, 0.0)" width="61.55" xlink:href="#shape7"/>
    </g>
    <g id="shape7" transform="matrix(1.0, 0.0, 0.0, 1.0, 0.0, 0.0)">
      <path d="M35.95 34.25 Q24.9 23.5 0.0 21.4 L11.65 0.0 57.2 0.0 57.2 175.75 Q57.2 211.7 61.55 267.05 55.2 273.15 52.0 261.7 49.4 252.45 48.4 229.15 48.15 224.2 47.25 184.05 46.6 155.6 45.1 141.05 43.4 124.8 45.4 98.1 47.4 70.4 46.7 61.15 45.3 43.35 35.95 34.25" fill="url(#gradient2)" fill-rule="evenodd" stroke="none"/>
    </g>
    <linearGradient gradientTransform="matrix(-0.0284, 0.0, 0.0, 0.0284, 34.05, 134.6)" gradientUnits="userSpaceOnUse" id="gradient2" spreadMethod="pad" x1="-819.2" x2="819.2">
      <stop offset="0.0" stop-color="#ffffff"/>
      <stop offset="1.0" stop-color="#999999"/>
    </linearGradient>
    <g id="sprite5" transform="matrix(1.0, 0.0, 0.0, 1.0, -24.95, -17.3)">
      <use height="13.35" transform="matrix(0.0, -1.0, 1.0, 0.0, 24.95, 199.6)" width="182.3" xlink:href="#text1"/>
    </g>
    <g id="text1" transform="matrix(1.0, 0.0, 0.0, 1.0, 0.0, -0.45)">
      <g transform="matrix(1.0, 0.0, 0.0, 1.0, 0.0, 0.0)">
        <use fill="#858789" height="13.35" transform="matrix(0.0137, 0.0, 0.0, 0.0137, 0.0, 13.0)" width="182.3" xlink:href="#font_Arial_A0"/>
        <use fill="#858789" height="13.35" transform="matrix(0.0137, 0.0, 0.0, 0.0137, 9.35, 13.0)" width="182.3" xlink:href="#font_Arial_P0"/>
        <use fill="#858789" height="13.35" transform="matrix(0.0137, 0.0, 0.0, 0.0137, 18.7, 13.0)" width="182.3" xlink:href="#font_Arial_P0"/>
        <use fill="#858789" height="13.35" transform="matrix(0.0137, 0.0, 0.0, 0.0137, 28.05, 13.0)" width="182.3" xlink:href="#font_Arial_R0"/>
        <use fill="#858789" height="13.35" transform="matrix(0.0137, 0.0, 0.0, 0.0137, 38.15, 13.0)" width="182.3" xlink:href="#font_Arial_O0"/>
        <use fill="#858789" height="13.35" transform="matrix(0.0137, 0.0, 0.0, 0.0137, 49.05, 13.0)" width="182.3" xlink:href="#font_Arial_X0"/>
        <use fill="#858789" height="13.35" transform="matrix(0.0137, 0.0, 0.0, 0.0137, 58.4, 13.0)" width="182.3" xlink:href="#font_Arial_I0"/>
        <use fill="#858789" height="13.35" transform="matrix(0.0137, 0.0, 0.0, 0.0137, 62.3, 13.0)" width="182.3" xlink:href="#font_Arial_M0"/>
        <use fill="#858789" height="13.35" transform="matrix(0.0137, 0.0, 0.0, 0.0137, 73.95, 13.0)" width="182.3" xlink:href="#font_Arial_A0"/>
        <use fill="#858789" height="13.35" transform="matrix(0.0137, 0.0, 0.0, 0.0137, 82.25, 13.0)" width="182.3" xlink:href="#font_Arial_T0"/>
        <use fill="#858789" height="13.35" transform="matrix(0.0137, 0.0, 0.0, 0.0137, 90.8, 13.0)" width="182.3" xlink:href="#font_Arial_E0"/>
        <use fill="#858789" height="13.35" transform="matrix(0.0137, 0.0, 0.0, 0.0137, 100.15, 13.0)" width="182.3" xlink:href="#font_Arial__0"/>
        <use fill="#858789" height="13.35" transform="matrix(0.0137, 0.0, 0.0, 0.0137, 104.05, 13.0)" width="182.3" xlink:href="#font_Arial_V0"/>
        <use fill="#858789" height="13.35" transform="matrix(0.0137, 0.0, 0.0, 0.0137, 113.4, 13.0)" width="182.3" xlink:href="#font_Arial_O0"/>
        <use fill="#858789" height="13.35" transform="matrix(0.0137, 0.0, 0.0, 0.0137, 124.3, 13.0)" width="182.3" xlink:href="#font_Arial_L0"/>
        <use fill="#858789" height="13.35" transform="matrix(0.0137, 0.0, 0.0, 0.0137, 132.1, 13.0)" width="182.3" xlink:href="#font_Arial_U0"/>
        <use fill="#858789" height="13.35" transform="matrix(0.0137, 0.0, 0.0, 0.0137, 142.2, 13.0)" width="182.3" xlink:href="#font_Arial_M0"/>
        <use fill="#858789" height="13.35" transform="matrix(0.0137, 0.0, 0.0, 0.0137, 153.85, 13.0)" width="182.3" xlink:href="#font_Arial_E0"/>
        <use fill="#858789" height="13.35" transform="matrix(0.0137, 0.0, 0.0, 0.0137, 163.2, 13.0)" width="182.3" xlink:href="#font_Arial_S0"/>
      </g>
    </g>
    <g id="font_Arial_A0">
      <path d="M210.0 -301.0 L290.5 -516.0 Q316.0 -585.5 330.0 -656.0 347.0 -596.5 382.0 -504.0 L458.5 -301.0 210.0 -301.0 M-1.5 0.0 L101.5 0.0 182.0 -222.0 488.5 -222.0 574.0 0.0 684.5 0.0 384.5 -733.0 280.0 -733.0 -1.5 0.0" fill-rule="evenodd" stroke="none"/>
    </g>
    <g id="font_Arial_P0">
      <path d="M176.0 -384.5 L176.0 -646.5 363.5 -646.5 Q429.5 -646.5 454.0 -640.0 492.0 -629.5 515.5 -596.5 538.5 -564.0 538.5 -518.0 538.5 -454.5 499.0 -419.5 459.5 -384.5 365.5 -384.5 L176.0 -384.5 M79.0 0.0 L176.0 0.0 176.0 -298.0 364.0 -298.0 Q519.5 -298.0 579.0 -362.5 638.5 -427.5 638.5 -521.0 638.5 -575.5 616.5 -621.0 594.0 -666.5 557.5 -691.5 521.0 -717.0 467.0 -726.0 428.5 -733.0 355.5 -733.0 L79.0 -733.0 79.0 0.0" fill-rule="evenodd" stroke="none"/>
    </g>
    <g id="font_Arial_R0">
      <path d="M177.5 -409.5 L177.5 -652.0 409.5 -652.0 Q491.0 -652.0 529.0 -618.5 566.5 -585.0 566.5 -533.0 566.5 -497.5 547.0 -467.0 527.5 -437.0 490.0 -423.0 452.5 -409.5 386.0 -409.5 L177.5 -409.5 M80.5 0.0 L177.5 0.0 177.5 -325.5 290.0 -325.5 Q327.5 -325.5 344.0 -322.0 366.5 -316.5 388.5 -302.5 410.0 -288.5 437.5 -253.5 465.0 -218.5 507.5 -152.5 L604.5 0.0 726.5 0.0 599.0 -199.5 Q561.0 -258.0 518.5 -297.0 498.5 -315.0 460.0 -333.5 565.5 -348.0 616.0 -401.5 666.5 -455.0 666.5 -533.0 666.5 -593.5 636.0 -643.5 605.5 -693.5 554.5 -713.0 503.5 -733.0 405.5 -733.0 L80.5 -733.0 80.5 0.0" fill-rule="evenodd" stroke="none"/>
    </g>
    <g id="font_Arial_O0">
      <path d="M149.5 -355.5 L149.5 -355.5 Q149.5 -521.0 224.0 -591.5 298.0 -662.5 401.0 -662.5 473.5 -662.5 532.0 -625.5 590.0 -589.0 620.5 -522.0 650.5 -455.5 650.5 -366.0 650.5 -224.5 580.0 -147.5 509.0 -70.5 399.5 -70.5 292.0 -70.5 221.0 -146.5 149.5 -223.0 149.5 -355.5 M49.5 -357.0 L49.5 -357.0 Q49.5 -260.5 91.5 -174.0 133.5 -87.5 215.0 -37.5 296.5 12.5 400.0 12.5 495.5 12.5 578.0 -32.5 660.5 -78.0 705.5 -166.0 750.5 -254.0 750.5 -365.5 750.5 -475.5 708.0 -562.0 665.0 -649.0 583.5 -697.5 502.0 -746.0 400.5 -746.0 245.5 -746.0 147.5 -642.5 49.5 -539.5 49.5 -357.0" fill-rule="evenodd" stroke="none"/>
    </g>
    <g id="font_Arial_X0">
      <path d="M4.5 0.0 L121.0 0.0 305.0 -255.5 Q315.5 -270.5 340.0 -310.5 356.5 -284.0 372.0 -261.5 L556.5 0.0 676.5 0.0 399.0 -387.5 656.5 -733.0 551.0 -733.0 403.5 -538.5 Q370.0 -495.0 345.5 -455.0 328.0 -486.5 286.5 -545.0 L153.5 -733.0 38.0 -733.0 288.0 -382.0 4.5 0.0" fill-rule="evenodd" stroke="none"/>
    </g>
    <g id="font_Arial_I0">
      <path d="M95.5 0.0 L192.5 0.0 192.5 -733.0 95.5 -733.0 95.5 0.0" fill-rule="evenodd" stroke="none"/>
    </g>
    <g id="font_Arial_M0">
      <path d="M76.0 0.0 L169.5 0.0 169.5 -624.0 381.5 0.0 469.0 0.0 682.0 -613.5 682.0 0.0 775.5 0.0 775.5 -733.0 645.0 -733.0 469.5 -223.0 Q443.0 -145.5 430.5 -105.5 419.5 -141.5 395.5 -214.0 L222.0 -733.0 76.0 -733.0 76.0 0.0" fill-rule="evenodd" stroke="none"/>
    </g>
    <g id="font_Arial_T0">
      <path d="M265.5 0.0 L362.5 0.0 362.5 -646.5 605.0 -646.5 605.0 -733.0 24.0 -733.0 24.0 -646.5 265.5 -646.5 265.5 0.0" fill-rule="evenodd" stroke="none"/>
    </g>
    <g id="font_Arial_E0">
      <path d="M81.0 0.0 L628.0 0.0 628.0 -86.5 178.0 -86.5 178.0 -336.0 583.5 -336.0 583.5 -422.0 178.0 -422.0 178.0 -646.5 611.0 -646.5 611.0 -733.0 81.0 -733.0 81.0 0.0" fill-rule="evenodd" stroke="none"/>
    </g>
    <g id="font_Arial_V0">
      <path d="M288.5 0.0 L388.0 0.0 675.0 -733.0 576.0 -733.0 378.0 -200.5 Q355.5 -140.5 338.5 -80.5 323.0 -136.5 300.0 -200.5 L109.5 -733.0 4.5 -733.0 288.5 0.0" fill-rule="evenodd" stroke="none"/>
    </g>
    <g id="font_Arial_L0">
      <path d="M75.0 0.0 L533.0 0.0 533.0 -86.5 172.0 -86.5 172.0 -733.0 75.0 -733.0 75.0 0.0" fill-rule="evenodd" stroke="none"/>
    </g>
    <g id="font_Arial_U0">
      <path d="M560.0 -733.0 L560.0 -310.0 Q560.0 -172.0 514.5 -123.5 469.0 -75.0 362.0 -75.0 299.5 -75.0 256.5 -99.5 213.0 -124.0 195.5 -169.0 177.5 -214.5 177.5 -310.0 L177.5 -733.0 80.5 -733.0 80.5 -309.5 Q80.5 -193.0 108.5 -125.5 136.5 -58.5 202.0 -23.0 267.5 12.5 370.5 12.5 476.5 12.5 542.0 -28.0 607.0 -69.0 632.0 -134.0 657.0 -199.0 657.0 -309.5 L657.0 -733.0 560.0 -733.0" fill-rule="evenodd" stroke="none"/>
    </g>
    <g id="font_Arial_S0">
      <path d="M46.0 -235.5 L46.0 -235.5 Q48.0 -162.0 86.5 -103.5 124.5 -45.5 192.0 -16.5 259.0 12.5 358.5 12.5 437.0 12.5 500.0 -16.0 562.5 -45.0 596.0 -96.5 629.5 -148.5 629.5 -207.0 629.5 -266.0 599.0 -311.0 568.5 -356.5 504.5 -386.0 460.5 -406.0 342.5 -432.5 224.0 -459.5 196.0 -485.0 167.5 -510.5 167.5 -550.0 167.5 -595.5 208.0 -627.5 248.0 -660.0 336.0 -660.0 420.5 -660.0 464.0 -624.5 507.0 -589.0 514.5 -519.5 L607.5 -526.5 Q605.0 -591.0 571.5 -642.0 538.0 -693.0 476.0 -719.0 413.5 -745.5 332.0 -745.5 258.0 -745.5 197.5 -720.5 137.0 -695.5 105.5 -647.0 74.0 -599.0 74.0 -543.5 74.0 -493.0 100.0 -452.0 125.5 -411.5 178.0 -384.0 218.5 -362.5 319.5 -338.0 420.5 -314.0 450.0 -302.5 496.0 -285.0 516.0 -259.0 536.0 -233.5 536.0 -199.0 536.0 -165.0 515.5 -136.0 494.5 -107.5 452.0 -91.0 409.5 -74.5 354.0 -74.5 291.5 -74.5 241.5 -96.0 191.5 -118.0 168.0 -153.0 144.0 -188.5 137.5 -243.5 L46.0 -235.5" fill-rule="evenodd" stroke="none"/>
    </g>
    <g id="sprite6" transform="matrix(1.0, 0.0, 0.0, 1.0, 0.5, 0.0)">
      <use height="297.35" transform="matrix(1.0, 0.0, 0.0, 1.0, -0.5, 0.0)" width="63.8" xlink:href="#shape8"/>
    </g>
    <g id="shape8" transform="matrix(1.0, 0.0, 0.0, 1.0, 0.5, 0.0)">
      <path d="M35.6 296.85 L4.1 296.85" fill="none" stroke="#868a8b" stroke-linecap="butt" stroke-linejoin="miter" stroke-miterlimit="10.0" stroke-width="1.0"/>
      <path d="M20.65 94.2 L1.1 94.55" fill="none" stroke="#868a8b" stroke-linecap="butt" stroke-linejoin="miter" stroke-miterlimit="10.0" stroke-width="1.0"/>
      <path d="M0.75 1.05 L4.3 296.45" fill="none" stroke="#868a8b" stroke-linecap="butt" stroke-linejoin="miter" stroke-miterlimit="10.0" stroke-width="1.0"/>
      <path d="M32.25 0.5 L0.0 1.05" fill="none" stroke="#868a8b" stroke-linecap="butt" stroke-linejoin="miter" stroke-miterlimit="10.0" stroke-width="1.0"/>
      <path d="M19.8 21.55 L0.25 21.9" fill="none" stroke="#868a8b" stroke-linecap="butt" stroke-linejoin="miter" stroke-miterlimit="10.0" stroke-width="1.0"/>
      <path d="M20.05 43.25 L0.5 43.6" fill="none" stroke="#868a8b" stroke-linecap="butt" stroke-linejoin="miter" stroke-miterlimit="10.0" stroke-width="1.0"/>
      <path d="M20.3 66.85 L0.8 67.2" fill="none" stroke="#868a8b" stroke-linecap="butt" stroke-linejoin="miter" stroke-miterlimit="10.0" stroke-width="1.0"/>
      <path d="M21.0 121.55 L1.45 121.9" fill="none" stroke="#868a8b" stroke-linecap="butt" stroke-linejoin="miter" stroke-miterlimit="10.0" stroke-width="1.0"/>
      <path d="M21.3 148.9 L1.75 149.25" fill="none" stroke="#868a8b" stroke-linecap="butt" stroke-linejoin="miter" stroke-miterlimit="10.0" stroke-width="1.0"/>
      <path d="M21.65 176.3 L2.1 176.6" fill="none" stroke="#868a8b" stroke-linecap="butt" stroke-linejoin="miter" stroke-miterlimit="10.0" stroke-width="1.0"/>
      <path d="M22.3 230.05 L2.75 230.4" fill="none" stroke="#868a8b" stroke-linecap="butt" stroke-linejoin="miter" stroke-miterlimit="10.0" stroke-width="1.0"/>
      <path d="M22.55 252.7 L3.0 253.05" fill="none" stroke="#868a8b" stroke-linecap="butt" stroke-linejoin="miter" stroke-miterlimit="10.0" stroke-width="1.0"/>
      <path d="M22.85 275.35 L3.3 275.7" fill="none" stroke="#868a8b" stroke-linecap="butt" stroke-linejoin="miter" stroke-miterlimit="10.0" stroke-width="1.0"/>
      <path d="M21.95 202.7 L2.4 203.05" fill="none" stroke="#868a8b" stroke-linecap="butt" stroke-linejoin="miter" stroke-miterlimit="10.0" stroke-width="1.0"/>
      <path d="M36.6 18.15 L35.8 18.95 Q36.55 19.15 36.9 19.75 37.3 20.4 37.3 21.25 37.3 22.6 36.6 23.35 35.85 24.25 34.7 24.25 33.7 24.3 33.0 23.55 32.25 22.75 32.2 21.65 L33.15 21.45 Q33.3 22.45 33.75 22.9 34.15 23.3 34.7 23.3 35.4 23.3 35.85 22.7 36.3 22.2 36.3 21.3 36.3 20.55 35.85 20.0 35.4 19.5 34.75 19.5 L34.05 19.65 34.15 18.6 34.3 18.6 Q35.0 18.6 35.4 18.2 35.9 17.85 35.9 17.0 35.9 16.45 35.5 15.95 35.1 15.55 34.6 15.55 34.05 15.55 33.65 16.0 33.25 16.45 33.2 17.3 L32.25 17.1 Q32.4 15.95 33.0 15.25 33.65 14.6 34.55 14.6 L35.75 14.9 Q36.35 15.35 36.55 15.8 L36.9 17.0 36.6 18.15" fill="#4c4c4d" fill-rule="evenodd" stroke="none"/>
      <path d="M42.65 15.65 L43.15 17.05 43.35 19.3 43.1 21.95 42.25 23.55 Q41.75 24.15 40.85 24.15 39.7 24.15 39.05 23.2 38.25 21.9 38.25 19.35 38.25 17.55 38.5 16.65 38.75 15.7 39.3 15.1 39.9 14.5 40.75 14.5 41.4 14.5 41.85 14.8 L42.65 15.65 M40.75 15.45 Q40.1 15.45 39.7 16.15 39.2 17.05 39.25 19.35 39.25 21.7 39.7 22.45 40.15 23.2 40.85 23.2 41.45 23.2 41.95 22.4 42.45 21.6 42.35 19.3 42.35 16.9 41.85 16.2 41.4 15.45 40.75 15.45" fill="#4c4c4d" fill-rule="evenodd" stroke="none"/>
      <path d="M46.8 15.35 Q46.2 15.35 45.75 16.05 45.3 16.95 45.3 19.25 45.4 21.65 45.8 22.35 46.25 23.1 46.95 23.1 47.55 23.1 48.05 22.3 48.45 21.65 48.45 19.2 48.45 16.95 47.95 16.1 47.5 15.35 46.8 15.35 M49.25 16.95 L49.45 19.2 49.2 21.85 Q48.9 23.0 48.35 23.45 47.85 24.05 46.95 24.05 45.8 24.05 45.15 23.1 44.35 21.95 44.35 19.25 44.3 17.7 44.6 16.55 44.8 15.6 45.4 14.95 46.05 14.4 46.8 14.4 47.45 14.4 47.95 14.7 L48.75 15.55 49.25 16.95" fill="#4c4c4d" fill-rule="evenodd" stroke="none"/>
      <path d="M56.4 17.7 Q55.75 17.8 55.4 18.2 55.0 18.75 55.0 19.75 L55.05 23.75 54.1 23.75 54.05 19.3 53.8 18.15 Q53.55 17.75 53.05 17.8 52.55 17.8 52.3 18.05 52.0 18.25 51.8 18.8 51.65 19.35 51.65 20.25 L51.7 23.8 50.75 23.8 50.65 16.95 51.5 16.95 51.5 17.9 52.25 17.1 Q52.7 16.75 53.25 16.75 L54.25 17.05 54.85 17.95 Q55.55 16.7 56.6 16.7 57.45 16.7 57.9 17.25 58.35 17.8 58.35 19.0 L58.4 23.7 57.45 23.7 57.4 19.4 57.3 18.4 56.95 17.9 56.4 17.7" fill="#4c4c4d" fill-rule="evenodd" stroke="none"/>
      <path d="M59.85 23.65 L59.7 14.2 60.7 14.2 60.8 23.65 59.85 23.65" fill="#4c4c4d" fill-rule="evenodd" stroke="none"/>
      <path d="M35.45 67.8 L34.35 68.8 33.95 69.3 37.8 69.25 37.8 70.15 32.65 70.25 32.75 69.6 33.35 68.55 34.6 67.35 36.3 65.65 36.75 64.5 Q36.75 63.95 36.35 63.55 35.95 63.2 35.25 63.2 34.65 63.2 34.15 63.6 33.75 64.1 33.75 64.75 L32.75 64.7 Q32.8 63.6 33.5 63.0 34.2 62.4 35.25 62.4 36.4 62.4 37.05 63.0 37.75 63.6 37.75 64.5 L37.55 65.45 36.95 66.4 35.45 67.8" fill="#4c4c4d" fill-rule="evenodd" stroke="none"/>
      <path d="M38.85 68.1 L39.85 68.0 Q39.9 68.65 40.35 69.1 L41.35 69.45 Q42.0 69.45 42.55 68.9 43.0 68.4 43.0 67.5 43.0 66.7 42.5 66.25 42.05 65.8 41.3 65.8 L40.45 66.0 39.9 66.55 39.0 66.45 39.7 62.45 43.6 62.4 43.6 63.3 40.45 63.35 40.05 65.45 Q40.75 64.95 41.55 64.95 42.6 64.95 43.3 65.6 44.0 66.4 44.0 67.4 44.0 68.5 43.4 69.25 42.7 70.2 41.35 70.25 40.3 70.25 39.6 69.65 38.95 69.15 38.85 68.1" fill="#4c4c4d" fill-rule="evenodd" stroke="none"/>
      <path d="M49.8 64.3 L50.0 66.1 49.75 68.35 48.9 69.65 Q48.4 70.05 47.5 70.15 46.35 70.15 45.7 69.35 44.9 68.3 44.9 66.2 44.9 64.7 45.15 64.0 45.45 63.05 46.0 62.65 46.55 62.2 47.4 62.2 L48.5 62.4 Q49.1 62.8 49.3 63.15 L49.8 64.3 M46.35 63.55 Q45.85 64.3 45.9 66.2 45.9 68.1 46.35 68.75 46.8 69.35 47.5 69.35 L48.6 68.7 Q49.0 68.1 49.0 66.15 49.0 64.2 48.55 63.6 48.05 62.95 47.4 62.95 46.7 63.05 46.35 63.55" fill="#4c4c4d" fill-rule="evenodd" stroke="none"/>
      <path d="M55.95 65.3 Q55.6 65.65 55.6 66.6 L55.6 69.85 54.65 69.85 54.6 66.2 54.35 65.25 Q54.15 64.95 53.6 64.95 L52.85 65.2 52.35 65.8 Q52.2 66.25 52.2 67.0 L52.25 69.9 51.3 69.95 51.2 64.3 52.1 64.3 52.1 65.05 Q52.35 64.6 52.8 64.4 53.25 64.1 53.8 64.1 L54.85 64.35 55.4 65.1 Q56.1 64.05 57.15 64.05 58.0 64.05 58.45 64.5 58.85 64.9 58.95 65.9 L59.0 69.8 58.0 69.8 58.0 66.25 57.9 65.45 57.55 65.05 56.95 64.9 Q56.35 64.9 55.95 65.3" fill="#4c4c4d" fill-rule="evenodd" stroke="none"/>
      <path d="M60.4 69.75 L60.3 62.0 61.25 61.95 61.35 69.75 60.4 69.75" fill="#4c4c4d" fill-rule="evenodd" stroke="none"/>
      <path d="M37.7 116.25 Q38.4 117.05 38.4 118.15 L38.2 119.25 37.6 120.4 36.1 122.1 35.0 123.3 34.6 123.95 38.45 123.9 38.5 125.0 33.3 125.1 33.4 124.3 34.0 123.0 35.25 121.55 36.95 119.55 37.4 118.1 36.95 116.95 Q36.6 116.5 35.9 116.5 35.2 116.5 34.8 117.05 34.4 117.45 34.4 118.45 L33.4 118.35 Q33.5 117.0 34.15 116.3 34.85 115.55 35.9 115.55 37.0 115.55 37.7 116.25" fill="#4c4c4d" fill-rule="evenodd" stroke="none"/>
      <path d="M43.05 115.75 L43.85 116.6 44.35 118.0 44.55 120.25 44.3 122.9 Q44.1 123.9 43.5 124.5 42.9 125.1 42.05 125.1 40.9 125.1 40.25 124.15 39.45 122.85 39.45 120.3 39.45 118.5 39.7 117.6 40.05 116.5 40.55 116.05 41.1 115.45 41.95 115.45 42.6 115.45 43.05 115.75 M40.9 117.1 Q40.4 118.15 40.45 120.3 40.45 122.7 40.95 123.4 41.4 124.15 42.05 124.15 42.65 124.15 43.15 123.35 43.65 122.55 43.55 120.25 43.55 117.9 43.1 117.15 42.65 116.4 41.95 116.4 41.3 116.4 40.9 117.1" fill="#4c4c4d" fill-rule="evenodd" stroke="none"/>
      <path d="M48.05 116.3 Q47.4 116.3 47.0 117.0 46.5 117.9 46.55 120.2 46.55 122.55 47.0 123.3 47.45 124.05 48.15 124.05 48.75 124.05 49.25 123.25 49.7 122.4 49.65 120.15 49.65 117.75 49.15 117.05 48.7 116.3 48.05 116.3 M49.95 116.5 L50.45 117.9 50.65 120.1 50.4 122.8 Q50.1 123.95 49.55 124.4 49.05 125.0 48.15 125.0 47.0 125.0 46.35 124.05 45.55 122.75 45.55 120.2 45.55 118.4 45.8 117.5 46.0 116.6 46.6 115.9 47.25 115.35 48.05 115.35 48.7 115.35 49.15 115.65 49.65 115.9 49.95 116.5" fill="#4c4c4d" fill-rule="evenodd" stroke="none"/>
      <path d="M55.5 118.0 L56.05 118.9 Q56.75 117.65 57.8 117.65 58.65 117.65 59.1 118.2 59.5 118.7 59.6 119.95 L59.65 124.65 58.7 124.65 58.65 120.35 58.5 119.35 58.2 118.85 57.6 118.65 Q57.0 118.65 56.6 119.15 56.25 119.65 56.25 120.7 L56.3 124.7 55.3 124.7 55.25 120.25 55.0 119.1 Q54.75 118.7 54.25 118.75 53.75 118.75 53.5 119.0 53.2 119.2 53.0 119.75 52.85 120.3 52.85 121.2 L52.9 124.75 51.95 124.75 51.85 117.9 52.75 117.9 52.75 118.85 Q52.95 118.4 53.45 118.05 54.0 117.7 54.45 117.7 55.05 117.7 55.5 118.0" fill="#4c4c4d" fill-rule="evenodd" stroke="none"/>
      <path d="M61.05 124.6 L60.95 115.15 61.9 115.15 62.0 124.6 61.05 124.6" fill="#4c4c4d" fill-rule="evenodd" stroke="none"/>
      <path d="M36.1 170.1 L36.95 168.8 37.55 168.8 37.7 178.3 36.7 178.3 36.65 170.9 35.75 171.75 34.75 172.35 34.7 171.25 36.1 170.1" fill="#4c4c4d" fill-rule="evenodd" stroke="none"/>
      <path d="M44.55 172.75 Q45.3 173.65 45.3 174.95 45.3 176.25 44.7 177.2 43.95 178.35 42.65 178.35 41.6 178.4 40.9 177.7 40.25 177.0 40.1 175.8 L41.15 175.65 Q41.2 176.5 41.65 177.0 42.05 177.4 42.65 177.4 43.35 177.4 43.85 176.75 44.3 176.15 44.3 175.1 44.3 174.15 43.8 173.5 43.35 172.95 42.6 172.95 42.15 172.95 41.75 173.25 L41.15 173.9 40.25 173.8 40.95 168.9 44.85 168.85 44.9 169.95 41.75 170.0 41.35 172.55 Q42.05 171.95 42.85 171.95 43.85 171.9 44.55 172.75" fill="#4c4c4d" fill-rule="evenodd" stroke="none"/>
      <path d="M48.7 169.55 Q48.0 169.65 47.65 170.25 47.15 171.1 47.15 173.45 47.25 175.85 47.65 176.55 48.1 177.3 48.8 177.3 49.45 177.3 49.9 176.5 50.3 175.85 50.3 173.4 50.3 171.15 49.8 170.3 49.35 169.55 48.7 169.55 M51.1 171.15 L51.3 173.4 51.05 176.1 Q50.7 177.2 50.2 177.7 49.65 178.25 48.8 178.25 47.65 178.25 47.0 177.3 46.2 176.2 46.2 173.5 46.15 171.85 46.45 170.8 46.65 169.8 47.25 169.2 47.85 168.6 48.7 168.6 L49.8 168.9 50.6 169.75 51.1 171.15" fill="#4c4c4d" fill-rule="evenodd" stroke="none"/>
      <path d="M53.65 173.05 Q53.5 173.5 53.5 174.45 L53.55 178.0 52.6 178.05 52.5 171.2 53.35 171.15 53.4 172.15 54.1 171.3 Q54.5 171.0 55.1 171.0 55.75 171.0 56.1 171.3 L56.7 172.15 Q57.4 170.95 58.45 170.95 59.25 170.9 59.75 171.45 60.2 172.05 60.2 173.2 L60.3 177.9 59.3 177.9 59.25 173.6 59.15 172.6 58.8 172.1 58.25 171.95 Q57.6 171.95 57.25 172.45 56.85 172.95 56.9 174.0 L56.9 177.95 55.95 177.95 55.9 173.55 55.65 172.35 Q55.45 172.0 54.9 172.0 54.5 172.0 54.15 172.25 L53.65 173.05" fill="#4c4c4d" fill-rule="evenodd" stroke="none"/>
      <path d="M61.7 177.85 L61.55 168.4 62.55 168.4 62.65 177.85 61.7 177.85" fill="#4c4c4d" fill-rule="evenodd" stroke="none"/>
      <path d="M38.2 222.6 L38.35 232.05 37.35 232.1 37.3 224.7 36.4 225.5 35.4 226.1 35.35 225.0 36.75 223.85 37.6 222.6 38.2 222.6" fill="#4c4c4d" fill-rule="evenodd" stroke="none"/>
      <path d="M45.85 227.3 L45.6 229.95 Q45.3 231.1 44.75 231.55 44.25 232.15 43.35 232.15 42.2 232.15 41.55 231.2 40.75 229.9 40.75 227.35 40.75 225.55 41.0 224.65 41.35 223.6 41.8 223.05 42.45 222.5 43.25 222.5 L44.35 222.8 45.15 223.65 45.65 225.05 45.85 227.3 M44.35 224.2 Q43.9 223.45 43.25 223.45 42.6 223.45 42.2 224.15 41.7 225.05 41.75 227.35 41.75 229.7 42.2 230.45 42.65 231.2 43.35 231.2 43.95 231.2 44.45 230.4 44.95 229.6 44.85 227.3 44.85 224.9 44.35 224.2" fill="#4c4c4d" fill-rule="evenodd" stroke="none"/>
      <path d="M50.45 222.65 L51.25 223.55 51.75 224.95 51.95 227.15 51.7 229.85 Q51.4 231.0 50.85 231.45 50.35 232.05 49.45 232.05 48.3 232.05 47.65 231.1 46.85 229.95 46.85 227.25 46.8 225.7 47.1 224.55 47.3 223.65 47.9 222.95 48.55 222.4 49.3 222.4 L50.45 222.65 M49.3 223.35 Q48.7 223.35 48.25 224.05 47.8 224.9 47.8 227.25 47.9 229.55 48.3 230.35 48.75 231.1 49.45 231.1 50.05 231.1 50.55 230.3 50.95 229.55 50.95 227.2 50.95 224.95 50.45 224.1 50.0 223.35 49.3 223.35" fill="#4c4c4d" fill-rule="evenodd" stroke="none"/>
      <path d="M60.4 225.25 Q60.85 225.8 60.85 226.95 L60.9 231.7 59.95 231.7 59.9 227.4 59.8 226.4 59.45 225.9 58.9 225.7 Q58.3 225.7 57.9 226.2 57.5 226.75 57.5 227.75 L57.55 231.75 56.6 231.75 56.55 227.3 56.3 226.15 Q56.05 225.75 55.55 225.75 L54.8 226.05 Q54.45 226.25 54.3 226.8 54.15 227.35 54.15 228.25 L54.2 231.8 53.25 231.8 53.15 224.95 54.0 224.95 54.0 225.9 54.75 225.1 Q55.2 224.75 55.75 224.75 56.4 224.75 56.75 225.05 57.2 225.35 57.35 225.95 58.0 224.7 59.1 224.7 60.0 224.7 60.4 225.25" fill="#4c4c4d" fill-rule="evenodd" stroke="none"/>
      <path d="M62.35 231.65 L62.2 222.2 63.2 222.2 63.3 231.65 62.35 231.65" fill="#4c4c4d" fill-rule="evenodd" stroke="none"/>
      <path d="M39.95 265.15 L39.95 266.25 36.8 266.3 36.45 268.85 Q37.15 268.25 37.9 268.25 38.9 268.25 39.65 269.05 40.35 270.0 40.35 271.25 40.4 272.5 39.8 273.5 39.05 274.65 37.75 274.7 36.7 274.7 36.0 274.0 35.25 273.2 35.2 272.1 L36.2 271.95 Q36.35 272.9 36.75 273.3 37.15 273.75 37.75 273.75 38.5 273.65 38.9 273.05 39.35 272.45 39.35 271.4 39.35 270.35 38.85 269.85 38.4 269.25 37.65 269.3 L36.8 269.55 Q36.55 269.7 36.25 270.2 L35.35 270.1 36.05 265.2 39.95 265.15" fill="#4c4c4d" fill-rule="evenodd" stroke="none"/>
      <path d="M44.85 265.2 L45.65 266.1 46.15 267.45 46.35 269.7 46.1 272.4 Q45.9 273.3 45.3 274.0 44.65 274.55 43.85 274.55 42.75 274.6 42.05 273.6 41.25 272.4 41.25 269.8 41.25 268.0 41.5 267.1 41.8 266.05 42.35 265.5 42.8 265.0 43.75 264.9 44.4 264.9 44.85 265.2 M44.9 266.65 Q44.4 265.85 43.75 265.9 43.05 265.9 42.7 266.6 42.2 267.45 42.25 269.8 42.25 272.15 42.75 272.85 43.2 273.65 43.85 273.6 44.5 273.6 44.95 272.85 45.45 272.0 45.35 269.7 45.35 267.4 44.9 266.65" fill="#4c4c4d" fill-rule="evenodd" stroke="none"/>
      <path d="M48.6 270.8 L48.6 274.35 47.65 274.35 47.6 267.5 48.45 267.5 48.45 268.45 Q48.65 268.05 49.15 267.6 49.6 267.3 50.15 267.3 L51.2 267.6 51.75 268.45 Q52.45 267.25 53.5 267.25 54.4 267.25 54.8 267.8 55.3 268.4 55.3 269.5 L55.35 274.2 54.4 274.25 54.35 269.9 54.25 268.9 53.9 268.45 53.3 268.25 Q52.75 268.25 52.3 268.75 51.95 269.15 51.95 270.3 L52.0 274.25 51.05 274.3 51.0 269.85 50.75 268.7 Q50.45 268.3 49.95 268.3 49.6 268.3 49.2 268.6 L48.7 269.35 48.6 270.8" fill="#4c4c4d" fill-rule="evenodd" stroke="none"/>
      <path d="M56.75 274.2 L56.65 264.75 57.6 264.7 57.7 274.15 56.75 274.2" fill="#4c4c4d" fill-rule="evenodd" stroke="none"/>
    </g>
    <g id="shape9" transform="matrix(1.0, 0.0, 0.0, 1.0, 180.1, 38.0)">
      <path d="M-51.55 -30.2 Q-53.3 -28.7 -57.9 -27.45 -72.5 -23.35 -110.7 -22.1 -119.55 -21.6 -131.25 -21.7 -154.35 -21.85 -168.3 -24.85 -171.55 -25.45 -174.95 -24.2 -177.45 -23.2 -180.05 -21.1 -178.2 -24.95 -174.05 -28.7 -165.85 -36.3 -154.75 -36.7 -129.4 -37.95 -103.7 -37.95 -52.3 -37.8 -50.8 -31.3 -50.8 -30.95 -51.55 -30.2" fill="url(#gradient3)" fill-rule="evenodd" stroke="none"/>
      <path d="M-51.55 -30.2 Q-53.3 -28.7 -57.9 -27.45 -72.5 -23.35 -110.7 -22.1 -119.55 -21.6 -131.25 -21.7 -154.35 -21.85 -168.3 -24.85 -171.55 -25.45 -174.95 -24.2 -177.45 -23.2 -180.05 -21.1 -178.2 -24.95 -174.05 -28.7 -165.85 -36.3 -154.75 -36.7 -129.4 -37.95 -103.7 -37.95 -52.3 -37.8 -50.8 -31.3 -50.8 -30.95 -51.55 -30.2 Z" fill="none" stroke="#666666" stroke-linecap="round" stroke-linejoin="round" stroke-width="0.1"/>
    </g>
    <linearGradient gradientTransform="matrix(0.0788, 0.0021, -2.0E-4, 0.0116, -115.3, -29.05)" gradientUnits="userSpaceOnUse" id="gradient3" spreadMethod="pad" x1="-819.2" x2="819.2">
      <stop offset="0.0" stop-color="#ffffff"/>
      <stop offset="1.0" stop-color="#cccccc"/>
    </linearGradient>
    <g id="shape10" transform="matrix(1.0, 0.0, 0.0, 1.0, 167.0, -12.05)">
      <path d="M-58.55 30.55 L-58.55 31.45 Q-58.45 38.4 -56.85 41.55 L-57.05 43.05 -57.65 80.05 Q-57.95 85.05 -57.85 90.65 -57.45 111.55 -58.65 117.1 -60.15 124.35 -96.6 129.2 L-107.85 129.2 -112.65 129.2 -115.35 129.2 Q-137.15 128.8 -149.6 124.1 -162.0 119.35 -163.6 116.35 -165.3 113.3 -165.5 106.05 -165.7 98.8 -165.5 88.3 L-165.45 80.05 -165.45 43.05 -165.5 41.8 Q-165.7 35.75 -164.9 31.05 L-164.8 30.65 Q-163.8 27.0 -155.5 23.7 L-151.5 22.4 Q-139.05 18.4 -132.15 19.85 L-132.05 19.85 -131.85 19.85 Q-127.15 18.6 -125.85 19.45 L-118.55 18.6 Q-113.25 18.3 -112.15 19.05 L-112.05 19.05 -111.55 19.05 -106.1 19.15 -97.1 19.45 -96.3 19.55 -95.8 19.55 -89.8 19.95 Q-81.0 20.85 -72.4 22.8 -64.85 24.35 -61.45 26.15 -59.75 27.1 -58.95 28.1 -58.55 29.25 -58.55 30.55 M-147.4 28.8 Q-151.3 29.65 -154.3 31.7 L-139.45 27.0 -147.4 28.8 M-97.2 33.7 Q-97.0 42.8 -86.1 37.8 -75.2 32.8 -75.2 29.85 -75.2 26.9 -83.1 24.75 -90.9 22.7 -102.0 22.7 -113.15 22.7 -121.05 24.75 -128.85 26.9 -126.65 28.6 -124.45 30.25 -110.95 27.4 -97.4 24.55 -97.2 33.7" fill="#66ccff" fill-opacity="0.9019608" fill-rule="evenodd" stroke="none"/>
      <path d="M-140.0 27.1 L-138.05 27.25 Q-137.6 26.4 -136.85 25.7 -134.9 24.05 -132.2 24.05 -129.5 24.05 -127.6 25.7 L-126.6 26.8 -126.2 26.45 Q-124.25 25.25 -121.55 25.25 L-118.6 25.7 -117.95 24.8 -117.9 24.8 Q-119.1 23.4 -119.1 21.4 -119.1 19.2 -117.7 17.65 -116.3 16.15 -114.4 16.15 -112.4 16.15 -111.0 17.65 -109.6 19.2 -109.6 21.4 -109.6 23.4 -110.8 24.8 -110.0 25.7 -109.65 26.65 L-108.6 27.45 -108.0 28.15 -106.9 27.25 Q-105.75 25.7 -104.15 25.7 -102.6 25.7 -101.45 27.25 -99.9 27.35 -98.65 28.2 L-98.25 28.55 -97.25 27.15 -95.5 26.1 Q-95.15 24.8 -94.15 23.85 -92.45 22.3 -90.0 22.3 -87.65 22.3 -86.0 23.85 -85.4 24.4 -85.05 25.05 L-84.95 25.0 Q-83.4 23.4 -81.1 23.4 -78.85 23.4 -77.25 25.0 L-76.4 26.1 Q-75.5 24.9 -74.2 24.9 -72.9 24.9 -72.05 26.1 L-71.75 26.45 -71.6 26.3 Q-70.0 25.0 -67.75 25.0 -65.5 25.0 -63.9 26.3 -62.35 27.7 -62.35 29.6 -62.35 31.55 -63.9 32.85 -65.4 34.15 -67.4 34.25 L-67.15 34.35 -64.6 34.0 Q-62.35 34.0 -60.7 35.05 -59.0 36.15 -59.0 37.75 -59.0 39.3 -60.7 40.35 -61.9 41.15 -63.4 41.4 -63.9 42.45 -64.95 43.35 -66.8 45.0 -69.4 45.0 -72.05 45.0 -73.95 43.35 L-74.65 42.65 -75.95 42.8 Q-77.35 42.8 -78.4 41.85 -79.2 41.15 -79.35 40.1 L-80.4 39.9 -81.2 39.65 Q-81.4 40.45 -82.35 41.15 -83.4 41.95 -84.85 41.95 -86.45 41.95 -87.5 41.15 L-88.1 40.55 -91.4 41.05 -94.4 40.6 -94.9 40.6 Q-95.15 41.6 -96.3 42.3 -97.8 43.35 -100.0 43.35 -102.15 43.35 -103.75 42.3 L-104.6 41.5 -108.0 41.95 Q-109.95 41.95 -111.4 41.4 -112.65 42.35 -114.2 42.35 -115.8 42.35 -117.0 41.4 L-117.8 40.45 -117.9 40.55 Q-118.6 41.5 -119.55 41.5 -120.4 41.5 -121.05 40.7 L-119.7 39.65 Q-118.3 38.25 -118.3 36.25 L-118.3 35.8 -117.9 36.25 -117.8 36.5 -117.2 37.15 -117.0 36.85 Q-115.85 36.0 -114.4 35.9 L-115.95 35.05 -117.95 33.45 -118.3 33.1 -119.2 33.35 -119.7 32.75 Q-121.05 31.35 -122.95 31.35 L-124.5 31.6 -124.5 31.55 Q-124.5 30.65 -125.2 30.05 -125.85 29.45 -126.7 29.45 -127.6 29.45 -128.25 30.05 -128.9 30.65 -128.9 31.55 -128.9 32.4 -128.25 33.0 -127.65 33.55 -126.9 33.65 -127.6 34.75 -127.6 36.25 -127.6 38.25 -126.25 39.65 -124.85 41.15 -122.95 41.15 L-122.35 41.15 Q-122.7 42.55 -124.15 43.6 -126.1 45.0 -128.7 45.0 -131.35 45.0 -133.15 43.6 L-133.35 43.5 Q-134.2 44.3 -135.35 44.3 -136.65 44.3 -137.7 43.0 -138.6 41.95 -138.75 40.45 L-136.15 39.85 Q-133.7 39.05 -133.7 38.0 -133.7 36.95 -136.15 36.15 -138.6 35.4 -142.0 35.4 L-143.2 35.45 Q-143.3 34.75 -143.75 34.25 -144.15 33.65 -144.8 33.65 L-145.9 34.25 Q-146.35 34.85 -146.35 35.75 L-146.35 35.8 -147.85 36.15 Q-150.3 36.95 -150.3 38.0 -150.3 38.7 -149.15 39.3 -152.05 39.2 -154.05 37.85 -156.2 36.35 -156.2 34.25 -156.2 32.4 -154.55 31.0 L-155.35 30.3 Q-157.25 28.3 -157.25 25.5 -157.25 22.7 -155.35 20.7 -153.35 18.7 -150.55 18.7 -147.65 18.7 -145.75 20.7 -144.25 22.2 -143.8 24.1 -144.15 24.55 -144.15 25.05 -144.15 25.7 -143.75 26.2 L-144.0 27.5 -142.0 27.15 -141.1 27.25 -140.0 27.1 M-76.75 31.9 L-76.4 31.9 -74.5 31.6 Q-73.7 31.35 -73.7 31.0 -73.7 30.65 -74.5 30.4 L-76.4 30.15 -78.3 30.4 Q-79.1 30.65 -79.1 31.0 -79.1 31.35 -78.3 31.6 L-76.75 31.9 -77.25 32.5 -77.7 32.95 -77.7 33.3 Q-77.7 33.9 -77.95 34.35 L-78.6 34.75 -79.2 34.35 -79.35 33.8 -81.1 34.05 -82.35 34.0 -82.25 33.9 -81.3 33.65 Q-81.3 33.45 -82.25 33.3 L-84.1 33.2 -84.6 32.85 -84.35 33.2 -86.55 33.3 Q-87.4 33.45 -87.4 33.65 L-86.55 33.9 -84.35 34.05 -84.0 34.05 -83.8 35.4 -84.0 36.8 Q-83.05 36.95 -82.35 37.5 -81.45 38.1 -81.2 38.85 L-80.4 38.5 -79.45 38.35 -79.45 37.65 Q-79.45 36.1 -77.95 34.95 -77.1 34.35 -75.95 34.0 L-75.85 34.0 -74.15 34.35 -72.4 34.05 -71.6 34.35 -69.6 34.0 Q-70.7 33.65 -71.5 32.95 L-72.3 32.25 Q-73.1 31.9 -74.15 31.9 L-75.95 32.25 -76.3 32.5 -76.4 32.3 -76.75 31.9 M-109.65 36.95 Q-109.65 36.5 -110.35 36.15 L-112.05 35.9 -113.7 36.15 Q-114.4 36.5 -114.4 36.95 -114.4 37.4 -113.7 37.65 L-112.05 38.0 -110.35 37.65 Q-109.65 37.4 -109.65 36.95 M-109.6 30.85 Q-110.2 30.5 -111.05 30.5 -111.95 30.5 -112.55 30.85 -113.15 31.2 -113.15 31.6 -113.15 32.05 -112.55 32.4 L-111.05 32.75 -109.6 32.4 Q-108.95 32.05 -108.95 31.6 -108.95 31.2 -109.6 30.85 M-67.6 37.85 Q-68.2 37.5 -69.05 37.5 -69.95 37.5 -70.65 37.85 -71.25 38.15 -71.25 38.6 -71.25 39.05 -70.65 39.4 L-69.05 39.75 -67.6 39.4 Q-66.9 39.05 -66.9 38.6 -66.9 38.15 -67.6 37.85 M-108.55 35.45 L-109.15 35.9 -108.2 35.8 -108.55 35.45 M-98.65 33.65 L-98.15 33.9 -95.5 34.35 -94.8 34.35 -94.75 34.35 -93.25 34.5 -91.85 34.35 Q-91.25 34.25 -91.25 34.05 L-91.85 33.7 -92.45 33.65 Q-91.85 33.3 -91.85 32.85 -91.85 32.25 -93.0 31.8 -94.05 31.35 -95.5 31.35 L-98.15 31.8 Q-99.2 32.25 -99.2 32.85 L-99.0 33.3 -99.1 33.3 -100.6 33.3 -102.05 33.3 -102.7 33.45 -102.05 33.55 -100.6 33.65 -99.1 33.55 -98.75 33.55 -98.75 33.65 Q-99.1 34.85 -100.35 35.9 L-100.6 36.15 -100.0 36.15 -99.0 36.25 -99.1 35.4 Q-99.1 34.4 -98.65 33.65 M-109.05 32.3 L-108.8 32.75 -109.4 32.75 -112.1 33.1 Q-113.15 33.55 -113.15 34.05 -113.15 34.6 -112.1 34.95 L-109.4 35.4 -106.8 34.95 Q-105.65 34.6 -105.65 34.05 L-105.9 33.55 -105.65 33.55 -103.3 33.2 Q-102.25 32.85 -102.25 32.3 -102.25 31.8 -103.3 31.45 -104.25 31.1 -105.65 31.1 L-108.1 31.45 Q-109.05 31.8 -109.05 32.3 M-85.55 31.7 L-85.65 31.55 -85.75 31.6 -85.55 31.7 M-85.05 34.85 L-85.85 35.1 -86.1 35.8 -85.85 36.5 -85.05 36.8 -84.35 36.5 Q-84.0 36.25 -84.0 35.8 -84.0 35.4 -84.35 35.1 -84.6 34.85 -85.05 34.85 M-94.2 37.55 Q-95.25 38.1 -95.25 38.8 -95.25 39.5 -94.2 40.0 -93.15 40.55 -91.7 40.55 -90.2 40.55 -89.15 40.0 -88.1 39.5 -88.1 38.8 -88.1 38.1 -89.15 37.55 -90.2 37.05 -91.7 37.05 -93.15 37.05 -94.2 37.55 M-146.25 30.4 Q-145.4 29.9 -145.4 29.0 -145.4 28.15 -146.25 27.5 -147.05 27.0 -148.25 27.0 -149.5 27.0 -150.35 27.5 -151.15 28.15 -151.15 29.0 -151.15 29.9 -150.35 30.4 -149.5 31.0 -148.25 31.0 -147.05 31.0 -146.25 30.4 M-129.3 29.1 L-130.2 28.85 -131.15 29.1 -131.5 29.7 -131.15 30.3 -130.2 30.6 -129.3 30.3 -128.9 29.7 Q-128.9 29.35 -129.3 29.1 M-129.5 34.95 L-132.2 35.4 -133.15 35.3 Q-132.55 35.8 -132.3 36.45 -130.8 35.65 -128.95 35.55 L-129.5 34.95" fill="#ffffff" fill-rule="evenodd" stroke="none"/>
      <path d="M-76.75 31.9 L-78.3 31.6 Q-79.1 31.35 -79.1 31.0 -79.1 30.65 -78.3 30.4 L-76.4 30.15 -74.5 30.4 Q-73.7 30.65 -73.7 31.0 -73.7 31.35 -74.5 31.6 L-76.4 31.9 -76.75 31.9 M-76.3 32.5 L-75.95 32.25 -74.15 31.9 Q-73.1 31.9 -72.3 32.25 L-71.5 32.95 -71.5 33.1 Q-71.5 33.65 -72.3 34.0 L-72.4 34.05 -74.15 34.35 -75.85 34.0 -75.95 34.0 Q-76.75 33.65 -76.75 33.1 L-76.3 32.5 M-84.0 34.05 L-84.35 34.05 -86.55 33.9 -87.4 33.65 Q-87.4 33.45 -86.55 33.3 L-84.35 33.2 -84.1 33.2 -82.25 33.3 Q-81.3 33.45 -81.3 33.65 L-82.25 33.9 -82.35 34.0 -84.0 34.05 M-67.6 37.85 Q-66.9 38.15 -66.9 38.6 -66.9 39.05 -67.6 39.4 L-69.05 39.75 -70.65 39.4 Q-71.25 39.05 -71.25 38.6 -71.25 38.15 -70.65 37.85 -69.95 37.5 -69.05 37.5 -68.2 37.5 -67.6 37.85 M-109.6 30.85 Q-108.95 31.2 -108.95 31.6 -108.95 32.05 -109.6 32.4 L-111.05 32.75 -112.55 32.4 Q-113.15 32.05 -113.15 31.6 -113.15 31.2 -112.55 30.85 -111.95 30.5 -111.05 30.5 -110.2 30.5 -109.6 30.85 M-109.65 36.95 Q-109.65 37.4 -110.35 37.65 L-112.05 38.0 -113.7 37.65 Q-114.4 37.4 -114.4 36.95 -114.4 36.5 -113.7 36.15 L-112.05 35.9 -110.35 36.15 Q-109.65 36.5 -109.65 36.95 M-109.05 32.3 Q-109.05 31.8 -108.1 31.45 L-105.65 31.1 Q-104.25 31.1 -103.3 31.45 -102.25 31.8 -102.25 32.3 -102.25 32.85 -103.3 33.2 L-105.65 33.55 -105.9 33.55 -105.65 34.05 Q-105.65 34.6 -106.8 34.95 L-109.4 35.4 -112.1 34.95 Q-113.15 34.6 -113.15 34.05 -113.15 33.55 -112.1 33.1 L-109.4 32.75 -108.8 32.75 -109.05 32.3 M-98.75 33.65 L-98.75 33.55 -99.1 33.55 -100.6 33.65 -102.05 33.55 -102.7 33.45 -102.05 33.3 -100.6 33.3 -99.1 33.3 -99.0 33.3 -99.2 32.85 Q-99.2 32.25 -98.15 31.8 L-95.5 31.35 Q-94.05 31.35 -93.0 31.8 -91.85 32.25 -91.85 32.85 -91.85 33.3 -92.45 33.65 L-91.85 33.7 -91.25 34.05 Q-91.25 34.25 -91.85 34.35 L-93.25 34.5 -94.75 34.35 -94.8 34.35 -95.5 34.35 -98.15 33.9 -98.65 33.65 -98.75 33.65 M-124.5 31.6 Q-124.5 32.4 -125.2 33.0 -125.85 33.65 -126.7 33.65 L-126.9 33.65 Q-127.65 33.55 -128.25 33.0 -128.9 32.4 -128.9 31.55 -128.9 30.65 -128.25 30.05 -127.6 29.45 -126.7 29.45 -125.85 29.45 -125.2 30.05 -124.5 30.65 -124.5 31.55 L-124.5 31.6 M-85.05 34.85 Q-84.6 34.85 -84.35 35.1 -84.0 35.4 -84.0 35.8 -84.0 36.25 -84.35 36.5 L-85.05 36.8 -85.85 36.5 -86.1 35.8 -85.85 35.1 -85.05 34.85 M-94.2 37.55 Q-93.15 37.05 -91.7 37.05 -90.2 37.05 -89.15 37.55 -88.1 38.1 -88.1 38.8 -88.1 39.5 -89.15 40.0 -90.2 40.55 -91.7 40.55 -93.15 40.55 -94.2 40.0 -95.25 39.5 -95.25 38.8 -95.25 38.1 -94.2 37.55" fill="#66ffff" fill-rule="evenodd" stroke="none"/>
      <path d="M-121.05 40.7 L-122.35 41.15 -122.95 41.15 Q-124.85 41.15 -126.25 39.65 -127.6 38.25 -127.6 36.25 -127.6 34.75 -126.9 33.65 L-126.7 33.65 Q-125.85 33.65 -125.2 33.0 -124.5 32.4 -124.5 31.6 L-122.95 31.35 Q-121.05 31.35 -119.7 32.75 L-119.2 33.35 Q-118.4 34.5 -118.3 35.8 L-118.3 36.25 Q-118.3 38.25 -119.7 39.65 L-121.05 40.7 M-138.75 40.45 L-142.0 40.6 Q-145.4 40.6 -147.85 39.85 L-149.15 39.3 Q-150.3 38.7 -150.3 38.0 -150.3 36.95 -147.85 36.15 L-146.35 35.8 -143.2 35.45 -142.0 35.4 Q-138.6 35.4 -136.15 36.15 -133.7 36.95 -133.7 38.0 -133.7 39.05 -136.15 39.85 L-138.75 40.45" fill="#cccccc" fill-rule="evenodd" stroke="none"/>
      <path d="M-143.8 24.1 L-143.3 23.5 Q-142.35 22.9 -141.1 22.9 -139.9 22.9 -139.0 23.5 -138.05 24.2 -138.05 25.05 -138.05 25.95 -139.0 26.55 L-140.0 27.1 -141.1 27.25 -142.0 27.15 -143.3 26.55 -143.75 26.2 Q-144.15 25.7 -144.15 25.05 -144.15 24.55 -143.8 24.1 M-146.25 30.4 Q-147.05 31.0 -148.25 31.0 -149.5 31.0 -150.35 30.4 -151.15 29.9 -151.15 29.0 -151.15 28.15 -150.35 27.5 -149.5 27.0 -148.25 27.0 -147.05 27.0 -146.25 27.5 -145.4 28.15 -145.4 29.0 -145.4 29.9 -146.25 30.4 M-143.2 35.45 L-146.35 35.8 -146.35 35.75 Q-146.35 34.85 -145.9 34.25 L-144.8 33.65 Q-144.15 33.65 -143.75 34.25 -143.3 34.75 -143.2 35.45 M-129.3 29.1 Q-128.9 29.35 -128.9 29.7 L-129.3 30.3 -130.2 30.6 -131.15 30.3 -131.5 29.7 -131.15 29.1 -130.2 28.85 -129.3 29.1" fill="#00cccc" fill-rule="evenodd" stroke="none"/>
      <path d="M-70.9 22.45 L-72.4 23.05 -70.1 23.4 -70.4 22.1 -70.9 22.45 M-57.2 16.6 Q-55.0 18.6 -55.0 21.4 -55.0 24.2 -57.2 26.2 L-58.1 26.9 Q-56.2 28.3 -56.2 30.15 -56.2 32.25 -58.65 33.75 -60.95 35.1 -64.25 35.2 L-65.75 35.75 -72.4 36.5 -76.1 36.35 Q-76.25 37.85 -77.3 38.9 L-77.45 39.05 Q-78.6 40.2 -79.95 40.2 -81.3 40.2 -82.25 39.4 L-82.5 39.5 Q-84.55 40.9 -87.55 40.9 -90.5 40.9 -92.75 39.5 L-93.35 39.05 Q-94.5 38.15 -94.8 37.05 L-96.25 36.6 Q-97.0 37.4 -98.0 37.4 -99.05 37.4 -99.85 36.45 -99.85 36.35 -100.0 36.35 L-100.9 37.3 Q-102.25 38.25 -104.1 38.25 -105.85 38.25 -107.25 37.3 L-111.15 37.85 -115.05 37.4 -116.0 38.2 -118.2 39.05 -120.25 39.25 -122.3 39.05 Q-123.55 38.8 -124.5 38.2 -125.8 37.5 -126.1 36.5 L-126.65 36.5 -130.05 36.95 -133.85 36.45 -134.5 37.05 Q-135.7 37.85 -137.55 37.85 -139.2 37.85 -140.4 37.05 -141.45 36.35 -141.7 35.55 L-142.6 35.8 -143.8 36.0 Q-144.0 37.05 -144.9 37.75 -146.1 38.7 -147.7 38.7 L-149.15 38.55 -149.65 39.05 -149.95 39.25 Q-152.15 40.9 -155.15 40.9 -158.1 40.9 -160.2 39.25 L-160.45 39.05 -162.0 37.3 Q-163.7 37.05 -165.05 36.25 -167.0 35.2 -167.0 33.65 -167.0 32.05 -165.05 30.95 -163.2 29.9 -160.6 29.9 L-157.7 30.25 -157.45 30.15 Q-159.7 30.05 -161.4 28.75 -163.2 27.45 -163.2 25.5 -163.2 23.6 -161.4 22.2 -159.6 20.9 -157.05 20.9 -154.45 20.9 -152.65 22.2 L-152.45 22.35 -152.15 22.0 Q-151.15 20.8 -149.7 20.8 -148.2 20.8 -147.15 22.0 L-146.2 20.9 Q-144.4 19.3 -141.8 19.3 -139.2 19.3 -137.45 20.9 L-137.3 20.95 -136.25 19.75 Q-134.35 18.2 -131.65 18.2 -128.9 18.2 -126.95 19.75 -125.8 20.7 -125.4 22.0 -124.25 22.35 -123.4 23.05 -122.65 23.7 -122.25 24.45 L-121.8 24.1 Q-120.4 23.25 -118.6 23.15 -117.3 21.6 -115.55 21.6 -113.7 21.6 -112.4 23.15 L-111.15 24.05 -110.45 23.35 Q-109.85 22.8 -109.25 22.55 -108.85 21.6 -107.95 20.7 -109.35 19.3 -109.35 17.3 -109.35 15.1 -107.75 13.55 -106.15 12.05 -103.85 12.05 -101.7 12.05 -100.1 13.55 -98.5 15.1 -98.5 17.3 -98.5 19.3 -99.85 20.7 L-99.8 20.7 -99.05 21.6 -95.7 21.15 Q-92.65 21.15 -90.4 22.35 L-89.95 22.7 -88.8 21.6 Q-86.65 19.95 -83.55 19.95 -80.5 19.95 -78.25 21.6 -77.4 22.3 -76.9 23.15 L-74.65 23.0 -75.8 22.45 Q-76.9 21.85 -76.9 20.95 -76.9 20.1 -75.8 19.4 -74.8 18.8 -73.4 18.8 -72.0 18.8 -70.9 19.4 L-70.35 20.0 Q-69.85 18.1 -68.1 16.6 -65.95 14.6 -62.65 14.6 -59.45 14.6 -57.2 16.6 M-79.7 77.55 Q-79.4 77.55 -79.2 78.5 -78.95 79.45 -78.95 80.8 -78.95 82.15 -79.2 83.1 -79.4 84.05 -79.7 84.05 -80.0 84.05 -80.25 83.1 L-80.45 80.8 -80.25 78.5 Q-80.0 77.55 -79.7 77.55 M-102.1 30.95 Q-102.9 31.45 -103.85 31.8 -102.2 31.9 -100.9 32.75 L-100.65 33.05 -100.0 32.4 -99.85 32.15 -99.4 31.7 Q-99.3 30.4 -98.4 29.25 L-99.4 29.0 -99.8 29.35 Q-100.8 30.4 -102.1 30.95 M-110.9 31.7 L-109.85 31.8 -110.5 31.35 -110.9 31.7 M-121.4 32.15 L-120.25 32.05 -119.6 32.05 -119.85 31.8 Q-121.3 30.75 -121.7 29.55 L-121.8 29.55 Q-121.3 30.3 -121.3 31.3 L-121.4 32.15 M-83.45 32.35 Q-83.15 31.7 -82.5 31.2 L-83.55 31.3 -86.65 30.85 -87.25 31.45 Q-85.15 31.55 -83.45 32.35 M-146.75 27.8 L-147.15 28.2 -147.3 28.4 Q-146.75 28.65 -146.75 29.0 -146.75 29.55 -147.7 29.9 -146.35 30.25 -145.4 30.85 -143.7 32.0 -143.7 33.55 L-143.7 34.25 -142.6 34.4 Q-141.85 34.6 -141.7 34.75 -141.4 34.0 -140.4 33.4 -139.6 32.85 -138.5 32.7 L-138.75 31.3 -138.5 29.95 -140.4 29.9 -141.8 29.95 -143.8 29.7 -144.0 30.25 Q-144.25 30.65 -144.65 30.65 -145.2 30.65 -145.4 30.25 L-145.7 29.2 -145.7 28.85 -146.2 28.4 -146.75 27.8 M-138.4 29.1 L-138.1 29.1 -137.8 28.75 -138.4 29.1 M-136.5 27.5 L-136.65 27.45 -136.75 27.6 -136.5 27.5 M-151.75 29.95 L-151.85 29.9 Q-152.75 29.55 -152.75 29.0 L-152.75 28.85 Q-153.65 29.55 -154.9 29.9 L-152.65 30.25 -151.75 29.95 M-144.45 57.85 Q-143.9 57.05 -143.2 57.05 -142.5 57.05 -142.0 57.85 -141.45 58.65 -141.45 59.8 -141.45 60.95 -142.0 61.75 -142.5 62.55 -143.2 62.55 -143.9 62.55 -144.45 61.75 -144.95 60.95 -144.95 59.8 -144.95 58.65 -144.45 57.85 M-155.95 59.3 Q-155.95 59.8 -156.6 60.15 -157.25 60.55 -158.2 60.55 -159.15 60.55 -159.8 60.15 -160.45 59.8 -160.45 59.3 -160.45 58.8 -159.8 58.4 -159.15 58.05 -158.2 58.05 -157.25 58.05 -156.6 58.4 -155.95 58.8 -155.95 59.3 M-143.95 71.05 Q-142.1 71.05 -140.8 73.0 -139.45 75.0 -139.45 77.8 -139.45 80.6 -140.8 82.55 -142.1 84.55 -143.95 84.55 -145.8 84.55 -147.15 82.55 -148.45 80.6 -148.45 77.8 -148.45 75.0 -147.15 73.0 -145.8 71.05 -143.95 71.05 M-160.1 87.7 L-159.2 87.55 -158.35 87.7 -157.95 88.05 -158.35 88.4 -159.2 88.55 -160.1 88.4 -160.45 88.05 -160.1 87.7 M-147.7 93.55 Q-146.75 93.55 -146.1 94.0 -145.45 94.45 -145.45 95.05 -145.45 95.65 -146.1 96.1 -146.75 96.55 -147.7 96.55 L-149.3 96.1 Q-149.95 95.65 -149.95 95.05 -149.95 94.45 -149.3 94.0 -148.65 93.55 -147.7 93.55 M-129.45 85.05 Q-128.4 85.05 -127.7 85.6 -126.95 86.2 -126.95 87.05 -126.95 87.9 -127.7 88.45 -128.4 89.05 -129.45 89.05 -130.5 89.05 -131.25 88.45 -131.95 87.9 -131.95 87.05 -131.95 86.2 -131.25 85.6 -130.5 85.05 -129.45 85.05 M-127.35 98.7 Q-126.45 99.9 -126.45 101.55 -126.45 103.2 -127.35 104.35 -128.2 105.55 -129.45 105.55 -130.7 105.55 -131.6 104.35 -132.45 103.2 -132.45 101.55 -132.45 99.9 -131.6 98.7 -130.7 97.55 -129.45 97.55 -128.2 97.55 -127.35 98.7 M-84.7 59.55 Q-84.2 59.55 -83.85 60.05 -83.45 60.6 -83.45 61.3 -83.45 62.0 -83.85 62.5 -84.2 63.05 -84.7 63.05 -85.2 63.05 -85.6 62.5 -85.95 62.0 -85.95 61.3 -85.95 60.6 -85.6 60.05 L-84.7 59.55 M-119.05 66.2 Q-117.65 65.05 -115.7 65.05 -113.75 65.05 -112.35 66.2 -110.95 67.4 -110.95 69.05 -110.95 70.7 -112.35 71.85 -113.75 73.05 -115.7 73.05 -117.65 73.05 -119.05 71.85 -120.45 70.7 -120.45 69.05 -120.45 67.4 -119.05 66.2 M-103.2 95.55 Q-102.5 95.55 -102.0 95.9 -101.45 96.3 -101.45 96.8 -101.45 97.3 -102.0 97.65 -102.5 98.05 -103.2 98.05 -103.9 98.05 -104.45 97.65 -104.95 97.3 -104.95 96.8 -104.95 96.3 -104.45 95.9 -103.9 95.55 -103.2 95.55 M-98.95 75.05 L-97.9 75.35 Q-97.45 75.65 -97.45 76.05 -97.45 76.45 -97.9 76.75 L-98.95 77.05 -100.0 76.75 -100.45 76.05 -100.0 75.35 Q-99.55 75.05 -98.95 75.05 M-94.35 103.7 Q-92.75 103.05 -90.45 103.05 -88.15 103.05 -86.55 103.7 -84.95 104.35 -84.95 105.3 -84.95 106.25 -86.55 106.9 -88.15 107.55 -90.45 107.55 L-94.35 106.9 Q-95.95 106.25 -95.95 105.3 -95.95 104.35 -94.35 103.7 M-110.95 109.55 Q-109.9 109.55 -109.2 110.1 -108.45 110.7 -108.45 111.55 -108.45 112.4 -109.2 112.95 -109.9 113.55 -110.95 113.55 -112.0 113.55 -112.75 112.95 -113.45 112.4 -113.45 111.55 -113.45 110.7 -112.75 110.1 -112.0 109.55 -110.95 109.55 M-76.7 108.55 Q-76.4 108.55 -76.2 109.05 -75.95 109.6 -75.95 110.3 -75.95 111.0 -76.2 111.5 -76.4 112.05 -76.7 112.05 L-77.25 111.5 -77.45 110.3 -77.25 109.05 -76.7 108.55" fill="#cccccc" fill-opacity="0.49019608" fill-rule="evenodd" stroke="none"/>
    </g>
    <g id="shape11" transform="matrix(1.0, 0.0, 0.0, 1.0, -26.05, -29.05)">
      <path d="M93.7 51.2 L158.8 51.2 Q164.9 51.2 164.9 56.1 L164.9 66.9 Q164.9 71.85 158.8 71.85 L61.2 71.85 57.15 71.75 Q56.05 74.35 51.05 79.25 45.45 84.7 41.9 84.4 39.45 89.05 36.35 89.05 32.05 89.05 29.05 80.25 26.05 71.45 26.05 59.05 26.05 46.65 29.05 37.85 32.05 29.05 36.35 29.05 39.8 29.05 42.4 34.75 L42.45 34.75 Q46.9 34.3 52.45 39.0 57.9 43.65 58.6 51.25 L61.2 51.2 63.85 51.2 Q63.6 51.75 63.6 52.4 63.6 53.95 64.95 55.0 66.3 56.1 68.15 56.1 L89.4 56.1 Q91.25 56.1 92.6 55.0 93.95 53.95 93.95 52.4 L93.7 51.2 M160.8 63.3 L58.8 63.3 160.8 63.3 M160.8 65.55 L58.8 65.55 160.8 65.55 M160.8 60.05 L58.8 60.05 160.8 60.05 M160.8 67.55 L58.8 67.55 160.8 67.55 M160.8 57.3 L58.8 57.3 160.8 57.3" fill="#333333" fill-rule="evenodd" stroke="none"/>
      <path d="M93.7 51.2 L93.95 52.4 Q93.95 53.95 92.6 55.0 91.25 56.1 89.4 56.1 L68.15 56.1 Q66.3 56.1 64.95 55.0 63.6 53.95 63.6 52.4 63.6 51.75 63.85 51.2 L64.95 49.8 Q66.3 48.75 68.15 48.75 L89.4 48.75 Q91.25 48.75 92.6 49.8 93.35 50.4 93.7 51.2" fill="#666666" fill-rule="evenodd" stroke="none"/>
      <path d="M58.8 57.3 L160.8 57.3" fill="none" stroke="url(#gradient4)" stroke-linecap="round" stroke-linejoin="round" stroke-width="0.1"/>
      <path d="M58.8 67.55 L160.8 67.55" fill="none" stroke="url(#gradient5)" stroke-linecap="round" stroke-linejoin="round" stroke-width="0.1"/>
      <path d="M58.8 60.05 L160.8 60.05" fill="none" stroke="url(#gradient6)" stroke-linecap="round" stroke-linejoin="round" stroke-width="0.1"/>
      <path d="M58.8 65.55 L160.8 65.55" fill="none" stroke="url(#gradient7)" stroke-linecap="round" stroke-linejoin="round" stroke-width="0.1"/>
      <path d="M58.8 63.3 L160.8 63.3" fill="none" stroke="url(#gradient8)" stroke-linecap="round" stroke-linejoin="round" stroke-width="0.1"/>
      <path d="M35.65 30.0 Q39.25 30.0 41.75 38.2 44.3 46.45 44.3 58.1 44.3 69.75 41.75 77.95 39.25 86.2 35.65 86.2 32.1 86.2 29.55 77.95 27.05 69.75 27.05 58.1 27.05 46.45 29.55 38.2 32.1 30.0 35.65 30.0" fill="url(#gradient9)" fill-rule="evenodd" stroke="none"/>
      <path d="M89.7 54.05 Q88.65 54.85 87.25 54.85 L71.05 54.85 Q69.65 54.85 68.65 54.05 67.6 53.25 67.6 52.05 L67.8 51.15 Q68.05 50.55 68.65 50.05 69.65 49.25 71.05 49.25 L87.25 49.25 Q88.65 49.25 89.7 50.05 L90.55 51.15 90.7 52.05 Q90.7 53.25 89.7 54.05" fill="#999999" fill-rule="evenodd" stroke="none"/>
    </g>
    <linearGradient gradientTransform="matrix(0.0623, 0.0, 0.0, 0.0, 109.8, 57.3)" gradientUnits="userSpaceOnUse" id="gradient4" spreadMethod="pad" x1="-819.2" x2="819.2">
      <stop offset="0.0" stop-color="#041200"/>
      <stop offset="0.2627450980392157" stop-color="#dbdbdc"/>
      <stop offset="1.0" stop-color="#e8e8e8"/>
    </linearGradient>
    <linearGradient gradientTransform="matrix(0.0623, 0.0, 0.0, 0.0, 109.8, 67.55)" gradientUnits="userSpaceOnUse" id="gradient5" spreadMethod="pad" x1="-819.2" x2="819.2">
      <stop offset="0.0" stop-color="#041200"/>
      <stop offset="0.2627450980392157" stop-color="#dbdbdc"/>
      <stop offset="1.0" stop-color="#e8e8e8"/>
    </linearGradient>
    <linearGradient gradientTransform="matrix(0.0623, 0.0, 0.0, 0.0, 109.8, 60.05)" gradientUnits="userSpaceOnUse" id="gradient6" spreadMethod="pad" x1="-819.2" x2="819.2">
      <stop offset="0.0" stop-color="#041200"/>
      <stop offset="0.2627450980392157" stop-color="#dbdbdc"/>
      <stop offset="1.0" stop-color="#e8e8e8"/>
    </linearGradient>
    <linearGradient gradientTransform="matrix(0.0623, 0.0, 0.0, 0.0, 109.8, 65.55)" gradientUnits="userSpaceOnUse" id="gradient7" spreadMethod="pad" x1="-819.2" x2="819.2">
      <stop offset="0.0" stop-color="#041200"/>
      <stop offset="0.2627450980392157" stop-color="#dbdbdc"/>
      <stop offset="1.0" stop-color="#e8e8e8"/>
    </linearGradient>
    <linearGradient gradientTransform="matrix(0.0623, 0.0, 0.0, 0.0, 109.8, 63.3)" gradientUnits="userSpaceOnUse" id="gradient8" spreadMethod="pad" x1="-819.2" x2="819.2">
      <stop offset="0.0" stop-color="#041200"/>
      <stop offset="0.2627450980392157" stop-color="#dbdbdc"/>
      <stop offset="1.0" stop-color="#e8e8e8"/>
    </linearGradient>
    <radialGradient cx="0" cy="0" gradientTransform="matrix(0.0349, 0.0, 0.0, 0.0349, 35.7, 58.1)" gradientUnits="userSpaceOnUse" id="gradient9" r="819.2" spreadMethod="pad">
      <stop offset="0.0" stop-color="#ffffff"/>
      <stop offset="0.4549019607843137" stop-color="#ff9900"/>
      <stop offset="1.0" stop-color="#ffff00"/>
    </radialGradient>
    <g id="sprite7" transform="matrix(1.0, 0.0, 0.0, 1.0, 443.1, 74.5)">
      <use height="149.05" transform="matrix(1.0, 0.0, 0.0, 1.0, 6.9, -74.5)" width="443.1" xlink:href="#shape12"/>
    </g>
    <g id="shape12" transform="matrix(1.0, 0.0, 0.0, 1.0, 221.55, 74.5)">
      <path d="M-221.55 -68.5 Q-221.55 -74.5 -215.55 -74.5 L215.55 -74.5 Q221.55 -74.5 221.55 -68.5 L221.55 68.55 Q221.55 74.55 215.55 74.55 L-215.55 74.55 Q-221.55 74.55 -221.55 68.55 L-221.55 -68.5" fill="#99ff00" fill-rule="evenodd" stroke="none"/>
    </g>
    <g id="shape13" transform="matrix(1.0, 0.0, 0.0, 1.0, 258.95, -24.55)">
      <path d="M43.0 41.8 L43.0 75.55 Q-107.0 81.75 -258.95 94.05 L-258.95 24.55 43.0 41.8" fill="#fffdd6" fill-opacity="0.5882353" fill-rule="evenodd" stroke="none"/>
    </g>
    <g id="text2" transform="matrix(1.0, 0.0, 0.0, 1.0, -1.0, -0.6)">
      <g transform="matrix(1.0, 0.0, 0.0, 1.0, 0.0, 0.0)">
        <use fill="#ffffff" height="13.6" transform="matrix(0.0107, 0.0, 0.0, 0.0107, 0.0, 11.0)" width="197.55" xlink:href="#font_Verdana_D0"/>
        <use fill="#ffffff" height="13.6" transform="matrix(0.0107, 0.0, 0.0, 0.0107, 9.15, 11.0)" width="197.55" xlink:href="#font_Verdana_i0"/>
        <use fill="#ffffff" height="13.6" transform="matrix(0.0107, 0.0, 0.0, 0.0107, 12.9, 11.0)" width="197.55" xlink:href="#font_Verdana_d0"/>
        <use fill="#ffffff" height="13.6" transform="matrix(0.0107, 0.0, 0.0, 0.0107, 20.6, 11.0)" width="197.55" xlink:href="#font_Verdana__0"/>
        <use fill="#ffffff" height="13.6" transform="matrix(0.0107, 0.0, 0.0, 0.0107, 24.35, 11.0)" width="197.55" xlink:href="#font_Verdana_y0"/>
        <use fill="#ffffff" height="13.6" transform="matrix(0.0107, 0.0, 0.0, 0.0107, 31.5, 11.0)" width="197.55" xlink:href="#font_Verdana_o0"/>
        <use fill="#ffffff" height="13.6" transform="matrix(0.0107, 0.0, 0.0, 0.0107, 39.05, 11.0)" width="197.55" xlink:href="#font_Verdana_u0"/>
        <use fill="#ffffff" height="13.6" transform="matrix(0.0107, 0.0, 0.0, 0.0107, 46.9, 11.0)" width="197.55" xlink:href="#font_Verdana__0"/>
        <use fill="#ffffff" height="13.6" transform="matrix(0.0107, 0.0, 0.0, 0.0107, 50.65, 11.0)" width="197.55" xlink:href="#font_Verdana_s0"/>
        <use fill="#ffffff" height="13.6" transform="matrix(0.0107, 0.0, 0.0, 0.0107, 57.2, 11.0)" width="197.55" xlink:href="#font_Verdana_e0"/>
        <use fill="#ffffff" height="13.6" transform="matrix(0.0107, 0.0, 0.0, 0.0107, 64.5, 11.0)" width="197.55" xlink:href="#font_Verdana_e0"/>
        <use fill="#ffffff" height="13.6" transform="matrix(0.0107, 0.0, 0.0, 0.0107, 71.8, 11.0)" width="197.55" xlink:href="#font_Verdana__0"/>
        <use fill="#ffffff" height="13.6" transform="matrix(0.0107, 0.0, 0.0, 0.0107, 75.55, 11.0)" width="197.55" xlink:href="#font_Verdana_t0"/>
        <use fill="#ffffff" height="13.6" transform="matrix(0.0107, 0.0, 0.0, 0.0107, 80.55, 11.0)" width="197.55" xlink:href="#font_Verdana_h0"/>
        <use fill="#ffffff" height="13.6" transform="matrix(0.0107, 0.0, 0.0, 0.0107, 88.4, 11.0)" width="197.55" xlink:href="#font_Verdana_e0"/>
        <use fill="#ffffff" height="13.6" transform="matrix(0.0107, 0.0, 0.0, 0.0107, 95.7, 11.0)" width="197.55" xlink:href="#font_Verdana__0"/>
        <use fill="#ffffff" height="13.6" transform="matrix(0.0107, 0.0, 0.0, 0.0107, 99.45, 11.0)" width="197.55" xlink:href="#font_Verdana_t0"/>
        <use fill="#ffffff" height="13.6" transform="matrix(0.0107, 0.0, 0.0, 0.0107, 104.45, 11.0)" width="197.55" xlink:href="#font_Verdana_y0"/>
        <use fill="#ffffff" height="13.6" transform="matrix(0.0107, 0.0, 0.0, 0.0107, 111.6, 11.0)" width="197.55" xlink:href="#font_Verdana_n0"/>
        <use fill="#ffffff" height="13.6" transform="matrix(0.0107, 0.0, 0.0, 0.0107, 119.45, 11.0)" width="197.55" xlink:href="#font_Verdana_d0"/>
        <use fill="#ffffff" height="13.6" transform="matrix(0.0107, 0.0, 0.0, 0.0107, 127.15, 11.0)" width="197.55" xlink:href="#font_Verdana_a0"/>
        <use fill="#ffffff" height="13.6" transform="matrix(0.0107, 0.0, 0.0, 0.0107, 134.5, 11.0)" width="197.55" xlink:href="#font_Verdana_l0"/>
        <use fill="#ffffff" height="13.6" transform="matrix(0.0107, 0.0, 0.0, 0.0107, 138.25, 11.0)" width="197.55" xlink:href="#font_Verdana__0"/>
        <use fill="#ffffff" height="13.6" transform="matrix(0.0107, 0.0, 0.0, 0.0107, 142.0, 11.0)" width="197.55" xlink:href="#font_Verdana_e0"/>
        <use fill="#ffffff" height="13.6" transform="matrix(0.0107, 0.0, 0.0, 0.0107, 149.3, 11.0)" width="197.55" xlink:href="#font_Verdana_f0"/>
        <use fill="#ffffff" height="13.6" transform="matrix(0.0107, 0.0, 0.0, 0.0107, 153.95, 11.0)" width="197.55" xlink:href="#font_Verdana_f0"/>
        <use fill="#ffffff" height="13.6" transform="matrix(0.0107, 0.0, 0.0, 0.0107, 158.6, 11.0)" width="197.55" xlink:href="#font_Verdana_e0"/>
        <use fill="#ffffff" height="13.6" transform="matrix(0.0107, 0.0, 0.0, 0.0107, 165.9, 11.0)" width="197.55" xlink:href="#font_Verdana_c0"/>
        <use fill="#ffffff" height="13.6" transform="matrix(0.0107, 0.0, 0.0, 0.0107, 172.35, 11.0)" width="197.55" xlink:href="#font_Verdana_t0"/>
        <use fill="#ffffff" height="13.6" transform="matrix(0.0107, 0.0, 0.0, 0.0107, 177.35, 11.0)" width="197.55" xlink:href="#font_Verdana__0"/>
        <use fill="#ffffff" height="13.6" transform="matrix(0.0107, 0.0, 0.0, 0.0107, 181.1, 11.0)" width="197.55" xlink:href="#font_Verdana__1"/>
      </g>
    </g>
    <g id="font_Verdana_D0">
      <path d="M600.0 -373.0 L600.0 -373.0 Q600.0 -299.0 575.5 -248.5 551.0 -198.5 498.5 -168.5 468.0 -152.0 436.0 -145.5 404.0 -139.5 335.5 -139.5 L287.0 -139.5 287.0 -605.5 335.5 -605.5 Q397.5 -605.5 428.5 -600.0 459.0 -595.0 488.5 -580.5 546.5 -551.0 573.5 -498.5 600.0 -446.5 600.0 -373.0 M798.5 -371.5 L798.5 -371.5 Q798.5 -479.5 754.5 -559.0 710.0 -639.0 633.0 -686.0 588.0 -714.0 522.0 -729.0 456.0 -744.5 365.0 -744.5 L95.0 -744.5 95.0 0.0 357.5 0.0 Q446.5 0.0 511.5 -13.0 576.5 -26.0 631.0 -59.0 703.5 -103.0 751.0 -185.0 798.5 -267.5 798.5 -371.5" fill-rule="evenodd" stroke="none"/>
    </g>
    <g id="font_Verdana_i0">
      <path d="M270.5 -641.5 L270.5 -778.0 80.0 -778.0 80.0 -641.5 270.5 -641.5 M265.5 0.0 L265.5 -561.5 85.0 -561.5 85.0 0.0 265.5 0.0" fill-rule="evenodd" stroke="none"/>
    </g>
    <g id="font_Verdana_d0">
      <path d="M450.5 -154.5 L450.5 -154.5 Q429.5 -139.5 402.0 -130.5 374.5 -121.0 350.0 -121.0 287.5 -121.0 259.0 -158.5 230.5 -195.5 230.5 -278.0 230.5 -357.0 266.0 -401.0 301.5 -445.5 372.0 -445.5 389.5 -445.5 410.5 -442.0 431.5 -438.5 450.5 -430.5 L450.5 -154.5 M631.0 0.0 L631.0 -778.0 450.5 -778.0 450.5 -539.0 Q416.5 -555.5 384.5 -566.0 352.0 -577.0 301.5 -577.0 253.0 -577.0 205.0 -556.0 156.5 -535.5 122.5 -498.0 86.5 -458.5 65.5 -403.0 45.0 -348.0 45.0 -276.5 45.0 -142.5 106.5 -63.5 168.0 15.5 270.0 15.5 323.0 15.5 363.5 -2.5 404.0 -20.5 450.5 -58.5 L450.5 0.0 631.0 0.0" fill-rule="evenodd" stroke="none"/>
    </g>
    <g id="font_Verdana_y0">
      <path d="M338.5 -198.5 L204.0 -561.5 15.0 -561.5 233.5 -4.5 144.0 206.0 339.5 206.0 651.5 -561.5 466.5 -561.5 338.5 -198.5" fill-rule="evenodd" stroke="none"/>
    </g>
    <g id="font_Verdana_o0">
      <path d="M437.5 -144.0 L437.5 -144.0 Q422.0 -124.5 400.0 -116.0 377.5 -108.0 353.0 -108.0 324.5 -108.0 302.5 -117.0 280.0 -126.0 264.0 -145.5 247.5 -166.0 239.0 -199.5 230.5 -233.5 230.5 -279.5 230.5 -331.0 240.5 -365.0 250.0 -399.0 266.5 -418.5 285.0 -439.5 305.5 -446.5 325.5 -453.5 351.5 -453.5 377.5 -453.5 400.0 -445.0 422.5 -436.5 438.5 -416.0 454.5 -396.0 463.5 -362.5 472.5 -329.0 472.5 -279.5 472.5 -226.0 464.0 -195.5 455.0 -165.5 437.5 -144.0 M659.0 -280.5 L659.0 -280.5 Q659.0 -419.0 579.0 -499.0 498.5 -579.0 351.5 -579.0 206.5 -579.0 125.5 -499.5 44.0 -420.0 44.0 -280.5 44.0 -142.0 125.0 -62.0 205.5 17.5 351.5 17.5 497.5 17.5 578.5 -62.0 659.0 -142.0 659.0 -280.5" fill-rule="evenodd" stroke="none"/>
    </g>
    <g id="font_Verdana_u0">
      <path d="M644.5 0.0 L644.5 -561.5 464.0 -561.5 464.0 -163.5 Q438.0 -147.0 410.0 -138.5 382.0 -130.0 359.0 -130.0 324.5 -130.0 305.5 -138.5 286.0 -147.0 276.5 -165.5 266.5 -184.0 264.0 -212.0 261.0 -240.5 261.0 -283.0 L261.0 -561.5 80.5 -561.5 80.5 -196.0 Q80.5 -91.5 130.5 -38.0 181.0 15.5 274.0 15.5 331.0 15.5 372.5 -4.0 414.0 -24.0 464.0 -62.0 L464.0 0.0 644.5 0.0" fill-rule="evenodd" stroke="none"/>
    </g>
    <g id="font_Verdana_s0">
      <path d="M573.0 -178.0 L573.0 -178.0 Q573.0 -237.5 539.0 -277.0 505.0 -317.0 434.0 -335.5 402.0 -343.5 370.5 -348.5 338.5 -354.0 311.0 -359.5 261.0 -370.0 247.5 -380.5 234.0 -391.0 234.0 -411.0 234.0 -433.0 264.0 -445.0 293.5 -457.0 337.0 -457.0 389.5 -457.0 441.0 -439.5 492.0 -422.5 532.0 -395.0 L547.5 -395.0 547.5 -537.0 Q515.0 -551.5 457.5 -564.0 399.5 -577.0 336.5 -577.0 203.5 -577.0 127.0 -523.0 50.0 -469.5 50.0 -388.5 50.0 -325.5 87.0 -283.0 124.0 -241.0 200.5 -221.0 228.5 -213.5 263.0 -208.0 297.0 -203.0 317.0 -198.5 359.0 -190.0 374.0 -180.5 389.0 -171.5 389.0 -151.0 389.0 -128.0 363.5 -116.0 338.0 -104.5 285.0 -104.5 244.5 -104.5 209.0 -112.5 173.5 -121.0 145.5 -132.5 113.0 -145.5 95.5 -156.5 77.5 -168.0 64.0 -177.5 L47.5 -177.5 47.5 -29.5 Q84.5 -12.5 145.5 1.5 206.5 15.5 281.5 15.5 417.0 15.5 495.0 -37.5 573.0 -91.0 573.0 -178.0" fill-rule="evenodd" stroke="none"/>
    </g>
    <g id="font_Verdana_e0">
      <path d="M459.0 -353.0 L225.5 -353.0 Q229.5 -412.5 263.0 -439.5 296.5 -466.5 348.5 -466.5 404.5 -466.5 431.0 -438.0 457.5 -409.5 459.0 -353.0 M638.0 -247.5 L638.0 -310.5 Q638.0 -440.5 569.0 -509.5 500.0 -579.0 363.0 -579.0 214.5 -579.0 129.5 -497.5 44.0 -416.5 44.0 -277.5 44.0 -137.0 134.0 -61.0 224.0 15.0 393.0 15.0 458.5 15.0 512.5 4.0 566.5 -7.0 627.5 -31.5 L627.5 -176.0 607.5 -176.0 Q576.5 -152.5 523.0 -132.0 469.5 -111.5 412.5 -111.5 322.5 -111.5 276.5 -146.5 230.0 -181.5 226.0 -247.5 L638.0 -247.5" fill-rule="evenodd" stroke="none"/>
    </g>
    <g id="font_Verdana_t0">
      <path d="M444.0 -5.0 L444.0 -128.0 429.0 -128.0 Q420.0 -123.0 397.5 -117.0 374.5 -111.0 361.0 -111.0 327.0 -111.0 309.0 -121.5 291.5 -131.5 284.5 -149.0 277.0 -166.5 276.5 -188.5 276.0 -210.5 276.0 -240.0 L276.0 -439.5 444.0 -439.5 444.0 -561.5 276.0 -561.5 276.0 -722.0 95.5 -722.0 95.5 -561.5 21.5 -561.5 21.5 -439.5 95.5 -439.5 95.5 -177.0 Q95.5 -74.0 147.0 -31.5 198.0 11.0 303.0 11.0 350.0 11.0 382.5 7.0 415.0 2.5 444.0 -5.0" fill-rule="evenodd" stroke="none"/>
    </g>
    <g id="font_Verdana_h0">
      <path d="M649.0 0.0 L649.0 -365.5 Q649.0 -471.0 598.0 -524.0 546.5 -577.0 456.0 -577.0 402.0 -577.0 357.5 -557.0 313.5 -537.0 265.5 -499.5 L265.5 -778.0 85.0 -778.0 85.0 0.0 265.5 0.0 265.5 -398.0 Q295.0 -415.5 320.5 -423.5 345.5 -431.5 370.0 -431.5 404.5 -431.5 424.0 -423.0 443.0 -414.5 453.0 -396.0 461.5 -380.0 465.0 -346.0 468.5 -312.5 468.5 -278.5 L468.5 0.0 649.0 0.0" fill-rule="evenodd" stroke="none"/>
    </g>
    <g id="font_Verdana_n0">
      <path d="M649.0 0.0 L649.0 -365.5 Q649.0 -471.0 598.0 -524.0 546.5 -577.0 456.0 -577.0 402.0 -577.0 357.5 -557.0 313.5 -537.0 265.5 -499.5 L265.5 -561.5 85.0 -561.5 85.0 0.0 265.5 0.0 265.5 -398.0 Q295.0 -415.5 320.5 -423.5 345.5 -431.5 370.0 -431.5 404.5 -431.5 424.0 -423.0 443.0 -414.5 453.0 -396.0 461.5 -380.0 465.0 -346.0 468.5 -312.5 468.5 -278.5 L468.5 0.0 649.0 0.0" fill-rule="evenodd" stroke="none"/>
    </g>
    <g id="font_Verdana_a0">
      <path d="M425.0 -59.5 L425.0 0.0 603.5 0.0 603.5 -382.0 Q603.5 -483.0 535.5 -530.0 467.0 -577.5 313.5 -577.5 249.0 -577.5 185.0 -567.0 120.5 -557.0 92.0 -549.5 L92.0 -414.0 108.5 -414.0 Q130.5 -422.5 181.0 -438.0 231.5 -454.0 276.0 -454.0 350.0 -454.0 388.0 -436.0 426.0 -418.5 426.0 -372.0 L426.0 -369.0 Q346.5 -364.5 272.5 -355.0 198.5 -345.5 148.5 -323.0 98.0 -300.5 70.5 -261.5 43.0 -222.5 43.0 -161.0 43.0 -84.0 97.0 -34.5 151.0 15.0 231.0 15.0 265.0 15.0 293.5 9.5 322.0 3.5 348.5 -8.5 367.5 -17.5 389.0 -33.0 410.5 -48.5 425.0 -59.5 M425.0 -147.0 L425.0 -147.0 Q404.0 -129.0 376.5 -118.0 348.5 -107.0 321.5 -107.0 287.5 -107.0 271.5 -111.5 255.5 -116.5 244.0 -126.5 232.0 -136.5 229.0 -147.5 226.0 -158.5 226.0 -176.0 226.0 -202.0 240.5 -218.5 254.5 -234.5 281.5 -243.0 303.5 -250.0 346.0 -255.5 388.5 -260.5 425.0 -263.5 L425.0 -147.0" fill-rule="evenodd" stroke="none"/>
    </g>
    <g id="font_Verdana_l0">
      <path d="M265.5 0.0 L265.5 -778.0 85.0 -778.0 85.0 0.0 265.5 0.0" fill-rule="evenodd" stroke="none"/>
    </g>
    <g id="font_Verdana_f0">
      <path d="M449.0 -646.0 L449.0 -773.0 Q424.0 -777.5 391.5 -780.0 359.0 -783.0 319.0 -783.0 208.0 -783.0 153.5 -731.5 98.5 -680.0 98.5 -577.0 L98.5 -561.5 21.5 -561.5 21.5 -439.5 98.5 -439.5 98.5 0.0 279.0 0.0 279.0 -439.5 411.5 -439.5 411.5 -561.5 273.0 -561.5 273.0 -566.0 Q273.0 -620.5 291.5 -639.5 310.5 -658.5 363.0 -658.5 385.0 -658.5 404.5 -654.0 423.5 -649.5 435.5 -646.0 L449.0 -646.0" fill-rule="evenodd" stroke="none"/>
    </g>
    <g id="font_Verdana_c0">
      <path d="M377.5 15.0 L377.5 15.0 Q433.5 15.0 480.0 3.5 526.0 -8.5 568.5 -28.5 L568.5 -182.0 543.0 -182.0 Q532.0 -171.5 519.0 -160.5 506.0 -149.5 489.0 -139.5 471.0 -129.0 444.0 -121.0 416.5 -113.5 383.0 -113.5 310.0 -113.5 270.0 -155.5 230.5 -197.5 230.5 -278.5 230.5 -357.0 269.0 -402.5 308.0 -448.5 380.0 -448.5 412.0 -448.5 436.5 -441.0 461.0 -434.0 481.5 -423.0 503.0 -411.5 518.0 -399.5 532.5 -387.5 543.0 -378.5 L568.5 -378.5 568.5 -532.0 Q526.5 -552.0 478.0 -564.5 429.5 -577.0 372.0 -577.0 308.0 -577.0 248.5 -560.5 189.0 -544.0 143.5 -508.5 96.5 -471.0 70.5 -414.0 44.0 -357.0 44.0 -278.5 44.0 -204.0 68.5 -148.5 93.0 -93.0 137.5 -56.5 182.5 -20.0 243.5 -2.5 304.0 15.0 377.5 15.0" fill-rule="evenodd" stroke="none"/>
    </g>
    <g id="font_Verdana__1">
      <path d="M383.0 0.0 L383.0 -132.0 181.0 -132.0 181.0 0.0 383.0 0.0 M575.5 -563.0 L575.5 -563.0 Q575.5 -651.0 503.0 -705.5 430.5 -760.0 307.0 -760.0 238.5 -760.0 172.0 -745.0 105.5 -730.5 73.5 -717.0 L73.5 -564.5 93.5 -564.5 Q131.0 -589.0 176.5 -604.5 221.5 -620.0 257.5 -620.0 316.0 -620.0 348.5 -598.5 380.5 -577.5 380.5 -527.5 380.5 -494.0 364.0 -467.5 347.0 -440.5 317.5 -420.5 286.0 -398.0 257.5 -388.0 228.5 -378.0 193.0 -368.5 L193.0 -200.0 369.0 -200.0 369.0 -314.0 Q416.5 -332.5 454.5 -355.0 492.0 -377.5 519.0 -406.0 546.0 -434.5 561.0 -473.5 575.5 -512.5 575.5 -563.0" fill-rule="evenodd" stroke="none"/>
    </g>
    <g id="text3" transform="matrix(1.0, 0.0, 0.0, 1.0, -0.25, -0.6)">
      <g transform="matrix(1.0, 0.0, 0.0, 1.0, 0.0, 0.0)">
        <use fill="#ffffff" height="13.6" transform="matrix(0.0107, 0.0, 0.0, 0.0107, 0.0, 11.0)" width="247.3" xlink:href="#font_Verdana_w0"/>
        <use fill="#ffffff" height="13.6" transform="matrix(0.0107, 0.0, 0.0, 0.0107, 10.75, 11.0)" width="247.3" xlink:href="#font_Verdana_h0"/>
        <use fill="#ffffff" height="13.6" transform="matrix(0.0107, 0.0, 0.0, 0.0107, 18.6, 11.0)" width="247.3" xlink:href="#font_Verdana_a0"/>
        <use fill="#ffffff" height="13.6" transform="matrix(0.0107, 0.0, 0.0, 0.0107, 25.95, 11.0)" width="247.3" xlink:href="#font_Verdana_t0"/>
        <use fill="#ffffff" height="13.6" transform="matrix(0.0107, 0.0, 0.0, 0.0107, 30.95, 11.0)" width="247.3" xlink:href="#font_Verdana__0"/>
        <use fill="#ffffff" height="13.6" transform="matrix(0.0107, 0.0, 0.0, 0.0107, 34.7, 11.0)" width="247.3" xlink:href="#font_Verdana_t0"/>
        <use fill="#ffffff" height="13.6" transform="matrix(0.0107, 0.0, 0.0, 0.0107, 39.7, 11.0)" width="247.3" xlink:href="#font_Verdana_y0"/>
        <use fill="#ffffff" height="13.6" transform="matrix(0.0107, 0.0, 0.0, 0.0107, 46.85, 11.0)" width="247.3" xlink:href="#font_Verdana_p0"/>
        <use fill="#ffffff" height="13.6" transform="matrix(0.0107, 0.0, 0.0, 0.0107, 54.55, 11.0)" width="247.3" xlink:href="#font_Verdana_e0"/>
        <use fill="#ffffff" height="13.6" transform="matrix(0.0107, 0.0, 0.0, 0.0107, 61.85, 11.0)" width="247.3" xlink:href="#font_Verdana__0"/>
        <use fill="#ffffff" height="13.6" transform="matrix(0.0107, 0.0, 0.0, 0.0107, 65.6, 11.0)" width="247.3" xlink:href="#font_Verdana_o0"/>
        <use fill="#ffffff" height="13.6" transform="matrix(0.0107, 0.0, 0.0, 0.0107, 73.15, 11.0)" width="247.3" xlink:href="#font_Verdana_f0"/>
        <use fill="#ffffff" height="13.6" transform="matrix(0.0107, 0.0, 0.0, 0.0107, 77.8, 11.0)" width="247.3" xlink:href="#font_Verdana__0"/>
        <use fill="#ffffff" height="13.6" transform="matrix(0.0107, 0.0, 0.0, 0.0107, 81.55, 11.0)" width="247.3" xlink:href="#font_Verdana_s0"/>
        <use fill="#ffffff" height="13.6" transform="matrix(0.0107, 0.0, 0.0, 0.0107, 88.1, 11.0)" width="247.3" xlink:href="#font_Verdana_o0"/>
        <use fill="#ffffff" height="13.6" transform="matrix(0.0107, 0.0, 0.0, 0.0107, 95.65, 11.0)" width="247.3" xlink:href="#font_Verdana_l0"/>
        <use fill="#ffffff" height="13.6" transform="matrix(0.0107, 0.0, 0.0, 0.0107, 99.4, 11.0)" width="247.3" xlink:href="#font_Verdana_u0"/>
        <use fill="#ffffff" height="13.6" transform="matrix(0.0107, 0.0, 0.0, 0.0107, 107.25, 11.0)" width="247.3" xlink:href="#font_Verdana_t0"/>
        <use fill="#ffffff" height="13.6" transform="matrix(0.0107, 0.0, 0.0, 0.0107, 112.25, 11.0)" width="247.3" xlink:href="#font_Verdana_i0"/>
        <use fill="#ffffff" height="13.6" transform="matrix(0.0107, 0.0, 0.0, 0.0107, 116.0, 11.0)" width="247.3" xlink:href="#font_Verdana_o0"/>
        <use fill="#ffffff" height="13.6" transform="matrix(0.0107, 0.0, 0.0, 0.0107, 123.55, 11.0)" width="247.3" xlink:href="#font_Verdana_n0"/>
        <use fill="#ffffff" height="13.6" transform="matrix(0.0107, 0.0, 0.0, 0.0107, 131.4, 11.0)" width="247.3" xlink:href="#font_Verdana__0"/>
        <use fill="#ffffff" height="13.6" transform="matrix(0.0107, 0.0, 0.0, 0.0107, 135.15, 11.0)" width="247.3" xlink:href="#font_Verdana_i0"/>
        <use fill="#ffffff" height="13.6" transform="matrix(0.0107, 0.0, 0.0, 0.0107, 138.9, 11.0)" width="247.3" xlink:href="#font_Verdana_s0"/>
        <use fill="#ffffff" height="13.6" transform="matrix(0.0107, 0.0, 0.0, 0.0107, 145.45, 11.0)" width="247.3" xlink:href="#font_Verdana__0"/>
        <use fill="#ffffff" height="13.6" transform="matrix(0.0107, 0.0, 0.0, 0.0107, 149.2, 11.0)" width="247.3" xlink:href="#font_Verdana_i0"/>
        <use fill="#ffffff" height="13.6" transform="matrix(0.0107, 0.0, 0.0, 0.0107, 152.95, 11.0)" width="247.3" xlink:href="#font_Verdana_t0"/>
        <use fill="#ffffff" height="13.6" transform="matrix(0.0107, 0.0, 0.0, 0.0107, 157.95, 11.0)" width="247.3" xlink:href="#font_Verdana__0"/>
        <use fill="#ffffff" height="13.6" transform="matrix(0.0107, 0.0, 0.0, 0.0107, 161.7, 11.0)" width="247.3" xlink:href="#font_Verdana_t0"/>
        <use fill="#ffffff" height="13.6" transform="matrix(0.0107, 0.0, 0.0, 0.0107, 166.7, 11.0)" width="247.3" xlink:href="#font_Verdana_h0"/>
        <use fill="#ffffff" height="13.6" transform="matrix(0.0107, 0.0, 0.0, 0.0107, 174.55, 11.0)" width="247.3" xlink:href="#font_Verdana_e0"/>
        <use fill="#ffffff" height="13.6" transform="matrix(0.0107, 0.0, 0.0, 0.0107, 181.85, 11.0)" width="247.3" xlink:href="#font_Verdana_n0"/>
        <use fill="#ffffff" height="13.6" transform="matrix(0.0107, 0.0, 0.0, 0.0107, 189.7, 11.0)" width="247.3" xlink:href="#font_Verdana__2"/>
        <use fill="#ffffff" height="13.6" transform="matrix(0.0107, 0.0, 0.0, 0.0107, 193.65, 11.0)" width="247.3" xlink:href="#font_Verdana_c0"/>
        <use fill="#ffffff" height="13.6" transform="matrix(0.0107, 0.0, 0.0, 0.0107, 200.1, 11.0)" width="247.3" xlink:href="#font_Verdana_h0"/>
        <use fill="#ffffff" height="13.6" transform="matrix(0.0107, 0.0, 0.0, 0.0107, 207.95, 11.0)" width="247.3" xlink:href="#font_Verdana_o0"/>
        <use fill="#ffffff" height="13.6" transform="matrix(0.0107, 0.0, 0.0, 0.0107, 215.5, 11.0)" width="247.3" xlink:href="#font_Verdana_o0"/>
        <use fill="#ffffff" height="13.6" transform="matrix(0.0107, 0.0, 0.0, 0.0107, 223.05, 11.0)" width="247.3" xlink:href="#font_Verdana_s0"/>
        <use fill="#ffffff" height="13.6" transform="matrix(0.0107, 0.0, 0.0, 0.0107, 229.6, 11.0)" width="247.3" xlink:href="#font_Verdana_e0"/>
      </g>
    </g>
    <g id="font_Verdana_w0">
      <path d="M980.5 -561.5 L795.5 -561.5 701.0 -174.5 587.0 -561.5 427.5 -561.5 307.5 -174.5 211.5 -561.5 22.5 -561.5 195.0 0.0 388.0 0.0 501.0 -378.5 615.5 0.0 806.5 0.0 980.5 -561.5" fill-rule="evenodd" stroke="none"/>
    </g>
    <g id="font_Verdana_p0">
      <path d="M485.5 -284.5 L485.5 -284.5 Q485.5 -201.0 450.5 -159.0 415.5 -117.5 344.5 -117.5 324.5 -117.5 304.0 -119.5 283.5 -121.5 265.5 -128.5 L265.5 -410.5 Q290.0 -425.0 317.0 -433.0 344.0 -440.5 369.5 -440.5 429.5 -440.5 457.5 -403.5 485.5 -366.5 485.5 -284.5 M671.0 -288.5 L671.0 -288.5 Q671.0 -423.0 613.0 -500.0 554.5 -577.0 450.0 -577.0 393.5 -577.0 350.0 -556.5 307.0 -536.0 265.5 -503.0 L265.5 -561.5 85.0 -561.5 85.0 206.0 265.5 206.0 265.5 -28.0 Q300.5 -9.5 334.0 1.0 367.5 11.0 415.5 11.0 467.5 11.0 512.5 -9.0 558.0 -29.0 594.0 -68.0 628.5 -105.0 650.0 -162.0 671.0 -219.0 671.0 -288.5" fill-rule="evenodd" stroke="none"/>
    </g>
    <g id="font_Verdana__2">
      <path d="M309.0 -196.5 L116.0 -196.5 17.5 185.0 129.0 185.0 309.0 -196.5" fill-rule="evenodd" stroke="none"/>
    </g>
    <g id="sprite8" transform="matrix(1.0, 0.0, 0.0, 1.0, 0.0, 0.0)">
      <use height="22.0" transform="matrix(1.25, 0.0, 0.0, 1.0, 0.0, 0.0)" width="80.0" xlink:href="#sprite9"/>
    </g>
    <g id="sprite9" transform="matrix(1.0, 0.0, 0.0, 1.0, 0.0, 0.0)">
      <use height="22.0" transform="matrix(1.0, 0.0, 0.0, 1.0, 0.0, 0.0)" width="80.0" xlink:href="#shape14"/>
    </g>
    <g id="shape14" transform="matrix(1.0, 0.0, 0.0, 1.0, 0.0, 0.0)">
      <path d="M80.0 22.0 L0.0 22.0 0.0 0.0 80.0 0.0 80.0 22.0" fill="#ffffff" fill-rule="evenodd" stroke="none"/>
      <path d="M80.0 22.0 L0.0 22.0 0.0 0.0 80.0 0.0 80.0 22.0 Z" fill="none" stroke="#000000" stroke-linecap="round" stroke-linejoin="round" stroke-width="0.05"/>
    </g>
    <g id="sprite10" transform="matrix(1.0, 0.0, 0.0, 1.0, 0.0, 0.0)">
      <use height="22.0" transform="matrix(1.25, 0.0, 0.0, 1.0, 0.0, 0.0)" width="80.0" xlink:href="#sprite9"/>
    </g>
    <g id="sprite11" transform="matrix(1.0, 0.0, 0.0, 1.0, 141.5, 23.5)">
      <use height="47.0" transform="matrix(1.0, 0.0, 0.0, 1.0, -141.5, -23.5)" width="283.05" xlink:href="#shape15"/>
    </g>
    <g id="shape15" transform="matrix(1.0, 0.0, 0.0, 1.0, 141.5, 23.5)">
      <path d="M-141.5 -23.5 L141.55 -23.5 141.55 23.5 -141.5 23.5 -141.5 -23.5" fill="#000000" fill-opacity="0.0" fill-rule="evenodd" stroke="none"/>
    </g>
    <g id="sprite12" transform="matrix(1.0, 0.0, 0.0, 1.0, 267.95, 184.95)">
      <use height="301.0" transform="matrix(1.0, 0.0, 0.0, 1.2458, -267.95, -184.9504)" width="537.95" xlink:href="#sprite13"/>
      <use height="91.0" transform="matrix(1.0, 0.0, 0.0, 1.0, -148.95, -45.5)" width="297.95" xlink:href="#shape17"/>
      <use height="17.25" id="results_txt" transform="matrix(1.0, 0.0, 0.0, 1.0, -132.95, -17.0)" width="261.95" xlink:href="#text5"/>
      <use height="321.9" id="ok_btn" transform="matrix(1.0, 0.0, 0.0, 1.0, -49.65, 21.35)" width="111.0" xlink:href="#sprite8"/>
    </g>
    <g id="sprite13" transform="matrix(1.0, 0.0, 0.0, 1.0, 268.95, 150.5)">
      <use height="301.0" transform="matrix(1.0, 0.0, 0.0, 1.0, -268.95, -150.5)" width="537.95" xlink:href="#shape16"/>
    </g>
    <g id="shape16" transform="matrix(1.0, 0.0, 0.0, 1.0, 268.95, 150.5)">
      <path d="M260.0 -150.5 Q269.0 -150.5 269.0 -141.5 L269.0 141.5 Q269.0 150.5 260.0 150.5 L-259.95 150.5 Q-268.95 150.5 -268.95 141.5 L-268.95 -141.5 Q-268.95 -150.5 -259.95 -150.5 L260.0 -150.5" fill="#ffffff" fill-opacity="0.0" fill-rule="evenodd" stroke="none"/>
    </g>
    <g id="shape17" transform="matrix(1.0, 0.0, 0.0, 1.0, 148.95, 45.5)">
      <path d="M140.0 -45.5 Q149.0 -45.5 149.0 -36.5 L149.0 36.5 Q149.0 45.5 140.0 45.5 L-139.95 45.5 Q-148.95 45.5 -148.95 36.5 L-148.95 -36.5 Q-148.95 -45.5 -139.95 -45.5 L140.0 -45.5" fill="url(#gradient10)" fill-rule="evenodd" stroke="none"/>
    </g>
    <linearGradient gradientTransform="matrix(2.0E-4, -0.0635, 0.0555, 2.0E-4, 3.85, -21.55)" gradientUnits="userSpaceOnUse" id="gradient10" spreadMethod="pad" x1="-819.2" x2="819.2">
      <stop offset="0.0" stop-color="#cccccc"/>
      <stop offset="1.0" stop-color="#999999"/>
    </linearGradient>
    <g id="sprite14" transform="matrix(1.0, 0.0, 0.0, 1.0, 400.0, 370.65)">
      <use height="500.0" transform="matrix(1.0, 0.0, 0.0, 1.0, -400.0, -250.0)" width="800.0" xlink:href="#shape18"/>
      <use height="170.3" transform="matrix(1.0, 0.0, 0.0, 1.0, -67.2, -84.65)" width="134.35" xlink:href="#sprite15"/>
      <use height="30.7" id="solution_txt" transform="matrix(1.0, 0.0, 0.0, 1.0, -201.95, 107.0)" width="413.95" xlink:href="#text6"/>
    </g>
    <g id="shape18" transform="matrix(1.0, 0.0, 0.0, 1.0, 400.0, 250.0)">
      <path d="M400.0 250.0 L-400.0 250.0 -400.0 -250.0 400.0 -250.0 400.0 250.0" fill="#ffcc99" fill-rule="evenodd" stroke="none"/>
    </g>
    <g id="sprite15" transform="matrix(1.0, 0.0, 0.0, 1.0, 67.2, 84.65)">
      <use height="32.7" transform="matrix(1.0, 0.0, 0.0, 1.0, -46.0, 52.95)" width="104.55" xlink:href="#shape19"/>
      <use height="444.7" transform="matrix(0.3592, 0.0095, -0.0073, 0.3594, -63.9828, -78.5136)" width="365.1" xlink:href="#sprite1"/>
      <use height="41.7" transform="matrix(0.3592, 0.0095, -0.0073, 0.3594, 1.35, 61.4)" width="134.4" xlink:href="#sprite2"/>
      <use height="267.05" transform="matrix(0.3592, 0.0095, -0.0073, 0.3594, 34.9, -74.35)" width="78.55" xlink:href="#sprite3"/>
      <use height="269.15" transform="matrix(0.3592, 0.0095, -0.0073, 0.3594, -64.0, -74.35)" width="61.55" xlink:href="#sprite4"/>
      <use height="182.3" transform="matrix(0.3592, 0.0095, -0.0073, 0.3594, 24.6362, -15.7455)" width="13.35" xlink:href="#sprite5"/>
      <use height="297.35" transform="matrix(0.3592, 0.0095, -0.0073, 0.3594, 29.0704, -43.6047)" width="63.8" xlink:href="#sprite6"/>
      <use height="16.95" transform="matrix(1.0, 0.0, 0.0, 1.0, -62.25, -84.65)" width="129.35" xlink:href="#shape20"/>
      <use height="41.65" transform="matrix(1.0, 0.0, 0.0, 1.0, -15.85, 9.85)" width="40.95" xlink:href="#sprite16"/>
      <use height="91.7" transform="matrix(1.0, 0.0, 0.0, 1.0, -48.7, -10.5)" width="108.75" xlink:href="#shape22"/>
    </g>
    <g id="shape19" transform="matrix(1.0, 0.0, 0.0, 1.0, 46.0, -52.95)">
      <path d="M4.9 84.6 Q-15.3 84.1 -30.5 77.95 -37.25 75.2 -41.1 72.0 -45.0 68.75 -45.0 65.6 -44.85 59.65 -30.0 56.4 -16.15 53.5 5.55 54.0 28.0 54.65 42.1 57.75 57.7 61.25 57.55 67.25 57.55 70.35 53.2 73.5 48.95 76.7 41.6 79.35 34.0 81.95 24.85 83.35 14.9 84.85 4.9 84.6" fill="#cccccc" fill-rule="evenodd" stroke="none"/>
      <path d="M4.9 84.6 Q-15.3 84.1 -30.5 77.95 -37.25 75.2 -41.1 72.0 -45.0 68.75 -45.0 65.6 -44.85 59.65 -30.0 56.4 -16.15 53.5 5.55 54.0 28.0 54.65 42.1 57.75 57.7 61.25 57.55 67.25 57.55 70.35 53.2 73.5 48.95 76.7 41.6 79.35 34.0 81.95 24.85 83.35 14.9 84.85 4.9 84.6 Z" fill="none" stroke="#c9d1d4" stroke-linecap="round" stroke-linejoin="round" stroke-width="2.0"/>
    </g>
    <g id="shape20" transform="matrix(1.0, 0.0, 0.0, 1.0, 62.25, 84.65)">
      <path d="M66.3 -76.85 Q64.55 -75.35 59.95 -74.1 45.35 -70.0 7.15 -68.75 -1.7 -68.25 -13.4 -68.35 -36.5 -68.5 -50.45 -71.5 -53.7 -72.1 -57.1 -70.85 -59.6 -69.85 -62.2 -67.75 -60.35 -71.6 -56.2 -75.35 -48.0 -82.95 -36.9 -83.35 -11.55 -84.6 14.15 -84.6 65.55 -84.45 67.05 -77.95 L66.3 -76.85" fill="url(#gradient11)" fill-rule="evenodd" stroke="none"/>
      <path d="M66.3 -76.85 Q64.55 -75.35 59.95 -74.1 45.35 -70.0 7.15 -68.75 -1.7 -68.25 -13.4 -68.35 -36.5 -68.5 -50.45 -71.5 -53.7 -72.1 -57.1 -70.85 -59.6 -69.85 -62.2 -67.75 -60.35 -71.6 -56.2 -75.35 -48.0 -82.95 -36.9 -83.35 -11.55 -84.6 14.15 -84.6 65.55 -84.45 67.05 -77.95 L66.3 -76.85 Z" fill="none" stroke="#666666" stroke-linecap="round" stroke-linejoin="round" stroke-width="0.1"/>
    </g>
    <linearGradient gradientTransform="matrix(0.0788, 0.0021, -2.0E-4, 0.0116, 2.55, -75.7)" gradientUnits="userSpaceOnUse" id="gradient11" spreadMethod="pad" x1="-819.2" x2="819.2">
      <stop offset="0.0" stop-color="#ffffff"/>
      <stop offset="1.0" stop-color="#cccccc"/>
    </linearGradient>
    <g id="sprite16" transform="matrix(1.0, 0.0, 0.0, 1.0, 20.2, 20.45)">
      <use height="33.2" transform="matrix(0.1875, -0.1083, 0.1083, 0.1875, -11.7614, -14.5889)" width="30.9" xlink:href="#sprite17"/>
      <use height="33.2" transform="matrix(0.2166, 0.0, 0.0, 0.2166, 5.9008, -18.8458)" width="30.9" xlink:href="#sprite17"/>
      <use height="33.2" transform="matrix(0.2166, 0.0, 0.0, -0.2166, 11.5008, 1.4458)" width="30.9" xlink:href="#sprite17"/>
      <use height="33.2" transform="matrix(0.2092, -0.056, -0.056, -0.2092, -18.3578, 2.8136)" width="30.9" xlink:href="#sprite17"/>
      <use height="33.2" transform="matrix(0.2166, 0.0, 0.0, 0.2166, -2.0992, -7.6458)" width="30.9" xlink:href="#sprite17"/>
      <use height="33.2" transform="matrix(0.1532, 0.1532, -0.1532, 0.1532, -6.4049, -0.0411)" width="30.9" xlink:href="#sprite17"/>
      <use height="33.2" transform="matrix(0.1875, 0.1083, -0.1083, 0.1875, 7.5844, -2.7881)" width="30.9" xlink:href="#sprite17"/>
      <use height="33.2" transform="matrix(0.1875, -0.1083, -0.1083, -0.1875, 2.7844, 21.1872)" width="30.9" xlink:href="#sprite17"/>
      <use height="33.2" transform="matrix(0.2166, 0.0, 0.0, 0.2166, 11.5508, 10.3542)" width="30.9" xlink:href="#sprite17"/>
      <use height="33.2" transform="matrix(0.2166, 0.0, 0.0, 0.2166, -2.9492, 5.8542)" width="30.9" xlink:href="#sprite17"/>
      <use height="33.2" transform="matrix(0.1532, 0.1532, 0.1532, -0.1532, 10.9085, -10.4544)" width="30.9" xlink:href="#sprite17"/>
      <use height="33.2" transform="matrix(0.1532, -0.1532, 0.1532, 0.1532, -16.5915, 9.2044)" width="30.9" xlink:href="#sprite17"/>
      <use height="33.2" transform="matrix(0.2166, 0.0, 0.0, -0.2166, -1.5492, -13.2542)" width="30.9" xlink:href="#sprite17"/>
    </g>
    <g id="sprite17" transform="matrix(1.0, 0.0, 0.0, 1.0, 15.0, 16.6)">
      <use height="13.2" transform="matrix(1.0, 0.0, 0.0, 1.0, -5.45, -6.6)" width="10.9" xlink:href="#shape21"/>
    </g>
    <g id="shape21" transform="matrix(1.0, 0.0, 0.0, 1.0, 5.45, 6.6)">
      <path d="M4.55 -0.1 Q4.55 1.95 3.05 3.4 1.6 4.9 -0.45 4.9 -2.5 4.9 -4.0 3.4 -5.45 1.95 -5.45 -0.1 -5.45 -2.15 -4.0 -3.65 -2.5 -5.1 -0.45 -5.1 1.6 -5.1 3.05 -3.65 4.55 -2.15 4.55 -0.1" fill="url(#gradient12)" fill-rule="evenodd" stroke="none"/>
      <path d="M0.45 5.85 Q-0.3 5.1 -0.3 4.0 -0.3 2.9 0.45 2.15 1.2 1.35 2.3 1.35 3.4 1.35 4.15 2.15 4.95 2.9 4.95 4.0 4.95 5.1 4.15 5.85 3.4 6.6 2.3 6.6 1.2 6.6 0.45 5.85" fill="url(#gradient13)" fill-rule="evenodd" stroke="none"/>
      <path d="M5.45 -4.1 Q5.45 -3.05 4.7 -2.3 4.0 -1.6 2.95 -1.6 1.9 -1.6 1.2 -2.3 0.45 -3.05 0.45 -4.1 0.45 -5.15 1.2 -5.85 1.9 -6.6 2.95 -6.6 4.0 -6.6 4.7 -5.85 5.45 -5.15 5.45 -4.1" fill="url(#gradient14)" fill-rule="evenodd" stroke="none"/>
    </g>
    <radialGradient cx="0" cy="0" gradientTransform="matrix(0.0065, 0.0, 0.0, 0.0065, -0.45, -0.1)" gradientUnits="userSpaceOnUse" id="gradient12" r="819.2" spreadMethod="pad">
      <stop offset="0.0" stop-color="#ff0000"/>
      <stop offset="1.0" stop-color="#910000"/>
    </radialGradient>
    <radialGradient cx="0" cy="0" gradientTransform="matrix(0.0033, 0.0, 0.0, 0.0033, 2.3, 4.0)" gradientUnits="userSpaceOnUse" id="gradient13" r="819.2" spreadMethod="pad">
      <stop offset="0.0" stop-color="#999999"/>
      <stop offset="0.5098039215686274" stop-color="#999999"/>
      <stop offset="1.0" stop-color="#ffffff"/>
    </radialGradient>
    <radialGradient cx="0" cy="0" gradientTransform="matrix(0.0031, 0.0, 0.0, 0.0031, 2.95, -4.1)" gradientUnits="userSpaceOnUse" id="gradient14" r="819.2" spreadMethod="pad">
      <stop offset="0.0" stop-color="#999999"/>
      <stop offset="0.48627450980392156" stop-color="#999999"/>
      <stop offset="1.0" stop-color="#ffffff"/>
    </radialGradient>
    <g id="shape22" transform="matrix(1.0, 0.0, 0.0, 1.0, 48.7, 10.5)">
      <path d="M5.35 -10.05 L10.8 -10.0 19.8 -9.75 20.6 -9.65 21.1 -9.65 27.1 -9.3 Q35.9 -8.6 44.5 -6.95 52.05 -5.7 55.45 -4.2 L57.95 -2.55 Q58.35 -1.6 58.35 -0.55 L58.35 0.2 Q58.45 5.95 60.05 8.55 L59.85 9.8 59.25 40.45 Q58.95 44.6 59.05 49.25 59.45 66.55 58.25 71.15 56.75 77.15 20.3 81.2 L9.05 81.2 4.25 81.2 1.55 81.2 Q-20.25 80.85 -32.7 76.95 -45.1 73.0 -46.7 70.55 -48.4 68.0 -48.6 62.0 -48.8 56.0 -48.6 47.3 L-48.55 40.45 -48.55 9.8 -48.6 8.8 Q-48.8 3.75 -48.0 -0.15 L-47.9 -0.45 Q-46.9 -3.5 -38.6 -6.2 L-34.6 -7.3 Q-22.15 -10.6 -15.25 -9.4 L-15.15 -9.4 -14.95 -9.4 -8.95 -9.75 -1.65 -10.45 4.75 -10.05 4.85 -10.05 5.35 -10.05 M-22.55 -3.5 L-30.5 -2.0 Q-34.4 -1.3 -37.4 0.4 L-22.55 -3.5 M33.8 -5.35 Q26.0 -7.05 14.9 -7.05 3.75 -7.05 -4.15 -5.35 -11.95 -3.55 -9.75 -2.15 -7.55 -0.8 5.95 -3.15 19.5 -5.5 19.7 2.05 19.9 9.6 30.8 5.45 41.7 1.3 41.7 -1.1 41.7 -3.55 33.8 -5.35" fill="#cccccc" fill-opacity="0.5176471" fill-rule="evenodd" stroke="none"/>
    </g>
    <g id="button1" transform="matrix(1.0, 0.0, 0.0, 1.0, 65.0, 19.5)">
      <use height="39.0" transform="matrix(1.0, 0.0, 0.0, 1.0, -65.0, -19.5)" width="130.0" xlink:href="#shape23"/>
      <use height="19.85" transform="matrix(1.0, 0.0, 0.0, 1.0, -19.85, -9.75)" width="54.8" xlink:href="#text7"/>
    </g>
    <g id="shape23" transform="matrix(1.0, 0.0, 0.0, 1.0, 65.0, 19.5)">
      <path d="M57.0 -19.5 Q65.0 -19.5 65.0 -11.5 L65.0 11.5 Q65.0 19.5 57.0 19.5 L-57.0 19.5 Q-65.0 19.5 -65.0 11.5 L-65.0 -11.5 Q-65.0 -19.5 -57.0 -19.5 L57.0 -19.5" fill="#993300" fill-rule="evenodd" stroke="none"/>
    </g>
    <g id="text7" transform="matrix(1.0, 0.0, 0.0, 1.0, -1.1, -3.6)">
      <g transform="matrix(1.0, 0.0, 0.0, 1.0, 0.0, 0.0)">
        <use fill="#ffffff" height="19.85" transform="matrix(0.0215, 0.0, 0.0, 0.0215, 0.0, 22.0)" width="54.8" xlink:href="#font_Verdana_O0"/>
        <use fill="#ffffff" height="19.85" transform="matrix(0.0215, 0.0, 0.0, 0.0215, 18.7, 22.0)" width="54.8" xlink:href="#font_Verdana_K0"/>
      </g>
    </g>
    <g id="font_Verdana_O0">
      <path d="M564.5 -183.5 L564.5 -183.5 Q539.5 -153.5 506.0 -139.0 472.5 -125.0 435.5 -125.0 398.5 -125.0 365.0 -139.0 331.5 -153.0 306.5 -182.5 281.5 -212.0 266.5 -258.5 251.0 -305.5 251.0 -372.0 251.0 -437.0 267.0 -486.0 282.5 -535.5 307.5 -563.5 334.5 -593.5 367.0 -606.5 399.0 -619.5 435.5 -619.5 471.5 -619.5 505.0 -606.0 538.0 -592.5 563.5 -562.5 588.5 -533.5 604.0 -486.5 619.5 -439.5 619.5 -372.5 619.5 -310.0 606.0 -263.5 592.5 -217.5 564.5 -183.5 M819.0 -372.0 L819.0 -372.0 Q819.0 -551.5 716.5 -655.5 614.0 -760.0 435.0 -760.0 255.5 -760.0 153.5 -655.5 51.5 -551.5 51.5 -372.0 51.5 -194.0 153.5 -89.0 255.5 15.5 435.0 15.5 615.0 15.5 717.0 -89.0 819.0 -194.0 819.0 -372.0" fill-rule="evenodd" stroke="none"/>
    </g>
    <g id="font_Verdana_K0">
      <path d="M790.0 0.0 L484.5 -400.0 775.5 -744.5 553.0 -744.5 287.0 -407.0 287.0 -744.5 95.0 -744.5 95.0 0.0 287.0 0.0 287.0 -243.0 331.5 -298.0 554.0 0.0 790.0 0.0" fill-rule="evenodd" stroke="none"/>
    </g>
  </defs>
</svg>
