<?xml version="1.0" encoding="UTF-8" standalone="no"?>
<svg xmlns:xlink="http://www.w3.org/1999/xlink" height="25.95px" width="83.8px" xmlns="http://www.w3.org/2000/svg">
  <g transform="matrix(1.0, 0.0, 0.0, 1.0, 42.1, 11.7)">
    <use height="23.45" transform="matrix(1.0, 0.0, 0.0, 1.0, -40.4, -11.7)" width="80.75" xlink:href="#shape0"/>
    <use height="18.05" transform="matrix(1.0, 0.0, 0.0, 1.0, -42.1, -3.8)" width="83.8" xlink:href="#text0"/>
  </g>
  <defs>
    <g id="shape0" transform="matrix(1.0, 0.0, 0.0, 1.0, 40.4, 11.7)">
      <path d="M27.3 -11.7 L40.35 -3.4 27.3 -3.3 27.3 -11.7 M-35.25 -3.25 L-40.2 -3.35 -27.15 -11.65 -27.15 -3.25 -35.25 -3.25" fill="#000000" fill-rule="evenodd" stroke="none"/>
      <path d="M-27.15 -3.25 L40.25 -3.25 40.25 11.75 -40.4 11.75 -40.4 -3.25 -35.25 -3.25 -27.15 -3.25" fill="#ffff00" fill-rule="evenodd" stroke="none"/>
    </g>
  </defs>
</svg>
