<?xml version="1.0" encoding="UTF-8" standalone="no"?>
<svg xmlns:xlink="http://www.w3.org/1999/xlink" height="40.55px" width="55.2px" xmlns="http://www.w3.org/2000/svg">
  <g transform="matrix(1.0, 0.0, 0.0, 1.0, -41.2, -65.6)">
    <use height="10.9" transform="matrix(1.0, 0.0, 0.0, 1.0, 73.35, 93.3)" width="16.7" xlink:href="#morphshape0"/>
  </g>
  <defs>
    <g id="morphshape0" transform="matrix(1.0, 0.0, 0.0, 1.0, -73.35, -93.3)">
      <path d="M76.75 95.15 Q69.95 96.35 76.8 95.25 83.65 94.15 79.35 100.25 82.85 99.65 85.05 99.4 86.65 105.35 88.35 103.9 90.05 102.45 90.05 99.65 90.05 96.85 86.3 94.9 82.55 92.9 83.05 93.4 83.55 93.9 76.75 95.1" fill="#33ccff" fill-rule="evenodd" stroke="none"/>
      <path d="M76.75 95.1 Q83.55 93.9 83.05 93.4 82.55 92.9 86.3 94.9 90.05 96.85 90.05 99.65 90.05 102.45 88.35 103.9 86.65 105.35 85.05 99.4 82.85 99.65 79.35 100.25 83.65 94.15 76.8 95.25 69.95 96.35 76.75 95.15" fill="none" stroke="#000000" stroke-linecap="round" stroke-linejoin="round" stroke-opacity="0.0" stroke-width="1.0"/>
    </g>
  </defs>
</svg>
