<?xml version="1.0" encoding="UTF-8" standalone="no"?>
<svg xmlns:xlink="http://www.w3.org/1999/xlink" height="40.55px" width="55.2px" xmlns="http://www.w3.org/2000/svg">
  <g transform="matrix(1.0, 0.0, 0.0, 1.0, -41.2, -65.6)">
    <use height="11.15" transform="matrix(1.0, 0.0, 0.0, 1.0, 58.25, 93.3)" width="31.8" xlink:href="#morphshape0"/>
  </g>
  <defs>
    <g id="morphshape0" transform="matrix(1.0, 0.0, 0.0, 1.0, -58.25, -93.3)">
      <path d="M74.0 95.75 Q67.2 96.95 75.05 96.15 79.05 95.2 76.35 101.1 84.65 100.15 85.25 100.2 87.1 104.95 88.55 103.3 90.0 101.65 89.4 98.95 88.8 96.25 85.75 94.7 82.7 93.1 82.0 93.7 81.1 94.35 74.1 95.6" fill="#33ccff" fill-rule="evenodd" stroke="none"/>
      <path d="M74.1 95.6 Q81.1 94.35 82.0 93.7 82.7 93.1 85.75 94.7 88.8 96.25 89.4 98.95 90.0 101.65 88.55 103.3 87.1 104.95 85.25 100.2 84.65 100.15 76.35 101.1 79.05 95.2 75.05 96.15 67.2 96.95 74.0 95.75" fill="none" stroke="#000000" stroke-linecap="round" stroke-linejoin="round" stroke-opacity="0.0" stroke-width="1.0"/>
    </g>
  </defs>
</svg>
