<?xml version="1.0" encoding="UTF-8" standalone="no"?>
<svg xmlns:xlink="http://www.w3.org/1999/xlink" height="40.55px" width="55.2px" xmlns="http://www.w3.org/2000/svg">
  <g transform="matrix(1.0, 0.0, 0.0, 1.0, -41.2, -65.6)">
    <use height="11.15" transform="matrix(1.0, 0.0, 0.0, 1.0, 58.25, 93.3)" width="31.8" xlink:href="#morphshape0"/>
  </g>
  <defs>
    <g id="morphshape0" transform="matrix(1.0, 0.0, 0.0, 1.0, -58.25, -93.3)">
      <path d="M71.35 96.3 Q64.55 97.55 73.45 97.05 74.55 96.3 74.7 101.45 84.55 101.3 85.65 101.05 87.75 104.55 88.9 102.65 90.05 100.75 88.8 98.2 87.55 95.65 85.2 94.5 82.85 93.3 80.95 94.0 78.6 94.85 71.4 96.15" fill="#33ccff" fill-rule="evenodd" stroke="none"/>
      <path d="M71.4 96.15 Q78.6 94.85 80.95 94.0 82.85 93.3 85.2 94.5 87.55 95.65 88.8 98.2 90.05 100.75 88.9 102.65 87.75 104.55 85.65 101.05 84.55 101.3 74.7 101.45 74.55 96.3 73.45 97.05 64.55 97.55 71.35 96.3" fill="none" stroke="#000000" stroke-linecap="round" stroke-linejoin="round" stroke-opacity="0.0" stroke-width="1.0"/>
    </g>
  </defs>
</svg>
