<?xml version="1.0" encoding="UTF-8" standalone="no"?>
<svg xmlns:xlink="http://www.w3.org/1999/xlink" height="40.55px" width="55.2px" xmlns="http://www.w3.org/2000/svg">
  <g transform="matrix(1.0, 0.0, 0.0, 1.0, -41.2, -65.6)">
    <use height="11.15" transform="matrix(1.0, 0.0, 0.0, 1.0, 58.25, 93.3)" width="31.8" xlink:href="#morphshape0"/>
  </g>
  <defs>
    <g id="morphshape0" transform="matrix(1.0, 0.0, 0.0, 1.0, -58.25, -93.3)">
      <path d="M68.75 96.7 Q61.9 98.0 71.8 97.8 70.0 97.2 73.0 101.6 84.35 102.2 85.95 101.65 88.3 103.9 89.15 101.8 90.0 99.7 88.15 97.3 86.3 94.9 84.65 94.15 83.0 93.4 79.85 94.25 76.1 95.3 68.7 96.65" fill="#33ccff" fill-rule="evenodd" stroke="none"/>
      <path d="M68.7 96.65 Q76.1 95.3 79.85 94.25 83.0 93.4 84.65 94.15 86.3 94.9 88.15 97.3 90.0 99.7 89.15 101.8 88.3 103.9 85.95 101.65 84.35 102.2 73.0 101.6 70.0 97.2 71.8 97.8 61.9 98.0 68.75 96.7" fill="none" stroke="#000000" stroke-linecap="round" stroke-linejoin="round" stroke-opacity="0.0" stroke-width="1.0"/>
    </g>
  </defs>
</svg>
