<?xml version="1.0" encoding="UTF-8" standalone="no"?>
<svg xmlns:xlink="http://www.w3.org/1999/xlink" height="40.55px" width="55.2px" xmlns="http://www.w3.org/2000/svg">
  <g transform="matrix(1.0, 0.0, 0.0, 1.0, -41.2, -65.6)">
    <use height="11.15" transform="matrix(1.0, 0.0, 0.0, 1.0, 58.25, 93.3)" width="31.8" xlink:href="#morphshape0"/>
  </g>
  <defs>
    <g id="morphshape0" transform="matrix(1.0, 0.0, 0.0, 1.0, -58.25, -93.3)">
      <path d="M66.05 97.35 Q59.2 98.7 70.15 98.8 65.5 98.4 71.3 102.05 84.2 103.45 86.3 102.6 88.9 103.6 89.5 101.25 90.1 98.9 87.6 96.65 85.1 94.35 84.15 94.0 83.2 93.65 78.85 94.6 73.65 95.8 66.05 97.2" fill="#33ccff" fill-rule="evenodd" stroke="none"/>
      <path d="M66.05 97.2 Q73.65 95.8 78.85 94.6 83.2 93.65 84.15 94.0 85.1 94.35 87.6 96.65 90.1 98.9 89.5 101.25 88.9 103.6 86.3 102.6 84.2 103.45 71.3 102.05 65.5 98.4 70.15 98.8 59.2 98.7 66.05 97.35" fill="none" stroke="#000000" stroke-linecap="round" stroke-linejoin="round" stroke-opacity="0.0" stroke-width="1.0"/>
    </g>
  </defs>
</svg>
