<?xml version="1.0" encoding="UTF-8" standalone="no"?>
<svg xmlns:xlink="http://www.w3.org/1999/xlink" height="40.55px" width="55.2px" xmlns="http://www.w3.org/2000/svg">
  <g transform="matrix(1.0, 0.0, 0.0, 1.0, -41.2, -65.6)">
    <use height="11.15" transform="matrix(1.0, 0.0, 0.0, 1.0, 58.25, 93.3)" width="31.8" xlink:href="#morphshape0"/>
  </g>
  <defs>
    <g id="morphshape0" transform="matrix(1.0, 0.0, 0.0, 1.0, -58.25, -93.3)">
      <path d="M63.35 97.85 Q56.5 99.25 68.45 99.65 60.9 99.4 69.55 102.3 83.95 104.45 86.55 103.3 89.4 103.05 89.7 100.5 90.0 97.95 86.9 95.85 83.8 93.7 83.55 93.75 83.3 93.8 77.75 94.85 71.15 96.25 63.35 97.7" fill="#33ccff" fill-rule="evenodd" stroke="none"/>
      <path d="M63.35 97.7 Q71.15 96.25 77.75 94.85 83.3 93.8 83.55 93.75 83.8 93.7 86.9 95.85 90.0 97.95 89.7 100.5 89.4 103.05 86.55 103.3 83.95 104.45 69.55 102.3 60.9 99.4 68.45 99.65 56.5 99.25 63.35 97.85" fill="none" stroke="#000000" stroke-linecap="round" stroke-linejoin="round" stroke-opacity="0.0" stroke-width="1.0"/>
    </g>
  </defs>
</svg>
