<?xml version="1.0" encoding="UTF-8" standalone="no"?>
<svg xmlns:xlink="http://www.w3.org/1999/xlink" height="40.55px" width="55.2px" xmlns="http://www.w3.org/2000/svg">
  <g transform="matrix(1.0, 0.0, 0.0, 1.0, -41.2, -65.6)">
    <use height="18.9" transform="matrix(1.0, 0.0, 0.0, 1.0, 44.7, 87.25)" width="50.45" xlink:href="#morphshape0"/>
  </g>
  <defs>
    <g id="morphshape0" transform="matrix(1.0, 0.0, 0.0, 1.0, -44.7, -87.25)">
      <path d="M60.65 98.25 L60.65 98.25 Q57.3 98.95 58.65 99.5 61.15 99.85 63.6 100.2 65.2 100.3 66.75 100.4 59.45 100.35 62.85 101.4 63.8 101.65 64.75 101.85 66.3 102.15 67.8 102.45 72.25 103.2 76.7 103.9 84.5 104.95 86.8 104.05 L86.9 103.95 Q89.6 102.65 90.0 100.4 L90.05 99.65 Q89.95 99.05 89.9 98.5 89.4 96.9 87.5 95.6 L86.3 94.9 85.3 94.35 84.75 94.05 Q82.65 93.0 83.05 93.4 83.25 93.6 82.1 93.95 L79.1 94.65 77.8 94.9 76.75 95.1 72.75 95.85 Q70.5 96.3 68.25 96.75 L67.55 96.85 Q66.45 97.1 65.35 97.3 63.0 97.8 60.65 98.25" fill="#33ccff" fill-rule="evenodd" stroke="none"/>
      <path d="M60.65 98.25 Q63.0 97.8 65.35 97.3 66.45 97.1 67.55 96.85 L68.25 96.75 Q70.5 96.3 72.75 95.85 L76.75 95.1 77.8 94.9 79.1 94.65 82.1 93.95 Q83.25 93.6 83.05 93.4 82.65 93.0 84.75 94.05 L85.3 94.35 86.3 94.9 87.5 95.6 Q89.4 96.9 89.9 98.5 89.95 99.05 90.05 99.65 L90.0 100.4 Q89.6 102.65 86.9 103.95 L86.8 104.05 Q84.5 104.95 76.7 103.9 72.25 103.2 67.8 102.45 66.3 102.15 64.75 101.85 63.8 101.65 62.85 101.4 59.45 100.35 66.75 100.4 65.2 100.3 63.6 100.2 61.15 99.85 58.65 99.5 57.3 98.95 60.65 98.25 L60.65 98.25 Z" fill="none" stroke="#000000" stroke-linecap="round" stroke-linejoin="round" stroke-opacity="0.0" stroke-width="1.0"/>
    </g>
  </defs>
</svg>
