<?xml version="1.0" encoding="UTF-8" standalone="no"?>
<svg xmlns:xlink="http://www.w3.org/1999/xlink" height="40.55px" width="55.2px" xmlns="http://www.w3.org/2000/svg">
  <g transform="matrix(1.0, 0.0, 0.0, 1.0, -41.2, -65.6)">
    <use height="18.9" transform="matrix(1.0, 0.0, 0.0, 1.0, 44.7, 87.25)" width="50.45" xlink:href="#morphshape0"/>
  </g>
  <defs>
    <g id="morphshape0" transform="matrix(1.0, 0.0, 0.0, 1.0, -44.7, -87.25)">
      <path d="M55.2 98.75 L55.2 98.75 Q53.4 99.7 54.75 100.55 57.2 101.7 60.45 101.55 61.45 102.2 63.8 102.3 60.3 102.15 63.95 102.75 65.2 102.2 65.75 103.1 67.35 103.55 69.25 103.75 73.75 104.25 79.2 104.0 88.3 103.55 89.15 101.3 L89.25 101.2 Q91.6 99.2 89.9 97.65 L89.75 96.95 Q89.5 96.35 89.2 95.8 88.2 94.4 85.95 93.25 L84.5 92.6 83.25 92.1 82.6 91.85 Q80.75 91.15 80.6 91.45 80.45 91.65 79.35 91.95 L75.9 92.6 74.4 92.85 73.2 93.05 68.5 93.85 Q65.35 94.45 63.4 95.2 L62.7 95.55 Q61.6 96.1 60.6 96.75 57.0 97.8 55.35 98.5" fill="#33ccff" fill-rule="evenodd" stroke="none"/>
      <path d="M55.35 98.5 Q57.0 97.8 60.6 96.75 61.6 96.1 62.7 95.55 L63.4 95.2 Q65.35 94.45 68.5 93.85 L73.2 93.05 74.4 92.85 75.9 92.6 79.35 91.95 Q80.45 91.65 80.6 91.45 80.75 91.15 82.6 91.85 L83.25 92.1 84.5 92.6 85.95 93.25 Q88.2 94.4 89.2 95.8 89.5 96.35 89.75 96.95 L89.9 97.65 Q91.6 99.2 89.25 101.2 L89.15 101.3 Q88.3 103.55 79.2 104.0 73.75 104.25 69.25 103.75 67.35 103.55 65.75 103.1 65.2 102.2 63.95 102.75 60.3 102.15 63.8 102.3 61.45 102.2 60.45 101.55 57.2 101.7 54.75 100.55 53.4 99.7 55.2 98.75 L55.2 98.75" fill="none" stroke="#000000" stroke-linecap="round" stroke-linejoin="round" stroke-opacity="0.0" stroke-width="1.0"/>
    </g>
  </defs>
</svg>
