<?xml version="1.0" encoding="UTF-8" standalone="no"?>
<svg xmlns:xlink="http://www.w3.org/1999/xlink" height="40.55px" width="55.2px" xmlns="http://www.w3.org/2000/svg">
  <g transform="matrix(1.0, 0.0, 0.0, 1.0, -41.2, -65.6)">
    <use height="25.3" transform="matrix(1.0, 0.0, 0.0, 1.0, 41.3, 80.85)" width="53.85" xlink:href="#morphshape0"/>
  </g>
  <defs>
    <g id="morphshape0" transform="matrix(1.0, 0.0, 0.0, 1.0, -41.3, -80.85)">
      <path d="M44.7 99.0 L44.7 99.0 Q46.1 100.6 47.45 102.2 L47.45 102.2 Q48.55 103.6 50.3 104.05 L54.65 103.9 Q54.5 104.85 55.6 105.35 58.05 106.5 66.75 105.25 67.9 103.9 68.3 104.25 L68.4 105.3 68.4 105.4 70.25 105.95 75.05 106.1 75.75 106.0 77.2 105.8 78.2 105.6 85.05 103.95 Q86.55 103.4 88.05 102.9 93.35 100.9 94.65 98.45 95.4 97.0 94.75 95.4 95.25 94.4 95.15 93.7 95.0 92.75 93.95 92.25 92.75 91.7 90.4 91.65 89.6 90.8 88.2 90.05 L86.95 89.5 83.25 88.3 79.4 87.4 78.55 87.3 76.9 87.35 74.0 87.65 70.95 87.95 69.65 88.1 67.7 88.4 64.0 88.85 59.9 89.55 Q57.0 90.15 55.35 90.85 54.15 91.35 53.6 91.95 L52.9 92.85 Q51.75 94.1 51.0 95.65 50.5 95.85 50.0 96.05 L48.6 96.55 Q44.8 98.05 44.7 99.0" fill="#33ccff" fill-rule="evenodd" stroke="none"/>
      <path d="M44.7 99.0 Q44.8 98.05 48.6 96.55 L50.0 96.05 Q50.5 95.85 51.0 95.65 51.75 94.1 52.9 92.85 L53.6 91.95 Q54.15 91.35 55.35 90.85 57.0 90.15 59.9 89.55 L64.0 88.85 67.7 88.4 69.65 88.1 70.95 87.95 74.0 87.65 76.9 87.35 78.55 87.3 79.4 87.4 83.25 88.3 86.95 89.5 88.2 90.05 Q89.6 90.8 90.4 91.65 92.75 91.7 93.95 92.25 95.0 92.75 95.15 93.7 95.25 94.4 94.75 95.4 95.4 97.0 94.65 98.45 93.35 100.9 88.05 102.9 86.55 103.4 85.05 103.95 L78.2 105.6 77.2 105.8 75.75 106.0 75.05 106.1 70.25 105.95 68.4 105.4 68.4 105.3 68.3 104.25 Q67.9 103.9 66.75 105.25 58.05 106.5 55.6 105.35 54.5 104.85 54.65 103.9 L50.3 104.05 Q48.55 103.6 47.45 102.2 L47.45 102.2 Q46.1 100.6 44.7 99.0 L44.7 99.0 Z" fill="none" stroke="#000000" stroke-linecap="round" stroke-linejoin="round" stroke-opacity="0.0" stroke-width="1.0"/>
    </g>
  </defs>
</svg>
