<?xml version="1.0" encoding="UTF-8" standalone="no"?>
<svg xmlns:xlink="http://www.w3.org/1999/xlink" height="40.55px" width="55.2px" xmlns="http://www.w3.org/2000/svg">
  <g transform="matrix(1.0, 0.0, 0.0, 1.0, -41.2, -65.6)">
    <use height="25.3" transform="matrix(1.0, 0.0, 0.0, 1.0, 41.3, 80.85)" width="53.85" xlink:href="#morphshape0"/>
  </g>
  <defs>
    <g id="morphshape0" transform="matrix(1.0, 0.0, 0.0, 1.0, -41.3, -80.85)">
      <path d="M43.5 96.95 L43.5 96.95 Q44.45 99.05 45.7 100.8 L45.7 100.8 Q46.75 102.4 48.4 102.85 L52.8 103.25 Q53.0 104.0 54.05 104.45 57.2 105.7 65.85 104.95 67.0 104.05 67.6 104.3 L68.1 105.0 68.1 105.1 70.1 105.5 75.15 105.45 75.85 105.35 77.35 105.15 78.4 104.95 85.75 103.3 Q87.55 102.75 88.8 102.25 93.75 100.5 94.55 96.85 95.0 95.3 94.5 93.7 94.75 92.7 94.65 91.9 94.65 90.95 93.95 90.25 93.15 89.45 90.65 89.1 89.7 88.35 88.15 87.7 L86.8 87.2 82.8 86.15 78.85 85.4 78.0 85.3 76.25 85.3 73.15 85.4 69.9 85.6 68.55 85.7 66.5 85.95 62.6 86.4 58.35 87.0 Q55.55 87.55 53.6 88.15 52.4 88.6 51.65 89.1 L50.85 89.8 Q49.25 90.9 48.45 92.25 47.95 92.55 47.6 92.85 L46.55 93.7 Q43.7 95.45 43.6 97.0" fill="#33ccff" fill-rule="evenodd" stroke="none"/>
      <path d="M43.6 97.0 Q43.7 95.45 46.55 93.7 L47.6 92.85 Q47.95 92.55 48.45 92.25 49.25 90.9 50.85 89.8 L51.65 89.1 Q52.4 88.6 53.6 88.15 55.55 87.55 58.35 87.0 L62.6 86.4 66.5 85.95 68.55 85.7 69.9 85.6 73.15 85.4 76.25 85.3 78.0 85.3 78.85 85.4 82.8 86.15 86.8 87.2 88.15 87.7 Q89.7 88.35 90.65 89.1 93.15 89.45 93.95 90.25 94.65 90.95 94.65 91.9 94.75 92.7 94.5 93.7 95.0 95.3 94.55 96.85 93.75 100.5 88.8 102.25 87.55 102.75 85.75 103.3 L78.4 104.95 77.35 105.15 75.85 105.35 75.15 105.45 70.1 105.5 68.1 105.1 68.1 105.0 67.6 104.3 Q67.0 104.05 65.85 104.95 57.2 105.7 54.05 104.45 53.0 104.0 52.8 103.25 L48.4 102.85 Q46.75 102.4 45.7 100.8 L45.7 100.8 Q44.45 99.05 43.5 96.95 L43.5 96.95" fill="none" stroke="#000000" stroke-linecap="round" stroke-linejoin="round" stroke-opacity="0.0" stroke-width="1.0"/>
    </g>
  </defs>
</svg>
