<?xml version="1.0" encoding="UTF-8" standalone="no"?>
<svg xmlns:xlink="http://www.w3.org/1999/xlink" height="40.55px" width="55.2px" xmlns="http://www.w3.org/2000/svg">
  <g transform="matrix(1.0, 0.0, 0.0, 1.0, -41.2, -65.6)">
    <use height="25.3" transform="matrix(1.0, 0.0, 0.0, 1.0, 41.3, 80.85)" width="53.85" xlink:href="#morphshape0"/>
  </g>
  <defs>
    <g id="morphshape0" transform="matrix(1.0, 0.0, 0.0, 1.0, -41.3, -80.85)">
      <path d="M42.25 94.95 L42.25 95.0 Q42.75 97.65 43.85 99.55 L43.85 99.6 Q44.85 101.45 46.4 101.95 L50.9 102.9 Q51.5 103.45 52.5 103.85 56.35 105.2 64.9 105.0 66.0 104.55 66.8 104.7 L67.7 105.05 67.75 105.1 69.9 105.3 75.2 105.05 75.9 104.95 77.5 104.7 78.6 104.5 86.5 102.8 Q88.65 102.2 89.65 101.7 94.25 100.2 94.55 95.35 94.7 93.7 94.35 92.05 94.35 91.05 94.2 90.15 94.4 89.2 94.05 88.3 93.65 87.25 91.0 86.55 89.9 85.9 88.2 85.35 L86.7 84.9 82.4 84.0 78.3 83.4 77.45 83.3 75.6 83.25 72.3 83.15 68.85 83.2 67.45 83.25 65.3 83.45 61.2 83.9 56.8 84.4 Q54.1 84.9 51.85 85.4 50.65 85.8 49.65 86.2 L48.7 86.7 Q46.65 87.65 45.8 88.8 45.3 89.2 45.1 89.65 L44.4 90.85 Q42.5 92.85 42.45 95.0" fill="#33ccff" fill-rule="evenodd" stroke="none"/>
      <path d="M42.45 95.0 Q42.5 92.85 44.4 90.85 L45.1 89.65 Q45.3 89.2 45.8 88.8 46.65 87.65 48.7 86.7 L49.65 86.2 Q50.65 85.8 51.85 85.4 54.1 84.9 56.8 84.4 L61.2 83.9 65.3 83.45 67.45 83.25 68.85 83.2 72.3 83.15 75.6 83.25 77.45 83.3 78.3 83.4 82.4 84.0 86.7 84.9 88.2 85.35 Q89.9 85.9 91.0 86.55 93.65 87.25 94.05 88.3 94.4 89.2 94.2 90.15 94.35 91.05 94.35 92.05 94.7 93.7 94.55 95.35 94.25 100.2 89.65 101.7 88.65 102.2 86.5 102.8 L78.6 104.5 77.5 104.7 75.9 104.95 75.2 105.05 69.9 105.3 67.75 105.1 67.7 105.05 66.8 104.7 Q66.0 104.55 64.9 105.0 56.35 105.2 52.5 103.85 51.5 103.45 50.9 102.9 L46.4 101.95 Q44.85 101.45 43.85 99.6 L43.85 99.55 Q42.75 97.65 42.25 95.0 L42.25 94.95" fill="none" stroke="#000000" stroke-linecap="round" stroke-linejoin="round" stroke-opacity="0.0" stroke-width="1.0"/>
    </g>
  </defs>
</svg>
