<?xml version="1.0" encoding="UTF-8" standalone="no"?>
<svg xmlns:xlink="http://www.w3.org/1999/xlink" height="40.55px" width="55.2px" xmlns="http://www.w3.org/2000/svg">
  <g transform="matrix(1.0, 0.0, 0.0, 1.0, -41.2, -65.6)">
    <use height="31.75" transform="matrix(1.0, 0.0, 0.0, 1.0, 41.3, 73.4)" width="55.1" xlink:href="#morphshape0"/>
  </g>
  <defs>
    <g id="morphshape0" transform="matrix(1.0, 0.0, 0.0, 1.0, -41.3, -73.4)">
      <path d="M44.6 89.35 L44.6 89.45 44.6 89.45 Q44.65 91.95 45.55 93.6 L45.75 94.1 Q46.45 95.4 47.4 95.95 L48.1 96.25 53.5 97.8 54.05 98.0 55.7 98.4 Q60.55 99.35 67.6 99.65 L67.8 99.65 68.75 99.7 69.05 99.7 70.5 99.8 71.25 99.85 72.45 99.9 74.4 99.95 74.95 99.95 76.4 99.9 77.0 99.8 77.4 99.7 78.55 99.5 79.65 99.3 Q84.2 98.45 88.15 97.45 L90.05 96.7 Q93.05 95.65 93.55 91.95 L93.7 90.05 Q93.7 88.55 93.55 87.1 L93.3 85.4 93.2 85.05 Q93.4 84.2 93.1 83.25 92.65 81.7 87.8 80.5 L85.95 80.1 Q81.85 79.35 77.05 78.95 L75.4 78.85 69.95 78.5 68.95 78.5 66.9 78.55 61.6 79.0 52.8 80.15 Q48.8 80.95 47.05 82.0 46.0 82.65 45.45 84.85 44.35 86.9 44.5 89.3 M41.45 90.55 L41.45 90.7 41.45 90.8 Q41.5 93.85 42.25 96.15 L42.25 96.2 42.7 97.25 Q43.35 98.5 43.9 99.25 L44.15 99.55 Q45.8 100.15 46.45 101.4 L48.85 102.6 49.3 102.75 51.3 103.3 57.55 104.4 Q61.15 104.85 65.15 105.1 L65.2 105.1 66.55 105.1 69.0 105.1 69.0 105.1 71.8 104.95 72.9 104.85 74.65 104.7 74.75 104.7 74.95 104.7 75.4 104.6 75.5 104.6 77.05 104.35 77.25 104.35 78.25 104.15 78.5 104.15 79.2 104.05 Q87.35 102.55 89.95 101.55 L90.65 101.25 Q93.45 100.4 94.3 98.1 94.8 96.8 94.85 94.75 L94.85 93.65 Q94.75 91.3 94.4 89.2 L94.25 87.85 94.35 87.55 94.45 87.1 94.6 85.7 Q94.65 83.95 92.85 82.4 92.15 80.95 90.25 80.75 L88.9 80.6 87.05 80.5 85.85 80.35 85.25 80.1 84.0 79.8 Q81.9 79.45 79.5 79.2 L76.65 78.95 76.25 78.95 72.05 78.55 69.5 78.5 69.4 78.5 69.2 78.5 69.15 78.5 69.05 78.5 65.35 78.6 63.1 78.75 62.9 78.75 62.8 78.75 60.95 78.95 60.75 78.95 60.4 78.95 57.45 79.2 54.85 79.5 54.75 79.5 54.65 79.5 51.25 79.95 50.45 80.15 Q48.4 80.7 46.4 81.25 L44.7 81.9 Q43.5 82.5 42.9 82.85 42.45 83.1 42.35 83.55 L42.3 83.95 Q42.1 84.6 42.0 85.2 L41.95 85.4 41.85 86.2 Q41.3 88.1 41.3 90.35" fill="#33ccff" fill-rule="evenodd" stroke="none"/>
      <path d="M44.7 89.4 L44.7 89.5 44.7 89.5 Q44.75 92.0 45.65 93.65 L45.85 94.15 Q46.55 95.45 47.5 96.0 L48.2 96.3 53.6 97.85 54.15 98.05 55.8 98.45 Q60.65 99.4 67.7 99.7 L67.9 99.7 68.85 99.75 69.15 99.75 70.6 99.85 71.35 99.9 72.55 99.95 74.5 100.0 75.05 100.0 76.5 99.95 77.1 99.85 77.5 99.75 78.65 99.55 79.75 99.35 Q84.3 98.5 88.25 97.5 L90.15 96.75 Q93.15 95.7 93.65 92.0 L93.8 90.1 Q93.8 88.6 93.65 87.15 L93.4 85.45 93.3 85.1 Q93.5 84.25 93.2 83.3 92.75 81.75 87.9 80.55 L86.05 80.15 Q81.95 79.4 77.15 79.0 L75.5 78.9 70.05 78.55 69.05 78.55 67.0 78.6 61.7 79.05 52.9 80.2 Q48.9 81.0 47.15 82.05 46.1 82.7 45.55 84.9 44.45 86.95 44.6 89.35" fill="#45cefb" fill-rule="evenodd" stroke="none"/>
      <path d="M41.3 90.35 Q41.3 88.1 41.85 86.2 L41.95 85.4 42.0 85.2 Q42.1 84.6 42.3 83.95 L42.35 83.55 Q42.45 83.1 42.9 82.85 43.5 82.5 44.7 81.9 L46.4 81.25 Q48.4 80.7 50.45 80.15 L51.25 79.95 54.65 79.5 54.75 79.5 54.85 79.5 57.45 79.2 60.4 78.95 60.75 78.95 60.95 78.95 62.8 78.75 62.9 78.75 63.1 78.75 65.35 78.6 69.05 78.5 69.15 78.5 69.2 78.5 69.4 78.5 69.5 78.5 72.05 78.55 76.25 78.95 76.65 78.95 79.5 79.2 Q81.9 79.45 84.0 79.8 L85.25 80.1 85.85 80.35 87.05 80.5 88.9 80.6 90.25 80.75 Q92.15 80.95 92.85 82.4 94.65 83.95 94.6 85.7 L94.45 87.1 94.35 87.55 94.25 87.85 94.4 89.2 Q94.75 91.3 94.85 93.65 L94.85 94.75 Q94.8 96.8 94.3 98.1 93.45 100.4 90.65 101.25 L89.95 101.55 Q87.35 102.55 79.2 104.05 L78.5 104.15 78.25 104.15 77.25 104.35 77.05 104.35 75.5 104.6 75.4 104.6 74.95 104.7 74.75 104.7 74.65 104.7 72.9 104.85 71.8 104.95 69.0 105.1 69.0 105.1 66.55 105.1 65.2 105.1 65.15 105.1 Q61.15 104.85 57.55 104.4 L51.3 103.3 49.3 102.75 48.85 102.6 46.45 101.4 Q45.8 100.15 44.15 99.55 L43.9 99.25 Q43.35 98.5 42.7 97.25 L42.25 96.2 42.25 96.15 Q41.5 93.85 41.45 90.8 L41.45 90.7 41.45 90.55 M44.5 89.3 Q44.35 86.9 45.45 84.85 46.0 82.65 47.05 82.0 48.8 80.95 52.8 80.15 L61.6 79.0 66.9 78.55 68.95 78.5 69.95 78.5 75.4 78.85 77.05 78.95 Q81.85 79.35 85.95 80.1 L87.8 80.5 Q92.65 81.7 93.1 83.25 93.4 84.2 93.2 85.05 L93.3 85.4 93.55 87.1 Q93.7 88.55 93.7 90.05 L93.55 91.95 Q93.05 95.65 90.05 96.7 L88.15 97.45 Q84.2 98.45 79.65 99.3 L78.55 99.5 77.4 99.7 77.0 99.8 76.4 99.9 74.95 99.95 74.4 99.95 72.45 99.9 71.25 99.85 70.5 99.8 69.05 99.7 68.75 99.7 67.8 99.65 67.6 99.65 Q60.55 99.35 55.7 98.4 L54.05 98.0 53.5 97.8 48.1 96.25 47.4 95.95 Q46.45 95.4 45.75 94.1 L45.55 93.6 Q44.65 91.95 44.6 89.45 L44.6 89.45 44.6 89.35 Q44.45 86.95 45.55 84.9 46.1 82.7 47.15 82.05 48.9 81.0 52.9 80.2 L61.7 79.05 67.0 78.6 69.05 78.55 70.05 78.55 75.5 78.9 77.15 79.0 Q81.95 79.4 86.05 80.15 L87.9 80.55 Q92.75 81.75 93.2 83.3 93.5 84.25 93.3 85.1 L93.4 85.45 93.65 87.15 Q93.8 88.6 93.8 90.1 L93.65 92.0 Q93.15 95.7 90.15 96.75 L88.25 97.5 Q84.3 98.5 79.75 99.35 L78.65 99.55 77.5 99.75 77.1 99.85 76.5 99.95 75.05 100.0 74.5 100.0 72.55 99.95 71.35 99.9 70.6 99.85 69.15 99.75 68.85 99.75 67.9 99.7 67.7 99.7 Q60.65 99.4 55.8 98.45 L54.15 98.05 53.6 97.85 48.2 96.3 47.5 96.0 Q46.55 95.45 45.85 94.15 L45.65 93.65 Q44.75 92.0 44.7 89.5 L44.7 89.5 44.7 89.4" fill="none" stroke="#000000" stroke-linecap="round" stroke-linejoin="round" stroke-opacity="0.0" stroke-width="1.0"/>
    </g>
  </defs>
</svg>
