<?xml version="1.0" encoding="UTF-8" standalone="no"?>
<svg xmlns:xlink="http://www.w3.org/1999/xlink" height="40.55px" width="55.2px" xmlns="http://www.w3.org/2000/svg">
  <g transform="matrix(1.0, 0.0, 0.0, 1.0, -41.2, -65.6)">
    <use height="31.75" transform="matrix(1.0, 0.0, 0.0, 1.0, 41.3, 73.4)" width="55.1" xlink:href="#morphshape0"/>
  </g>
  <defs>
    <g id="morphshape0" transform="matrix(1.0, 0.0, 0.0, 1.0, -41.3, -73.4)">
      <path d="M47.75 85.85 L47.75 85.9 47.75 85.9 Q47.9 88.05 48.95 89.4 L49.2 89.8 Q49.9 90.85 50.85 91.25 L51.5 91.45 56.35 92.6 56.85 92.75 58.3 93.0 Q63.05 93.7 68.9 94.05 L69.1 94.05 69.95 94.15 70.25 94.2 71.55 94.4 72.25 94.5 73.35 94.7 75.05 95.0 75.55 95.05 76.8 95.1 77.35 95.05 77.7 95.0 78.7 94.85 79.7 94.7 Q84.05 94.05 87.15 93.05 L88.75 92.35 Q91.25 91.2 91.75 88.0 L92.05 86.3 Q92.2 84.9 92.05 83.55 L91.9 82.05 91.85 81.85 Q91.85 81.1 91.25 80.3 90.3 79.1 86.25 78.1 L84.65 77.75 Q80.9 77.15 76.8 76.75 L75.4 76.65 70.65 76.35 69.8 76.35 67.95 76.4 63.25 76.75 55.5 77.8 Q51.95 78.5 50.3 79.4 49.5 79.85 48.75 81.7 47.45 83.5 47.75 85.55 M41.3 87.8 L41.3 87.9 41.3 88.05 Q41.35 91.0 41.95 93.6 L41.95 93.7 42.3 94.8 Q42.8 96.05 42.85 97.2 L42.9 97.7 Q44.6 98.35 44.3 100.3 L46.65 101.9 47.1 102.1 49.2 102.65 55.75 104.0 Q59.35 104.65 63.75 104.95 L63.8 104.95 65.2 104.95 67.75 105.0 67.75 105.0 70.7 104.9 71.85 104.8 73.65 104.7 73.8 104.7 73.95 104.7 74.45 104.6 74.6 104.6 76.2 104.4 76.4 104.4 77.45 104.25 77.75 104.25 78.5 104.15 Q86.9 102.7 89.75 101.65 L90.45 101.35 Q93.6 100.35 94.35 98.1 94.8 96.8 94.85 94.55 L94.85 93.4 Q94.7 91.0 94.45 88.7 L94.45 87.35 94.5 87.0 94.55 86.5 94.65 85.05 Q94.75 82.9 94.3 80.85 94.55 78.45 92.4 78.5 L90.95 78.5 89.0 78.6 87.75 78.55 87.15 78.1 85.9 77.65 Q83.85 77.2 81.15 76.85 L78.2 76.5 77.85 76.5 73.5 76.05 70.85 76.0 70.7 76.0 70.5 76.0 70.4 76.0 70.3 76.0 66.45 76.05 64.1 76.15 63.9 76.15 63.8 76.15 61.85 76.25 61.65 76.25 61.15 76.25 58.05 76.55 55.35 76.85 55.25 76.85 55.15 76.85 51.55 77.25 50.75 77.45 Q48.65 77.95 46.6 78.55 L44.85 79.2 Q43.55 79.85 42.8 79.95 42.25 80.0 42.05 80.45 L41.95 80.85 Q41.75 81.55 41.75 82.2 L41.75 82.45 41.8 83.3 Q41.3 85.3 41.3 87.7" fill="#33ccff" fill-rule="evenodd" stroke="none"/>
      <path d="M47.75 86.15 L47.75 86.2 47.75 86.2 Q47.9 88.35 48.95 89.7 L49.2 90.1 Q49.9 91.15 50.85 91.55 L51.5 91.75 56.35 92.9 56.85 93.05 58.3 93.3 Q63.05 94.0 68.9 94.35 L69.1 94.35 69.95 94.45 70.25 94.5 71.55 94.7 72.25 94.8 73.35 95.0 75.05 95.3 75.55 95.35 76.8 95.4 77.35 95.35 77.7 95.3 78.7 95.15 79.7 95.0 Q84.05 94.35 87.15 93.35 L88.75 92.65 Q91.25 91.5 91.75 88.3 L92.05 86.6 Q92.2 85.2 92.05 83.85 L91.9 82.35 91.85 82.15 Q91.85 81.4 91.25 80.6 90.3 79.4 86.25 78.4 L84.65 78.05 Q80.9 77.45 76.8 77.05 L75.4 76.95 70.65 76.65 69.8 76.65 67.95 76.7 63.25 77.05 55.5 78.1 Q51.95 78.8 50.3 79.7 49.5 80.15 48.75 82.0 47.45 83.8 47.75 85.85" fill="#56d1f6" fill-rule="evenodd" stroke="none"/>
      <path d="M41.3 87.7 Q41.3 85.3 41.8 83.3 L41.75 82.45 41.75 82.2 Q41.75 81.55 41.95 80.85 L42.05 80.45 Q42.25 80.0 42.8 79.95 43.55 79.85 44.85 79.2 L46.6 78.55 Q48.65 77.95 50.75 77.45 L51.55 77.25 55.15 76.85 55.25 76.85 55.35 76.85 58.05 76.55 61.15 76.25 61.65 76.25 61.85 76.25 63.8 76.15 63.9 76.15 64.1 76.15 66.45 76.05 70.3 76.0 70.4 76.0 70.5 76.0 70.7 76.0 70.85 76.0 73.5 76.05 77.85 76.5 78.2 76.5 81.15 76.85 Q83.85 77.2 85.9 77.65 L87.15 78.1 87.75 78.55 89.0 78.6 90.95 78.5 92.4 78.5 Q94.55 78.45 94.3 80.85 94.75 82.9 94.65 85.05 L94.55 86.5 94.5 87.0 94.45 87.35 94.45 88.7 Q94.7 91.0 94.85 93.4 L94.85 94.55 Q94.8 96.8 94.35 98.1 93.6 100.35 90.45 101.35 L89.75 101.65 Q86.9 102.7 78.5 104.15 L77.75 104.25 77.45 104.25 76.4 104.4 76.2 104.4 74.6 104.6 74.45 104.6 73.95 104.7 73.8 104.7 73.65 104.7 71.85 104.8 70.7 104.9 67.75 105.0 67.75 105.0 65.2 104.95 63.8 104.95 63.75 104.95 Q59.35 104.65 55.75 104.0 L49.2 102.65 47.1 102.1 46.65 101.9 44.3 100.3 Q44.6 98.35 42.9 97.7 L42.85 97.2 Q42.8 96.05 42.3 94.8 L41.95 93.7 41.95 93.6 Q41.35 91.0 41.3 88.05 L41.3 87.9 41.3 87.8 M47.75 85.55 Q47.45 83.5 48.75 81.7 49.5 79.85 50.3 79.4 51.95 78.5 55.5 77.8 L63.25 76.75 67.95 76.4 69.8 76.35 70.65 76.35 75.4 76.65 76.8 76.75 Q80.9 77.15 84.65 77.75 L86.25 78.1 Q90.3 79.1 91.25 80.3 91.85 81.1 91.85 81.85 L91.9 82.05 92.05 83.55 Q92.2 84.9 92.05 86.3 L91.75 88.0 Q91.25 91.2 88.75 92.35 L87.15 93.05 Q84.05 94.05 79.7 94.7 L78.7 94.85 77.7 95.0 77.35 95.05 76.8 95.1 75.55 95.05 75.05 95.0 73.35 94.7 72.25 94.5 71.55 94.4 70.25 94.2 69.95 94.15 69.1 94.05 68.9 94.05 Q63.05 93.7 58.3 93.0 L56.85 92.75 56.35 92.6 51.5 91.45 50.85 91.25 Q49.9 90.85 49.2 89.8 L48.95 89.4 Q47.9 88.05 47.75 85.9 L47.75 85.9 47.75 85.85 Q47.45 83.8 48.75 82.0 49.5 80.15 50.3 79.7 51.95 78.8 55.5 78.1 L63.25 77.05 67.95 76.7 69.8 76.65 70.65 76.65 75.4 76.95 76.8 77.05 Q80.9 77.45 84.65 78.05 L86.25 78.4 Q90.3 79.4 91.25 80.6 91.85 81.4 91.85 82.15 L91.9 82.35 92.05 83.85 Q92.2 85.2 92.05 86.6 L91.75 88.3 Q91.25 91.5 88.75 92.65 L87.15 93.35 Q84.05 94.35 79.7 95.0 L78.7 95.15 77.7 95.3 77.35 95.35 76.8 95.4 75.55 95.35 75.05 95.3 73.35 95.0 72.25 94.8 71.55 94.7 70.25 94.5 69.95 94.45 69.1 94.35 68.9 94.35 Q63.05 94.0 58.3 93.3 L56.85 93.05 56.35 92.9 51.5 91.75 50.85 91.55 Q49.9 91.15 49.2 90.1 L48.95 89.7 Q47.9 88.35 47.75 86.2 L47.75 86.2 47.75 86.15" fill="none" stroke="#000000" stroke-linecap="round" stroke-linejoin="round" stroke-opacity="0.0" stroke-width="1.0"/>
    </g>
  </defs>
</svg>
