<?xml version="1.0" encoding="UTF-8" standalone="no"?>
<svg xmlns:xlink="http://www.w3.org/1999/xlink" height="40.55px" width="55.2px" xmlns="http://www.w3.org/2000/svg">
  <g transform="matrix(1.0, 0.0, 0.0, 1.0, -41.2, -65.6)">
    <use height="31.7" transform="matrix(1.0, 0.0, 0.0, 1.0, 41.3, 73.4)" width="55.1" xlink:href="#shape0"/>
  </g>
  <defs>
    <g id="shape0" transform="matrix(1.0, 0.0, 0.0, 1.0, -41.3, -73.4)">
      <path d="M94.85 86.05 L94.85 86.6 94.65 88.35 95.0 94.55 Q95.0 97.0 94.65 98.35 94.0 100.8 89.8 102.0 86.7 103.15 78.0 104.55 L76.85 104.65 75.5 104.75 73.6 104.9 73.0 104.95 72.7 104.95 70.8 105.0 69.6 105.05 66.5 105.1 63.85 105.0 62.35 104.95 Q57.55 104.55 54.0 103.65 L47.15 102.05 Q45.25 101.75 44.45 101.15 L42.2 99.15 Q43.45 96.45 41.7 95.75 42.4 93.75 42.0 92.3 L41.75 91.15 Q41.3 88.1 41.3 85.2 L41.3 85.0 Q41.25 82.45 41.7 80.35 L41.5 79.45 Q41.3 78.6 41.55 77.7 41.75 76.75 42.7 76.95 43.65 77.15 45.05 76.45 L46.85 75.75 Q49.3 74.9 51.95 74.45 L55.75 74.15 55.85 74.15 55.95 74.15 58.75 73.9 62.0 73.55 62.85 73.5 64.9 73.5 65.0 73.5 65.2 73.5 67.7 73.45 71.7 73.45 71.8 73.45 72.15 73.5 72.35 73.5 75.1 73.6 79.65 74.15 83.05 74.6 Q86.1 75.05 88.05 75.65 L89.25 76.25 89.8 76.9 91.15 76.85 94.8 76.35 Q97.2 76.05 96.0 79.4 94.8 82.7 94.85 86.05 M90.35 78.4 Q89.95 76.85 84.55 75.6 L76.4 74.55 71.2 74.25 68.9 74.3 65.4 74.55 58.3 75.35 Q55.1 76.0 53.55 76.8 52.8 77.2 52.1 78.55 50.55 80.1 51.0 81.8 L51.0 81.85 Q51.25 83.65 52.5 84.65 53.35 85.65 54.5 85.9 L59.35 86.7 61.0 86.9 70.3 87.8 71.2 88.05 72.6 88.45 74.25 89.0 75.65 89.55 76.05 89.7 77.1 89.85 77.9 89.85 Q83.25 89.4 85.95 88.15 89.15 87.05 89.7 83.6 90.5 81.55 90.35 79.65 L90.35 78.4" fill="#33ccff" fill-rule="evenodd" stroke="none"/>
      <path d="M90.35 78.4 L90.35 79.65 Q90.5 81.55 89.7 83.6 89.15 87.05 85.95 88.15 83.25 89.4 77.9 89.85 L77.1 89.85 76.05 89.7 75.65 89.55 74.25 89.0 72.6 88.45 71.2 88.05 70.3 87.8 61.0 86.9 59.35 86.7 54.5 85.9 Q53.35 85.65 52.5 84.65 51.25 83.65 51.0 81.85 L51.0 81.8 Q50.55 80.1 52.1 78.55 52.8 77.2 53.55 76.8 55.1 76.0 58.3 75.35 L65.4 74.55 68.9 74.3 71.2 74.25 76.4 74.55 84.55 75.6 Q89.95 76.85 90.35 78.4" fill="#68d3f1" fill-rule="evenodd" stroke="none"/>
    </g>
  </defs>
</svg>
