<?xml version="1.0" encoding="UTF-8" standalone="no"?>
<svg xmlns:xlink="http://www.w3.org/1999/xlink" height="40.55px" width="55.2px" xmlns="http://www.w3.org/2000/svg">
  <g transform="matrix(1.0, 0.0, 0.0, 1.0, -41.2, -65.6)">
    <use height="39.55" transform="matrix(1.0, 0.0, 0.0, 1.0, 41.2, 65.6)" width="54.3" xlink:href="#morphshape0"/>
  </g>
  <defs>
    <g id="morphshape0" transform="matrix(1.0, 0.0, 0.0, 1.0, -41.2, -65.6)">
      <path d="M54.2 78.05 L54.25 78.2 Q54.65 79.45 55.85 80.05 56.65 80.7 57.7 80.85 L62.0 81.2 63.45 81.25 63.65 81.25 Q67.95 81.0 71.65 82.0 L72.15 82.2 72.35 82.3 73.45 82.8 Q74.1 83.1 74.6 83.45 L75.8 84.3 76.55 84.65 77.15 84.8 Q81.05 85.2 84.05 83.9 L85.0 83.5 Q87.0 82.4 87.7 80.3 88.7 78.65 88.95 76.85 L88.9 75.7 Q88.3 74.45 84.15 73.4 L82.8 73.1 77.0 72.35 72.4 72.05 69.8 72.1 67.3 72.25 61.1 72.9 Q58.4 73.45 55.4 75.4 53.65 76.7 54.2 78.05 M41.3 82.35 L41.3 82.35 41.3 82.5 41.3 82.7 Q41.3 85.5 41.6 88.8 L41.65 89.2 41.75 89.9 41.75 90.0 Q42.0 91.6 41.55 93.55 42.7 94.8 41.9 97.15 L41.9 97.25 42.1 97.55 Q42.8 98.65 43.45 99.7 43.85 100.3 44.55 100.7 L44.9 100.85 45.75 101.25 Q48.8 102.2 51.8 103.15 L52.2 103.25 52.5 103.35 Q56.1 104.4 61.1 104.85 L62.6 104.95 65.3 105.05 68.35 105.1 68.45 105.1 68.55 105.1 69.6 105.05 69.7 105.05 69.9 105.05 71.6 105.0 71.9 105.0 72.2 105.0 72.5 105.0 74.5 104.9 75.85 104.8 77.0 104.75 77.35 104.7 77.55 104.7 Q85.6 103.45 89.1 102.35 93.55 101.1 94.45 98.95 L94.65 98.4 94.75 97.95 94.95 95.15 94.75 88.9 94.9 87.05 94.9 86.45 94.9 86.25 94.9 85.45 Q94.85 82.35 94.8 79.3 L94.7 77.5 Q94.65 76.15 94.9 76.15 L94.2 76.0 Q93.15 75.85 92.35 75.2 L92.3 75.2 92.15 75.15 92.05 75.1 91.65 75.0 91.35 74.75 91.3 74.65 90.95 74.25 90.8 74.1 90.2 73.75 89.8 73.55 89.55 73.45 Q87.2 72.9 84.9 72.35 L84.5 72.25 84.4 72.25 81.05 71.75 76.55 71.15 76.35 71.15 76.15 71.15 73.7 71.05 73.5 71.05 73.4 71.05 73.3 71.05 73.2 71.0 73.1 71.0 72.95 71.0 72.85 71.0 72.75 71.0 68.8 70.95 68.7 70.95 68.4 70.95 66.25 70.95 66.15 70.95 66.05 70.95 65.95 70.95 65.95 70.95 65.85 70.95 65.75 70.95 65.65 70.95 63.95 70.9 63.05 70.9 62.65 70.9 62.45 70.9 59.7 71.25 59.2 71.25 59.15 71.25 56.9 71.5 56.8 71.5 56.7 71.5 56.25 71.5 56.15 71.5 56.05 71.5 56.05 71.5 55.95 71.5 55.85 71.5 52.85 71.65 Q50.3 72.05 47.6 72.9 L46.8 73.15 46.6 73.25 45.8 73.55 44.75 73.95 44.55 74.05 43.35 74.25 Q42.45 74.25 42.15 75.0 41.65 75.8 41.65 76.6 L41.65 77.3 41.65 77.5 41.65 77.7 Q41.2 79.75 41.3 82.35" fill="#33ccff" fill-rule="evenodd" stroke="none"/>
      <path d="M54.2 78.05 L54.2 78.05 54.25 78.1 Q54.6 79.4 55.85 80.05 56.65 80.7 57.7 80.85 L62.0 81.2 63.45 81.25 63.65 81.25 Q67.95 81.0 71.65 82.0 L72.35 82.3 73.45 82.8 Q74.1 83.1 74.6 83.45 L75.55 84.15 75.95 84.4 76.55 84.65 77.15 84.8 Q81.05 85.2 84.05 83.9 L85.0 83.5 86.0 82.8 Q87.2 81.8 87.7 80.3 88.7 78.65 88.8 77.15 89.05 76.65 88.9 75.7 L87.85 74.75 Q86.65 74.05 84.15 73.4 L82.8 73.1 81.5 72.9 77.0 72.35 72.4 72.05 69.1 72.15 67.3 72.25 61.1 72.9 Q58.4 73.45 56.9 74.1 L55.4 75.4 Q53.65 76.7 54.2 78.05" fill="#7ad5ec" fill-rule="evenodd" stroke="none"/>
      <path d="M54.2 78.05 L54.2 78.05 54.25 78.1 Q54.6 79.4 55.85 80.05 56.65 80.7 57.7 80.85 L62.0 81.2 63.45 81.25 63.65 81.25 Q67.95 81.0 71.65 82.0 L72.35 82.3 73.45 82.8 Q74.1 83.1 74.6 83.45 L75.55 84.15 75.95 84.4 76.55 84.65 77.15 84.8 Q81.05 85.2 84.05 83.9 L85.0 83.5 86.0 82.8 Q87.2 81.8 87.7 80.3 88.7 78.65 88.8 77.15 89.05 76.65 88.9 75.7 L87.85 74.75 Q86.65 74.05 84.15 73.4 L82.8 73.1 81.5 72.9 77.0 72.35 72.4 72.05 69.1 72.15 67.3 72.25 61.1 72.9 Q58.4 73.45 56.9 74.1 L55.4 75.4 Q53.65 76.7 54.2 78.05" fill="#7ad5ec" fill-rule="evenodd" stroke="none"/>
      <path d="M41.3 82.35 Q41.2 79.75 41.65 77.7 L41.65 77.5 41.65 77.3 41.65 76.6 Q41.65 75.8 42.15 75.0 42.45 74.25 43.35 74.25 L44.55 74.05 44.75 73.95 45.8 73.55 46.6 73.25 46.8 73.15 47.6 72.9 Q50.3 72.05 52.85 71.65 L55.85 71.5 55.95 71.5 56.05 71.5 56.05 71.5 56.15 71.5 56.25 71.5 56.7 71.5 56.8 71.5 56.9 71.5 59.15 71.25 59.2 71.25 59.7 71.25 62.45 70.9 62.65 70.9 63.05 70.9 63.95 70.9 65.65 70.95 65.75 70.95 65.85 70.95 65.95 70.95 65.95 70.95 66.05 70.95 66.15 70.95 66.25 70.95 68.4 70.95 68.7 70.95 68.8 70.95 72.75 71.0 72.85 71.0 72.95 71.0 73.1 71.0 73.2 71.0 73.3 71.05 73.4 71.05 73.5 71.05 73.7 71.05 76.15 71.15 76.35 71.15 76.55 71.15 81.05 71.75 84.4 72.25 84.5 72.25 84.9 72.35 Q87.2 72.9 89.55 73.45 L89.8 73.55 90.2 73.75 90.8 74.1 90.95 74.25 91.3 74.65 91.35 74.75 91.65 75.0 92.05 75.1 92.15 75.15 92.3 75.2 92.35 75.2 Q93.15 75.85 94.2 76.0 L94.9 76.15 Q94.65 76.15 94.7 77.5 L94.8 79.3 Q94.85 82.35 94.9 85.45 L94.9 86.25 94.9 86.45 94.9 87.05 94.75 88.9 94.95 95.15 94.75 97.95 94.65 98.4 94.45 98.95 Q93.55 101.1 89.1 102.35 85.6 103.45 77.55 104.7 L77.35 104.7 77.0 104.75 75.85 104.8 74.5 104.9 72.5 105.0 72.2 105.0 71.9 105.0 71.6 105.0 69.9 105.05 69.7 105.05 69.6 105.05 68.55 105.1 68.45 105.1 68.35 105.1 65.3 105.05 62.6 104.95 61.1 104.85 Q56.1 104.4 52.5 103.35 L52.2 103.25 51.8 103.15 Q48.8 102.2 45.75 101.25 L44.9 100.85 44.55 100.7 Q43.85 100.3 43.45 99.7 42.8 98.65 42.1 97.55 L41.9 97.25 41.9 97.15 Q42.7 94.8 41.55 93.55 42.0 91.6 41.75 90.0 L41.75 89.9 41.65 89.2 41.6 88.8 Q41.3 85.5 41.3 82.7 L41.3 82.5 41.3 82.35 41.3 82.35 M54.2 78.05 Q53.65 76.7 55.4 75.4 58.4 73.45 61.1 72.9 L67.3 72.25 69.8 72.1 72.4 72.05 77.0 72.35 82.8 73.1 84.15 73.4 Q88.3 74.45 88.9 75.7 L88.95 76.85 Q88.7 78.65 87.7 80.3 87.0 82.4 85.0 83.5 L84.05 83.9 Q81.05 85.2 77.15 84.8 L76.55 84.65 75.8 84.3 74.6 83.45 Q74.1 83.1 73.45 82.8 L72.35 82.3 72.15 82.2 71.65 82.0 Q67.95 81.0 63.65 81.25 L63.45 81.25 62.0 81.2 57.7 80.85 Q56.65 80.7 55.85 80.05 54.65 79.45 54.25 78.2 L54.2 78.05 Q53.65 76.7 55.4 75.4 58.4 73.45 61.1 72.9 L67.3 72.25 69.8 72.1 72.4 72.05 77.0 72.35 82.8 73.1 84.15 73.4 Q88.3 74.45 88.9 75.7 L88.95 76.85 Q88.7 78.65 87.7 80.3 87.0 82.4 85.0 83.5 L84.05 83.9 Q81.05 85.2 77.15 84.8 L76.55 84.65 75.8 84.3 74.6 83.45 Q74.1 83.1 73.45 82.8 L72.35 82.3 72.15 82.2 71.65 82.0 Q67.95 81.0 63.65 81.25 L63.45 81.25 62.0 81.2 57.7 80.85 Q56.65 80.7 55.85 80.05 54.65 79.45 54.25 78.2 L54.2 78.05 Q53.65 76.7 55.4 75.4 L56.9 74.1 Q58.4 73.45 61.1 72.9 L67.3 72.25 69.1 72.15 72.4 72.05 77.0 72.35 81.5 72.9 82.8 73.1 84.15 73.4 Q86.65 74.05 87.85 74.75 L88.9 75.7 Q89.05 76.65 88.8 77.15 88.7 78.65 87.7 80.3 87.2 81.8 86.0 82.8 L85.0 83.5 84.05 83.9 Q81.05 85.2 77.15 84.8 L76.55 84.65 75.95 84.4 75.55 84.15 74.6 83.45 Q74.1 83.1 73.45 82.8 L72.35 82.3 71.65 82.0 Q67.95 81.0 63.65 81.25 L63.45 81.25 62.0 81.2 57.7 80.85 Q56.65 80.7 55.85 80.05 54.6 79.4 54.25 78.1 L54.2 78.05 54.2 78.05 Q53.65 76.7 55.4 75.4 L56.9 74.1 Q58.4 73.45 61.1 72.9 L67.3 72.25 69.1 72.15 72.4 72.05 77.0 72.35 81.5 72.9 82.8 73.1 84.15 73.4 Q86.65 74.05 87.85 74.75 L88.9 75.7 Q89.05 76.65 88.8 77.15 88.7 78.65 87.7 80.3 87.2 81.8 86.0 82.8 L85.0 83.5 84.05 83.9 Q81.05 85.2 77.15 84.8 L76.55 84.65 75.95 84.4 75.55 84.15 74.6 83.45 Q74.1 83.1 73.45 82.8 L72.35 82.3 71.65 82.0 Q67.95 81.0 63.65 81.25 L63.45 81.25 62.0 81.2 57.7 80.85 Q56.65 80.7 55.85 80.05 54.6 79.4 54.25 78.1 L54.2 78.05 54.2 78.05" fill="none" stroke="#000000" stroke-linecap="round" stroke-linejoin="round" stroke-opacity="0.0" stroke-width="1.0"/>
    </g>
  </defs>
</svg>
