<?xml version="1.0" encoding="UTF-8" standalone="no"?>
<svg xmlns:xlink="http://www.w3.org/1999/xlink" height="40.55px" width="55.2px" xmlns="http://www.w3.org/2000/svg">
  <g transform="matrix(1.0, 0.0, 0.0, 1.0, -41.2, -65.6)">
    <use height="39.55" transform="matrix(1.0, 0.0, 0.0, 1.0, 41.2, 65.6)" width="54.3" xlink:href="#morphshape0"/>
  </g>
  <defs>
    <g id="morphshape0" transform="matrix(1.0, 0.0, 0.0, 1.0, -41.2, -65.6)">
      <path d="M50.5 74.95 L50.55 75.05 Q50.85 75.6 51.6 75.85 52.1 76.15 52.7 76.2 L55.25 76.15 56.15 76.15 56.25 76.15 Q58.8 75.9 61.05 76.3 L61.35 76.4 61.55 76.45 62.2 76.65 Q62.6 76.8 62.9 77.0 L63.6 77.4 64.05 77.6 64.4 77.7 Q66.7 77.8 68.55 77.05 L69.15 76.85 Q70.35 76.25 70.9 75.15 71.55 74.25 71.8 73.3 L71.75 72.7 Q71.15 72.15 68.8 71.7 L67.95 71.6 64.45 71.4 61.65 71.4 60.1 71.5 58.6 71.65 54.9 72.2 Q53.25 72.55 51.45 73.6 50.4 74.3 50.55 75.05 M41.55 79.55 L41.55 80.0 41.55 80.15 41.55 80.35 Q41.55 83.35 41.7 86.65 L41.75 87.05 41.8 87.8 41.8 87.9 Q41.9 89.65 41.65 91.55 42.25 93.2 41.85 95.4 L41.85 95.55 41.95 95.9 Q42.35 97.25 42.8 98.35 43.15 99.05 43.65 99.65 L44.0 99.9 44.8 100.4 Q47.2 101.45 50.8 102.7 L51.25 102.85 51.55 102.95 Q55.2 104.05 60.2 104.55 L61.7 104.65 64.5 104.8 67.55 104.85 67.65 104.85 67.75 104.85 68.8 104.8 68.9 104.8 69.1 104.8 70.85 104.75 71.15 104.75 71.45 104.75 71.75 104.75 73.8 104.7 75.2 104.65 76.35 104.6 76.7 104.55 76.8 104.55 Q84.6 103.4 88.6 102.3 93.5 101.0 94.55 99.05 L94.8 98.45 94.9 98.05 95.1 95.1 95.0 88.75 95.1 86.8 95.1 86.15 95.1 85.95 95.1 85.15 Q95.05 81.85 95.15 78.8 L95.2 76.95 Q95.05 75.9 95.05 75.55 L94.6 75.0 Q94.0 74.4 93.55 73.55 L93.5 73.5 93.4 73.35 93.35 73.3 93.15 73.1 92.95 72.8 92.9 72.7 92.65 72.2 92.55 72.1 91.9 71.6 91.45 71.35 91.2 71.25 Q89.25 70.6 86.6 70.0 L86.2 69.9 86.05 69.9 82.65 69.3 78.0 68.65 77.8 68.65 77.6 68.65 75.1 68.5 74.9 68.5 74.75 68.5 74.65 68.5 74.5 68.45 74.45 68.45 74.3 68.45 74.2 68.45 74.05 68.45 70.05 68.35 69.95 68.35 69.65 68.35 67.45 68.35 67.35 68.35 67.25 68.35 67.15 68.35 67.1 68.35 67.0 68.35 66.85 68.35 66.75 68.35 65.1 68.2 64.15 68.2 63.75 68.2 63.55 68.2 60.7 68.55 60.15 68.6 60.1 68.6 57.9 68.8 57.8 68.8 57.7 68.8 57.25 68.85 57.15 68.85 57.05 68.85 57.0 68.85 56.9 68.85 56.8 68.85 53.8 68.85 Q51.3 69.15 48.35 70.05 L47.55 70.3 47.35 70.4 46.7 70.65 45.6 71.05 45.35 71.15 44.0 71.55 Q43.2 71.75 42.7 72.35 42.15 73.05 41.85 73.75 L41.7 74.4 41.65 74.6 41.65 74.8 Q41.2 76.95 41.3 79.7" fill="#33ccff" fill-rule="evenodd" stroke="none"/>
      <path d="M57.3 74.25 L57.35 74.3 57.4 74.35 Q58.1 75.05 59.25 75.45 60.0 75.75 60.85 75.8 L64.6 75.7 65.85 75.65 66.15 75.6 Q70.35 75.1 73.0 76.35 L73.5 76.65 74.25 77.15 Q74.65 77.45 74.95 77.8 L75.45 78.5 75.65 78.75 75.95 79.05 76.3 79.35 Q78.5 80.95 81.75 79.7 L82.5 79.4 83.45 78.85 Q84.6 78.1 85.35 77.1 86.35 75.95 86.85 74.9 87.2 74.45 87.35 73.8 L87.1 72.8 Q86.5 71.95 84.25 71.25 L83.05 70.95 81.9 70.7 78.0 70.1 73.9 69.8 70.95 69.85 69.4 69.9 63.85 70.4 Q61.7 70.85 60.2 71.3 L58.65 72.2 Q56.7 73.3 57.4 74.3" fill="#56d0f6" fill-rule="evenodd" stroke="none"/>
      <path d="M57.2 74.2 L57.25 74.25 57.3 74.3 Q58.0 75.0 59.15 75.4 59.9 75.7 60.75 75.75 L64.5 75.65 65.75 75.6 66.05 75.55 Q70.25 75.05 72.9 76.3 L73.4 76.6 74.15 77.1 Q74.55 77.4 74.85 77.75 L75.35 78.45 75.55 78.7 75.85 79.0 76.2 79.3 Q78.4 80.9 81.65 79.65 L82.4 79.35 83.35 78.8 Q84.5 78.05 85.25 77.05 86.25 75.9 86.75 74.85 87.1 74.4 87.25 73.75 L87.0 72.75 Q86.4 71.9 84.15 71.2 L82.95 70.9 81.8 70.65 77.9 70.05 73.8 69.75 70.85 69.8 69.3 69.85 63.75 70.35 Q61.6 70.8 60.1 71.25 L58.55 72.15 Q56.6 73.25 57.3 74.25" fill="#8cd8e7" fill-rule="evenodd" stroke="none"/>
      <path d="M41.3 79.7 Q41.2 76.95 41.65 74.8 L41.65 74.6 41.7 74.4 41.85 73.75 Q42.15 73.05 42.7 72.35 43.2 71.75 44.0 71.55 L45.35 71.15 45.6 71.05 46.7 70.65 47.35 70.4 47.55 70.3 48.35 70.05 Q51.3 69.15 53.8 68.85 L56.8 68.85 56.9 68.85 57.0 68.85 57.05 68.85 57.15 68.85 57.25 68.85 57.7 68.8 57.8 68.8 57.9 68.8 60.1 68.6 60.15 68.6 60.7 68.55 63.55 68.2 63.75 68.2 64.15 68.2 65.1 68.2 66.75 68.35 66.85 68.35 67.0 68.35 67.1 68.35 67.15 68.35 67.25 68.35 67.35 68.35 67.45 68.35 69.65 68.35 69.95 68.35 70.05 68.35 74.05 68.45 74.2 68.45 74.3 68.45 74.45 68.45 74.5 68.45 74.65 68.5 74.75 68.5 74.9 68.5 75.1 68.5 77.6 68.65 77.8 68.65 78.0 68.65 82.65 69.3 86.05 69.9 86.2 69.9 86.6 70.0 Q89.25 70.6 91.2 71.25 L91.45 71.35 91.9 71.6 92.55 72.1 92.65 72.2 92.9 72.7 92.95 72.8 93.15 73.1 93.35 73.3 93.4 73.35 93.5 73.5 93.55 73.55 Q94.0 74.4 94.6 75.0 L95.05 75.55 Q95.05 75.9 95.2 76.95 L95.15 78.8 Q95.05 81.85 95.1 85.15 L95.1 85.95 95.1 86.15 95.1 86.8 95.0 88.75 95.1 95.1 94.9 98.05 94.8 98.45 94.55 99.05 Q93.5 101.0 88.6 102.3 84.6 103.4 76.8 104.55 L76.7 104.55 76.35 104.6 75.2 104.65 73.8 104.7 71.75 104.75 71.45 104.75 71.15 104.75 70.85 104.75 69.1 104.8 68.9 104.8 68.8 104.8 67.75 104.85 67.65 104.85 67.55 104.85 64.5 104.8 61.7 104.65 60.2 104.55 Q55.2 104.05 51.55 102.95 L51.25 102.85 50.8 102.7 Q47.2 101.45 44.8 100.4 L44.0 99.9 43.65 99.65 Q43.15 99.05 42.8 98.35 42.35 97.25 41.95 95.9 L41.85 95.55 41.85 95.4 Q42.25 93.2 41.65 91.55 41.9 89.65 41.8 87.9 L41.8 87.8 41.75 87.05 41.7 86.65 Q41.55 83.35 41.55 80.35 L41.55 80.15 41.55 80.0 41.55 79.55 M50.55 75.05 Q50.4 74.3 51.45 73.6 53.25 72.55 54.9 72.2 L58.6 71.65 60.1 71.5 61.65 71.4 64.45 71.4 67.95 71.6 68.8 71.7 Q71.15 72.15 71.75 72.7 L71.8 73.3 Q71.55 74.25 70.9 75.15 70.35 76.25 69.15 76.85 L68.55 77.05 Q66.7 77.8 64.4 77.7 L64.05 77.6 63.6 77.4 62.9 77.0 Q62.6 76.8 62.2 76.65 L61.55 76.45 61.35 76.4 61.05 76.3 Q58.8 75.9 56.25 76.15 L56.15 76.15 55.25 76.15 52.7 76.2 Q52.1 76.15 51.6 75.85 50.85 75.6 50.55 75.05 L50.5 74.95 Q50.35 74.2 51.4 73.5 53.2 72.45 54.85 72.1 L58.55 71.55 60.05 71.4 61.6 71.3 64.4 71.3 67.9 71.5 68.75 71.6 Q71.1 72.05 71.7 72.6 L71.75 73.2 Q71.5 74.15 70.85 75.05 70.3 76.15 69.1 76.75 L68.5 76.95 Q66.65 77.7 64.35 77.6 L64.0 77.5 63.55 77.3 62.85 76.9 Q62.55 76.7 62.15 76.55 L61.5 76.35 61.3 76.3 61.0 76.2 Q58.75 75.8 56.2 76.05 L56.1 76.05 55.2 76.05 52.65 76.1 Q52.05 76.05 51.55 75.75 50.8 75.5 50.5 74.95 L50.45 74.85 M57.4 74.3 Q56.7 73.3 58.65 72.2 L60.2 71.3 Q61.7 70.85 63.85 70.4 L69.4 69.9 70.95 69.85 73.9 69.8 78.0 70.1 81.9 70.7 83.05 70.95 84.25 71.25 Q86.5 71.95 87.1 72.8 L87.35 73.8 Q87.2 74.45 86.85 74.9 86.35 75.95 85.35 77.1 84.6 78.1 83.45 78.85 L82.5 79.4 81.75 79.7 Q78.5 80.95 76.3 79.35 L75.95 79.05 75.65 78.75 75.45 78.5 74.95 77.8 Q74.65 77.45 74.25 77.15 L73.5 76.65 73.0 76.35 Q70.35 75.1 66.15 75.6 L65.85 75.65 64.6 75.7 60.85 75.8 Q60.0 75.75 59.25 75.45 58.1 75.05 57.4 74.35 L57.35 74.3 57.3 74.25 Q56.6 73.25 58.55 72.15 L60.1 71.25 Q61.6 70.8 63.75 70.35 L69.3 69.85 70.85 69.8 73.8 69.75 77.9 70.05 81.8 70.65 82.95 70.9 84.15 71.2 Q86.4 71.9 87.0 72.75 L87.25 73.75 Q87.1 74.4 86.75 74.85 86.25 75.9 85.25 77.05 84.5 78.05 83.35 78.8 L82.4 79.35 81.65 79.65 Q78.4 80.9 76.2 79.3 L75.85 79.0 75.55 78.7 75.35 78.45 74.85 77.75 Q74.55 77.4 74.15 77.1 L73.4 76.6 72.9 76.3 Q70.25 75.05 66.05 75.55 L65.75 75.6 64.5 75.65 60.75 75.75 Q59.9 75.7 59.15 75.4 58.0 75.0 57.3 74.3 L57.25 74.25 57.2 74.2" fill="none" stroke="#000000" stroke-linecap="round" stroke-linejoin="round" stroke-opacity="0.0" stroke-width="1.0"/>
    </g>
  </defs>
</svg>
