<?xml version="1.0" encoding="UTF-8" standalone="no"?>
<svg xmlns:xlink="http://www.w3.org/1999/xlink" height="40.55px" width="55.2px" xmlns="http://www.w3.org/2000/svg">
  <g transform="matrix(1.0, 0.0, 0.0, 1.0, -41.2, -65.6)">
    <use height="39.55" transform="matrix(1.0, 0.0, 0.0, 1.0, 41.2, 65.6)" width="54.3" xlink:href="#shape0"/>
  </g>
  <defs>
    <g id="shape0" transform="matrix(1.0, 0.0, 0.0, 1.0, -41.2, -65.6)">
      <path d="M93.2 69.35 L94.45 70.3 94.65 71.5 94.65 71.95 Q94.7 75.35 95.5 76.9 94.9 81.05 95.0 86.25 95.2 96.5 94.6 99.2 93.85 102.75 75.65 105.15 L70.05 105.15 67.65 105.15 66.3 105.15 Q55.4 104.95 49.2 102.65 43.0 100.3 42.2 98.85 41.35 97.35 41.25 93.8 L41.25 85.1 41.25 77.0 Q41.15 74.05 41.55 71.75 L41.6 71.55 Q42.1 69.75 46.25 68.15 L48.25 67.5 Q54.45 65.55 57.9 66.25 L57.95 66.25 58.05 66.25 61.05 66.05 64.7 65.65 67.9 65.85 67.95 65.85 68.2 65.85 70.9 65.9 75.4 66.05 75.8 66.1 76.05 66.1 79.05 66.3 Q83.45 66.75 87.75 67.7 91.5 68.45 93.2 69.35 M86.35 71.15 Q86.35 69.7 82.4 68.65 78.5 67.65 72.95 67.65 67.4 67.65 63.45 68.65 59.55 69.7 60.65 70.55 61.75 71.35 68.5 69.95 75.25 68.55 75.35 73.05 75.45 77.5 80.9 75.05 86.35 72.6 86.35 71.15 M50.3 70.65 Q48.35 71.05 46.85 72.05 L54.25 69.75 50.3 70.65" fill="#33ccff" fill-rule="evenodd" stroke="none"/>
      <path d="M86.35 71.15 Q86.35 72.6 80.9 75.05 75.45 77.5 75.35 73.05 75.25 68.55 68.5 69.95 61.75 71.35 60.65 70.55 59.55 69.7 63.45 68.65 67.4 67.65 72.95 67.65 78.5 67.65 82.4 68.65 86.35 69.7 86.35 71.15" fill="#9ddae2" fill-rule="evenodd" stroke="none"/>
    </g>
  </defs>
</svg>
