<?xml version="1.0" encoding="UTF-8" standalone="no"?>
<svg xmlns:xlink="http://www.w3.org/1999/xlink" height="40.55px" width="55.2px" xmlns="http://www.w3.org/2000/svg">
  <g transform="matrix(1.0, 0.0, 0.0, 1.0, -41.2, -65.6)">
    <use height="39.55" transform="matrix(1.0, 0.0, 0.0, 1.0, 41.2, 65.6)" width="54.3" xlink:href="#morphshape0"/>
  </g>
  <defs>
    <g id="morphshape0" transform="matrix(1.0, 0.0, 0.0, 1.0, -41.2, -65.6)">
      <path d="M46.85 72.05 L46.85 72.05 Q47.05 71.9 47.3 71.8 47.45 71.7 47.6 71.6 L48.4 71.15 48.7 71.05 48.7 71.05 Q49.45 70.85 50.2 70.65 L50.3 70.65 50.5 70.65 50.65 70.55 Q50.75 70.55 50.85 70.55 L51.05 70.45 51.2 70.45 51.3 70.45 Q52.0 70.25 52.65 70.1 L52.85 70.1 Q53.25 70.0 53.65 69.9 53.95 69.8 54.25 69.75 L54.25 69.75 Q53.7 69.95 53.15 70.1 L52.85 70.2 51.7 70.55 50.75 70.85 50.25 71.05 49.8 71.15 48.6 71.55 Q48.0 71.7 47.45 71.85 47.15 71.95 46.85 72.05 M41.25 77.0 L41.25 77.95 41.25 78.05 41.25 78.2 Q41.25 81.45 41.25 84.7 L41.25 85.1 41.25 85.9 41.25 86.0 Q41.2 87.9 41.2 89.75 41.25 91.8 41.25 93.8 L41.25 94.05 41.25 94.45 Q41.35 96.05 41.6 97.2 41.9 98.05 42.2 98.85 L42.5 99.25 43.25 99.85 Q44.95 101.05 49.2 102.65 L49.7 102.85 50.0 102.95 Q53.7 104.1 58.75 104.7 L60.3 104.85 63.2 105.05 66.3 105.15 66.45 105.15 66.55 105.15 67.65 105.15 67.75 105.15 67.95 105.15 69.75 105.15 70.05 105.15 70.35 105.15 70.65 105.15 72.75 105.15 74.25 105.15 75.35 105.15 75.65 105.15 75.65 105.15 Q83.15 104.15 87.7 103.0 93.05 101.6 94.25 99.9 L94.6 99.2 94.7 98.9 94.95 95.8 95.0 89.3 95.0 87.2 95.0 86.45 95.0 86.25 95.0 85.45 Q94.95 81.9 95.25 78.85 L95.5 76.9 Q95.25 76.2 95.0 75.5 L94.85 74.5 Q94.75 73.4 94.65 72.35 L94.65 72.25 94.65 71.95 94.65 71.85 94.65 71.5 94.6 71.1 94.6 70.95 94.45 70.3 94.45 70.3 93.7 69.65 93.2 69.35 92.95 69.25 Q91.4 68.45 88.35 67.8 L87.95 67.7 87.75 67.7 84.3 67.0 79.45 66.3 79.25 66.3 79.05 66.3 76.45 66.1 76.25 66.1 76.05 66.1 76.0 66.1 75.8 66.1 75.8 66.1 75.7 66.1 75.6 66.05 75.4 66.05 71.3 65.9 71.2 65.9 70.9 65.9 68.6 65.85 68.5 65.85 68.4 65.85 68.3 65.85 68.2 65.85 68.15 65.85 67.95 65.85 67.9 65.85 66.35 65.6 65.3 65.65 64.9 65.65 64.7 65.65 61.75 65.95 61.15 66.05 61.05 66.05 58.95 66.15 58.85 66.15 58.75 66.15 58.35 66.25 58.25 66.25 58.15 66.25 58.05 66.25 57.95 66.25 57.9 66.25 54.85 66.1 Q52.45 66.25 49.25 67.2 L48.45 67.4 48.25 67.5 47.75 67.65 46.6 68.05 46.25 68.15 44.7 68.8 Q44.0 69.2 43.3 69.6 42.65 70.2 42.0 70.75 L41.7 71.35 41.6 71.55 41.55 71.75 Q41.15 74.05 41.25 77.0" fill="#33ccff" fill-rule="evenodd" stroke="none"/>
      <path d="M60.65 70.55 L60.8 70.65 60.8 70.65 Q61.85 70.75 62.9 70.85 63.55 70.75 64.15 70.7 L67.35 70.15 68.4 69.95 68.5 69.95 Q72.8 69.05 74.4 70.65 L74.7 71.0 75.05 71.55 Q75.2 71.9 75.3 72.2 L75.35 72.85 75.35 73.05 75.35 73.45 75.45 73.95 Q75.95 76.75 79.5 75.6 L80.05 75.4 80.9 75.05 Q81.95 74.55 82.95 74.1 83.95 73.5 84.9 72.95 85.35 72.55 85.8 72.2 L86.35 71.15 Q86.35 70.1 84.35 69.3 L83.35 68.95 82.4 68.65 79.15 68.0 75.55 67.7 72.95 67.65 71.7 67.65 66.8 68.0 Q65.2 68.3 63.65 68.55 L62.0 69.05 Q59.8 69.9 60.65 70.55" fill="#33ccff" fill-rule="evenodd" stroke="none"/>
      <path d="M60.65 70.55 L60.8 70.65 60.8 70.65 Q61.85 70.75 62.9 70.85 63.55 70.75 64.15 70.7 L67.35 70.15 68.4 69.95 68.5 69.95 Q72.8 69.05 74.4 70.65 L74.7 71.0 75.05 71.55 Q75.2 71.9 75.3 72.2 L75.35 72.85 75.35 73.05 75.35 73.45 75.45 73.95 Q75.95 76.75 79.5 75.6 L80.05 75.4 80.9 75.05 Q81.95 74.55 82.95 74.1 83.95 73.5 84.9 72.95 85.35 72.55 85.8 72.2 L86.35 71.15 Q86.35 70.1 84.35 69.3 L83.35 68.95 82.4 68.65 79.15 68.0 75.55 67.7 72.95 67.65 71.7 67.65 66.8 68.0 Q65.2 68.3 63.65 68.55 L62.0 69.05 Q59.8 69.9 60.65 70.55" fill="#9ddae2" fill-rule="evenodd" stroke="none"/>
      <path d="M41.25 77.0 Q41.15 74.05 41.55 71.75 L41.6 71.55 41.7 71.35 42.0 70.75 Q42.65 70.2 43.3 69.6 44.0 69.2 44.7 68.8 L46.25 68.15 46.6 68.05 47.75 67.65 48.25 67.5 48.45 67.4 49.25 67.2 Q52.45 66.25 54.85 66.1 L57.9 66.25 57.95 66.25 58.05 66.25 58.15 66.25 58.25 66.25 58.35 66.25 58.75 66.15 58.85 66.15 58.95 66.15 61.05 66.05 61.15 66.05 61.75 65.95 64.7 65.65 64.9 65.65 65.3 65.65 66.35 65.6 67.9 65.85 67.95 65.85 68.15 65.85 68.2 65.85 68.3 65.85 68.4 65.85 68.5 65.85 68.6 65.85 70.9 65.9 71.2 65.9 71.3 65.9 75.4 66.05 75.6 66.05 75.7 66.1 75.8 66.1 75.8 66.1 76.0 66.1 76.05 66.1 76.25 66.1 76.45 66.1 79.05 66.3 79.25 66.3 79.45 66.3 84.3 67.0 87.75 67.7 87.95 67.7 88.35 67.8 Q91.4 68.45 92.95 69.25 L93.2 69.35 93.7 69.65 94.45 70.3 94.45 70.3 94.6 70.95 94.6 71.1 94.65 71.5 94.65 71.85 94.65 71.95 94.65 72.25 94.65 72.35 Q94.75 73.4 94.85 74.5 L95.0 75.5 Q95.25 76.2 95.5 76.9 L95.25 78.85 Q94.95 81.9 95.0 85.45 L95.0 86.25 95.0 86.45 95.0 87.2 95.0 89.3 94.95 95.8 94.7 98.9 94.6 99.2 94.25 99.9 Q93.05 101.6 87.7 103.0 83.15 104.15 75.65 105.15 L75.65 105.15 75.35 105.15 74.25 105.15 72.75 105.15 70.65 105.15 70.35 105.15 70.05 105.15 69.75 105.15 67.95 105.15 67.75 105.15 67.65 105.15 66.55 105.15 66.45 105.15 66.3 105.15 63.2 105.05 60.3 104.85 58.75 104.7 Q53.7 104.1 50.0 102.95 L49.7 102.85 49.2 102.65 Q44.95 101.05 43.25 99.85 L42.5 99.25 42.2 98.85 Q41.9 98.05 41.6 97.2 41.35 96.05 41.25 94.45 L41.25 94.05 41.25 93.8 Q41.25 91.8 41.2 89.75 41.2 87.9 41.25 86.0 L41.25 85.9 41.25 85.1 41.25 84.7 Q41.25 81.45 41.25 78.2 L41.25 78.05 41.25 77.95 41.25 77.0 M46.85 72.05 Q47.15 71.95 47.45 71.85 48.0 71.7 48.6 71.55 L49.8 71.15 50.25 71.05 50.75 70.85 51.7 70.55 52.85 70.2 53.15 70.1 Q53.7 69.95 54.25 69.75 L54.25 69.75 Q53.95 69.8 53.65 69.9 53.25 70.0 52.85 70.1 L52.65 70.1 Q52.0 70.25 51.3 70.45 L51.2 70.45 51.05 70.45 50.85 70.55 Q50.75 70.55 50.65 70.55 L50.5 70.65 50.3 70.65 50.2 70.65 Q49.45 70.85 48.7 71.05 L48.7 71.05 48.4 71.15 47.6 71.6 Q47.45 71.7 47.3 71.8 47.05 71.9 46.85 72.05 L46.85 72.05 Q47.15 71.95 47.45 71.85 48.0 71.7 48.6 71.55 L49.8 71.15 50.25 71.05 50.75 70.85 51.7 70.55 52.85 70.2 53.15 70.1 Q53.7 69.95 54.25 69.75 L54.25 69.75 Q53.95 69.8 53.65 69.9 53.25 70.0 52.85 70.1 L52.65 70.1 Q52.0 70.25 51.3 70.45 L51.2 70.45 51.05 70.45 50.85 70.55 Q50.75 70.55 50.65 70.55 L50.5 70.65 50.3 70.65 50.2 70.65 Q49.45 70.85 48.7 71.05 L48.7 71.05 48.4 71.15 47.6 71.6 Q47.45 71.7 47.3 71.8 47.05 71.9 46.85 72.05 L46.85 72.05 M60.65 70.55 Q59.8 69.9 62.0 69.05 L63.65 68.55 Q65.2 68.3 66.8 68.0 L71.7 67.65 72.95 67.65 75.55 67.7 79.15 68.0 82.4 68.65 83.35 68.95 84.35 69.3 Q86.35 70.1 86.35 71.15 L85.8 72.2 Q85.35 72.55 84.9 72.95 83.95 73.5 82.95 74.1 81.95 74.55 80.9 75.05 L80.05 75.4 79.5 75.6 Q75.95 76.75 75.45 73.95 L75.35 73.45 75.35 73.05 75.35 72.85 75.3 72.2 Q75.2 71.9 75.05 71.55 L74.7 71.0 74.4 70.65 Q72.8 69.05 68.5 69.95 L68.4 69.95 67.35 70.15 64.15 70.7 Q63.55 70.75 62.9 70.85 61.85 70.75 60.8 70.65 L60.8 70.65 60.65 70.55 Q59.8 69.9 62.0 69.05 L63.65 68.55 Q65.2 68.3 66.8 68.0 L71.7 67.65 72.95 67.65 75.55 67.7 79.15 68.0 82.4 68.65 83.35 68.95 84.35 69.3 Q86.35 70.1 86.35 71.15 L85.8 72.2 Q85.35 72.55 84.9 72.95 83.95 73.5 82.95 74.1 81.95 74.55 80.9 75.05 L80.05 75.4 79.5 75.6 Q75.95 76.75 75.45 73.95 L75.35 73.45 75.35 73.05 75.35 72.85 75.3 72.2 Q75.2 71.9 75.05 71.55 L74.7 71.0 74.4 70.65 Q72.8 69.05 68.5 69.95 L68.4 69.95 67.35 70.15 64.15 70.7 Q63.55 70.75 62.9 70.85 61.85 70.75 60.8 70.65 L60.8 70.65 60.65 70.55" fill="none" stroke="#000000" stroke-linecap="round" stroke-linejoin="round" stroke-opacity="0.0" stroke-width="1.0"/>
    </g>
  </defs>
</svg>
