<?xml version="1.0" encoding="UTF-8" standalone="no"?>
<svg xmlns:xlink="http://www.w3.org/1999/xlink" height="40.55px" width="55.2px" xmlns="http://www.w3.org/2000/svg">
  <g transform="matrix(1.0, 0.0, 0.0, 1.0, -41.2, -65.6)">
    <use height="39.55" transform="matrix(1.0, 0.0, 0.0, 1.0, 41.2, 65.6)" width="54.3" xlink:href="#morphshape0"/>
  </g>
  <defs>
    <g id="morphshape0" transform="matrix(1.0, 0.0, 0.0, 1.0, -41.2, -65.6)">
      <path d="M48.95 73.7 L48.95 73.7 Q49.2 73.9 49.65 73.95 49.95 74.0 50.3 73.95 L51.95 73.7 52.5 73.6 52.55 73.6 Q54.15 73.4 55.6 73.5 L55.8 73.55 56.0 73.55 56.35 73.6 Q56.55 73.65 56.75 73.7 L57.2 73.8 57.5 73.85 57.7 73.85 Q59.2 73.8 60.4 73.4 L60.75 73.3 Q61.55 72.95 62.0 72.35 62.45 71.9 62.75 71.45 L62.75 71.2 Q62.2 71.05 60.75 70.9 L60.2 70.9 57.9 71.0 56.05 71.15 55.05 71.35 54.1 71.45 51.65 71.9 Q50.55 72.15 49.4 72.75 48.75 73.15 48.65 73.55 M41.45 78.45 L41.45 79.2 41.45 79.3 41.45 79.45 Q41.45 82.6 41.5 85.85 L41.5 86.25 41.5 87.05 41.5 87.15 Q41.5 89.0 41.4 90.85 41.7 92.7 41.5 94.75 L41.5 95.0 41.55 95.4 Q41.8 96.9 42.15 98.05 42.45 98.85 42.85 99.55 L43.15 99.9 43.9 100.45 Q45.9 101.6 49.85 103.05 L50.35 103.25 50.65 103.35 Q54.35 104.5 59.4 105.1 L60.95 105.25 63.8 105.45 66.9 105.55 67.05 105.55 67.15 105.55 68.25 105.55 68.35 105.55 68.55 105.55 70.35 105.55 70.65 105.55 70.95 105.55 71.25 105.55 73.35 105.55 74.85 105.55 75.95 105.55 76.25 105.55 76.3 105.55 Q83.9 104.5 88.2 103.35 93.35 101.95 94.5 100.15 L94.85 99.45 94.95 99.15 95.2 96.1 95.2 89.65 95.2 87.6 95.2 86.85 95.2 86.65 95.2 85.85 Q95.15 82.4 95.4 79.35 L95.6 77.4 Q95.4 76.55 95.25 76.0 L95.0 75.2 Q94.7 74.3 94.45 73.35 L94.45 73.25 94.45 73.0 94.45 72.9 94.35 72.6 94.25 72.2 94.25 72.05 94.05 71.45 94.05 71.45 93.3 70.85 92.8 70.55 92.55 70.45 Q90.8 69.7 87.9 69.05 L87.5 68.95 87.3 68.95 83.85 68.3 79.05 67.6 78.85 67.6 78.65 67.6 76.05 67.4 75.85 67.4 75.65 67.4 75.6 67.4 75.4 67.4 75.4 67.4 75.3 67.4 75.2 67.35 75.0 67.35 70.9 67.2 70.8 67.2 70.5 67.2 68.2 67.15 68.1 67.15 68.0 67.15 67.9 67.15 67.8 67.15 67.75 67.15 67.55 67.15 67.5 67.15 65.95 66.95 64.9 67.0 64.5 67.0 64.3 67.0 61.4 67.3 60.8 67.4 60.7 67.4 58.6 67.5 58.5 67.5 58.4 67.5 58.0 67.6 57.9 67.6 57.8 67.6 57.7 67.6 57.6 67.6 57.55 67.6 54.5 67.5 Q52.1 67.7 49.0 68.65 L48.2 68.85 48.0 68.95 47.45 69.1 46.3 69.5 45.95 69.6 44.45 70.15 Q43.7 70.45 43.1 70.9 42.45 71.55 41.95 72.15 L41.7 72.75 41.6 72.95 41.55 73.15 Q41.15 75.4 41.25 78.3" fill="#33ccff" fill-rule="evenodd" stroke="none"/>
      <path d="M59.05 72.55 L59.2 72.65 59.2 72.65 Q60.1 73.05 61.2 73.25 61.85 73.3 62.55 73.3 L66.0 72.95 67.15 72.8 67.25 72.8 Q71.55 72.05 73.65 73.5 L74.05 73.85 74.55 74.4 Q74.8 74.75 75.0 75.05 L75.25 75.7 75.35 75.9 75.5 76.3 75.7 76.75 Q77.05 78.95 80.5 77.8 L81.15 77.55 82.0 77.15 Q83.05 76.55 83.95 75.85 84.95 75.0 85.7 74.25 86.1 73.85 86.4 73.35 L86.55 72.3 Q86.25 71.3 84.15 70.5 L83.1 70.15 82.1 69.85 78.55 69.2 74.7 68.9 71.95 68.85 70.6 68.85 65.4 69.25 Q63.55 69.6 62.0 69.95 L60.35 70.65 Q58.25 71.6 59.05 72.4" fill="#45cefa" fill-rule="evenodd" stroke="none"/>
      <path d="M59.05 72.7 L59.2 72.8 59.2 72.8 Q60.1 73.2 61.2 73.4 61.85 73.45 62.55 73.45 L66.0 73.1 67.15 72.95 67.25 72.95 Q71.55 72.2 73.65 73.65 L74.05 74.0 74.55 74.55 Q74.8 74.9 75.0 75.2 L75.25 75.85 75.35 76.05 75.5 76.45 75.7 76.9 Q77.05 79.1 80.5 77.95 L81.15 77.7 82.0 77.3 Q83.05 76.7 83.95 76.0 84.95 75.15 85.7 74.4 86.1 74.0 86.4 73.5 L86.55 72.45 Q86.25 71.45 84.15 70.65 L83.1 70.3 82.1 70.0 78.55 69.35 74.7 69.05 71.95 69.0 70.6 69.0 65.4 69.4 Q63.55 69.75 62.0 70.1 L60.35 70.8 Q58.25 71.75 59.05 72.55" fill="#94d9e5" fill-rule="evenodd" stroke="none"/>
      <path d="M41.25 78.3 Q41.15 75.4 41.55 73.15 L41.6 72.95 41.7 72.75 41.95 72.15 Q42.45 71.55 43.1 70.9 43.7 70.45 44.45 70.15 L45.95 69.6 46.3 69.5 47.45 69.1 48.0 68.95 48.2 68.85 49.0 68.65 Q52.1 67.7 54.5 67.5 L57.55 67.6 57.6 67.6 57.7 67.6 57.8 67.6 57.9 67.6 58.0 67.6 58.4 67.5 58.5 67.5 58.6 67.5 60.7 67.4 60.8 67.4 61.4 67.3 64.3 67.0 64.5 67.0 64.9 67.0 65.95 66.95 67.5 67.15 67.55 67.15 67.75 67.15 67.8 67.15 67.9 67.15 68.0 67.15 68.1 67.15 68.2 67.15 70.5 67.2 70.8 67.2 70.9 67.2 75.0 67.35 75.2 67.35 75.3 67.4 75.4 67.4 75.4 67.4 75.6 67.4 75.65 67.4 75.85 67.4 76.05 67.4 78.65 67.6 78.85 67.6 79.05 67.6 83.85 68.3 87.3 68.95 87.5 68.95 87.9 69.05 Q90.8 69.7 92.55 70.45 L92.8 70.55 93.3 70.85 94.05 71.45 94.05 71.45 94.25 72.05 94.25 72.2 94.35 72.6 94.45 72.9 94.45 73.0 94.45 73.25 94.45 73.35 Q94.7 74.3 95.0 75.2 L95.25 76.0 Q95.4 76.55 95.6 77.4 L95.4 79.35 Q95.15 82.4 95.2 85.85 L95.2 86.65 95.2 86.85 95.2 87.6 95.2 89.65 95.2 96.1 94.95 99.15 94.85 99.45 94.5 100.15 Q93.35 101.95 88.2 103.35 83.9 104.5 76.3 105.55 L76.25 105.55 75.95 105.55 74.85 105.55 73.35 105.55 71.25 105.55 70.95 105.55 70.65 105.55 70.35 105.55 68.55 105.55 68.35 105.55 68.25 105.55 67.15 105.55 67.05 105.55 66.9 105.55 63.8 105.45 60.95 105.25 59.4 105.1 Q54.35 104.5 50.65 103.35 L50.35 103.25 49.85 103.05 Q45.9 101.6 43.9 100.45 L43.15 99.9 42.85 99.55 Q42.45 98.85 42.15 98.05 41.8 96.9 41.55 95.4 L41.5 95.0 41.5 94.75 Q41.7 92.7 41.4 90.85 41.5 89.0 41.5 87.15 L41.5 87.05 41.5 86.25 41.5 85.85 Q41.45 82.6 41.45 79.45 L41.45 79.3 41.45 79.2 41.45 78.45 M48.65 73.55 Q48.75 73.15 49.4 72.75 50.55 72.15 51.65 71.9 L54.1 71.45 55.05 71.35 56.05 71.15 57.9 71.0 60.2 70.9 60.75 70.9 Q62.2 71.05 62.75 71.2 L62.75 71.45 Q62.45 71.9 62.0 72.35 61.55 72.95 60.75 73.3 L60.4 73.4 Q59.2 73.8 57.7 73.85 L57.5 73.85 57.2 73.8 56.75 73.7 Q56.55 73.65 56.35 73.6 L56.0 73.55 55.8 73.55 55.6 73.5 Q54.15 73.4 52.55 73.6 L52.5 73.6 51.95 73.7 50.3 73.95 Q49.95 74.0 49.65 73.95 49.2 73.9 48.95 73.7 L48.95 73.7 Q49.05 73.3 49.7 72.9 50.85 72.3 51.95 72.05 L54.4 71.6 55.35 71.5 56.35 71.3 58.2 71.15 60.5 71.05 61.05 71.05 Q62.5 71.2 63.05 71.35 L63.05 71.6 Q62.75 72.05 62.3 72.5 61.85 73.1 61.05 73.45 L60.7 73.55 Q59.5 73.95 58.0 74.0 L57.8 74.0 57.5 73.95 57.05 73.85 Q56.85 73.8 56.65 73.75 L56.3 73.7 56.1 73.7 55.9 73.65 Q54.45 73.55 52.85 73.75 L52.8 73.75 52.25 73.85 50.6 74.1 Q50.25 74.15 49.95 74.1 49.5 74.05 49.25 73.85 L49.25 73.85 M59.05 72.4 Q58.25 71.6 60.35 70.65 L62.0 69.95 Q63.55 69.6 65.4 69.25 L70.6 68.85 71.95 68.85 74.7 68.9 78.55 69.2 82.1 69.85 83.1 70.15 84.15 70.5 Q86.25 71.3 86.55 72.3 L86.4 73.35 Q86.1 73.85 85.7 74.25 84.95 75.0 83.95 75.85 83.05 76.55 82.0 77.15 L81.15 77.55 80.5 77.8 Q77.05 78.95 75.7 76.75 L75.5 76.3 75.35 75.9 75.25 75.7 75.0 75.05 Q74.8 74.75 74.55 74.4 L74.05 73.85 73.65 73.5 Q71.55 72.05 67.25 72.8 L67.15 72.8 66.0 72.95 62.55 73.3 Q61.85 73.3 61.2 73.25 60.1 73.05 59.2 72.65 L59.2 72.65 59.05 72.55 Q58.25 71.75 60.35 70.8 L62.0 70.1 Q63.55 69.75 65.4 69.4 L70.6 69.0 71.95 69.0 74.7 69.05 78.55 69.35 82.1 70.0 83.1 70.3 84.15 70.65 Q86.25 71.45 86.55 72.45 L86.4 73.5 Q86.1 74.0 85.7 74.4 84.95 75.15 83.95 76.0 83.05 76.7 82.0 77.3 L81.15 77.7 80.5 77.95 Q77.05 79.1 75.7 76.9 L75.5 76.45 75.35 76.05 75.25 75.85 75.0 75.2 Q74.8 74.9 74.55 74.55 L74.05 74.0 73.65 73.65 Q71.55 72.2 67.25 72.95 L67.15 72.95 66.0 73.1 62.55 73.45 Q61.85 73.45 61.2 73.4 60.1 73.2 59.2 72.8 L59.2 72.8 59.05 72.7" fill="none" stroke="#000000" stroke-linecap="round" stroke-linejoin="round" stroke-opacity="0.0" stroke-width="1.0"/>
    </g>
  </defs>
</svg>
