<?xml version="1.0" encoding="UTF-8" standalone="no"?>
<svg xmlns:xlink="http://www.w3.org/1999/xlink" height="40.55px" width="55.2px" xmlns="http://www.w3.org/2000/svg">
  <g transform="matrix(1.0, 0.0, 0.0, 1.0, -41.2, -65.6)">
    <use height="39.55" transform="matrix(1.0, 0.0, 0.0, 1.0, 41.2, 65.6)" width="54.3" xlink:href="#morphshape0"/>
  </g>
  <defs>
    <g id="morphshape0" transform="matrix(1.0, 0.0, 0.0, 1.0, -41.2, -65.6)">
      <path d="M50.55 75.15 L50.55 75.2 Q50.85 75.75 51.55 76.0 52.0 76.25 52.6 76.25 L55.15 76.2 56.0 76.15 56.1 76.15 Q58.6 75.95 60.8 76.35 L61.1 76.45 61.3 76.5 61.9 76.7 Q62.25 76.85 62.55 77.0 L63.25 77.35 63.7 77.5 64.05 77.55 Q66.35 77.65 68.15 76.95 L68.7 76.75 Q69.9 76.15 70.45 75.05 71.1 74.2 71.4 73.3 L71.4 72.75 Q70.85 72.25 68.5 71.8 L67.7 71.7 64.25 71.5 61.5 71.5 59.95 71.65 58.5 71.75 54.8 72.25 Q53.15 72.6 51.4 73.65 50.4 74.35 50.5 75.05 M41.0 79.8 L41.0 80.3 41.0 80.4 41.0 80.55 Q41.0 83.6 41.15 86.85 L41.15 87.25 41.2 88.0 41.2 88.1 Q41.3 89.85 41.1 91.75 41.7 93.4 41.3 95.55 L41.3 95.75 41.4 96.1 Q41.8 97.45 42.25 98.55 42.6 99.3 43.1 99.9 L43.4 100.2 44.2 100.7 Q46.55 101.8 50.2 103.1 L50.65 103.25 50.95 103.35 Q54.6 104.45 59.65 105.0 L61.2 105.15 64.0 105.3 67.1 105.4 67.25 105.4 67.35 105.4 68.45 105.4 68.55 105.4 68.75 105.4 70.5 105.4 70.8 105.4 71.1 105.4 71.4 105.4 73.45 105.35 74.9 105.3 76.0 105.3 76.3 105.3 76.4 105.3 Q84.15 104.2 88.2 103.05 93.1 101.7 94.15 99.8 L94.45 99.15 94.55 98.8 94.8 95.85 94.75 89.45 94.8 87.45 94.8 86.75 94.8 86.55 94.8 85.75 Q94.75 82.4 94.9 79.35 L95.0 77.45 Q94.85 76.45 94.85 76.1 L94.45 75.5 Q93.9 74.85 93.45 74.0 L93.45 73.95 93.4 73.75 93.35 73.65 93.15 73.4 93.0 73.05 93.0 72.9 92.75 72.35 92.7 72.3 92.0 71.8 91.55 71.55 91.3 71.45 Q89.35 70.75 86.65 70.15 L86.25 70.05 86.1 70.05 82.7 69.45 78.0 68.8 77.8 68.8 77.6 68.8 75.05 68.65 74.85 68.65 74.7 68.65 74.65 68.65 74.5 68.65 74.45 68.65 74.35 68.65 74.25 68.6 74.1 68.6 70.05 68.5 69.95 68.5 69.65 68.5 67.4 68.45 67.3 68.45 67.2 68.45 67.1 68.45 67.05 68.45 67.0 68.45 66.85 68.45 66.8 68.45 65.2 68.3 64.2 68.35 63.8 68.35 63.6 68.35 60.75 68.65 60.2 68.7 60.1 68.7 57.95 68.85 57.85 68.85 57.75 68.85 57.35 68.9 57.25 68.9 57.15 68.9 57.1 68.9 57.0 68.9 56.95 68.9 53.9 68.9 Q51.45 69.15 48.5 70.05 L47.7 70.25 47.5 70.35 46.85 70.55 45.75 70.95 45.45 71.05 44.05 71.5 Q43.25 71.7 42.75 72.25 42.15 72.95 41.8 73.6 L41.65 74.25 41.6 74.45 41.55 74.65 Q41.15 76.85 41.25 79.65" fill="#33ccff" fill-rule="evenodd" stroke="none"/>
      <path d="M57.5 74.4 L57.6 74.45 57.6 74.45 Q58.3 75.15 59.45 75.5 60.15 75.75 60.95 75.8 L64.7 75.7 65.95 75.6 66.1 75.6 Q70.4 75.0 73.05 76.3 L73.55 76.65 74.25 77.2 Q74.65 77.55 74.95 77.85 L75.45 78.5 75.65 78.7 75.95 79.05 76.3 79.4 Q78.5 81.0 81.8 79.8 L82.55 79.5 83.45 79.0 Q84.55 78.25 85.3 77.3 86.3 76.2 86.85 75.2 87.2 74.75 87.35 74.1 L87.1 73.1 Q86.5 72.2 84.25 71.45 L83.1 71.1 82.0 70.85 78.15 70.25 74.05 69.95 71.1 69.95 69.6 70.0 64.05 70.5 Q61.9 70.9 60.35 71.35 L58.75 72.25 Q56.75 73.3 57.45 74.3" fill="#57d1f6" fill-rule="evenodd" stroke="none"/>
      <path d="M57.55 74.5 L57.65 74.55 57.65 74.55 Q58.35 75.25 59.5 75.6 60.2 75.85 61.0 75.9 L64.75 75.8 66.0 75.7 66.15 75.7 Q70.45 75.1 73.1 76.4 L73.6 76.75 74.3 77.3 Q74.7 77.65 75.0 77.95 L75.5 78.6 75.7 78.8 76.0 79.15 76.35 79.5 Q78.55 81.1 81.85 79.9 L82.6 79.6 83.5 79.1 Q84.6 78.35 85.35 77.4 86.35 76.3 86.9 75.3 87.25 74.85 87.4 74.2 L87.15 73.2 Q86.55 72.3 84.3 71.55 L83.15 71.2 82.05 70.95 78.2 70.35 74.1 70.05 71.15 70.05 69.65 70.1 64.1 70.6 Q61.95 71.0 60.4 71.45 L58.8 72.35 Q56.8 73.4 57.5 74.4" fill="#8bd7e7" fill-rule="evenodd" stroke="none"/>
      <path d="M41.25 79.65 Q41.15 76.85 41.55 74.65 L41.6 74.45 41.65 74.25 41.8 73.6 Q42.15 72.95 42.75 72.25 43.25 71.7 44.05 71.5 L45.45 71.05 45.75 70.95 46.85 70.55 47.5 70.35 47.7 70.25 48.5 70.05 Q51.45 69.15 53.9 68.9 L56.95 68.9 57.0 68.9 57.1 68.9 57.15 68.9 57.25 68.9 57.35 68.9 57.75 68.85 57.85 68.85 57.95 68.85 60.1 68.7 60.2 68.7 60.75 68.65 63.6 68.35 63.8 68.35 64.2 68.35 65.2 68.3 66.8 68.45 66.85 68.45 67.0 68.45 67.05 68.45 67.1 68.45 67.2 68.45 67.3 68.45 67.4 68.45 69.65 68.5 69.95 68.5 70.05 68.5 74.1 68.6 74.25 68.6 74.35 68.65 74.45 68.65 74.5 68.65 74.65 68.65 74.7 68.65 74.85 68.65 75.05 68.65 77.6 68.8 77.8 68.8 78.0 68.8 82.7 69.45 86.1 70.05 86.25 70.05 86.65 70.15 Q89.35 70.75 91.3 71.45 L91.55 71.55 92.0 71.8 92.7 72.3 92.75 72.35 93.0 72.9 93.0 73.05 93.15 73.4 93.35 73.65 93.4 73.75 93.45 73.95 93.45 74.0 Q93.9 74.85 94.45 75.5 L94.85 76.1 Q94.85 76.45 95.0 77.45 L94.9 79.35 Q94.75 82.4 94.8 85.75 L94.8 86.55 94.8 86.75 94.8 87.45 94.75 89.45 94.8 95.85 94.55 98.8 94.45 99.15 94.15 99.8 Q93.1 101.7 88.2 103.05 84.15 104.2 76.4 105.3 L76.3 105.3 76.0 105.3 74.9 105.3 73.45 105.35 71.4 105.4 71.1 105.4 70.8 105.4 70.5 105.4 68.75 105.4 68.55 105.4 68.45 105.4 67.35 105.4 67.25 105.4 67.1 105.4 64.0 105.3 61.2 105.15 59.65 105.0 Q54.6 104.45 50.95 103.35 L50.65 103.25 50.2 103.1 Q46.55 101.8 44.2 100.7 L43.4 100.2 43.1 99.9 Q42.6 99.3 42.25 98.55 41.8 97.45 41.4 96.1 L41.3 95.75 41.3 95.55 Q41.7 93.4 41.1 91.75 41.3 89.85 41.2 88.1 L41.2 88.0 41.15 87.25 41.15 86.85 Q41.0 83.6 41.0 80.55 L41.0 80.4 41.0 80.3 41.0 79.8 M50.5 75.05 Q50.4 74.35 51.4 73.65 53.15 72.6 54.8 72.25 L58.5 71.75 59.95 71.65 61.5 71.5 64.25 71.5 67.7 71.7 68.5 71.8 Q70.85 72.25 71.4 72.75 L71.4 73.3 Q71.1 74.2 70.45 75.05 69.9 76.15 68.7 76.75 L68.15 76.95 Q66.35 77.65 64.05 77.55 L63.7 77.5 63.25 77.35 62.55 77.0 Q62.25 76.85 61.9 76.7 L61.3 76.5 61.1 76.45 60.8 76.35 Q58.6 75.95 56.1 76.15 L56.0 76.15 55.15 76.2 52.6 76.25 Q52.0 76.25 51.55 76.0 50.85 75.75 50.55 75.2 L50.55 75.15 Q50.45 74.45 51.45 73.75 53.2 72.7 54.85 72.35 L58.55 71.85 60.0 71.75 61.55 71.6 64.3 71.6 67.75 71.8 68.55 71.9 Q70.9 72.35 71.45 72.85 L71.45 73.4 Q71.15 74.3 70.5 75.15 69.95 76.25 68.75 76.85 L68.2 77.05 Q66.4 77.75 64.1 77.65 L63.75 77.6 63.3 77.45 62.6 77.1 Q62.3 76.95 61.95 76.8 L61.35 76.6 61.15 76.55 60.85 76.45 Q58.65 76.05 56.15 76.25 L56.05 76.25 55.2 76.3 52.65 76.35 Q52.05 76.35 51.6 76.1 50.9 75.85 50.6 75.3 L50.6 75.25 M57.45 74.3 Q56.75 73.3 58.75 72.25 L60.35 71.35 Q61.9 70.9 64.05 70.5 L69.6 70.0 71.1 69.95 74.05 69.95 78.15 70.25 82.0 70.85 83.1 71.1 84.25 71.45 Q86.5 72.2 87.1 73.1 L87.35 74.1 Q87.2 74.75 86.85 75.2 86.3 76.2 85.3 77.3 84.55 78.25 83.45 79.0 L82.55 79.5 81.8 79.8 Q78.5 81.0 76.3 79.4 L75.95 79.05 75.65 78.7 75.45 78.5 74.95 77.85 Q74.65 77.55 74.25 77.2 L73.55 76.65 73.05 76.3 Q70.4 75.0 66.1 75.6 L65.95 75.6 64.7 75.7 60.95 75.8 Q60.15 75.75 59.45 75.5 58.3 75.15 57.6 74.45 L57.6 74.45 57.5 74.4 Q56.8 73.4 58.8 72.35 L60.4 71.45 Q61.95 71.0 64.1 70.6 L69.65 70.1 71.15 70.05 74.1 70.05 78.2 70.35 82.05 70.95 83.15 71.2 84.3 71.55 Q86.55 72.3 87.15 73.2 L87.4 74.2 Q87.25 74.85 86.9 75.3 86.35 76.3 85.35 77.4 84.6 78.35 83.5 79.1 L82.6 79.6 81.85 79.9 Q78.55 81.1 76.35 79.5 L76.0 79.15 75.7 78.8 75.5 78.6 75.0 77.95 Q74.7 77.65 74.3 77.3 L73.6 76.75 73.1 76.4 Q70.45 75.1 66.15 75.7 L66.0 75.7 64.75 75.8 61.0 75.9 Q60.2 75.85 59.5 75.6 58.35 75.25 57.65 74.55 L57.65 74.55 57.55 74.5" fill="none" stroke="#000000" stroke-linecap="round" stroke-linejoin="round" stroke-opacity="0.0" stroke-width="1.0"/>
    </g>
  </defs>
</svg>
