<?xml version="1.0" encoding="UTF-8" standalone="no"?>
<svg xmlns:xlink="http://www.w3.org/1999/xlink" height="40.55px" width="55.2px" xmlns="http://www.w3.org/2000/svg">
  <g transform="matrix(1.0, 0.0, 0.0, 1.0, -41.2, -65.6)">
    <use height="39.55" transform="matrix(1.0, 0.0, 0.0, 1.0, 41.2, 65.6)" width="54.3" xlink:href="#morphshape0"/>
  </g>
  <defs>
    <g id="morphshape0" transform="matrix(1.0, 0.0, 0.0, 1.0, -41.2, -65.6)">
      <path d="M52.3 76.7 L52.3 76.8 Q52.65 77.7 53.6 78.1 54.2 78.55 55.0 78.6 L58.4 78.75 59.55 78.75 59.7 78.75 Q63.1 78.55 66.05 79.25 L66.45 79.4 66.65 79.45 67.5 79.8 Q68.0 80.0 68.4 80.25 L69.35 80.85 69.95 81.1 70.4 81.2 Q73.5 81.45 75.9 80.45 L76.65 80.15 Q78.25 79.3 78.85 77.7 79.65 76.45 79.95 75.1 L79.95 74.25 Q79.4 73.4 76.15 72.65 L75.1 72.45 70.5 72.0 66.85 71.85 64.8 71.95 62.85 72.05 57.9 72.6 Q55.75 73.05 53.4 74.55 52.05 75.55 52.35 76.55 M41.1 81.1 L41.1 81.35 41.1 81.45 41.1 81.6 Q41.1 84.55 41.3 87.8 L41.3 88.2 41.35 88.95 41.35 89.05 Q41.5 90.75 41.2 92.65 42.05 94.1 41.45 96.35 L41.45 96.5 41.6 96.85 Q42.15 98.1 42.7 99.2 43.05 99.9 43.65 100.4 L43.95 100.65 44.75 101.1 Q47.45 102.15 50.8 103.3 L51.25 103.45 51.55 103.55 Q55.2 104.65 60.25 105.15 L61.8 105.3 64.55 105.45 67.65 105.55 67.8 105.55 67.9 105.55 69.0 105.55 69.1 105.55 69.3 105.55 71.05 105.55 71.35 105.55 71.65 105.55 71.95 105.55 74.0 105.5 75.4 105.45 76.5 105.45 76.8 105.45 76.95 105.45 Q84.85 104.3 88.65 103.15 93.35 101.85 94.35 99.85 L94.6 99.25 94.7 98.85 94.95 95.95 94.85 89.6 94.95 87.65 94.95 87.0 94.95 86.8 94.95 86.0 Q94.9 82.75 94.95 79.7 L94.95 77.85 Q94.85 76.7 94.95 76.5 L94.4 76.1 Q93.6 75.7 93.0 74.95 L93.0 74.9 92.9 74.75 92.85 74.65 92.55 74.45 92.35 74.15 92.35 74.0 92.05 73.5 91.95 73.4 91.3 72.95 90.85 72.7 90.6 72.6 Q88.45 71.95 85.95 71.35 L85.55 71.25 85.4 71.25 82.0 70.7 77.4 70.05 77.2 70.05 77.0 70.05 74.5 69.9 74.3 69.9 74.15 69.9 74.1 69.9 73.95 69.9 73.9 69.9 73.8 69.9 73.7 69.85 73.55 69.85 69.55 69.75 69.45 69.75 69.15 69.75 66.95 69.7 66.85 69.7 66.75 69.7 66.65 69.7 66.6 69.7 66.55 69.7 66.4 69.7 66.35 69.7 64.7 69.6 63.75 69.65 63.35 69.65 63.15 69.65 60.35 69.95 59.8 70.0 59.7 70.0 57.5 70.2 57.4 70.2 57.3 70.2 56.9 70.25 56.8 70.25 56.7 70.25 56.65 70.25 56.55 70.25 56.5 70.25 53.45 70.3 Q50.95 70.6 48.1 71.5 L47.3 71.7 47.1 71.8 46.4 72.05 45.3 72.45 45.05 72.55 43.75 72.9 Q42.9 73.0 42.5 73.65 41.95 74.4 41.75 75.1 L41.65 75.75 41.6 75.95 41.55 76.15 Q41.15 78.3 41.25 81.0" fill="#33ccff" fill-rule="evenodd" stroke="none"/>
      <path d="M55.9 76.4 L55.95 76.45 55.95 76.45 Q56.5 77.45 57.7 77.95 58.45 78.4 59.35 78.5 L63.35 78.6 64.7 78.55 64.85 78.55 Q69.15 78.1 72.3 79.25 L72.9 79.6 73.8 80.15 Q74.3 80.5 74.7 80.8 L75.4 81.45 75.7 81.65 76.15 81.95 76.6 82.2 Q79.65 83.2 82.8 81.95 L83.65 81.6 84.6 81.0 Q85.75 80.15 86.4 78.95 87.4 77.6 87.75 76.35 88.05 75.9 88.05 75.1 L87.4 74.1 Q86.5 73.3 84.15 72.6 L82.9 72.25 81.7 72.0 77.55 71.4 73.2 71.1 70.1 71.15 68.45 71.2 62.6 71.75 Q60.2 72.2 58.65 72.75 L57.1 73.85 Q55.2 75.0 55.85 76.15" fill="#68d3f1" fill-rule="evenodd" stroke="none"/>
      <path d="M55.95 76.65 L56.0 76.7 56.0 76.7 Q56.55 77.7 57.75 78.2 58.5 78.65 59.4 78.75 L63.4 78.85 64.75 78.8 64.9 78.8 Q69.2 78.35 72.35 79.5 L72.95 79.85 73.85 80.4 Q74.35 80.75 74.75 81.05 L75.45 81.7 75.75 81.9 76.2 82.2 76.65 82.45 Q79.7 83.45 82.85 82.2 L83.7 81.85 84.65 81.25 Q85.8 80.4 86.45 79.2 87.45 77.85 87.8 76.6 88.1 76.15 88.1 75.35 L87.45 74.35 Q86.55 73.55 84.2 72.85 L82.95 72.5 81.75 72.25 77.6 71.65 73.25 71.35 70.15 71.4 68.5 71.45 62.65 72.0 Q60.25 72.45 58.7 73.0 L57.15 74.1 Q55.25 75.25 55.9 76.4" fill="#83d6ea" fill-rule="evenodd" stroke="none"/>
      <path d="M41.25 81.0 Q41.15 78.3 41.55 76.15 L41.6 75.95 41.65 75.75 41.75 75.1 Q41.95 74.4 42.5 73.65 42.9 73.0 43.75 72.9 L45.05 72.55 45.3 72.45 46.4 72.05 47.1 71.8 47.3 71.7 48.1 71.5 Q50.95 70.6 53.45 70.3 L56.5 70.25 56.55 70.25 56.65 70.25 56.7 70.25 56.8 70.25 56.9 70.25 57.3 70.2 57.4 70.2 57.5 70.2 59.7 70.0 59.8 70.0 60.35 69.95 63.15 69.65 63.35 69.65 63.75 69.65 64.7 69.6 66.35 69.7 66.4 69.7 66.55 69.7 66.6 69.7 66.65 69.7 66.75 69.7 66.85 69.7 66.95 69.7 69.15 69.75 69.45 69.75 69.55 69.75 73.55 69.85 73.7 69.85 73.8 69.9 73.9 69.9 73.95 69.9 74.1 69.9 74.15 69.9 74.3 69.9 74.5 69.9 77.0 70.05 77.2 70.05 77.4 70.05 82.0 70.7 85.4 71.25 85.55 71.25 85.95 71.35 Q88.45 71.95 90.6 72.6 L90.85 72.7 91.3 72.95 91.95 73.4 92.05 73.5 92.35 74.0 92.35 74.15 92.55 74.45 92.85 74.65 92.9 74.75 93.0 74.9 93.0 74.95 Q93.6 75.7 94.4 76.1 L94.95 76.5 Q94.85 76.7 94.95 77.85 L94.95 79.7 Q94.9 82.75 94.95 86.0 L94.95 86.8 94.95 87.0 94.95 87.65 94.85 89.6 94.95 95.95 94.7 98.85 94.6 99.25 94.35 99.85 Q93.35 101.85 88.65 103.15 84.85 104.3 76.95 105.45 L76.8 105.45 76.5 105.45 75.4 105.45 74.0 105.5 71.95 105.55 71.65 105.55 71.35 105.55 71.05 105.55 69.3 105.55 69.1 105.55 69.0 105.55 67.9 105.55 67.8 105.55 67.65 105.55 64.55 105.45 61.8 105.3 60.25 105.15 Q55.2 104.65 51.55 103.55 L51.25 103.45 50.8 103.3 Q47.45 102.15 44.75 101.1 L43.95 100.65 43.65 100.4 Q43.05 99.9 42.7 99.2 42.15 98.1 41.6 96.85 L41.45 96.5 41.45 96.35 Q42.05 94.1 41.2 92.65 41.5 90.75 41.35 89.05 L41.35 88.95 41.3 88.2 41.3 87.8 Q41.1 84.55 41.1 81.6 L41.1 81.45 41.1 81.35 41.1 81.1 M52.35 76.55 Q52.05 75.55 53.4 74.55 55.75 73.05 57.9 72.6 L62.85 72.05 64.8 71.95 66.85 71.85 70.5 72.0 75.1 72.45 76.15 72.65 Q79.4 73.4 79.95 74.25 L79.95 75.1 Q79.65 76.45 78.85 77.7 78.25 79.3 76.65 80.15 L75.9 80.45 Q73.5 81.45 70.4 81.2 L69.95 81.1 69.35 80.85 68.4 80.25 Q68.0 80.0 67.5 79.8 L66.65 79.45 66.45 79.4 66.05 79.25 Q63.1 78.55 59.7 78.75 L59.55 78.75 58.4 78.75 55.0 78.6 Q54.2 78.55 53.6 78.1 52.65 77.7 52.3 76.8 L52.3 76.7 Q52.0 75.7 53.35 74.7 55.7 73.2 57.85 72.75 L62.8 72.2 64.75 72.1 66.8 72.0 70.45 72.15 75.05 72.6 76.1 72.8 Q79.35 73.55 79.9 74.4 L79.9 75.25 Q79.6 76.6 78.8 77.85 78.2 79.45 76.6 80.3 L75.85 80.6 Q73.45 81.6 70.35 81.35 L69.9 81.25 69.3 81.0 68.35 80.4 Q67.95 80.15 67.45 79.95 L66.6 79.6 66.4 79.55 66.0 79.4 Q63.05 78.7 59.65 78.9 L59.5 78.9 58.35 78.9 54.95 78.75 Q54.15 78.7 53.55 78.25 52.6 77.85 52.25 76.95 L52.25 76.85 M55.85 76.15 Q55.2 75.0 57.1 73.85 L58.65 72.75 Q60.2 72.2 62.6 71.75 L68.45 71.2 70.1 71.15 73.2 71.1 77.55 71.4 81.7 72.0 82.9 72.25 84.15 72.6 Q86.5 73.3 87.4 74.1 L88.05 75.1 Q88.05 75.9 87.75 76.35 87.4 77.6 86.4 78.95 85.75 80.15 84.6 81.0 L83.65 81.6 82.8 81.95 Q79.65 83.2 76.6 82.2 L76.15 81.95 75.7 81.65 75.4 81.45 74.7 80.8 Q74.3 80.5 73.8 80.15 L72.9 79.6 72.3 79.25 Q69.15 78.1 64.85 78.55 L64.7 78.55 63.35 78.6 59.35 78.5 Q58.45 78.4 57.7 77.95 56.5 77.45 55.95 76.45 L55.95 76.45 55.9 76.4 Q55.25 75.25 57.15 74.1 L58.7 73.0 Q60.25 72.45 62.65 72.0 L68.5 71.45 70.15 71.4 73.25 71.35 77.6 71.65 81.75 72.25 82.95 72.5 84.2 72.85 Q86.55 73.55 87.45 74.35 L88.1 75.35 Q88.1 76.15 87.8 76.6 87.45 77.85 86.45 79.2 85.8 80.4 84.65 81.25 L83.7 81.85 82.85 82.2 Q79.7 83.45 76.65 82.45 L76.2 82.2 75.75 81.9 75.45 81.7 74.75 81.05 Q74.35 80.75 73.85 80.4 L72.95 79.85 72.35 79.5 Q69.2 78.35 64.9 78.8 L64.75 78.8 63.4 78.85 59.4 78.75 Q58.5 78.65 57.75 78.2 56.55 77.7 56.0 76.7 L56.0 76.7 55.95 76.65" fill="none" stroke="#000000" stroke-linecap="round" stroke-linejoin="round" stroke-opacity="0.0" stroke-width="1.0"/>
    </g>
  </defs>
</svg>
