<?xml version="1.0" encoding="UTF-8" standalone="no"?>
<svg xmlns:xlink="http://www.w3.org/1999/xlink" height="40.55px" width="55.2px" xmlns="http://www.w3.org/2000/svg">
  <g transform="matrix(1.0, 0.0, 0.0, 1.0, -41.2, -65.6)">
    <use height="31.75" transform="matrix(1.0, 0.0, 0.0, 1.0, 41.3, 73.4)" width="55.1" xlink:href="#morphshape0"/>
  </g>
  <defs>
    <g id="morphshape0" transform="matrix(1.0, 0.0, 0.0, 1.0, -41.3, -73.4)">
      <path d="M51.0 81.8 L51.0 81.8 51.0 81.85 Q51.25 83.65 52.5 84.65 L52.8 84.95 Q53.55 85.7 54.5 85.9 L55.05 86.0 59.35 86.7 59.75 86.8 61.0 86.9 Q65.65 87.35 70.3 87.8 L70.5 87.85 71.2 88.05 71.5 88.15 72.6 88.45 73.25 88.65 74.25 89.0 75.65 89.55 76.05 89.7 77.1 89.85 77.6 89.85 77.9 89.85 78.7 89.75 79.6 89.65 Q83.7 89.2 85.95 88.15 L87.25 87.55 Q89.25 86.3 89.7 83.6 L90.15 82.1 Q90.45 80.85 90.35 79.65 L90.35 78.4 90.35 78.4 Q90.15 77.8 89.25 77.2 87.8 76.35 84.55 75.6 L83.2 75.35 Q79.8 74.95 76.4 74.55 L75.25 74.45 71.2 74.25 70.5 74.25 68.9 74.3 64.8 74.55 58.1 75.45 Q55.05 76.05 53.55 76.8 53.05 77.05 52.1 78.55 50.55 80.1 51.0 81.8 M41.3 85.0 L41.3 85.0 41.3 85.2 Q41.3 88.0 41.75 90.95 L41.75 91.15 42.0 92.3 Q42.35 93.5 41.9 95.05 L41.7 95.75 Q43.45 96.45 42.2 99.15 L44.45 101.15 44.95 101.45 47.15 102.05 54.0 103.65 Q57.55 104.55 62.35 104.95 L62.35 104.95 63.85 105.0 66.5 105.1 66.5 105.1 69.6 105.05 70.8 105.0 72.7 104.95 72.9 104.95 73.0 104.95 73.6 104.9 73.8 104.9 75.5 104.75 75.75 104.75 76.85 104.65 77.2 104.65 78.0 104.55 Q86.7 103.15 89.8 102.0 L90.55 101.75 Q94.05 100.55 94.65 98.35 95.0 97.0 95.0 94.55 L95.0 93.35 Q94.8 90.85 94.65 88.35 L94.85 87.0 94.85 86.6 94.85 86.05 94.9 84.5 Q95.1 81.95 96.0 79.4 97.2 76.05 94.8 76.35 L93.25 76.55 91.15 76.85 89.8 76.9 89.25 76.25 88.05 75.65 Q86.1 75.05 83.05 74.6 L79.95 74.15 79.65 74.15 75.1 73.6 72.35 73.5 72.15 73.5 71.95 73.45 71.8 73.45 71.7 73.45 67.7 73.45 65.2 73.5 65.0 73.5 64.9 73.5 62.85 73.5 62.65 73.5 62.0 73.55 58.75 73.9 55.95 74.15 55.85 74.15 55.75 74.15 51.95 74.45 51.15 74.6 Q48.95 75.05 46.85 75.75 L45.05 76.45 Q43.65 77.15 42.7 76.95 42.0 76.8 41.7 77.3 L41.55 77.7 Q41.35 78.45 41.45 79.15 L41.5 79.45 41.7 80.35 Q41.25 82.45 41.3 85.0" fill="#33ccff" fill-rule="evenodd" stroke="none"/>
      <path d="M51.0 81.8 L51.0 81.8 51.0 81.85 Q51.25 83.65 52.5 84.65 L52.8 84.95 Q53.55 85.7 54.5 85.9 L55.05 86.0 59.35 86.7 59.75 86.8 61.0 86.9 Q65.65 87.35 70.3 87.8 L70.5 87.85 71.2 88.05 71.5 88.15 72.6 88.45 73.25 88.65 74.25 89.0 75.65 89.55 76.05 89.7 77.1 89.85 77.6 89.85 77.9 89.85 78.7 89.75 79.6 89.65 Q83.7 89.2 85.95 88.15 L87.25 87.55 Q89.25 86.3 89.7 83.6 L90.15 82.1 Q90.45 80.85 90.35 79.65 L90.35 78.4 90.35 78.4 Q90.15 77.8 89.25 77.2 87.8 76.35 84.55 75.6 L83.2 75.35 Q79.8 74.95 76.4 74.55 L75.25 74.45 71.2 74.25 70.5 74.25 68.9 74.3 64.8 74.55 58.1 75.45 Q55.05 76.05 53.55 76.8 53.05 77.05 52.1 78.55 50.55 80.1 51.0 81.8" fill="#68d3f1" fill-rule="evenodd" stroke="none"/>
      <path d="M41.3 85.0 Q41.25 82.45 41.7 80.35 L41.5 79.45 41.45 79.15 Q41.35 78.45 41.55 77.7 L41.7 77.3 Q42.0 76.8 42.7 76.95 43.65 77.15 45.05 76.45 L46.85 75.75 Q48.95 75.05 51.15 74.6 L51.95 74.45 55.75 74.15 55.85 74.15 55.95 74.15 58.75 73.9 62.0 73.55 62.65 73.5 62.85 73.5 64.9 73.5 65.0 73.5 65.2 73.5 67.7 73.45 71.7 73.45 71.8 73.45 71.95 73.45 72.15 73.5 72.35 73.5 75.1 73.6 79.65 74.15 79.95 74.15 83.05 74.6 Q86.1 75.05 88.05 75.65 L89.25 76.25 89.8 76.9 91.15 76.85 93.25 76.55 94.8 76.35 Q97.2 76.05 96.0 79.4 95.1 81.95 94.9 84.5 L94.85 86.05 94.85 86.6 94.85 87.0 94.65 88.35 Q94.8 90.85 95.0 93.35 L95.0 94.55 Q95.0 97.0 94.65 98.35 94.05 100.55 90.55 101.75 L89.8 102.0 Q86.7 103.15 78.0 104.55 L77.2 104.65 76.85 104.65 75.75 104.75 75.5 104.75 73.8 104.9 73.6 104.9 73.0 104.95 72.9 104.95 72.7 104.95 70.8 105.0 69.6 105.05 66.5 105.1 66.5 105.1 63.85 105.0 62.35 104.95 62.35 104.95 Q57.55 104.55 54.0 103.65 L47.15 102.05 44.95 101.45 44.45 101.15 42.2 99.15 Q43.45 96.45 41.7 95.75 L41.9 95.05 Q42.35 93.5 42.0 92.3 L41.75 91.15 41.75 90.95 Q41.3 88.0 41.3 85.2 L41.3 85.0 41.3 85.0 M51.0 81.8 Q50.55 80.1 52.1 78.55 53.05 77.05 53.55 76.8 55.05 76.05 58.1 75.45 L64.8 74.55 68.9 74.3 70.5 74.25 71.2 74.25 75.25 74.45 76.4 74.55 Q79.8 74.95 83.2 75.35 L84.55 75.6 Q87.8 76.35 89.25 77.2 90.15 77.8 90.35 78.4 L90.35 78.4 90.35 79.65 Q90.45 80.85 90.15 82.1 L89.7 83.6 Q89.25 86.3 87.25 87.55 L85.95 88.15 Q83.7 89.2 79.6 89.65 L78.7 89.75 77.9 89.85 77.6 89.85 77.1 89.85 76.05 89.7 75.65 89.55 74.25 89.0 73.25 88.65 72.6 88.45 71.5 88.15 71.2 88.05 70.5 87.85 70.3 87.8 Q65.65 87.35 61.0 86.9 L59.75 86.8 59.35 86.7 55.05 86.0 54.5 85.9 Q53.55 85.7 52.8 84.95 L52.5 84.65 Q51.25 83.65 51.0 81.85 L51.0 81.8 51.0 81.8 Q50.55 80.1 52.1 78.55 53.05 77.05 53.55 76.8 55.05 76.05 58.1 75.45 L64.8 74.55 68.9 74.3 70.5 74.25 71.2 74.25 75.25 74.45 76.4 74.55 Q79.8 74.95 83.2 75.35 L84.55 75.6 Q87.8 76.35 89.25 77.2 90.15 77.8 90.35 78.4 L90.35 78.4 90.35 79.65 Q90.45 80.85 90.15 82.1 L89.7 83.6 Q89.25 86.3 87.25 87.55 L85.95 88.15 Q83.7 89.2 79.6 89.65 L78.7 89.75 77.9 89.85 77.6 89.85 77.1 89.85 76.05 89.7 75.65 89.55 74.25 89.0 73.25 88.65 72.6 88.45 71.5 88.15 71.2 88.05 70.5 87.85 70.3 87.8 Q65.65 87.35 61.0 86.9 L59.75 86.8 59.35 86.7 55.05 86.0 54.5 85.9 Q53.55 85.7 52.8 84.95 L52.5 84.65 Q51.25 83.65 51.0 81.85 L51.0 81.8 51.0 81.8" fill="none" stroke="#000000" stroke-linecap="round" stroke-linejoin="round" stroke-opacity="0.0" stroke-width="1.0"/>
    </g>
  </defs>
</svg>
