<?xml version="1.0" encoding="UTF-8" standalone="no"?>
<svg xmlns:xlink="http://www.w3.org/1999/xlink" height="40.55px" width="55.2px" xmlns="http://www.w3.org/2000/svg">
  <g transform="matrix(1.0, 0.0, 0.0, 1.0, -41.2, -65.6)">
    <use height="31.75" transform="matrix(1.0, 0.0, 0.0, 1.0, 41.3, 73.4)" width="55.1" xlink:href="#morphshape0"/>
  </g>
  <defs>
    <g id="morphshape0" transform="matrix(1.0, 0.0, 0.0, 1.0, -41.3, -73.4)">
      <path d="M49.2 83.7 L49.2 83.7 49.2 83.75 Q49.4 85.75 50.55 86.9 L50.85 87.25 Q51.6 88.15 52.55 88.45 L53.1 88.6 57.7 89.55 58.1 89.65 59.45 89.8 Q64.15 90.35 69.5 90.8 L69.7 90.85 70.45 91.05 70.75 91.15 71.95 91.4 72.6 91.6 73.65 91.9 75.2 92.3 75.6 92.45 76.75 92.55 77.25 92.55 77.55 92.55 78.45 92.45 79.4 92.35 Q83.6 91.8 86.35 90.75 L87.8 90.15 Q90.05 88.95 90.5 85.95 L90.9 84.35 Q91.15 83.05 91.05 81.8 L91.0 80.45 91.0 80.35 Q90.9 79.7 90.15 79.0 88.95 77.95 85.25 77.1 L83.8 76.85 Q80.2 76.35 76.4 75.95 L75.15 75.85 70.7 75.65 69.95 75.65 68.25 75.7 63.8 76.0 56.5 76.95 Q53.2 77.6 51.65 78.4 51.0 78.75 50.15 80.45 48.7 82.1 49.1 84.0 M41.45 86.4 L41.45 86.4 41.45 86.6 Q41.45 89.45 41.95 92.25 L41.95 92.45 42.25 93.6 Q42.65 94.8 42.5 96.15 L42.4 96.75 Q44.15 97.45 43.45 99.75 L45.7 101.55 46.2 101.85 48.35 102.45 55.05 103.95 Q58.6 104.75 63.2 105.15 L63.2 105.15 64.7 105.2 67.3 105.3 67.3 105.3 70.35 105.25 71.55 105.2 73.45 105.15 73.65 105.15 73.75 105.15 74.35 105.1 74.55 105.1 76.25 104.95 76.5 104.95 77.6 104.85 77.95 104.85 78.75 104.75 Q87.3 103.35 90.3 102.2 L91.05 101.95 Q94.35 100.85 95.0 98.65 95.35 97.3 95.35 94.95 L95.35 93.75 Q95.15 91.25 94.95 88.85 L95.05 87.5 95.05 87.1 95.05 86.55 95.1 85.0 Q95.3 82.65 95.4 80.35 96.05 77.55 93.8 77.7 L92.3 77.8 90.25 78.0 88.9 78.0 88.35 77.45 87.15 76.9 Q85.2 76.35 82.3 75.95 L79.25 75.55 78.95 75.55 74.5 75.0 71.8 74.9 71.6 74.9 71.4 74.85 71.25 74.85 71.15 74.85 67.2 74.85 64.75 74.9 64.55 74.9 64.45 74.9 62.45 74.95 62.25 74.95 61.65 75.0 58.45 75.35 55.7 75.6 55.6 75.6 55.5 75.6 51.8 75.9 51.0 76.05 Q48.8 76.5 46.7 77.2 L44.9 77.9 Q43.55 78.6 42.7 78.55 42.05 78.5 41.8 79.0 L41.65 79.4 Q41.45 80.15 41.5 80.85 L41.55 81.15 41.7 82.05 Q41.25 84.1 41.3 86.6" fill="#33ccff" fill-rule="evenodd" stroke="none"/>
      <path d="M49.3 83.4 L49.3 83.4 49.3 83.45 Q49.5 85.45 50.65 86.6 L50.95 86.95 Q51.7 87.85 52.65 88.15 L53.2 88.3 57.8 89.25 58.2 89.35 59.55 89.5 Q64.25 90.05 69.6 90.5 L69.8 90.55 70.55 90.75 70.85 90.85 72.05 91.1 72.7 91.3 73.75 91.6 75.3 92.0 75.7 92.15 76.85 92.25 77.35 92.25 77.65 92.25 78.55 92.15 79.5 92.05 Q83.7 91.5 86.45 90.45 L87.9 89.85 Q90.15 88.65 90.6 85.65 L91.0 84.05 Q91.25 82.75 91.15 81.5 L91.1 80.15 91.1 80.05 Q91.0 79.4 90.25 78.7 89.05 77.65 85.35 76.8 L83.9 76.55 Q80.3 76.05 76.5 75.65 L75.25 75.55 70.8 75.35 70.05 75.35 68.35 75.4 63.9 75.7 56.6 76.65 Q53.3 77.3 51.75 78.1 51.1 78.45 50.25 80.15 48.8 81.8 49.2 83.7" fill="#5dd2f4" fill-rule="evenodd" stroke="none"/>
      <path d="M41.3 86.6 Q41.25 84.1 41.7 82.05 L41.55 81.15 41.5 80.85 Q41.45 80.15 41.65 79.4 L41.8 79.0 Q42.05 78.5 42.7 78.55 43.55 78.6 44.9 77.9 L46.7 77.2 Q48.8 76.5 51.0 76.05 L51.8 75.9 55.5 75.6 55.6 75.6 55.7 75.6 58.45 75.35 61.65 75.0 62.25 74.95 62.45 74.95 64.45 74.9 64.55 74.9 64.75 74.9 67.2 74.85 71.15 74.85 71.25 74.85 71.4 74.85 71.6 74.9 71.8 74.9 74.5 75.0 78.95 75.55 79.25 75.55 82.3 75.95 Q85.2 76.35 87.15 76.9 L88.35 77.45 88.9 78.0 90.25 78.0 92.3 77.8 93.8 77.7 Q96.05 77.55 95.4 80.35 95.3 82.65 95.1 85.0 L95.05 86.55 95.05 87.1 95.05 87.5 94.95 88.85 Q95.15 91.25 95.35 93.75 L95.35 94.95 Q95.35 97.3 95.0 98.65 94.35 100.85 91.05 101.95 L90.3 102.2 Q87.3 103.35 78.75 104.75 L77.95 104.85 77.6 104.85 76.5 104.95 76.25 104.95 74.55 105.1 74.35 105.1 73.75 105.15 73.65 105.15 73.45 105.15 71.55 105.2 70.35 105.25 67.3 105.3 67.3 105.3 64.7 105.2 63.2 105.15 63.2 105.15 Q58.6 104.75 55.05 103.95 L48.35 102.45 46.2 101.85 45.7 101.55 43.45 99.75 Q44.15 97.45 42.4 96.75 L42.5 96.15 Q42.65 94.8 42.25 93.6 L41.95 92.45 41.95 92.25 Q41.45 89.45 41.45 86.6 L41.45 86.4 41.45 86.4 M49.1 84.0 Q48.7 82.1 50.15 80.45 51.0 78.75 51.65 78.4 53.2 77.6 56.5 76.95 L63.8 76.0 68.25 75.7 69.95 75.65 70.7 75.65 75.15 75.85 76.4 75.95 Q80.2 76.35 83.8 76.85 L85.25 77.1 Q88.95 77.95 90.15 79.0 90.9 79.7 91.0 80.35 L91.0 80.45 91.05 81.8 Q91.15 83.05 90.9 84.35 L90.5 85.95 Q90.05 88.95 87.8 90.15 L86.35 90.75 Q83.6 91.8 79.4 92.35 L78.45 92.45 77.55 92.55 77.25 92.55 76.75 92.55 75.6 92.45 75.2 92.3 73.65 91.9 72.6 91.6 71.95 91.4 70.75 91.15 70.45 91.05 69.7 90.85 69.5 90.8 Q64.15 90.35 59.45 89.8 L58.1 89.65 57.7 89.55 53.1 88.6 52.55 88.45 Q51.6 88.15 50.85 87.25 L50.55 86.9 Q49.4 85.75 49.2 83.75 L49.2 83.7 49.2 83.7 Q48.8 81.8 50.25 80.15 51.1 78.45 51.75 78.1 53.3 77.3 56.6 76.65 L63.9 75.7 68.35 75.4 70.05 75.35 70.8 75.35 75.25 75.55 76.5 75.65 Q80.3 76.05 83.9 76.55 L85.35 76.8 Q89.05 77.65 90.25 78.7 91.0 79.4 91.1 80.05 L91.1 80.15 91.15 81.5 Q91.25 82.75 91.0 84.05 L90.6 85.65 Q90.15 88.65 87.9 89.85 L86.45 90.45 Q83.7 91.5 79.5 92.05 L78.55 92.15 77.65 92.25 77.35 92.25 76.85 92.25 75.7 92.15 75.3 92.0 73.75 91.6 72.7 91.3 72.05 91.1 70.85 90.85 70.55 90.75 69.8 90.55 69.6 90.5 Q64.25 90.05 59.55 89.5 L58.2 89.35 57.8 89.25 53.2 88.3 52.65 88.15 Q51.7 87.85 50.95 86.95 L50.65 86.6 Q49.5 85.45 49.3 83.45 L49.3 83.4 49.3 83.4" fill="none" stroke="#000000" stroke-linecap="round" stroke-linejoin="round" stroke-opacity="0.0" stroke-width="1.0"/>
    </g>
  </defs>
</svg>
