<?xml version="1.0" encoding="UTF-8" standalone="no"?>
<svg xmlns:xlink="http://www.w3.org/1999/xlink" height="40.55px" width="55.2px" xmlns="http://www.w3.org/2000/svg">
  <g transform="matrix(1.0, 0.0, 0.0, 1.0, -41.2, -65.6)">
    <use height="31.75" transform="matrix(1.0, 0.0, 0.0, 1.0, 41.3, 73.4)" width="55.1" xlink:href="#morphshape0"/>
  </g>
  <defs>
    <g id="morphshape0" transform="matrix(1.0, 0.0, 0.0, 1.0, -41.3, -73.4)">
      <path d="M47.15 85.9 L47.15 85.9 47.15 85.95 Q47.3 88.15 48.35 89.5 L48.65 89.9 Q49.4 90.95 50.35 91.35 L50.95 91.55 55.9 92.75 56.35 92.85 57.8 93.1 Q62.55 93.8 68.6 94.2 L68.8 94.25 69.6 94.4 69.9 94.5 71.2 94.7 71.9 94.85 73.0 95.05 74.7 95.3 75.15 95.4 76.4 95.45 76.95 95.45 77.25 95.45 78.25 95.35 79.25 95.25 Q83.6 94.6 86.85 93.55 L88.5 92.9 Q91.05 91.75 91.5 88.45 L91.8 86.75 Q91.95 85.4 91.85 84.1 L91.75 82.6 91.75 82.4 Q91.75 81.7 91.2 80.9 90.3 79.65 86.15 78.65 L84.55 78.35 Q80.75 77.75 76.55 77.35 L75.15 77.25 70.3 77.0 69.45 77.0 67.6 77.05 62.8 77.4 54.9 78.4 Q51.3 79.1 49.7 80.0 48.9 80.45 48.15 82.35 46.85 84.15 47.15 86.25 M41.45 88.1 L41.45 88.15 41.45 88.35 Q41.45 91.25 42.05 93.85 L42.05 94.0 42.4 95.1 Q42.9 96.3 43.05 97.4 L43.1 97.9 Q44.8 98.55 44.65 100.4 L46.95 101.95 47.45 102.2 49.55 102.8 56.05 104.15 Q59.6 104.8 63.95 105.15 L63.95 105.15 65.4 105.2 67.95 105.3 67.95 105.3 70.9 105.2 72.1 105.15 73.95 105.1 74.15 105.1 74.3 105.1 74.85 105.05 75.05 105.05 76.7 104.85 76.95 104.85 78.05 104.75 78.35 104.75 79.15 104.65 Q87.55 103.25 90.4 102.15 L91.15 101.9 Q94.25 100.9 94.95 98.65 95.35 97.3 95.35 95.05 L95.35 93.9 Q95.2 91.45 94.95 89.15 L94.95 87.8 94.95 87.4 95.0 86.9 95.05 85.4 Q95.2 83.3 94.5 81.3 94.6 79.05 92.5 79.05 L91.05 79.05 89.05 79.15 87.75 79.1 87.2 78.65 86.0 78.2 Q84.0 77.7 81.3 77.35 L78.3 77.0 78.0 77.0 73.65 76.5 71.0 76.4 70.8 76.4 70.6 76.35 70.5 76.35 70.4 76.35 66.55 76.35 64.15 76.45 63.95 76.45 63.85 76.45 61.9 76.55 61.7 76.55 61.2 76.6 58.1 76.95 55.4 77.2 55.3 77.2 55.2 77.2 51.6 77.55 50.8 77.7 Q48.65 78.15 46.55 78.8 L44.8 79.5 Q43.5 80.15 42.75 80.25 42.15 80.3 41.95 80.8 L41.85 81.2 Q41.65 81.9 41.65 82.6 L41.65 82.9 41.7 83.8 Q41.25 85.8 41.3 88.2" fill="#33ccff" fill-rule="evenodd" stroke="none"/>
      <path d="M47.15 85.55 L47.15 85.55 47.15 85.6 Q47.3 87.8 48.35 89.15 L48.65 89.55 Q49.4 90.6 50.35 91.0 L50.95 91.2 55.9 92.4 56.35 92.5 57.8 92.75 Q62.55 93.45 68.6 93.85 L68.8 93.9 69.6 94.05 69.9 94.15 71.2 94.35 71.9 94.5 73.0 94.7 74.7 94.95 75.15 95.05 76.4 95.1 76.95 95.1 77.25 95.1 78.25 95.0 79.25 94.9 Q83.6 94.25 86.85 93.2 L88.5 92.55 Q91.05 91.4 91.5 88.1 L91.8 86.4 Q91.95 85.05 91.85 83.75 L91.75 82.25 91.75 82.05 Q91.75 81.35 91.2 80.55 90.3 79.3 86.15 78.3 L84.55 78.0 Q80.75 77.4 76.55 77.0 L75.15 76.9 70.3 76.65 69.45 76.65 67.6 76.7 62.8 77.05 54.9 78.05 Q51.3 78.75 49.7 79.65 48.9 80.1 48.15 82.0 46.85 83.8 47.15 85.9" fill="#53d0f7" fill-rule="evenodd" stroke="none"/>
      <path d="M41.3 88.2 Q41.25 85.8 41.7 83.8 L41.65 82.9 41.65 82.6 Q41.65 81.9 41.85 81.2 L41.95 80.8 Q42.15 80.3 42.75 80.25 43.5 80.15 44.8 79.5 L46.55 78.8 Q48.65 78.15 50.8 77.7 L51.6 77.55 55.2 77.2 55.3 77.2 55.4 77.2 58.1 76.95 61.2 76.6 61.7 76.55 61.9 76.55 63.85 76.45 63.95 76.45 64.15 76.45 66.55 76.35 70.4 76.35 70.5 76.35 70.6 76.35 70.8 76.4 71.0 76.4 73.65 76.5 78.0 77.0 78.3 77.0 81.3 77.35 Q84.0 77.7 86.0 78.2 L87.2 78.65 87.75 79.1 89.05 79.15 91.05 79.05 92.5 79.05 Q94.6 79.05 94.5 81.3 95.2 83.3 95.05 85.4 L95.0 86.9 94.95 87.4 94.95 87.8 94.95 89.15 Q95.2 91.45 95.35 93.9 L95.35 95.05 Q95.35 97.3 94.95 98.65 94.25 100.9 91.15 101.9 L90.4 102.15 Q87.55 103.25 79.15 104.65 L78.35 104.75 78.05 104.75 76.95 104.85 76.7 104.85 75.05 105.05 74.85 105.05 74.3 105.1 74.15 105.1 73.95 105.1 72.1 105.15 70.9 105.2 67.95 105.3 67.95 105.3 65.4 105.2 63.95 105.15 63.95 105.15 Q59.6 104.8 56.05 104.15 L49.55 102.8 47.45 102.2 46.95 101.95 44.65 100.4 Q44.8 98.55 43.1 97.9 L43.05 97.4 Q42.9 96.3 42.4 95.1 L42.05 94.0 42.05 93.85 Q41.45 91.25 41.45 88.35 L41.45 88.15 41.45 88.1 M47.15 86.25 Q46.85 84.15 48.15 82.35 48.9 80.45 49.7 80.0 51.3 79.1 54.9 78.4 L62.8 77.4 67.6 77.05 69.45 77.0 70.3 77.0 75.15 77.25 76.55 77.35 Q80.75 77.75 84.55 78.35 L86.15 78.65 Q90.3 79.65 91.2 80.9 91.75 81.7 91.75 82.4 L91.75 82.6 91.85 84.1 Q91.95 85.4 91.8 86.75 L91.5 88.45 Q91.05 91.75 88.5 92.9 L86.85 93.55 Q83.6 94.6 79.25 95.25 L78.25 95.35 77.25 95.45 76.95 95.45 76.4 95.45 75.15 95.4 74.7 95.3 73.0 95.05 71.9 94.85 71.2 94.7 69.9 94.5 69.6 94.4 68.8 94.25 68.6 94.2 Q62.55 93.8 57.8 93.1 L56.35 92.85 55.9 92.75 50.95 91.55 50.35 91.35 Q49.4 90.95 48.65 89.9 L48.35 89.5 Q47.3 88.15 47.15 85.95 L47.15 85.9 47.15 85.9 Q46.85 83.8 48.15 82.0 48.9 80.1 49.7 79.65 51.3 78.75 54.9 78.05 L62.8 77.05 67.6 76.7 69.45 76.65 70.3 76.65 75.15 76.9 76.55 77.0 Q80.75 77.4 84.55 78.0 L86.15 78.3 Q90.3 79.3 91.2 80.55 91.75 81.35 91.75 82.05 L91.75 82.25 91.85 83.75 Q91.95 85.05 91.8 86.4 L91.5 88.1 Q91.05 91.4 88.5 92.55 L86.85 93.2 Q83.6 94.25 79.25 94.9 L78.25 95.0 77.25 95.1 76.95 95.1 76.4 95.1 75.15 95.05 74.7 94.95 73.0 94.7 71.9 94.5 71.2 94.35 69.9 94.15 69.6 94.05 68.8 93.9 68.6 93.85 Q62.55 93.45 57.8 92.75 L56.35 92.5 55.9 92.4 50.95 91.2 50.35 91.0 Q49.4 90.6 48.65 89.55 L48.35 89.15 Q47.3 87.8 47.15 85.6 L47.15 85.55 47.15 85.55" fill="none" stroke="#000000" stroke-linecap="round" stroke-linejoin="round" stroke-opacity="0.0" stroke-width="1.0"/>
    </g>
  </defs>
</svg>
