<?xml version="1.0" encoding="UTF-8" standalone="no"?>
<svg xmlns:xlink="http://www.w3.org/1999/xlink" height="40.55px" width="55.2px" xmlns="http://www.w3.org/2000/svg">
  <g transform="matrix(1.0, 0.0, 0.0, 1.0, -41.2, -65.6)">
    <use height="31.75" transform="matrix(1.0, 0.0, 0.0, 1.0, 41.3, 73.4)" width="55.1" xlink:href="#morphshape0"/>
  </g>
  <defs>
    <g id="morphshape0" transform="matrix(1.0, 0.0, 0.0, 1.0, -41.3, -73.4)">
      <path d="M45.35 88.4 L45.35 88.45 45.35 88.5 Q45.45 90.9 46.4 92.45 L46.65 92.9 Q47.4 94.1 48.35 94.6 L49.0 94.85 54.25 96.3 54.75 96.45 56.3 96.75 Q61.1 97.6 67.85 97.95 L68.05 98.0 68.95 98.1 69.25 98.15 70.65 98.3 71.35 98.4 72.5 98.5 74.35 98.6 74.85 98.65 76.2 98.65 76.75 98.6 77.1 98.55 78.2 98.4 79.25 98.25 Q83.7 97.45 87.45 96.4 L89.25 95.7 Q92.1 94.6 92.55 91.0 L92.8 89.2 Q92.85 87.75 92.75 86.35 L92.55 84.75 92.5 84.45 Q92.65 83.65 92.25 82.75 91.65 81.3 87.0 80.2 L85.25 79.85 Q81.25 79.15 76.65 78.75 L75.1 78.65 69.85 78.35 68.95 78.35 67.0 78.4 61.85 78.8 53.3 79.9 Q49.45 80.65 47.75 81.6 46.8 82.15 46.2 84.25 45.0 86.2 45.2 88.5 M41.55 89.55 L41.55 89.65 41.55 89.8 Q41.55 92.8 42.25 95.2 L42.25 95.3 42.65 96.4 Q43.25 97.6 43.7 98.5 L43.85 98.9 Q45.55 99.55 46.0 101.0 L48.35 102.3 48.85 102.5 50.9 103.1 57.25 104.3 Q60.8 104.85 64.9 105.15 L64.9 105.15 66.3 105.2 68.8 105.25 68.8 105.25 71.7 105.15 72.85 105.1 74.65 105.0 74.8 105.0 74.95 105.0 75.45 104.95 75.6 104.95 77.2 104.75 77.45 104.75 78.5 104.6 78.8 104.6 79.55 104.5 Q87.8 103.05 90.5 102.0 L91.25 101.75 Q94.15 100.85 94.95 98.6 95.4 97.25 95.4 95.15 L95.4 94.0 Q95.25 91.6 94.95 89.45 L94.85 88.1 94.9 87.75 94.95 87.25 95.05 85.8 Q95.15 83.9 93.65 82.2 93.15 80.55 91.2 80.4 L89.8 80.3 87.9 80.25 86.65 80.15 86.1 79.8 84.9 79.4 Q82.85 79.0 80.35 78.7 L77.45 78.4 77.1 78.4 72.85 77.95 70.25 77.85 70.1 77.85 69.9 77.8 69.8 77.8 69.7 77.8 65.9 77.85 63.6 77.95 63.4 77.95 63.3 77.95 61.4 78.1 61.2 78.1 60.8 78.15 57.75 78.45 55.1 78.7 55.0 78.7 54.9 78.7 51.4 79.1 50.6 79.25 Q48.5 79.75 46.45 80.35 L44.7 81.05 Q43.45 81.7 42.8 81.95 42.3 82.15 42.15 82.65 L42.05 83.05 Q41.85 83.75 41.8 84.4 L41.8 84.65 41.75 85.5 Q41.25 87.45 41.3 89.8" fill="#33ccff" fill-rule="evenodd" stroke="none"/>
      <path d="M45.5 88.3 L45.5 88.35 45.5 88.4 Q45.6 90.8 46.55 92.35 L46.8 92.8 Q47.55 94.0 48.5 94.5 L49.15 94.75 54.4 96.2 54.9 96.35 56.45 96.65 Q61.25 97.5 68.0 97.85 L68.2 97.9 69.1 98.0 69.4 98.05 70.8 98.2 71.5 98.3 72.65 98.4 74.5 98.5 75.0 98.55 76.35 98.55 76.9 98.5 77.25 98.45 78.35 98.3 79.4 98.15 Q83.85 97.35 87.6 96.3 L89.4 95.6 Q92.25 94.5 92.7 90.9 L92.95 89.1 Q93.0 87.65 92.9 86.25 L92.7 84.65 92.65 84.35 Q92.8 83.55 92.4 82.65 91.8 81.2 87.15 80.1 L85.4 79.75 Q81.4 79.05 76.8 78.65 L75.25 78.55 70.0 78.25 69.1 78.25 67.15 78.3 62.0 78.7 53.45 79.8 Q49.6 80.55 47.9 81.5 46.95 82.05 46.35 84.15 45.15 86.1 45.35 88.4" fill="#48cffa" fill-rule="evenodd" stroke="none"/>
      <path d="M41.3 89.8 Q41.25 87.45 41.75 85.5 L41.8 84.65 41.8 84.4 Q41.85 83.75 42.05 83.05 L42.15 82.65 Q42.3 82.15 42.8 81.95 43.45 81.7 44.7 81.05 L46.45 80.35 Q48.5 79.75 50.6 79.25 L51.4 79.1 54.9 78.7 55.0 78.7 55.1 78.7 57.75 78.45 60.8 78.15 61.2 78.1 61.4 78.1 63.3 77.95 63.4 77.95 63.6 77.95 65.9 77.85 69.7 77.8 69.8 77.8 69.9 77.8 70.1 77.85 70.25 77.85 72.85 77.95 77.1 78.4 77.45 78.4 80.35 78.7 Q82.85 79.0 84.9 79.4 L86.1 79.8 86.65 80.15 87.9 80.25 89.8 80.3 91.2 80.4 Q93.15 80.55 93.65 82.2 95.15 83.9 95.05 85.8 L94.95 87.25 94.9 87.75 94.85 88.1 94.95 89.45 Q95.25 91.6 95.4 94.0 L95.4 95.15 Q95.4 97.25 94.95 98.6 94.15 100.85 91.25 101.75 L90.5 102.0 Q87.8 103.05 79.55 104.5 L78.8 104.6 78.5 104.6 77.45 104.75 77.2 104.75 75.6 104.95 75.45 104.95 74.95 105.0 74.8 105.0 74.65 105.0 72.85 105.1 71.7 105.15 68.8 105.25 68.8 105.25 66.3 105.2 64.9 105.15 64.9 105.15 Q60.8 104.85 57.25 104.3 L50.9 103.1 48.85 102.5 48.35 102.3 46.0 101.0 Q45.55 99.55 43.85 98.9 L43.7 98.5 Q43.25 97.6 42.65 96.4 L42.25 95.3 42.25 95.2 Q41.55 92.8 41.55 89.8 L41.55 89.65 41.55 89.55 M45.2 88.5 Q45.0 86.2 46.2 84.25 46.8 82.15 47.75 81.6 49.45 80.65 53.3 79.9 L61.85 78.8 67.0 78.4 68.95 78.35 69.85 78.35 75.1 78.65 76.65 78.75 Q81.25 79.15 85.25 79.85 L87.0 80.2 Q91.65 81.3 92.25 82.75 92.65 83.65 92.5 84.45 L92.55 84.75 92.75 86.35 Q92.85 87.75 92.8 89.2 L92.55 91.0 Q92.1 94.6 89.25 95.7 L87.45 96.4 Q83.7 97.45 79.25 98.25 L78.2 98.4 77.1 98.55 76.75 98.6 76.2 98.65 74.85 98.65 74.35 98.6 72.5 98.5 71.35 98.4 70.65 98.3 69.25 98.15 68.95 98.1 68.05 98.0 67.85 97.95 Q61.1 97.6 56.3 96.75 L54.75 96.45 54.25 96.3 49.0 94.85 48.35 94.6 Q47.4 94.1 46.65 92.9 L46.4 92.45 Q45.45 90.9 45.35 88.5 L45.35 88.45 45.35 88.4 Q45.15 86.1 46.35 84.15 46.95 82.05 47.9 81.5 49.6 80.55 53.45 79.8 L62.0 78.7 67.15 78.3 69.1 78.25 70.0 78.25 75.25 78.55 76.8 78.65 Q81.4 79.05 85.4 79.75 L87.15 80.1 Q91.8 81.2 92.4 82.65 92.8 83.55 92.65 84.35 L92.7 84.65 92.9 86.25 Q93.0 87.65 92.95 89.1 L92.7 90.9 Q92.25 94.5 89.4 95.6 L87.6 96.3 Q83.85 97.35 79.4 98.15 L78.35 98.3 77.25 98.45 76.9 98.5 76.35 98.55 75.0 98.55 74.5 98.5 72.65 98.4 71.5 98.3 70.8 98.2 69.4 98.05 69.1 98.0 68.2 97.9 68.0 97.85 Q61.25 97.5 56.45 96.65 L54.9 96.35 54.4 96.2 49.15 94.75 48.5 94.5 Q47.55 94.0 46.8 92.8 L46.55 92.35 Q45.6 90.8 45.5 88.4 L45.5 88.35 45.5 88.3" fill="none" stroke="#000000" stroke-linecap="round" stroke-linejoin="round" stroke-opacity="0.0" stroke-width="1.0"/>
    </g>
  </defs>
</svg>
