<?xml version="1.0" encoding="UTF-8" standalone="no"?>
<svg xmlns:xlink="http://www.w3.org/1999/xlink" height="40.55px" width="55.2px" xmlns="http://www.w3.org/2000/svg">
  <g transform="matrix(1.0, 0.0, 0.0, 1.0, -41.2, -65.6)">
    <use height="31.75" transform="matrix(1.0, 0.0, 0.0, 1.0, 41.3, 73.4)" width="55.1" xlink:href="#morphshape0"/>
  </g>
  <defs>
    <g id="morphshape0" transform="matrix(1.0, 0.0, 0.0, 1.0, -41.3, -73.4)">
      <path d="M43.3 90.6 L43.3 90.65 43.3 90.7 Q43.35 93.3 44.2 95.05 L44.45 95.55 Q45.2 96.9 46.15 97.5 L46.85 97.8 52.45 99.5 53.0 99.65 54.65 100.05 Q59.5 101.05 66.95 101.35 L67.15 101.4 68.1 101.45 68.4 101.5 69.9 101.6 70.65 101.65 71.85 101.65 73.85 101.6 74.4 101.6 75.85 101.55 76.45 101.5 76.8 101.45 78.0 101.3 79.1 101.15 Q83.7 100.25 87.95 99.2 L89.95 98.45 Q93.1 97.4 93.55 93.5 L93.7 91.6 Q93.65 90.1 93.55 88.65 L93.3 86.9 93.25 86.5 Q93.5 85.65 93.3 84.65 93.0 83.0 87.9 81.75 L86.0 81.35 Q81.8 80.55 76.8 80.15 L75.1 80.05 69.45 79.7 68.45 79.7 66.35 79.75 60.85 80.2 51.7 81.35 Q47.55 82.15 45.8 83.2 44.7 83.85 44.2 86.15 43.15 88.25 43.25 90.75 M41.55 91.25 L41.55 91.4 41.55 91.55 Q41.55 94.6 42.35 96.8 L42.35 96.85 42.8 97.9 Q43.5 99.1 44.25 99.75 L44.55 100.05 Q46.2 100.65 47.2 101.65 L49.6 102.7 50.1 102.85 52.1 103.45 58.25 104.5 Q61.8 104.9 65.65 105.15 L65.65 105.15 67.0 105.2 69.45 105.25 69.45 105.25 72.25 105.1 73.4 105.05 75.15 104.95 75.3 104.95 75.5 104.95 75.95 104.9 76.1 104.9 77.65 104.65 77.9 104.65 78.95 104.5 79.2 104.5 79.95 104.4 Q88.05 102.95 90.6 101.95 L91.35 101.7 Q94.05 100.9 94.9 98.6 95.4 97.25 95.4 95.25 L95.4 94.15 Q95.3 91.8 94.95 89.75 L94.75 88.4 94.8 88.05 94.9 87.6 95.0 86.2 Q95.05 84.55 92.75 83.15 91.7 82.05 89.9 81.75 L88.55 81.55 86.7 81.4 85.5 81.25 84.95 81.0 83.75 80.7 Q81.65 80.35 79.35 80.1 L76.5 79.85 76.15 79.85 72.0 79.45 69.45 79.35 69.3 79.35 69.1 79.3 69.05 79.3 68.95 79.3 65.25 79.35 63.0 79.5 62.8 79.5 62.7 79.5 60.85 79.7 60.65 79.7 60.35 79.75 57.4 80.05 54.8 80.3 54.7 80.3 54.6 80.3 51.2 80.75 50.4 80.9 Q48.35 81.4 46.3 81.95 L44.6 82.65 Q43.4 83.25 42.85 83.65 42.4 83.95 42.3 84.45 L42.25 84.85 Q42.05 85.5 41.95 86.15 L41.9 86.4 41.75 87.25 Q41.25 89.15 41.3 91.4" fill="#33ccff" fill-rule="evenodd" stroke="none"/>
      <path d="M43.35 90.45 L43.35 90.5 43.35 90.55 Q43.4 93.15 44.25 94.9 L44.5 95.4 Q45.25 96.75 46.2 97.35 L46.9 97.65 52.5 99.35 53.05 99.5 54.7 99.9 Q59.55 100.9 67.0 101.2 L67.2 101.25 68.15 101.3 68.45 101.35 69.95 101.45 70.7 101.5 71.9 101.5 73.9 101.45 74.45 101.45 75.9 101.4 76.5 101.35 76.85 101.3 78.05 101.15 79.15 101.0 Q83.75 100.1 88.0 99.05 L90.0 98.3 Q93.15 97.25 93.6 93.35 L93.75 91.45 Q93.7 89.95 93.6 88.5 L93.35 86.75 93.3 86.35 Q93.55 85.5 93.35 84.5 93.05 82.85 87.95 81.6 L86.05 81.2 Q81.85 80.4 76.85 80.0 L75.15 79.9 69.5 79.55 68.5 79.55 66.4 79.6 60.9 80.05 51.75 81.2 Q47.6 82.0 45.85 83.05 44.75 83.7 44.25 86.0 43.2 88.1 43.3 90.6" fill="#3ecdfd" fill-rule="evenodd" stroke="none"/>
      <path d="M41.3 91.4 Q41.25 89.15 41.75 87.25 L41.9 86.4 41.95 86.15 Q42.05 85.5 42.25 84.85 L42.3 84.45 Q42.4 83.95 42.85 83.65 43.4 83.25 44.6 82.65 L46.3 81.95 Q48.35 81.4 50.4 80.9 L51.2 80.75 54.6 80.3 54.7 80.3 54.8 80.3 57.4 80.05 60.35 79.75 60.65 79.7 60.85 79.7 62.7 79.5 62.8 79.5 63.0 79.5 65.25 79.35 68.95 79.3 69.05 79.3 69.1 79.3 69.3 79.35 69.45 79.35 72.0 79.45 76.15 79.85 76.5 79.85 79.35 80.1 Q81.65 80.35 83.75 80.7 L84.95 81.0 85.5 81.25 86.7 81.4 88.55 81.55 89.9 81.75 Q91.7 82.05 92.75 83.15 95.05 84.55 95.0 86.2 L94.9 87.6 94.8 88.05 94.75 88.4 94.95 89.75 Q95.3 91.8 95.4 94.15 L95.4 95.25 Q95.4 97.25 94.9 98.6 94.05 100.9 91.35 101.7 L90.6 101.95 Q88.05 102.95 79.95 104.4 L79.2 104.5 78.95 104.5 77.9 104.65 77.65 104.65 76.1 104.9 75.95 104.9 75.5 104.95 75.3 104.95 75.15 104.95 73.4 105.05 72.25 105.1 69.45 105.25 69.45 105.25 67.0 105.2 65.65 105.15 65.65 105.15 Q61.8 104.9 58.25 104.5 L52.1 103.45 50.1 102.85 49.6 102.7 47.2 101.65 Q46.2 100.65 44.55 100.05 L44.25 99.75 Q43.5 99.1 42.8 97.9 L42.35 96.85 42.35 96.8 Q41.55 94.6 41.55 91.55 L41.55 91.4 41.55 91.25 M43.25 90.75 Q43.15 88.25 44.2 86.15 44.7 83.85 45.8 83.2 47.55 82.15 51.7 81.35 L60.85 80.2 66.35 79.75 68.45 79.7 69.45 79.7 75.1 80.05 76.8 80.15 Q81.8 80.55 86.0 81.35 L87.9 81.75 Q93.0 83.0 93.3 84.65 93.5 85.65 93.25 86.5 L93.3 86.9 93.55 88.65 Q93.65 90.1 93.7 91.6 L93.55 93.5 Q93.1 97.4 89.95 98.45 L87.95 99.2 Q83.7 100.25 79.1 101.15 L78.0 101.3 76.8 101.45 76.45 101.5 75.85 101.55 74.4 101.6 73.85 101.6 71.85 101.65 70.65 101.65 69.9 101.6 68.4 101.5 68.1 101.45 67.15 101.4 66.95 101.35 Q59.5 101.05 54.65 100.05 L53.0 99.65 52.45 99.5 46.85 97.8 46.15 97.5 Q45.2 96.9 44.45 95.55 L44.2 95.05 Q43.35 93.3 43.3 90.7 L43.3 90.65 43.3 90.6 Q43.2 88.1 44.25 86.0 44.75 83.7 45.85 83.05 47.6 82.0 51.75 81.2 L60.9 80.05 66.4 79.6 68.5 79.55 69.5 79.55 75.15 79.9 76.85 80.0 Q81.85 80.4 86.05 81.2 L87.95 81.6 Q93.05 82.85 93.35 84.5 93.55 85.5 93.3 86.35 L93.35 86.75 93.6 88.5 Q93.7 89.95 93.75 91.45 L93.6 93.35 Q93.15 97.25 90.0 98.3 L88.0 99.05 Q83.75 100.1 79.15 101.0 L78.05 101.15 76.85 101.3 76.5 101.35 75.9 101.4 74.45 101.45 73.9 101.45 71.9 101.5 70.7 101.5 69.95 101.45 68.45 101.35 68.15 101.3 67.2 101.25 67.0 101.2 Q59.55 100.9 54.7 99.9 L53.05 99.5 52.5 99.35 46.9 97.65 46.2 97.35 Q45.25 96.75 44.5 95.4 L44.25 94.9 Q43.4 93.15 43.35 90.55 L43.35 90.5 43.35 90.45" fill="none" stroke="#000000" stroke-linecap="round" stroke-linejoin="round" stroke-opacity="0.0" stroke-width="1.0"/>
    </g>
  </defs>
</svg>
