<?xml version="1.0" encoding="UTF-8" standalone="no"?>
<svg xmlns:xlink="http://www.w3.org/1999/xlink" height="40.55px" width="55.2px" xmlns="http://www.w3.org/2000/svg">
  <g transform="matrix(1.0, 0.0, 0.0, 1.0, -41.2, -65.6)">
    <use height="25.3" transform="matrix(1.0, 0.0, 0.0, 1.0, 41.3, 80.85)" width="53.85" xlink:href="#morphshape0"/>
  </g>
  <defs>
    <g id="morphshape0" transform="matrix(1.0, 0.0, 0.0, 1.0, -41.3, -80.85)">
      <path d="M41.3 93.0 L41.3 93.1 Q41.3 96.3 42.25 98.35 L42.25 98.45 Q43.2 100.55 44.65 101.1 L49.25 102.6 Q50.25 102.95 51.2 103.25 55.8 104.7 64.25 105.05 65.3 105.1 66.3 105.15 L67.65 105.15 67.75 105.15 70.05 105.15 75.65 104.7 76.4 104.6 78.1 104.3 79.3 104.1 87.75 102.35 Q90.25 101.7 91.0 101.25 95.2 100.05 95.0 94.0 94.85 92.25 94.7 90.55 94.45 89.5 94.25 88.45 94.65 87.5 94.65 86.4 94.65 85.05 91.85 84.0 90.55 83.5 88.65 83.05 L87.0 82.65 82.4 81.9 78.15 81.45 77.25 81.35 75.25 81.25 71.75 80.95 68.05 80.85 66.55 80.85 64.3 80.95 59.95 81.4 55.35 81.8 Q52.75 82.25 50.15 82.65 48.9 82.95 47.65 83.25 L46.55 83.55 Q44.05 84.35 43.1 85.25 42.55 85.8 42.55 86.4 L42.2 88.0 Q41.3 90.25 41.3 93.0" fill="#33ccff" fill-rule="evenodd" stroke="none"/>
      <path d="M41.3 93.0 Q41.3 90.25 42.2 88.0 L42.55 86.4 Q42.55 85.8 43.1 85.25 44.05 84.35 46.55 83.55 L47.65 83.25 Q48.9 82.95 50.15 82.65 52.75 82.25 55.35 81.8 L59.95 81.4 64.3 80.95 66.55 80.85 68.05 80.85 71.75 80.95 75.25 81.25 77.25 81.35 78.15 81.45 82.4 81.9 87.0 82.65 88.65 83.05 Q90.55 83.5 91.85 84.0 94.65 85.05 94.65 86.4 94.65 87.5 94.25 88.45 94.45 89.5 94.7 90.55 94.85 92.25 95.0 94.0 95.2 100.05 91.0 101.25 90.25 101.7 87.75 102.35 L79.3 104.1 78.1 104.3 76.4 104.6 75.65 104.7 70.05 105.15 67.75 105.15 67.65 105.15 66.3 105.15 Q65.3 105.1 64.25 105.05 55.8 104.7 51.2 103.25 50.25 102.95 49.25 102.6 L44.65 101.1 Q43.2 100.55 42.25 98.45 L42.25 98.35 Q41.3 96.3 41.3 93.1 L41.3 93.0 Z" fill="none" stroke="#000000" stroke-linecap="round" stroke-linejoin="round" stroke-opacity="0.0" stroke-width="1.0"/>
    </g>
  </defs>
</svg>
