<?xml version="1.0" encoding="UTF-8" standalone="no"?>
<svg xmlns:xlink="http://www.w3.org/1999/xlink" height="40.55px" width="55.2px" xmlns="http://www.w3.org/2000/svg">
  <g transform="matrix(1.0, 0.0, 0.0, 1.0, -41.2, -65.6)">
    <use height="25.3" transform="matrix(1.0, 0.0, 0.0, 1.0, 41.3, 80.85)" width="53.85" xlink:href="#morphshape0"/>
  </g>
  <defs>
    <g id="morphshape0" transform="matrix(1.0, 0.0, 0.0, 1.0, -41.3, -80.85)">
      <path d="M42.5 95.05 L42.5 95.15 Q42.95 97.85 44.0 99.75 L44.0 99.85 Q45.0 101.75 46.55 102.3 L51.1 103.25 Q51.75 103.8 52.75 104.15 56.65 105.5 65.15 105.35 66.2 104.95 67.0 105.1 L67.95 105.45 68.05 105.45 70.2 105.6 75.55 105.35 76.3 105.25 77.95 104.95 79.1 104.75 87.05 103.0 Q89.25 102.35 90.25 101.9 94.8 100.45 95.1 95.6 95.25 93.95 94.95 92.25 94.95 91.2 94.75 90.25 95.0 89.3 94.65 88.4 94.25 87.3 91.6 86.55 90.45 85.95 88.7 85.4 L87.15 84.95 82.85 84.05 78.7 83.45 77.8 83.35 75.9 83.3 72.6 83.2 69.1 83.2 67.65 83.25 65.5 83.4 61.35 83.85 56.9 84.35 Q54.2 84.85 51.9 85.35 50.65 85.7 49.6 86.1 L48.6 86.6 Q46.55 87.55 45.65 88.65 45.1 89.1 44.95 89.6 L44.25 90.85 Q42.4 92.85 42.4 95.0" fill="#33ccff" fill-rule="evenodd" stroke="none"/>
      <path d="M42.4 95.0 Q42.4 92.85 44.25 90.85 L44.95 89.6 Q45.1 89.1 45.65 88.65 46.55 87.55 48.6 86.6 L49.6 86.1 Q50.65 85.7 51.9 85.35 54.2 84.85 56.9 84.35 L61.35 83.85 65.5 83.4 67.65 83.25 69.1 83.2 72.6 83.2 75.9 83.3 77.8 83.35 78.7 83.45 82.85 84.05 87.15 84.95 88.7 85.4 Q90.45 85.95 91.6 86.55 94.25 87.3 94.65 88.4 95.0 89.3 94.75 90.25 94.95 91.2 94.95 92.25 95.25 93.95 95.1 95.6 94.8 100.45 90.25 101.9 89.25 102.35 87.05 103.0 L79.1 104.75 77.95 104.95 76.3 105.25 75.55 105.35 70.2 105.6 68.05 105.45 67.95 105.45 67.0 105.1 Q66.2 104.95 65.15 105.35 56.65 105.5 52.75 104.15 51.75 103.8 51.1 103.25 L46.55 102.3 Q45.0 101.75 44.0 99.85 L44.0 99.75 Q42.95 97.85 42.5 95.15 L42.5 95.05" fill="none" stroke="#000000" stroke-linecap="round" stroke-linejoin="round" stroke-opacity="0.0" stroke-width="1.0"/>
    </g>
  </defs>
</svg>
