<?xml version="1.0" encoding="UTF-8" standalone="no"?>
<svg xmlns:xlink="http://www.w3.org/1999/xlink" height="40.55px" width="55.2px" xmlns="http://www.w3.org/2000/svg">
  <g transform="matrix(1.0, 0.0, 0.0, 1.0, -41.2, -65.6)">
    <use height="25.3" transform="matrix(1.0, 0.0, 0.0, 1.0, 41.3, 80.85)" width="53.85" xlink:href="#morphshape0"/>
  </g>
  <defs>
    <g id="morphshape0" transform="matrix(1.0, 0.0, 0.0, 1.0, -41.3, -80.85)">
      <path d="M43.75 97.05 L43.75 97.1 Q44.65 99.25 45.85 101.0 L45.85 101.05 Q46.9 102.7 48.55 103.2 L53.0 103.6 Q53.25 104.35 54.3 104.75 57.5 106.0 66.1 105.3 67.2 104.45 67.8 104.7 L68.35 105.4 68.4 105.45 70.4 105.8 75.5 105.75 76.25 105.65 77.8 105.4 78.9 105.2 86.3 103.5 Q88.15 102.9 89.4 102.45 94.3 100.75 95.1 97.1 95.55 95.55 95.1 93.9 95.35 92.85 95.2 92.0 95.25 91.05 94.55 90.35 93.75 89.5 91.25 89.1 90.25 88.4 88.65 87.75 L87.25 87.25 83.25 86.2 79.25 85.45 78.35 85.35 76.55 85.35 73.45 85.45 70.15 85.6 68.75 85.7 66.7 85.9 62.75 86.35 58.45 86.95 Q55.65 87.5 53.65 88.1 52.4 88.5 51.6 89.0 L50.75 89.7 Q49.15 90.8 48.3 92.1 47.75 92.45 47.45 92.8 L46.4 93.7 Q43.6 95.45 43.55 97.0" fill="#33ccff" fill-rule="evenodd" stroke="none"/>
      <path d="M43.55 97.0 Q43.6 95.45 46.4 93.7 L47.45 92.8 Q47.75 92.45 48.3 92.1 49.15 90.8 50.75 89.7 L51.6 89.0 Q52.4 88.5 53.65 88.1 55.65 87.5 58.45 86.95 L62.75 86.35 66.7 85.9 68.75 85.7 70.15 85.6 73.45 85.45 76.55 85.35 78.35 85.35 79.25 85.45 83.25 86.2 87.25 87.25 88.65 87.75 Q90.25 88.4 91.25 89.1 93.75 89.5 94.55 90.35 95.25 91.05 95.2 92.0 95.35 92.85 95.1 93.9 95.55 95.55 95.1 97.1 94.3 100.75 89.4 102.45 88.15 102.9 86.3 103.5 L78.9 105.2 77.8 105.4 76.25 105.65 75.5 105.75 70.4 105.8 68.4 105.45 68.35 105.4 67.8 104.7 Q67.2 104.45 66.1 105.3 57.5 106.0 54.3 104.75 53.25 104.35 53.0 103.6 L48.55 103.2 Q46.9 102.7 45.85 101.05 L45.85 101.0 Q44.65 99.25 43.75 97.1 L43.75 97.05" fill="none" stroke="#000000" stroke-linecap="round" stroke-linejoin="round" stroke-opacity="0.0" stroke-width="1.0"/>
    </g>
  </defs>
</svg>
