<?xml version="1.0" encoding="UTF-8" standalone="no"?>
<svg xmlns:xlink="http://www.w3.org/1999/xlink" height="40.55px" width="55.2px" xmlns="http://www.w3.org/2000/svg">
  <g transform="matrix(1.0, 0.0, 0.0, 1.0, -41.2, -65.6)">
    <use height="18.9" transform="matrix(1.0, 0.0, 0.0, 1.0, 44.7, 87.25)" width="50.45" xlink:href="#morphshape0"/>
  </g>
  <defs>
    <g id="morphshape0" transform="matrix(1.0, 0.0, 0.0, 1.0, -44.7, -87.25)">
      <path d="M44.7 99.0 L44.8 99.1 Q46.15 100.65 47.45 102.2 49.7 105.05 54.65 103.9 54.4 105.7 58.35 105.9 62.55 105.55 66.75 105.25 68.65 103.0 68.4 105.4 70.2 106.15 72.9 106.15 77.6 106.15 85.05 103.95 96.8 100.4 94.75 95.4 L94.85 95.2 Q96.4 91.75 90.4 91.65 L89.75 91.05 Q89.1 90.5 88.2 90.05 86.2 89.05 83.25 88.3 L81.25 87.8 79.4 87.4 78.55 87.3 Q77.2 87.4 75.9 87.45 74.95 87.55 74.0 87.65 L69.65 88.1 67.7 88.4 66.1 88.6 59.9 89.55 Q54.9 90.55 53.6 91.95 L52.9 92.85 Q51.75 94.1 51.0 95.65 44.85 97.8 44.7 99.0" fill="#33ccff" fill-rule="evenodd" stroke="none"/>
      <path d="M44.7 99.0 Q44.85 97.8 51.0 95.65 51.75 94.1 52.9 92.85 L53.6 91.95 Q54.9 90.55 59.9 89.55 L66.1 88.6 67.7 88.4 69.65 88.1 74.0 87.65 Q74.95 87.55 75.9 87.45 77.2 87.4 78.55 87.3 L79.4 87.4 81.25 87.8 83.25 88.3 Q86.2 89.05 88.2 90.05 89.1 90.5 89.75 91.05 L90.4 91.65 Q96.4 91.75 94.85 95.2 L94.75 95.4 Q96.8 100.4 85.05 103.95 77.6 106.15 72.9 106.15 70.2 106.15 68.4 105.4 68.65 103.0 66.75 105.25 62.55 105.55 58.35 105.9 54.4 105.7 54.65 103.9 49.7 105.05 47.45 102.2 46.15 100.65 44.8 99.1 L44.7 99.0 Z" fill="none" stroke="#000000" stroke-linecap="round" stroke-linejoin="round" stroke-opacity="0.0" stroke-width="1.0"/>
    </g>
  </defs>
</svg>
