<?xml version="1.0" encoding="UTF-8" standalone="no"?>
<svg xmlns:xlink="http://www.w3.org/1999/xlink" height="40.55px" width="55.2px" xmlns="http://www.w3.org/2000/svg">
  <g transform="matrix(1.0, 0.0, 0.0, 1.0, -41.2, -65.6)">
    <use height="18.9" transform="matrix(1.0, 0.0, 0.0, 1.0, 44.7, 87.25)" width="50.45" xlink:href="#morphshape0"/>
  </g>
  <defs>
    <g id="morphshape0" transform="matrix(1.0, 0.0, 0.0, 1.0, -44.7, -87.25)">
      <path d="M50.15 98.5 L50.25 98.6 Q50.05 99.9 51.35 101.15 53.65 103.2 57.8 102.55 58.15 103.8 61.3 104.0 61.7 103.75 65.65 103.9 67.25 102.45 67.4 104.15 69.15 104.75 71.45 104.85 76.1 105.1 82.55 103.85 93.0 101.8 92.4 98.15 L92.5 97.95 Q94.4 95.2 90.5 94.4 L90.05 93.75 Q89.55 93.2 88.9 92.75 87.4 91.55 84.8 90.65 L83.05 90.1 81.45 89.65 80.7 89.5 Q79.1 89.25 78.35 89.4 77.75 89.5 76.75 89.65 L72.85 90.15 71.1 90.45 69.65 90.65 64.15 91.55 Q60.05 92.4 58.45 93.5 L57.75 94.15 Q56.6 95.1 55.75 96.2 50.85 97.8 50.0 98.75" fill="#33ccff" fill-rule="evenodd" stroke="none"/>
      <path d="M50.0 98.75 Q50.85 97.8 55.75 96.2 56.6 95.1 57.75 94.15 L58.45 93.5 Q60.05 92.4 64.15 91.55 L69.65 90.65 71.1 90.45 72.85 90.15 76.75 89.65 Q77.75 89.5 78.35 89.4 79.1 89.25 80.7 89.5 L81.45 89.65 83.05 90.1 84.8 90.65 Q87.4 91.55 88.9 92.75 89.55 93.2 90.05 93.75 L90.5 94.4 Q94.4 95.2 92.5 97.95 L92.4 98.15 Q93.0 101.8 82.55 103.85 76.1 105.1 71.45 104.85 69.15 104.75 67.4 104.15 67.25 102.45 65.65 103.9 61.7 103.75 61.3 104.0 58.15 103.8 57.8 102.55 53.65 103.2 51.35 101.15 50.05 99.9 50.25 98.6 L50.15 98.5" fill="none" stroke="#000000" stroke-linecap="round" stroke-linejoin="round" stroke-opacity="0.0" stroke-width="1.0"/>
    </g>
  </defs>
</svg>
