<?xml version="1.0" encoding="UTF-8" standalone="no"?>
<svg xmlns:xlink="http://www.w3.org/1999/xlink" height="40.55px" width="55.2px" xmlns="http://www.w3.org/2000/svg">
  <g transform="matrix(1.0, 0.0, 0.0, 1.0, -41.2, -65.6)">
    <use height="18.9" transform="matrix(1.0, 0.0, 0.0, 1.0, 44.7, 87.25)" width="50.45" xlink:href="#morphshape0"/>
  </g>
  <defs>
    <g id="morphshape0" transform="matrix(1.0, 0.0, 0.0, 1.0, -44.7, -87.25)">
      <path d="M55.4 98.25 L55.45 98.3 Q53.7 99.3 55.0 100.2 57.4 101.4 60.7 101.25 61.65 101.95 64.0 102.1 60.55 101.95 64.25 102.55 65.55 101.95 66.1 102.9 67.75 103.35 69.65 103.55 74.2 104.05 79.65 103.75 88.8 103.25 89.65 100.95 L89.75 100.8 Q92.05 98.75 90.3 97.25 L90.1 96.55 Q89.8 96.0 89.45 95.5 88.45 94.1 86.2 93.0 L84.7 92.4 83.4 91.9 82.75 91.7 Q80.9 91.05 80.7 91.3 80.5 91.45 79.45 91.7 L76.0 92.3 74.45 92.6 73.2 92.8 68.45 93.65 Q65.25 94.3 63.35 95.1 L62.65 95.5 Q61.5 96.1 60.55 96.75 56.9 97.8 55.3 98.5" fill="#33ccff" fill-rule="evenodd" stroke="none"/>
      <path d="M55.3 98.5 Q56.9 97.8 60.55 96.75 61.5 96.1 62.65 95.5 L63.35 95.1 Q65.25 94.3 68.45 93.65 L73.2 92.8 74.45 92.6 76.0 92.3 79.45 91.7 Q80.5 91.45 80.7 91.3 80.9 91.05 82.75 91.7 L83.4 91.9 84.7 92.4 86.2 93.0 Q88.45 94.1 89.45 95.5 89.8 96.0 90.1 96.55 L90.3 97.25 Q92.05 98.75 89.75 100.8 L89.65 100.95 Q88.8 103.25 79.65 103.75 74.2 104.05 69.65 103.55 67.75 103.35 66.1 102.9 65.55 101.95 64.25 102.55 60.55 101.95 64.0 102.1 61.65 101.95 60.7 101.25 57.4 101.4 55.0 100.2 53.7 99.3 55.45 98.3 L55.4 98.25" fill="none" stroke="#000000" stroke-linecap="round" stroke-linejoin="round" stroke-opacity="0.0" stroke-width="1.0"/>
    </g>
  </defs>
</svg>
