<?xml version="1.0" encoding="UTF-8" standalone="no"?>
<svg xmlns:xlink="http://www.w3.org/1999/xlink" height="40.55px" width="55.2px" xmlns="http://www.w3.org/2000/svg">
  <g transform="matrix(1.0, 0.0, 0.0, 1.0, -41.2, -65.6)">
    <use height="11.15" transform="matrix(1.0, 0.0, 0.0, 1.0, 58.25, 93.3)" width="31.8" xlink:href="#morphshape0"/>
  </g>
  <defs>
    <g id="morphshape0" transform="matrix(1.0, 0.0, 0.0, 1.0, -58.25, -93.3)">
      <path d="M60.65 98.25 Q53.75 99.7 66.75 100.4 56.3 100.35 67.8 102.45 83.75 105.4 86.9 103.95 90.05 102.45 90.05 99.65 90.05 96.85 86.3 94.9 82.55 92.9 83.05 93.4 83.55 93.9 76.75 95.1 68.7 96.7 60.65 98.25" fill="#33ccff" fill-rule="evenodd" stroke="none"/>
      <path d="M60.65 98.25 Q68.7 96.7 76.75 95.1 83.55 93.9 83.05 93.4 82.55 92.9 86.3 94.9 90.05 96.85 90.05 99.65 90.05 102.45 86.9 103.95 83.75 105.4 67.8 102.45 56.3 100.35 66.75 100.4 53.75 99.7 60.65 98.25 Z" fill="none" stroke="#000000" stroke-linecap="round" stroke-linejoin="round" stroke-opacity="0.0" stroke-width="1.0"/>
    </g>
  </defs>
</svg>
