<?xml version="1.0" encoding="UTF-8" standalone="no"?>
<svg xmlns:xlink="http://www.w3.org/1999/xlink" height="40.55px" width="55.2px" xmlns="http://www.w3.org/2000/svg">
  <g transform="matrix(1.0, 0.0, 0.0, 1.0, -41.2, -65.6)">
    <use height="11.15" transform="matrix(1.0, 0.0, 0.0, 1.0, 58.25, 93.3)" width="31.8" xlink:href="#morphshape0"/>
  </g>
  <defs>
    <g id="morphshape0" transform="matrix(1.0, 0.0, 0.0, 1.0, -58.25, -93.3)">
      <path d="M63.4 97.6 Q56.5 99.05 68.5 99.45 60.9 99.25 69.6 102.1 84.05 104.3 86.7 103.15 89.6 102.85 89.85 100.25 90.1 97.65 86.95 95.6 83.8 93.5 83.6 93.6 83.4 93.7 77.8 94.8 71.15 96.25 63.3 97.75" fill="#33ccff" fill-rule="evenodd" stroke="none"/>
      <path d="M63.3 97.75 Q71.15 96.25 77.8 94.8 83.4 93.7 83.6 93.6 83.8 93.5 86.95 95.6 90.1 97.65 89.85 100.25 89.6 102.85 86.7 103.15 84.05 104.3 69.6 102.1 60.9 99.25 68.5 99.45 56.5 99.05 63.4 97.6" fill="none" stroke="#000000" stroke-linecap="round" stroke-linejoin="round" stroke-opacity="0.0" stroke-width="1.0"/>
    </g>
  </defs>
</svg>
