<?xml version="1.0" encoding="UTF-8" standalone="no"?>
<svg xmlns:xlink="http://www.w3.org/1999/xlink" height="40.55px" width="55.2px" xmlns="http://www.w3.org/2000/svg">
  <g transform="matrix(1.0, 0.0, 0.0, 1.0, -41.2, -65.6)">
    <use height="11.15" transform="matrix(1.0, 0.0, 0.0, 1.0, 58.25, 93.3)" width="31.8" xlink:href="#morphshape0"/>
  </g>
  <defs>
    <g id="morphshape0" transform="matrix(1.0, 0.0, 0.0, 1.0, -58.25, -93.3)">
      <path d="M66.05 97.05 Q59.15 98.45 70.1 98.55 65.4 98.15 71.25 101.75 84.15 103.15 86.3 102.3 88.95 103.25 89.5 100.9 90.05 98.55 87.55 96.35 85.05 94.1 84.15 93.8 83.25 93.5 78.85 94.5 73.65 95.75 66.0 97.2" fill="#33ccff" fill-rule="evenodd" stroke="none"/>
      <path d="M66.0 97.2 Q73.65 95.75 78.85 94.5 83.25 93.5 84.15 93.8 85.05 94.1 87.55 96.35 90.05 98.55 89.5 100.9 88.95 103.25 86.3 102.3 84.15 103.15 71.25 101.75 65.4 98.15 70.1 98.55 59.15 98.45 66.05 97.05" fill="none" stroke="#000000" stroke-linecap="round" stroke-linejoin="round" stroke-opacity="0.0" stroke-width="1.0"/>
    </g>
  </defs>
</svg>
