<?xml version="1.0" encoding="UTF-8" standalone="no"?>
<svg xmlns:xlink="http://www.w3.org/1999/xlink" height="40.55px" width="55.2px" xmlns="http://www.w3.org/2000/svg">
  <g transform="matrix(1.0, 0.0, 0.0, 1.0, -41.2, -65.6)">
    <use height="11.15" transform="matrix(1.0, 0.0, 0.0, 1.0, 58.25, 93.3)" width="31.8" xlink:href="#morphshape0"/>
  </g>
  <defs>
    <g id="morphshape0" transform="matrix(1.0, 0.0, 0.0, 1.0, -58.25, -93.3)">
      <path d="M68.65 96.65 Q61.8 98.0 71.75 97.8 69.95 97.25 72.95 101.6 84.35 102.25 86.0 101.7 88.4 103.9 89.25 101.75 90.1 99.6 88.2 97.25 86.3 94.85 84.7 94.15 83.1 93.4 79.95 94.25 76.15 95.3 68.7 96.7" fill="#33ccff" fill-rule="evenodd" stroke="none"/>
      <path d="M68.7 96.7 Q76.15 95.3 79.95 94.25 83.1 93.4 84.7 94.15 86.3 94.85 88.2 97.25 90.1 99.6 89.25 101.75 88.4 103.9 86.0 101.7 84.35 102.25 72.95 101.6 69.95 97.25 71.75 97.8 61.8 98.0 68.65 96.65" fill="none" stroke="#000000" stroke-linecap="round" stroke-linejoin="round" stroke-opacity="0.0" stroke-width="1.0"/>
    </g>
  </defs>
</svg>
