<?xml version="1.0" encoding="UTF-8" standalone="no"?>
<svg xmlns:xlink="http://www.w3.org/1999/xlink" height="40.55px" width="55.2px" xmlns="http://www.w3.org/2000/svg">
  <g transform="matrix(1.0, 0.0, 0.0, 1.0, -41.2, -65.6)">
    <use height="11.15" transform="matrix(1.0, 0.0, 0.0, 1.0, 58.25, 93.3)" width="31.8" xlink:href="#morphshape0"/>
  </g>
  <defs>
    <g id="morphshape0" transform="matrix(1.0, 0.0, 0.0, 1.0, -58.25, -93.3)">
      <path d="M71.35 96.0 Q64.5 97.3 73.4 96.8 74.45 96.05 74.65 101.15 84.5 101.0 85.65 100.75 87.8 104.2 88.9 102.3 90.0 100.4 88.75 97.9 87.5 95.4 85.2 94.3 82.9 93.15 80.95 93.9 78.6 94.8 71.35 96.15" fill="#33ccff" fill-rule="evenodd" stroke="none"/>
      <path d="M71.35 96.15 Q78.6 94.8 80.95 93.9 82.9 93.15 85.2 94.3 87.5 95.4 88.75 97.9 90.0 100.4 88.9 102.3 87.8 104.2 85.65 100.75 84.5 101.0 74.65 101.15 74.45 96.05 73.4 96.8 64.5 97.3 71.35 96.0" fill="none" stroke="#000000" stroke-linecap="round" stroke-linejoin="round" stroke-opacity="0.0" stroke-width="1.0"/>
    </g>
  </defs>
</svg>
