<?xml version="1.0" encoding="UTF-8" standalone="no"?>
<svg xmlns:xlink="http://www.w3.org/1999/xlink" height="40.55px" width="55.2px" xmlns="http://www.w3.org/2000/svg">
  <g transform="matrix(1.0, 0.0, 0.0, 1.0, -41.2, -65.6)">
    <use height="11.15" transform="matrix(1.0, 0.0, 0.0, 1.0, 58.25, 93.3)" width="31.8" xlink:href="#morphshape0"/>
  </g>
  <defs>
    <g id="morphshape0" transform="matrix(1.0, 0.0, 0.0, 1.0, -58.25, -93.3)">
      <path d="M74.05 95.5 Q67.2 96.75 75.1 95.95 79.05 95.05 76.4 100.9 84.75 100.0 85.4 100.05 87.3 104.75 88.7 103.05 90.1 101.35 89.45 98.7 88.8 96.05 85.8 94.55 82.8 93.0 82.05 93.65 81.1 94.35 74.05 95.65" fill="#33ccff" fill-rule="evenodd" stroke="none"/>
      <path d="M74.05 95.65 Q81.1 94.35 82.05 93.65 82.8 93.0 85.8 94.55 88.8 96.05 89.45 98.7 90.1 101.35 88.7 103.05 87.3 104.75 85.4 100.05 84.75 100.0 76.4 100.9 79.05 95.05 75.1 95.95 67.2 96.75 74.05 95.5" fill="none" stroke="#000000" stroke-linecap="round" stroke-linejoin="round" stroke-opacity="0.0" stroke-width="1.0"/>
    </g>
  </defs>
</svg>
