<?xml version="1.0" encoding="UTF-8" standalone="no"?>
<svg xmlns:xlink="http://www.w3.org/1999/xlink" height="41.7px" width="134.4px" xmlns="http://www.w3.org/2000/svg">
  <g transform="matrix(1.0, 0.0, 0.0, 1.0, 0.0, 0.0)">
    <use height="41.7" transform="matrix(1.0, 0.0, 0.0, 1.0, 0.0, 0.0)" width="134.4" xlink:href="#shape0"/>
  </g>
  <defs>
    <g id="shape0" transform="matrix(1.0, 0.0, 0.0, 1.0, 0.0, 0.0)">
      <path d="M127.95 26.3 Q121.0 32.85 111.6 37.05 100.4 42.05 89.85 41.7 77.2 41.25 67.2 33.1 45.3 15.2 19.7 16.9 13.6 17.3 5.3 18.75 0.0 19.35 0.0 16.55 0.0 9.7 19.7 4.85 39.35 0.0 67.2 0.0 95.05 0.0 114.75 4.85 134.4 9.7 134.4 16.55 134.4 20.2 127.95 26.3" fill="#ffffff" fill-rule="evenodd" stroke="none"/>
    </g>
  </defs>
</svg>
