<?xml version="1.0" encoding="UTF-8" standalone="no"?>
<svg xmlns:xlink="http://www.w3.org/1999/xlink" height="39.0px" width="130.0px" xmlns="http://www.w3.org/2000/svg">
  <g transform="matrix(1.0, 0.0, 0.0, 1.0, 65.0, 19.5)">
    <use height="39.0" transform="matrix(1.0, 0.0, 0.0, 1.0, -65.0, -19.5)" width="130.0" xlink:href="#shape0"/>
    <use height="19.85" transform="matrix(1.0, 0.0, 0.0, 1.0, -19.85, -9.75)" width="54.8" xlink:href="#text0"/>
  </g>
  <defs>
    <g id="shape0" transform="matrix(1.0, 0.0, 0.0, 1.0, 65.0, 19.5)">
      <path d="M57.0 -19.5 Q65.0 -19.5 65.0 -11.5 L65.0 11.5 Q65.0 19.5 57.0 19.5 L-57.0 19.5 Q-65.0 19.5 -65.0 11.5 L-65.0 -11.5 Q-65.0 -19.5 -57.0 -19.5 L57.0 -19.5" fill="#993300" fill-rule="evenodd" stroke="none"/>
    </g>
    <g id="text0" transform="matrix(1.0, 0.0, 0.0, 1.0, -1.1, -3.6)">
      <g transform="matrix(1.0, 0.0, 0.0, 1.0, 0.0, 0.0)">
        <use fill="#ffffff" height="19.85" transform="matrix(0.0215, 0.0, 0.0, 0.0215, 0.0, 22.0)" width="54.8" xlink:href="#font_Verdana_O0"/>
        <use fill="#ffffff" height="19.85" transform="matrix(0.0215, 0.0, 0.0, 0.0215, 18.7, 22.0)" width="54.8" xlink:href="#font_Verdana_K0"/>
      </g>
    </g>
    <g id="font_Verdana_O0">
      <path d="M564.5 -183.5 L564.5 -183.5 Q539.5 -153.5 506.0 -139.0 472.5 -125.0 435.5 -125.0 398.5 -125.0 365.0 -139.0 331.5 -153.0 306.5 -182.5 281.5 -212.0 266.5 -258.5 251.0 -305.5 251.0 -372.0 251.0 -437.0 267.0 -486.0 282.5 -535.5 307.5 -563.5 334.5 -593.5 367.0 -606.5 399.0 -619.5 435.5 -619.5 471.5 -619.5 505.0 -606.0 538.0 -592.5 563.5 -562.5 588.5 -533.5 604.0 -486.5 619.5 -439.5 619.5 -372.5 619.5 -310.0 606.0 -263.5 592.5 -217.5 564.5 -183.5 M819.0 -372.0 L819.0 -372.0 Q819.0 -551.5 716.5 -655.5 614.0 -760.0 435.0 -760.0 255.5 -760.0 153.5 -655.5 51.5 -551.5 51.5 -372.0 51.5 -194.0 153.5 -89.0 255.5 15.5 435.0 15.5 615.0 15.5 717.0 -89.0 819.0 -194.0 819.0 -372.0" fill-rule="evenodd" stroke="none"/>
    </g>
    <g id="font_Verdana_K0">
      <path d="M790.0 0.0 L484.5 -400.0 775.5 -744.5 553.0 -744.5 287.0 -407.0 287.0 -744.5 95.0 -744.5 95.0 0.0 287.0 0.0 287.0 -243.0 331.5 -298.0 554.0 0.0 790.0 0.0" fill-rule="evenodd" stroke="none"/>
    </g>
  </defs>
</svg>
