<?xml version="1.0" encoding="UTF-8" standalone="no"?>
<svg xmlns:xlink="http://www.w3.org/1999/xlink" height="3.0px" width="80.0px" xmlns="http://www.w3.org/2000/svg">
  <g transform="matrix(1.0, 0.0, 0.0, 1.0, 0.0, 0.0)">
    <use height="3.0" transform="matrix(1.0, 0.0, 0.0, 1.0, 0.0, 0.0)" width="80.0" xlink:href="#shape0"/>
  </g>
  <defs>
    <g id="shape0" transform="matrix(1.0, 0.0, 0.0, 1.0, 0.0, 0.0)">
      <path d="M1.0 1.0 L1.0 0.0 2.2 0.0 78.05 0.0 79.0 0.0 79.0 1.0 78.05 1.0 2.2 1.0 1.0 1.0" fill="#575e62" fill-rule="evenodd" stroke="none"/>
      <path d="M79.0 1.0 L80.0 1.0 80.0 2.0 79.0 2.0 79.0 3.0 78.05 3.0 78.0 3.0 78.0 2.0 78.05 2.0 79.0 2.0 79.0 1.0 M2.0 3.0 L1.0 3.0 1.0 2.0 0.0 2.0 0.0 1.0 1.0 1.0 1.0 2.0 2.0 2.0 2.0 3.0" fill="#8c9295" fill-rule="evenodd" stroke="none"/>
      <path d="M1.0 1.0 L2.2 1.0 78.05 1.0 79.0 1.0 79.0 2.0 78.05 2.0 78.0 2.0 2.2 2.0 2.0 2.0 1.0 2.0 1.0 1.0" fill="#ebebeb" fill-rule="evenodd" stroke="none"/>
      <path d="M78.0 3.0 L2.2 3.0 2.0 3.0 2.0 2.0 2.2 2.0 78.0 2.0 78.0 3.0" fill="#aeb2b4" fill-rule="evenodd" stroke="none"/>
    </g>
  </defs>
</svg>
