<?xml version="1.0" encoding="UTF-8" standalone="no"?>
<svg xmlns:xlink="http://www.w3.org/1999/xlink" height="106.1px" width="27.7px" xmlns="http://www.w3.org/2000/svg">
  <g transform="matrix(1.0, 0.0, 0.0, 1.0, 0.0, 0.0)">
    <use height="106.1" transform="matrix(1.0, 0.0, 0.0, 1.0, 0.0, 0.0)" width="27.7" xlink:href="#shape0"/>
  </g>
  <defs>
    <g id="shape0" transform="matrix(1.0, 0.0, 0.0, 1.0, 0.0, 0.0)">
      <path d="M24.8 0.0 L27.7 0.0 27.7 25.55 Q27.7 32.65 26.2 42.9 24.8 52.3 22.45 62.15 L18.9 76.8 18.85 76.95 16.55 87.9 14.7 101.85 14.65 102.9 14.6 104.45 14.45 106.1 Q11.8 106.1 6.35 104.65 0.35 103.0 0.05 101.65 -0.2 98.35 1.2 93.3 2.7 88.15 5.45 82.8 9.6 74.8 14.65 61.45 L20.8 43.45 Q24.8 30.8 24.8 25.3 L24.8 0.0" fill="url(#gradient0)" fill-rule="evenodd" stroke="none"/>
    </g>
    <radialGradient cx="0" cy="0" gradientTransform="matrix(0.1242, 0.0, 0.0, -0.1242, 38.2, -1.6)" gradientUnits="userSpaceOnUse" id="gradient0" r="819.2" spreadMethod="pad">
      <stop offset="0.0" stop-color="#ffffff"/>
      <stop offset="1.0" stop-color="#ffffff"/>
    </radialGradient>
  </defs>
</svg>
