<?xml version="1.0" encoding="UTF-8" standalone="no"?>
<svg xmlns:xlink="http://www.w3.org/1999/xlink" height="444.7px" width="365.1px" xmlns="http://www.w3.org/2000/svg">
  <g transform="matrix(1.0, 0.0, 0.0, 1.0, -0.05, -0.1)">
    <use height="444.7" transform="matrix(1.0, 0.0, 0.0, 1.0, 0.05, 0.1)" width="365.1" xlink:href="#shape0"/>
  </g>
  <defs>
    <g id="shape0" transform="matrix(1.0, 0.0, 0.0, 1.0, -0.05, -0.1)">
      <path d="M364.05 1.1 Q361.05 3.9 358.5 10.0 354.2 20.4 353.75 35.85 L355.75 383.8 Q355.75 387.65 353.55 390.75 351.35 393.8 347.85 395.1 334.1 416.65 294.7 430.35 254.6 444.3 204.0 444.3 153.05 444.3 112.8 430.2 73.2 416.3 59.8 394.5 56.85 393.0 55.05 390.15 53.25 387.25 53.25 383.8 L43.15 64.2 Q39.7 43.9 18.25 36.4 16.05 35.65 4.8 32.85 -0.45 31.5 0.8 29.85 11.2 15.9 33.6 15.65 40.55 15.6 48.95 16.9 L57.4 18.2 106.85 21.3 186.1 23.7 268.75 20.4 305.75 16.15 340.75 9.2 Q354.15 6.25 361.55 2.5 L364.05 1.1" fill="url(#gradient0)" fill-rule="evenodd" stroke="none"/>
      <path d="M364.05 1.1 Q361.05 3.9 358.5 10.0 354.2 20.4 353.75 35.85 L355.75 383.8 Q355.75 387.65 353.55 390.75 351.35 393.8 347.85 395.1 334.1 416.65 294.7 430.35 254.6 444.3 204.0 444.3 153.05 444.3 112.8 430.2 73.2 416.3 59.8 394.5 56.85 393.0 55.05 390.15 53.25 387.25 53.25 383.8 L43.15 64.2 Q39.7 43.9 18.25 36.4 16.05 35.65 4.8 32.85 -0.45 31.5 0.8 29.85 11.2 15.9 33.6 15.65 40.55 15.6 48.95 16.9 L57.4 18.2 106.85 21.3 186.1 23.7 268.75 20.4 305.75 16.15 340.75 9.2 Q354.15 6.25 361.55 2.5 L364.05 1.1 364.3 0.85 Q364.8 0.4 364.55 0.7 L364.05 1.1" fill="none" stroke="#a0a09d" stroke-linecap="round" stroke-linejoin="miter" stroke-miterlimit="10.0" stroke-width="1.0"/>
    </g>
    <radialGradient cx="0" cy="0" gradientTransform="matrix(0.2478, 0.0, 0.0, -0.2478, 182.65, 222.4)" gradientUnits="userSpaceOnUse" id="gradient0" r="819.2" spreadMethod="pad">
      <stop offset="0.0" stop-color="#ffffff"/>
      <stop offset="1.0" stop-color="#cccccc"/>
    </radialGradient>
  </defs>
</svg>
