<?xml version="1.0" encoding="UTF-8" standalone="no"?>
<svg xmlns:xlink="http://www.w3.org/1999/xlink" height="528.2px" width="537.95px" xmlns="http://www.w3.org/2000/svg">
  <g transform="matrix(1.0, 0.0, 0.0, 1.0, 267.95, 184.95)">
    <use height="301.0" transform="matrix(1.0, 0.0, 0.0, 1.2458, -267.95, -184.9504)" width="537.95" xlink:href="#sprite0"/>
    <use height="91.0" transform="matrix(1.0, 0.0, 0.0, 1.0, -148.95, -45.5)" width="297.95" xlink:href="#shape1"/>
    <use height="17.25" id="results_txt" transform="matrix(1.0, 0.0, 0.0, 1.0, -132.95, -17.0)" width="261.95" xlink:href="#text0"/>
    <use height="321.9" id="ok_btn" transform="matrix(1.0, 0.0, 0.0, 1.0, -49.65, 21.35)" width="111.0" xlink:href="#sprite1"/>
  </g>
  <defs>
    <g id="sprite0" transform="matrix(1.0, 0.0, 0.0, 1.0, 268.95, 150.5)">
      <use height="301.0" transform="matrix(1.0, 0.0, 0.0, 1.0, -268.95, -150.5)" width="537.95" xlink:href="#shape0"/>
    </g>
    <g id="shape0" transform="matrix(1.0, 0.0, 0.0, 1.0, 268.95, 150.5)">
      <path d="M260.0 -150.5 Q269.0 -150.5 269.0 -141.5 L269.0 141.5 Q269.0 150.5 260.0 150.5 L-259.95 150.5 Q-268.95 150.5 -268.95 141.5 L-268.95 -141.5 Q-268.95 -150.5 -259.95 -150.5 L260.0 -150.5" fill="#ffffff" fill-opacity="0.0" fill-rule="evenodd" stroke="none"/>
    </g>
    <g id="shape1" transform="matrix(1.0, 0.0, 0.0, 1.0, 148.95, 45.5)">
      <path d="M140.0 -45.5 Q149.0 -45.5 149.0 -36.5 L149.0 36.5 Q149.0 45.5 140.0 45.5 L-139.95 45.5 Q-148.95 45.5 -148.95 36.5 L-148.95 -36.5 Q-148.95 -45.5 -139.95 -45.5 L140.0 -45.5" fill="url(#gradient0)" fill-rule="evenodd" stroke="none"/>
    </g>
    <linearGradient gradientTransform="matrix(2.0E-4, -0.0635, 0.0555, 2.0E-4, 3.85, -21.55)" gradientUnits="userSpaceOnUse" id="gradient0" spreadMethod="pad" x1="-819.2" x2="819.2">
      <stop offset="0.0" stop-color="#cccccc"/>
      <stop offset="1.0" stop-color="#999999"/>
    </linearGradient>
    <g id="sprite1" transform="matrix(1.0, 0.0, 0.0, 1.0, 0.0, 0.0)">
      <use height="22.0" transform="matrix(1.25, 0.0, 0.0, 1.0, 0.0, 0.0)" width="80.0" xlink:href="#sprite2"/>
    </g>
    <g id="sprite2" transform="matrix(1.0, 0.0, 0.0, 1.0, 0.0, 0.0)">
      <use height="22.0" transform="matrix(1.0, 0.0, 0.0, 1.0, 0.0, 0.0)" width="80.0" xlink:href="#shape2"/>
    </g>
    <g id="shape2" transform="matrix(1.0, 0.0, 0.0, 1.0, 0.0, 0.0)">
      <path d="M80.0 22.0 L0.0 22.0 0.0 0.0 80.0 0.0 80.0 22.0" fill="#ffffff" fill-rule="evenodd" stroke="none"/>
      <path d="M80.0 22.0 L0.0 22.0 0.0 0.0 80.0 0.0 80.0 22.0 Z" fill="none" stroke="#000000" stroke-linecap="round" stroke-linejoin="round" stroke-width="0.05"/>
    </g>
  </defs>
</svg>
