<?xml version="1.0" encoding="UTF-8" standalone="no"?>
<svg xmlns:xlink="http://www.w3.org/1999/xlink" height="66.05px" width="321.75px" xmlns="http://www.w3.org/2000/svg">
  <g transform="matrix(1.0, 0.0, 0.0, 1.0, 125.0, 31.5)">
    <use height="63.0" transform="matrix(1.0, 0.0, 0.0, 1.0, -124.95, -31.5)" width="249.95" xlink:href="#shape0"/>
    <use height="36.55" transform="matrix(1.0, 0.0, 0.0, 1.0, -124.6, -10.5)" width="249.5" xlink:href="#text0"/>
  </g>
  <defs>
    <g id="shape0" transform="matrix(1.0, 0.0, 0.0, 1.0, 125.0, 31.5)">
      <path d="M-18.25 -16.5 L-20.05 -14.5 9.95 -15.5 9.05 -16.5 56.95 -16.5 56.95 31.5 -46.0 31.5 -46.0 -16.5 -18.25 -16.5" fill="url(#gradient0)" fill-rule="evenodd" stroke="none"/>
      <path d="M9.05 -16.5 L9.95 -15.5 -20.05 -14.5 -18.25 -16.5 -5.05 -31.5 9.05 -16.5" fill="#f2f2f2" fill-rule="evenodd" stroke="none"/>
      <path d="M110.95 -16.5 L118.95 -16.5 Q124.95 -16.5 124.95 -10.5 L124.95 25.5 Q124.95 31.5 118.95 31.5 L110.95 31.5 110.95 -16.5" fill="url(#gradient1)" fill-rule="evenodd" stroke="none"/>
      <path d="M56.95 31.5 L56.95 -16.5 110.95 -16.5 110.95 31.5 56.95 31.5" fill="url(#gradient2)" fill-rule="evenodd" stroke="none"/>
      <path d="M-106.0 31.5 L-119.0 31.5 Q-125.0 31.5 -125.0 25.5 L-125.0 -10.5 Q-125.0 -16.5 -119.0 -16.5 L-106.0 -16.5 -106.0 31.5" fill="url(#gradient3)" fill-rule="evenodd" stroke="none"/>
      <path d="M-46.0 -16.5 L-46.0 31.5 -106.0 31.5 -106.0 -16.5 -46.0 -16.5" fill="url(#gradient4)" fill-rule="evenodd" stroke="none"/>
    </g>
    <linearGradient gradientTransform="matrix(0.0, 0.033, -0.0293, 0.0, 3.0, 2.55)" gradientUnits="userSpaceOnUse" id="gradient0" spreadMethod="pad" x1="-819.2" x2="819.2">
      <stop offset="0.0" stop-color="#ffffff"/>
      <stop offset="1.0" stop-color="#c9c9c9"/>
    </linearGradient>
    <linearGradient gradientTransform="matrix(0.0, 0.033, -0.0293, 0.0, 33.0, 2.55)" gradientUnits="userSpaceOnUse" id="gradient1" spreadMethod="pad" x1="-819.2" x2="819.2">
      <stop offset="0.0" stop-color="#ffffff"/>
      <stop offset="1.0" stop-color="#c9c9c9"/>
    </linearGradient>
    <linearGradient gradientTransform="matrix(0.0, 0.033, -0.1055, 0.0, -137.25, 2.55)" gradientUnits="userSpaceOnUse" id="gradient2" spreadMethod="pad" x1="-819.2" x2="819.2">
      <stop offset="0.0" stop-color="#ffffff"/>
      <stop offset="1.0" stop-color="#c9c9c9"/>
    </linearGradient>
    <linearGradient gradientTransform="matrix(0.0, 0.033, -0.0293, 0.0, -27.0, 2.55)" gradientUnits="userSpaceOnUse" id="gradient3" spreadMethod="pad" x1="-819.2" x2="819.2">
      <stop offset="0.0" stop-color="#ffffff"/>
      <stop offset="1.0" stop-color="#c9c9c9"/>
    </linearGradient>
    <linearGradient gradientTransform="matrix(0.0, 0.033, -0.0879, 0.0, 101.0, 2.55)" gradientUnits="userSpaceOnUse" id="gradient4" spreadMethod="pad" x1="-819.2" x2="819.2">
      <stop offset="0.0" stop-color="#ffffff"/>
      <stop offset="1.0" stop-color="#c9c9c9"/>
    </linearGradient>
  </defs>
</svg>
