<?xml version="1.0" encoding="UTF-8" standalone="no"?>
<svg xmlns:xlink="http://www.w3.org/1999/xlink" height="69.05px" width="53.75px" xmlns="http://www.w3.org/2000/svg">
  <g transform="matrix(1.0, 0.0, 0.0, 1.0, 0.1, 34.05)">
    <use height="14.25" transform="matrix(1.0, 0.0, 0.0, 1.0, 7.95, 20.75)" width="42.95" xlink:href="#shape0"/>
    <use height="444.7" transform="matrix(0.1434, 0.0038, -0.0029, 0.1435, 1.2069, -31.7855)" width="365.1" xlink:href="#sprite0"/>
    <use height="41.7" transform="matrix(0.1434, 0.0038, -0.0029, 0.1435, 27.2, 23.9)" width="134.4" xlink:href="#sprite1"/>
    <use height="267.05" transform="matrix(0.1434, 0.0038, -0.0029, 0.1435, 40.45, -29.95)" width="78.55" xlink:href="#sprite2"/>
    <use height="269.15" transform="matrix(0.1434, 0.0038, -0.0029, 0.1435, 1.2, -29.95)" width="61.55" xlink:href="#sprite3"/>
    <use height="66.55" transform="matrix(1.0, 0.0, 0.0, 1.0, 1.95, -34.05)" width="51.7" xlink:href="#shape5"/>
  </g>
  <defs>
    <g id="shape0" transform="matrix(1.0, 0.0, 0.0, 1.0, -7.95, -20.75)">
      <path d="M28.9 34.0 Q20.8 33.85 14.75 31.4 12.05 30.3 10.5 29.0 8.95 27.7 8.95 26.45 9.0 24.05 14.95 22.75 20.45 21.6 29.15 21.8 38.1 22.05 43.75 23.3 49.95 24.7 49.9 27.1 49.9 28.35 48.15 29.6 46.5 30.9 43.55 31.95 40.5 33.0 36.85 33.55 L28.9 34.0" fill="#cccccc" fill-rule="evenodd" stroke="none"/>
      <path d="M28.9 34.0 Q20.8 33.85 14.75 31.4 12.05 30.3 10.5 29.0 8.95 27.7 8.95 26.45 9.0 24.05 14.95 22.75 20.45 21.6 29.15 21.8 38.1 22.05 43.75 23.3 49.95 24.7 49.9 27.1 49.9 28.35 48.15 29.6 46.5 30.9 43.55 31.95 40.5 33.0 36.85 33.55 L28.9 34.0 Z" fill="none" stroke="#c9d1d4" stroke-linecap="round" stroke-linejoin="round" stroke-width="2.0"/>
    </g>
    <g id="sprite0" transform="matrix(1.0, 0.0, 0.0, 1.0, -0.05, -0.1)">
      <use height="444.7" transform="matrix(1.0, 0.0, 0.0, 1.0, 0.05, 0.1)" width="365.1" xlink:href="#shape1"/>
    </g>
    <g id="shape1" transform="matrix(1.0, 0.0, 0.0, 1.0, -0.05, -0.1)">
      <path d="M364.05 1.1 Q361.05 3.9 358.5 10.0 354.2 20.4 353.75 35.85 L355.75 383.8 Q355.75 387.65 353.55 390.75 351.35 393.8 347.85 395.1 334.1 416.65 294.7 430.35 254.6 444.3 204.0 444.3 153.05 444.3 112.8 430.2 73.2 416.3 59.8 394.5 56.85 393.0 55.05 390.15 53.25 387.25 53.25 383.8 L43.15 64.2 Q39.7 43.9 18.25 36.4 16.05 35.65 4.8 32.85 -0.45 31.5 0.8 29.85 11.2 15.9 33.6 15.65 40.55 15.6 48.95 16.9 L57.4 18.2 106.85 21.3 186.1 23.7 268.75 20.4 305.75 16.15 340.75 9.2 Q354.15 6.25 361.55 2.5 L364.05 1.1" fill="url(#gradient0)" fill-rule="evenodd" stroke="none"/>
      <path d="M364.05 1.1 Q361.05 3.9 358.5 10.0 354.2 20.4 353.75 35.85 L355.75 383.8 Q355.75 387.65 353.55 390.75 351.35 393.8 347.85 395.1 334.1 416.65 294.7 430.35 254.6 444.3 204.0 444.3 153.05 444.3 112.8 430.2 73.2 416.3 59.8 394.5 56.85 393.0 55.05 390.15 53.25 387.25 53.25 383.8 L43.15 64.2 Q39.7 43.9 18.25 36.4 16.05 35.65 4.8 32.85 -0.45 31.5 0.8 29.85 11.2 15.9 33.6 15.65 40.55 15.6 48.95 16.9 L57.4 18.2 106.85 21.3 186.1 23.7 268.75 20.4 305.75 16.15 340.75 9.2 Q354.15 6.25 361.55 2.5 L364.05 1.1 364.3 0.85 Q364.8 0.4 364.55 0.7 L364.05 1.1" fill="none" stroke="#a0a09d" stroke-linecap="round" stroke-linejoin="miter" stroke-miterlimit="10.0" stroke-width="1.0"/>
    </g>
    <radialGradient cx="0" cy="0" gradientTransform="matrix(0.2478, 0.0, 0.0, -0.2478, 182.65, 222.4)" gradientUnits="userSpaceOnUse" id="gradient0" r="819.2" spreadMethod="pad">
      <stop offset="0.0" stop-color="#ffffff"/>
      <stop offset="1.0" stop-color="#cccccc"/>
    </radialGradient>
    <g id="sprite1" transform="matrix(1.0, 0.0, 0.0, 1.0, 0.0, 0.0)">
      <use height="41.7" transform="matrix(1.0, 0.0, 0.0, 1.0, 0.0, 0.0)" width="134.4" xlink:href="#shape2"/>
    </g>
    <g id="shape2" transform="matrix(1.0, 0.0, 0.0, 1.0, 0.0, 0.0)">
      <path d="M127.95 26.3 Q121.0 32.85 111.6 37.05 100.4 42.05 89.85 41.7 77.2 41.25 67.2 33.1 45.3 15.2 19.7 16.9 13.6 17.3 5.3 18.75 0.0 19.35 0.0 16.55 0.0 9.7 19.7 4.85 39.35 0.0 67.2 0.0 95.05 0.0 114.75 4.85 134.4 9.7 134.4 16.55 134.4 20.2 127.95 26.3" fill="#ffffff" fill-rule="evenodd" stroke="none"/>
    </g>
    <g id="sprite2" transform="matrix(1.0, 0.0, 0.0, 1.0, 0.0, 0.0)">
      <use height="267.05" transform="matrix(1.0, 0.0, 0.0, 1.0, 0.0, 0.0)" width="78.55" xlink:href="#shape3"/>
    </g>
    <g id="shape3" transform="matrix(1.0, 0.0, 0.0, 1.0, 0.0, 0.0)">
      <path d="M0.0 21.45 L0.65 0.0 74.2 0.0 74.2 175.8 Q74.2 211.8 78.55 267.05 70.75 249.95 67.05 212.0 65.8 198.95 64.45 177.2 L62.15 141.05 Q58.75 94.2 41.6 60.05 23.85 24.7 0.0 21.45" fill="url(#gradient1)" fill-rule="evenodd" stroke="none"/>
    </g>
    <linearGradient gradientTransform="matrix(-0.0362, 0.0, 0.0, 0.0362, 43.5, 133.55)" gradientUnits="userSpaceOnUse" id="gradient1" spreadMethod="pad" x1="-819.2" x2="819.2">
      <stop offset="0.0" stop-color="#ffffff"/>
      <stop offset="0.984313725490196" stop-color="#dbdbdb"/>
    </linearGradient>
    <g id="sprite3" transform="matrix(1.0, 0.0, 0.0, 1.0, 0.0, 0.0)">
      <use height="269.15" transform="matrix(1.0, 0.0, 0.0, 1.0, 0.0, 0.0)" width="61.55" xlink:href="#shape4"/>
    </g>
    <g id="shape4" transform="matrix(1.0, 0.0, 0.0, 1.0, 0.0, 0.0)">
      <path d="M35.95 34.25 Q24.9 23.5 0.0 21.4 L11.65 0.0 57.2 0.0 57.2 175.75 Q57.2 211.7 61.55 267.05 55.2 273.15 52.0 261.7 49.4 252.45 48.4 229.15 48.15 224.2 47.25 184.05 46.6 155.6 45.1 141.05 43.4 124.8 45.4 98.1 47.4 70.4 46.7 61.15 45.3 43.35 35.95 34.25" fill="url(#gradient2)" fill-rule="evenodd" stroke="none"/>
    </g>
    <linearGradient gradientTransform="matrix(-0.0284, 0.0, 0.0, 0.0284, 34.05, 134.6)" gradientUnits="userSpaceOnUse" id="gradient2" spreadMethod="pad" x1="-819.2" x2="819.2">
      <stop offset="0.0" stop-color="#ffffff"/>
      <stop offset="1.0" stop-color="#999999"/>
    </linearGradient>
    <g id="shape5" transform="matrix(1.0, 0.0, 0.0, 1.0, -1.95, 34.05)">
      <path d="M37.85 -34.0 Q53.05 -33.7 53.6 -31.4 L53.35 -31.0 Q52.6 -30.4 50.75 -29.9 44.95 -28.25 29.65 -27.75 26.15 -27.55 21.5 -27.6 12.25 -27.7 6.65 -28.85 L4.05 -28.6 2.0 -27.3 Q2.75 -28.9 4.35 -30.4 7.65 -33.4 12.1 -33.55 L21.75 -33.9" fill="none" stroke="#cccccc" stroke-linecap="round" stroke-linejoin="round" stroke-width="0.1"/>
      <path d="M7.35 -18.6 Q20.4 -14.6 37.45 -16.75 46.0 -17.8 51.95 -19.7 L51.65 24.85 Q35.8 35.8 20.15 31.05 12.3 28.65 7.65 24.05 L7.35 -18.6" fill="#ffffff" fill-opacity="0.3764706" fill-rule="evenodd" stroke="none"/>
    </g>
  </defs>
</svg>
