<?xml version="1.0" encoding="UTF-8" standalone="no"?>
<svg xmlns:xlink="http://www.w3.org/1999/xlink" height="107.15px" width="28.15px" xmlns="http://www.w3.org/2000/svg">
  <g transform="matrix(1.0, 0.0, 0.0, 1.0, 0.0, 0.0)">
    <use height="107.15" transform="matrix(1.0, 0.0, 0.0, 1.0, 0.0, 0.0)" width="28.15" xlink:href="#shape0"/>
  </g>
  <defs>
    <g id="shape0" transform="matrix(1.0, 0.0, 0.0, 1.0, 0.0, 0.0)">
      <path d="M5.85 0.0 L5.6 13.8 Q5.5 23.6 6.4 27.55 8.75 37.85 12.35 51.25 17.8 71.3 20.95 77.8 25.55 87.35 27.25 93.7 29.5 102.2 26.15 103.95 20.7 106.85 8.15 107.15 12.45 101.2 13.9 95.5 15.2 90.55 14.25 86.25 L7.3 57.3 0.6 29.0 Q0.1 26.45 0.1 14.15 L0.0 0.0 5.85 0.0" fill="url(#gradient0)" fill-rule="evenodd" stroke="none"/>
    </g>
    <radialGradient cx="0" cy="0" gradientTransform="matrix(0.1256, 0.0, 0.0, -0.1256, -4.55, -1.65)" gradientUnits="userSpaceOnUse" id="gradient0" r="819.2" spreadMethod="pad">
      <stop offset="0.0" stop-color="#ffffff"/>
      <stop offset="1.0" stop-color="#ffffff"/>
    </radialGradient>
  </defs>
</svg>
