<?xml version="1.0" encoding="UTF-8" standalone="no"?>
<svg xmlns:xlink="http://www.w3.org/1999/xlink" height="168.5px" width="198.0px" xmlns="http://www.w3.org/2000/svg">
  <g transform="matrix(1.0, 0.0, 0.0, 1.0, 88.65, 83.75)">
    <use height="42.0" transform="matrix(1.0, 0.0, 0.0, 1.0, 10.05, -6.4)" width="53.0" xlink:href="#sprite0"/>
    <use height="42.0" transform="matrix(1.0, 0.0, 0.0, 1.0, 7.55, -2.15)" width="53.0" xlink:href="#sprite0"/>
    <use height="42.0" transform="matrix(1.0, 0.0, 0.0, 1.0, 6.05, -7.9)" width="53.0" xlink:href="#sprite0"/>
    <use height="42.0" transform="matrix(1.0, 0.0, 0.0, 1.0, -35.65, -69.75)" width="53.0" xlink:href="#sprite0"/>
    <use height="42.0" transform="matrix(1.0, 0.0, 0.0, 1.0, -31.9, -72.5)" width="53.0" xlink:href="#sprite0"/>
    <use height="42.0" transform="matrix(1.0, 0.0, 0.0, 1.0, -25.15, -71.5)" width="53.0" xlink:href="#sprite0"/>
    <use height="42.0" transform="matrix(1.0, 0.0, 0.0, 1.0, -27.65, -67.5)" width="53.0" xlink:href="#sprite0"/>
    <use height="42.0" transform="matrix(1.0, 0.0, 0.0, 1.0, -22.4, -66.25)" width="53.0" xlink:href="#sprite0"/>
    <use height="42.0" id="ball_mc" transform="matrix(1.0, 0.0, 0.0, 1.0, 1.8, 0.2)" width="53.0" xlink:href="#sprite0"/>
    <use height="42.0" transform="matrix(1.0, 0.0, 0.0, 1.0, 6.05, -0.8)" width="53.0" xlink:href="#sprite0"/>
    <use height="42.0" transform="matrix(1.0, 0.0, 0.0, 1.0, 0.3, -4.3)" width="53.0" xlink:href="#sprite0"/>
  </g>
  <defs>
    <g id="sprite0" transform="matrix(1.0, 0.0, 0.0, 1.0, 38.0, 17.5)">
      <use height="8.0" transform="matrix(1.0, 0.0, 0.0, 1.0, -4.0, -4.0)" width="8.0" xlink:href="#shape0"/>
    </g>
    <g id="shape0" transform="matrix(1.0, 0.0, 0.0, 1.0, 4.0, 4.0)">
      <path d="M2.8 -2.85 Q4.0 -1.65 4.0 0.0 4.0 1.65 2.8 2.8 1.65 4.0 0.0 4.0 -1.65 4.0 -2.85 2.8 -4.0 1.65 -4.0 0.0 -4.0 -1.65 -2.85 -2.85 -1.65 -4.0 0.0 -4.0 1.65 -4.0 2.8 -2.85" fill="url(#gradient0)" fill-rule="evenodd" stroke="none"/>
    </g>
    <radialGradient cx="0" cy="0" gradientTransform="matrix(0.005, 0.0, 0.0, 0.005, 0.0, 0.0)" gradientUnits="userSpaceOnUse" id="gradient0" r="819.2" spreadMethod="pad">
      <stop offset="0.5529411764705883" stop-color="#99cc00"/>
      <stop offset="1.0" stop-color="#00ffff"/>
    </radialGradient>
  </defs>
</svg>
