<?xml version="1.0" encoding="UTF-8" standalone="no"?>
<svg xmlns:xlink="http://www.w3.org/1999/xlink" height="33.2px" width="30.9px" xmlns="http://www.w3.org/2000/svg">
  <g transform="matrix(1.0, 0.0, 0.0, 1.0, 15.0, 16.6)">
    <use height="13.2" transform="matrix(1.0, 0.0, 0.0, 1.0, -2.95, -9.5)" width="10.9" xlink:href="#shape0"/>
  </g>
  <defs>
    <g id="shape0" transform="matrix(1.0, 0.0, 0.0, 1.0, 5.45, 6.6)">
      <path d="M4.55 -0.1 Q4.55 1.95 3.05 3.4 1.6 4.9 -0.45 4.9 -2.5 4.9 -4.0 3.4 -5.45 1.95 -5.45 -0.1 -5.45 -2.15 -4.0 -3.65 -2.5 -5.1 -0.45 -5.1 1.6 -5.1 3.05 -3.65 4.55 -2.15 4.55 -0.1" fill="url(#gradient0)" fill-rule="evenodd" stroke="none"/>
      <path d="M0.45 5.85 Q-0.3 5.1 -0.3 4.0 -0.3 2.9 0.45 2.15 1.2 1.35 2.3 1.35 3.4 1.35 4.15 2.15 4.95 2.9 4.95 4.0 4.95 5.1 4.15 5.85 3.4 6.6 2.3 6.6 1.2 6.6 0.45 5.85" fill="url(#gradient1)" fill-rule="evenodd" stroke="none"/>
      <path d="M5.45 -4.1 Q5.45 -3.05 4.7 -2.3 4.0 -1.6 2.95 -1.6 1.9 -1.6 1.2 -2.3 0.45 -3.05 0.45 -4.1 0.45 -5.15 1.2 -5.85 1.9 -6.6 2.95 -6.6 4.0 -6.6 4.7 -5.85 5.45 -5.15 5.45 -4.1" fill="url(#gradient2)" fill-rule="evenodd" stroke="none"/>
    </g>
    <radialGradient cx="0" cy="0" gradientTransform="matrix(0.0065, 0.0, 0.0, 0.0065, -0.45, -0.1)" gradientUnits="userSpaceOnUse" id="gradient0" r="819.2" spreadMethod="pad">
      <stop offset="0.0" stop-color="#ff0000"/>
      <stop offset="1.0" stop-color="#910000"/>
    </radialGradient>
    <radialGradient cx="0" cy="0" gradientTransform="matrix(0.0033, 0.0, 0.0, 0.0033, 2.3, 4.0)" gradientUnits="userSpaceOnUse" id="gradient1" r="819.2" spreadMethod="pad">
      <stop offset="0.0" stop-color="#999999"/>
      <stop offset="0.5098039215686274" stop-color="#999999"/>
      <stop offset="1.0" stop-color="#ffffff"/>
    </radialGradient>
    <radialGradient cx="0" cy="0" gradientTransform="matrix(0.0031, 0.0, 0.0, 0.0031, 2.95, -4.1)" gradientUnits="userSpaceOnUse" id="gradient2" r="819.2" spreadMethod="pad">
      <stop offset="0.0" stop-color="#999999"/>
      <stop offset="0.48627450980392156" stop-color="#999999"/>
      <stop offset="1.0" stop-color="#ffffff"/>
    </radialGradient>
  </defs>
</svg>
