<?xml version="1.0" encoding="UTF-8" standalone="no"?>
<svg xmlns:xlink="http://www.w3.org/1999/xlink" height="269.15px" width="61.55px" xmlns="http://www.w3.org/2000/svg">
  <g transform="matrix(1.0, 0.0, 0.0, 1.0, 0.0, 0.0)">
    <use height="269.15" transform="matrix(1.0, 0.0, 0.0, 1.0, 0.0, 0.0)" width="61.55" xlink:href="#shape0"/>
  </g>
  <defs>
    <g id="shape0" transform="matrix(1.0, 0.0, 0.0, 1.0, 0.0, 0.0)">
      <path d="M35.95 34.25 Q24.9 23.5 0.0 21.4 L11.65 0.0 57.2 0.0 57.2 175.75 Q57.2 211.7 61.55 267.05 55.2 273.15 52.0 261.7 49.4 252.45 48.4 229.15 48.15 224.2 47.25 184.05 46.6 155.6 45.1 141.05 43.4 124.8 45.4 98.1 47.4 70.4 46.7 61.15 45.3 43.35 35.95 34.25" fill="url(#gradient0)" fill-rule="evenodd" stroke="none"/>
    </g>
    <linearGradient gradientTransform="matrix(-0.0284, 0.0, 0.0, 0.0284, 34.05, 134.6)" gradientUnits="userSpaceOnUse" id="gradient0" spreadMethod="pad" x1="-819.2" x2="819.2">
      <stop offset="0.0" stop-color="#ffffff"/>
      <stop offset="1.0" stop-color="#999999"/>
    </linearGradient>
  </defs>
</svg>
