<?xml version="1.0" encoding="UTF-8" standalone="no"?>
<svg xmlns:xlink="http://www.w3.org/1999/xlink" height="518.7px" width="958.8px" xmlns="http://www.w3.org/2000/svg">
  <g transform="matrix(1.0, 0.0, 0.0, 1.0, 388.45, 337.45)">
    <use height="11.2" transform="matrix(1.0, 0.0, 0.0, 1.0, -32.6, 87.1)" width="32.75" xlink:href="#shape0"/>
    <use height="444.7" transform="matrix(0.1078, 0.0028, -0.0022, 0.1079, -37.4448, 47.8109)" width="365.1" xlink:href="#sprite0"/>
    <use height="41.7" transform="matrix(0.1078, 0.0028, -0.0022, 0.1079, -17.85, 89.75)" width="134.4" xlink:href="#sprite1"/>
    <use height="267.05" transform="matrix(0.1078, 0.0028, -0.0022, 0.1079, -7.85, 49.45)" width="78.55" xlink:href="#sprite2"/>
    <use height="269.15" transform="matrix(0.1078, 0.0028, -0.0022, 0.1079, -37.45, 49.45)" width="61.55" xlink:href="#sprite3"/>
    <use height="5.05" transform="matrix(1.0, 0.0, 0.0, 1.0, -36.7, 46.45)" width="38.9" xlink:href="#shape5"/>
    <use height="40.55" id="fill_mc" transform="matrix(0.6096, 0.0, 0.0, 0.7407, -35.7356, 137.7904)" width="55.2" xlink:href="#sprite4"/>
    <use height="163.85" id="solution_mc" transform="matrix(0.7619, 0.0, 0.0, 0.7619, -234.0355, 56.4003)" width="279.6" xlink:href="#sprite5"/>
    <use height="186.8" transform="matrix(0.9659, -0.2556, 0.2556, 0.9659, -72.7076, -133.8938)" width="21.7" xlink:href="#shape13"/>
    <use height="152.7" transform="matrix(1.0, 0.0, 0.0, 1.0, -143.0, -173.7)" width="133.9" xlink:href="#morphshape0"/>
    <use height="85.1" transform="matrix(1.0, 0.0, 0.0, 1.0, 214.95, -19.55)" width="64.0" xlink:href="#shape14"/>
    <use height="28.0" transform="matrix(1.0, 0.0, 0.0, 1.0, -31.1, 68.65)" width="31.45" xlink:href="#shape15"/>
    <use height="11.2" transform="matrix(1.0, 0.0, 0.0, 1.0, -36.45, 159.2)" width="32.75" xlink:href="#shape16"/>
    <use height="444.7" transform="matrix(0.1078, 0.0028, -0.0022, 0.1079, -41.2948, 119.9109)" width="365.1" xlink:href="#sprite0"/>
    <use height="41.7" transform="matrix(0.1078, 0.0028, -0.0022, 0.1079, -21.7, 161.85)" width="134.4" xlink:href="#sprite1"/>
    <use height="267.05" transform="matrix(0.1078, 0.0028, -0.0022, 0.1079, -11.7, 121.55)" width="78.55" xlink:href="#sprite2"/>
    <use height="269.15" transform="matrix(0.1078, 0.0028, -0.0022, 0.1079, -41.3, 121.55)" width="61.55" xlink:href="#sprite3"/>
    <use height="5.05" transform="matrix(1.0, 0.0, 0.0, 1.0, -40.55, 118.55)" width="38.9" xlink:href="#shape5"/>
    <use height="69.05" transform="matrix(1.0, 0.0, 0.0, 1.0, 81.2, -28.4)" width="53.75" xlink:href="#sprite9"/>
    <use height="8.0" transform="matrix(1.0, 0.0, 0.0, 1.0, -386.95, -313.0)" width="5.0" xlink:href="#text0"/>
    <use height="8.0" transform="matrix(1.0, 0.0, 0.0, 1.0, -363.95, -313.0)" width="26.0" xlink:href="#text1"/>
    <use height="8.0" transform="matrix(1.0, 0.0, 0.0, 1.0, -321.95, -313.0)" width="26.0" xlink:href="#text2"/>
    <use height="8.0" transform="matrix(1.0, 0.0, 0.0, 1.0, -283.95, -313.0)" width="26.0" xlink:href="#text3"/>
    <use height="8.0" transform="matrix(1.0, 0.0, 0.0, 1.0, -241.95, -313.0)" width="26.0" xlink:href="#text4"/>
    <use height="8.0" transform="matrix(1.0, 0.0, 0.0, 1.0, -207.95, -313.0)" width="26.0" xlink:href="#text5"/>
    <use height="8.0" transform="matrix(1.0, 0.0, 0.0, 1.0, -167.95, -313.0)" width="26.0" xlink:href="#text6"/>
    <use height="8.0" transform="matrix(1.0, 0.0, 0.0, 1.0, -122.0, -313.0)" width="26.0" xlink:href="#text7"/>
    <use height="8.0" transform="matrix(1.0, 0.0, 0.0, 1.0, -82.0, -313.0)" width="26.0" xlink:href="#text8"/>
    <use height="8.0" transform="matrix(1.0, 0.0, 0.0, 1.0, -44.0, -313.0)" width="26.0" xlink:href="#text9"/>
    <use height="8.0" transform="matrix(1.0, 0.0, 0.0, 1.0, -7.0, -313.0)" width="26.0" xlink:href="#text10"/>
    <use height="8.0" transform="matrix(1.0, 0.0, 0.0, 1.0, 34.0, -313.0)" width="25.0" xlink:href="#text11"/>
    <use height="8.0" transform="matrix(1.0, 0.0, 0.0, 1.0, 73.0, -313.0)" width="25.0" xlink:href="#text12"/>
    <use height="8.0" transform="matrix(1.0, 0.0, 0.0, 1.0, 110.0, -313.0)" width="25.0" xlink:href="#text13"/>
    <use height="8.0" transform="matrix(1.0, 0.0, 0.0, 1.0, 155.0, -313.0)" width="25.0" xlink:href="#text14"/>
    <use height="8.0" transform="matrix(1.0, 0.0, 0.0, 1.0, 196.0, -313.0)" width="25.0" xlink:href="#text15"/>
    <use height="8.0" transform="matrix(1.0, 0.0, 0.0, 1.0, 229.0, -313.0)" width="25.0" xlink:href="#text16"/>
    <use height="8.0" transform="matrix(1.0, 0.0, 0.0, 1.0, 268.0, -313.0)" width="26.0" xlink:href="#text17"/>
    <use height="14.0" transform="matrix(1.0, 0.0, 0.0, 1.0, -166.7, -337.45)" width="217.0" xlink:href="#text18"/>
    <use height="272.0" id="spmScroll" transform="matrix(8.407, 0.0, 0.0, 1.0, -388.45, -294.2)" width="114.05" xlink:href="#sprite10"/>
  </g>
  <defs>
    <g id="shape0" transform="matrix(1.0, 0.0, 0.0, 1.0, 32.6, -87.1)">
      <path d="M-16.65 97.3 Q-22.7 97.15 -27.3 95.3 -29.3 94.5 -30.45 93.5 -31.6 92.55 -31.6 91.6 -31.6 89.8 -27.15 88.85 L-16.45 88.1 Q-9.7 88.3 -5.5 89.25 -0.8 90.3 -0.85 92.1 -0.85 93.05 -2.15 93.95 -3.4 94.95 -5.65 95.7 -7.9 96.5 -10.65 96.9 L-16.65 97.3" fill="#cccccc" fill-rule="evenodd" stroke="none"/>
      <path d="M-16.65 97.3 Q-22.7 97.15 -27.3 95.3 -29.3 94.5 -30.45 93.5 -31.6 92.55 -31.6 91.6 -31.6 89.8 -27.15 88.85 L-16.45 88.1 Q-9.7 88.3 -5.5 89.25 -0.8 90.3 -0.85 92.1 -0.85 93.05 -2.15 93.95 -3.4 94.95 -5.65 95.7 -7.9 96.5 -10.65 96.9 L-16.65 97.3 Z" fill="none" stroke="#c9d1d4" stroke-linecap="round" stroke-linejoin="round" stroke-width="2.0"/>
    </g>
    <g id="sprite0" transform="matrix(1.0, 0.0, 0.0, 1.0, -0.05, -0.1)">
      <use height="444.7" transform="matrix(1.0, 0.0, 0.0, 1.0, 0.05, 0.1)" width="365.1" xlink:href="#shape1"/>
    </g>
    <g id="shape1" transform="matrix(1.0, 0.0, 0.0, 1.0, -0.05, -0.1)">
      <path d="M364.05 1.1 Q361.05 3.9 358.5 10.0 354.2 20.4 353.75 35.85 L355.75 383.8 Q355.75 387.65 353.55 390.75 351.35 393.8 347.85 395.1 334.1 416.65 294.7 430.35 254.6 444.3 204.0 444.3 153.05 444.3 112.8 430.2 73.2 416.3 59.8 394.5 56.85 393.0 55.05 390.15 53.25 387.25 53.25 383.8 L43.15 64.2 Q39.7 43.9 18.25 36.4 16.05 35.65 4.8 32.85 -0.45 31.5 0.8 29.85 11.2 15.9 33.6 15.65 40.55 15.6 48.95 16.9 L57.4 18.2 106.85 21.3 186.1 23.7 268.75 20.4 305.75 16.15 340.75 9.2 Q354.15 6.25 361.55 2.5 L364.05 1.1" fill="url(#gradient0)" fill-rule="evenodd" stroke="none"/>
      <path d="M364.05 1.1 Q361.05 3.9 358.5 10.0 354.2 20.4 353.75 35.85 L355.75 383.8 Q355.75 387.65 353.55 390.75 351.35 393.8 347.85 395.1 334.1 416.65 294.7 430.35 254.6 444.3 204.0 444.3 153.05 444.3 112.8 430.2 73.2 416.3 59.8 394.5 56.85 393.0 55.05 390.15 53.25 387.25 53.25 383.8 L43.15 64.2 Q39.7 43.9 18.25 36.4 16.05 35.65 4.8 32.85 -0.45 31.5 0.8 29.85 11.2 15.9 33.6 15.65 40.55 15.6 48.95 16.9 L57.4 18.2 106.85 21.3 186.1 23.7 268.75 20.4 305.75 16.15 340.75 9.2 Q354.15 6.25 361.55 2.5 L364.05 1.1 364.3 0.85 Q364.8 0.4 364.55 0.7 L364.05 1.1" fill="none" stroke="#a0a09d" stroke-linecap="round" stroke-linejoin="miter" stroke-miterlimit="10.0" stroke-width="1.0"/>
    </g>
    <radialGradient cx="0" cy="0" gradientTransform="matrix(0.2478, 0.0, 0.0, -0.2478, 182.65, 222.4)" gradientUnits="userSpaceOnUse" id="gradient0" r="819.2" spreadMethod="pad">
      <stop offset="0.0" stop-color="#ffffff"/>
      <stop offset="1.0" stop-color="#cccccc"/>
    </radialGradient>
    <g id="sprite1" transform="matrix(1.0, 0.0, 0.0, 1.0, 0.0, 0.0)">
      <use height="41.7" transform="matrix(1.0, 0.0, 0.0, 1.0, 0.0, 0.0)" width="134.4" xlink:href="#shape2"/>
    </g>
    <g id="shape2" transform="matrix(1.0, 0.0, 0.0, 1.0, 0.0, 0.0)">
      <path d="M127.95 26.3 Q121.0 32.85 111.6 37.05 100.4 42.05 89.85 41.7 77.2 41.25 67.2 33.1 45.3 15.2 19.7 16.9 13.6 17.3 5.3 18.75 0.0 19.35 0.0 16.55 0.0 9.7 19.7 4.85 39.35 0.0 67.2 0.0 95.05 0.0 114.75 4.85 134.4 9.7 134.4 16.55 134.4 20.2 127.95 26.3" fill="#ffffff" fill-rule="evenodd" stroke="none"/>
    </g>
    <g id="sprite2" transform="matrix(1.0, 0.0, 0.0, 1.0, 0.0, 0.0)">
      <use height="267.05" transform="matrix(1.0, 0.0, 0.0, 1.0, 0.0, 0.0)" width="78.55" xlink:href="#shape3"/>
    </g>
    <g id="shape3" transform="matrix(1.0, 0.0, 0.0, 1.0, 0.0, 0.0)">
      <path d="M0.0 21.45 L0.65 0.0 74.2 0.0 74.2 175.8 Q74.2 211.8 78.55 267.05 70.75 249.95 67.05 212.0 65.8 198.95 64.45 177.2 L62.15 141.05 Q58.75 94.2 41.6 60.05 23.85 24.7 0.0 21.45" fill="url(#gradient1)" fill-rule="evenodd" stroke="none"/>
    </g>
    <linearGradient gradientTransform="matrix(-0.0362, 0.0, 0.0, 0.0362, 43.5, 133.55)" gradientUnits="userSpaceOnUse" id="gradient1" spreadMethod="pad" x1="-819.2" x2="819.2">
      <stop offset="0.0" stop-color="#ffffff"/>
      <stop offset="0.984313725490196" stop-color="#dbdbdb"/>
    </linearGradient>
    <g id="sprite3" transform="matrix(1.0, 0.0, 0.0, 1.0, 0.0, 0.0)">
      <use height="269.15" transform="matrix(1.0, 0.0, 0.0, 1.0, 0.0, 0.0)" width="61.55" xlink:href="#shape4"/>
    </g>
    <g id="shape4" transform="matrix(1.0, 0.0, 0.0, 1.0, 0.0, 0.0)">
      <path d="M35.95 34.25 Q24.9 23.5 0.0 21.4 L11.65 0.0 57.2 0.0 57.2 175.75 Q57.2 211.7 61.55 267.05 55.2 273.15 52.0 261.7 49.4 252.45 48.4 229.15 48.15 224.2 47.25 184.05 46.6 155.6 45.1 141.05 43.4 124.8 45.4 98.1 47.4 70.4 46.7 61.15 45.3 43.35 35.95 34.25" fill="url(#gradient2)" fill-rule="evenodd" stroke="none"/>
    </g>
    <linearGradient gradientTransform="matrix(-0.0284, 0.0, 0.0, 0.0284, 34.05, 134.6)" gradientUnits="userSpaceOnUse" id="gradient2" spreadMethod="pad" x1="-819.2" x2="819.2">
      <stop offset="0.0" stop-color="#ffffff"/>
      <stop offset="1.0" stop-color="#999999"/>
    </linearGradient>
    <g id="shape5" transform="matrix(1.0, 0.0, 0.0, 1.0, 40.55, -118.55)">
      <path d="M-38.95 122.55 L-40.5 123.55 Q-39.95 122.35 -38.75 121.2 -36.25 118.95 -32.9 118.85 L-25.65 118.6 Q-2.1 118.75 -1.7 120.45 L-1.9 120.75 Q-2.45 121.2 -3.85 121.6 -8.2 122.85 -19.7 123.2 L-25.85 123.3 -37.0 122.4 -38.95 122.55 Z" fill="none" stroke="#cccccc" stroke-linecap="round" stroke-linejoin="round" stroke-width="0.1"/>
    </g>
    <g id="sprite4" transform="matrix(1.0, 0.0, 0.0, 1.0, -41.2, -65.6)">
      <use height="10.9" transform="matrix(1.0, 0.0, 0.0, 1.0, 73.35, 93.3)" width="16.7" xlink:href="#shape6"/>
    </g>
    <g id="shape6" transform="matrix(1.0, 0.0, 0.0, 1.0, -73.35, -93.3)">
      <path d="M86.3 94.9 Q90.05 96.85 90.05 99.65 90.05 102.45 88.35 103.9 86.65 105.35 85.05 99.4 84.95 99.05 86.9 97.0 83.65 94.1 76.8 95.2 69.95 96.3 76.75 95.1 83.55 93.9 83.05 93.4 82.55 92.9 86.3 94.9" fill="#e2faff" fill-opacity="0.7490196" fill-rule="evenodd" stroke="none"/>
    </g>
    <g id="sprite5" transform="matrix(1.0, 0.0, 0.0, 1.0, 89.1, 114.45)">
      <use height="88.2" transform="matrix(1.0, 0.0, 0.0, 1.0, -30.3, -43.15)" width="60.55" xlink:href="#shape7"/>
      <use height="35.05" transform="matrix(0.7829, 0.0, 0.0, 0.7829, -10.9, -43.5)" width="28.95" xlink:href="#sprite6"/>
      <use height="89.65" transform="matrix(1.0, 0.0, 0.0, 1.0, -29.9, -45.05)" width="59.7" xlink:href="#shape9"/>
      <use height="50.9" transform="matrix(1.0, 0.0, 0.0, 1.0, -30.05, -6.7)" width="59.55" xlink:href="#shape10"/>
      <use height="107.15" transform="matrix(0.7829, 0.0, 0.0, 0.7829, 4.25, -43.5)" width="28.15" xlink:href="#sprite7"/>
      <use height="106.1" transform="matrix(0.7829, 0.0, 0.0, 0.7829, -29.1, -43.5)" width="27.7" xlink:href="#sprite8"/>
    </g>
    <g id="shape7" transform="matrix(1.0, 0.0, 0.0, 1.0, 30.3, 43.15)">
      <path d="M11.05 -43.15 L11.05 -24.65 Q11.05 -16.5 16.75 -0.15 21.4 13.05 25.9 21.7 29.4 28.55 30.1 34.15 30.9 40.0 28.0 41.15 23.25 43.0 14.7 44.1 L0.0 45.05 -14.75 44.1 Q-23.25 43.0 -28.05 41.15 -30.9 40.05 -30.15 34.15 -29.45 28.55 -25.95 21.7 -21.45 13.05 -16.8 -0.15 -11.1 -16.5 -11.1 -24.65 L-11.1 -43.15 11.05 -43.15" fill="#666666" fill-rule="evenodd" stroke="none"/>
    </g>
    <g id="sprite6" transform="matrix(1.0, 0.0, 0.0, 1.0, 0.0, 0.0)">
      <use height="35.05" transform="matrix(1.0, 0.0, 0.0, 1.0, 0.0, 0.0)" width="28.95" xlink:href="#shape8"/>
    </g>
    <g id="shape8" transform="matrix(1.0, 0.0, 0.0, 1.0, 0.0, 0.0)">
      <path d="M27.35 0.0 L27.35 23.05 Q27.35 27.85 28.95 35.05 26.05 32.8 24.7 27.85 L22.9 18.5 Q21.65 12.35 15.35 7.9 8.8 3.25 0.0 2.85 L0.25 0.0 27.35 0.0" fill="url(#gradient3)" fill-rule="evenodd" stroke="none"/>
    </g>
    <linearGradient gradientTransform="matrix(-0.0134, 0.0, 0.0, 0.0134, 16.05, 17.55)" gradientUnits="userSpaceOnUse" id="gradient3" spreadMethod="pad" x1="-819.2" x2="819.2">
      <stop offset="0.0" stop-color="#ffffff"/>
      <stop offset="1.0" stop-color="#999999"/>
    </linearGradient>
    <g id="shape9" transform="matrix(1.0, 0.0, 0.0, 1.0, 29.9, 45.05)">
      <path d="M12.6 -41.95 Q12.1 -41.4 11.35 -41.4 L-11.4 -41.4 Q-12.15 -41.4 -12.65 -41.95 -13.2 -42.5 -13.2 -43.2 -13.2 -43.95 -12.65 -44.5 -12.15 -45.05 -11.4 -45.05 L11.35 -45.05 Q12.1 -45.05 12.6 -44.5 13.15 -43.95 13.15 -43.2 13.15 -42.5 12.6 -41.95" fill="#333333" fill-rule="evenodd" stroke="none"/>
      <path d="M-4.0 -44.05 L12.5 -44.05 12.7 -43.45 -4.0 -43.45 -4.15 -43.55 -4.25 -43.75 -4.0 -44.05" fill="#ffffff" fill-rule="evenodd" stroke="none"/>
      <path d="M12.3 -44.35 Q12.7 -43.9 12.7 -43.4 12.7 -42.8 12.3 -42.4 11.9 -42.0 11.35 -42.0 L-11.4 -42.0 Q-11.95 -42.0 -12.35 -42.4 -12.75 -42.8 -12.75 -43.4 L-12.35 -44.35 Q-11.95 -44.75 -11.4 -44.75 L11.35 -44.75 Q11.9 -44.75 12.3 -44.35" fill="url(#gradient4)" fill-rule="evenodd" stroke="none"/>
      <path d="M10.6 -24.65 Q10.6 -16.35 16.45 0.25 21.15 13.55 25.5 21.9 28.15 27.15 29.25 31.8 30.3 36.5 29.4 38.95 28.95 40.3 27.85 40.7 23.15 42.6 14.7 43.7 L0.0 44.6 -14.7 43.7 Q-23.2 42.6 -27.9 40.7 -29.0 40.3 -29.45 39.0 -30.4 36.55 -29.3 31.85 -28.25 27.15 -25.55 21.9 -21.15 13.55 -16.5 0.25 -10.65 -16.35 -10.65 -24.65 L-10.65 -42.7 10.6 -42.7 10.6 -24.65" fill="url(#gradient5)" fill-rule="evenodd" stroke="none"/>
    </g>
    <linearGradient gradientTransform="matrix(0.0, 0.0017, 0.0017, 0.0, 0.0, -43.4)" gradientUnits="userSpaceOnUse" id="gradient4" spreadMethod="pad" x1="-819.2" x2="819.2">
      <stop offset="0.12156862745098039" stop-color="#ffffff"/>
      <stop offset="0.1803921568627451" stop-color="#f8fbfc"/>
      <stop offset="0.27450980392156865" stop-color="#e4eff2"/>
      <stop offset="0.39215686274509803" stop-color="#cccccc"/>
      <stop offset="0.5294117647058824" stop-color="#999999"/>
      <stop offset="0.6745098039215687" stop-color="#666666"/>
    </linearGradient>
    <radialGradient cx="0" cy="0" gradientTransform="matrix(0.0457, 0.0, 0.0, -0.0457, 0.0, 1.0)" gradientUnits="userSpaceOnUse" id="gradient5" r="819.2" spreadMethod="pad">
      <stop offset="0.0" stop-color="#ffffff"/>
      <stop offset="1.0" stop-color="#cccccc"/>
    </radialGradient>
    <g id="shape10" transform="matrix(1.0, 0.0, 0.0, 1.0, 30.05, 6.7)">
      <path d="M-2.35 -1.8 Q11.6 -2.85 14.15 -6.7 16.05 -0.05 18.7 7.3 24.0 22.05 27.75 25.75 L29.35 32.05 Q30.15 38.65 26.3 40.4 23.4 42.1 16.0 43.2 1.15 45.45 -21.3 42.65 L-22.9 42.6 Q-24.8 42.4 -26.25 41.8 -31.0 39.9 -29.85 34.7 L-23.3 17.85 -15.9 -1.55 Q-9.35 -1.3 -2.35 -1.8" fill="#e2f0f7" fill-rule="evenodd" stroke="none"/>
    </g>
    <g id="sprite7" transform="matrix(1.0, 0.0, 0.0, 1.0, 0.0, 0.0)">
      <use height="107.15" transform="matrix(1.0, 0.0, 0.0, 1.0, 0.0, 0.0)" width="28.15" xlink:href="#shape11"/>
    </g>
    <g id="shape11" transform="matrix(1.0, 0.0, 0.0, 1.0, 0.0, 0.0)">
      <path d="M5.85 0.0 L5.6 13.8 Q5.5 23.6 6.4 27.55 8.75 37.85 12.35 51.25 17.8 71.3 20.95 77.8 25.55 87.35 27.25 93.7 29.5 102.2 26.15 103.95 20.7 106.85 8.15 107.15 12.45 101.2 13.9 95.5 15.2 90.55 14.25 86.25 L7.3 57.3 0.6 29.0 Q0.1 26.45 0.1 14.15 L0.0 0.0 5.85 0.0" fill="url(#gradient6)" fill-rule="evenodd" stroke="none"/>
    </g>
    <radialGradient cx="0" cy="0" gradientTransform="matrix(0.1256, 0.0, 0.0, -0.1256, -4.55, -1.65)" gradientUnits="userSpaceOnUse" id="gradient6" r="819.2" spreadMethod="pad">
      <stop offset="0.0" stop-color="#ffffff"/>
      <stop offset="1.0" stop-color="#ffffff"/>
    </radialGradient>
    <g id="sprite8" transform="matrix(1.0, 0.0, 0.0, 1.0, 0.0, 0.0)">
      <use height="106.1" transform="matrix(1.0, 0.0, 0.0, 1.0, 0.0, 0.0)" width="27.7" xlink:href="#shape12"/>
    </g>
    <g id="shape12" transform="matrix(1.0, 0.0, 0.0, 1.0, 0.0, 0.0)">
      <path d="M24.8 0.0 L27.7 0.0 27.7 25.55 Q27.7 32.65 26.2 42.9 24.8 52.3 22.45 62.15 L18.9 76.8 18.85 76.95 16.55 87.9 14.7 101.85 14.65 102.9 14.6 104.45 14.45 106.1 Q11.8 106.1 6.35 104.65 0.35 103.0 0.05 101.65 -0.2 98.35 1.2 93.3 2.7 88.15 5.45 82.8 9.6 74.8 14.65 61.45 L20.8 43.45 Q24.8 30.8 24.8 25.3 L24.8 0.0" fill="url(#gradient7)" fill-rule="evenodd" stroke="none"/>
    </g>
    <radialGradient cx="0" cy="0" gradientTransform="matrix(0.1242, 0.0, 0.0, -0.1242, 38.2, -1.6)" gradientUnits="userSpaceOnUse" id="gradient7" r="819.2" spreadMethod="pad">
      <stop offset="0.0" stop-color="#ffffff"/>
      <stop offset="1.0" stop-color="#ffffff"/>
    </radialGradient>
    <g id="shape13" transform="matrix(1.0, 0.0, 0.0, 1.0, 10.85, 93.4)">
      <path d="M3.95 -88.85 L3.95 -74.05 Q3.95 -72.15 2.6 -70.85 1.25 -69.5 -0.65 -69.5 -2.55 -69.5 -3.9 -70.85 -5.2 -72.15 -5.2 -74.05 L-5.2 -88.85 Q-5.2 -90.7 -3.9 -92.05 -2.55 -93.4 -0.65 -93.4 1.25 -93.4 2.6 -92.05 3.95 -90.7 3.95 -88.85" fill="url(#gradient8)" fill-rule="evenodd" stroke="none"/>
      <path d="M1.2 -64.3 Q4.1 -64.3 6.15 -61.8 8.2 -59.3 8.2 -55.8 L8.2 84.8 Q8.2 88.4 6.15 90.9 4.1 93.4 1.2 93.4 L0.05 93.4 Q-2.9 93.4 -4.9 90.9 -7.0 88.4 -7.0 84.8 L-7.0 -55.8 Q-7.0 -59.3 -4.9 -61.8 -2.9 -64.3 0.05 -64.3 L1.2 -64.3" fill="url(#gradient9)" fill-rule="evenodd" stroke="none"/>
      <path d="M4.35 -82.5 Q9.05 -82.55 9.25 -77.7 L10.85 -38.85 Q11.15 -31.45 5.15 -31.45 L-5.2 -31.45 Q-11.2 -31.45 -10.8 -38.85 L-8.65 -77.7 Q-8.45 -82.55 -3.75 -82.5 L4.35 -82.5" fill="#666666" fill-rule="evenodd" stroke="none"/>
      <path d="M-7.2 49.9 Q-0.05 56.55 7.95 49.9" fill="none" stroke="#ff6666" stroke-linecap="round" stroke-linejoin="round" stroke-width="0.1"/>
    </g>
    <linearGradient gradientTransform="matrix(0.0056, 0.0, 0.0, 0.0146, -0.65, -81.45)" gradientUnits="userSpaceOnUse" id="gradient8" spreadMethod="pad" x1="-819.2" x2="819.2">
      <stop offset="0.49411764705882355" stop-color="#3b352c"/>
      <stop offset="1.0" stop-color="#121510"/>
    </linearGradient>
    <linearGradient gradientTransform="matrix(0.0093, 0.0, 0.0, 0.0963, 0.6, 14.5)" gradientUnits="userSpaceOnUse" id="gradient9" spreadMethod="pad" x1="-819.2" x2="819.2">
      <stop offset="0.0" stop-color="#ffcdaf"/>
      <stop offset="0.49019607843137253" stop-color="#ffa666"/>
      <stop offset="1.0" stop-color="#e2b4c2"/>
    </linearGradient>
    <g id="morphshape0" transform="matrix(1.0, 0.0, 0.0, 1.0, 143.0, 173.7)">
      <path d="M-139.1 -27.0 Q-112.8 -15.25 -117.3 -69.95 -121.8 -124.7 -111.8 -157.3 -101.85 -189.9 -63.8 -135.45" fill="none" stroke="#333333" stroke-linecap="square" stroke-linejoin="round" stroke-width="3.9000000000000004"/>
    </g>
    <g id="shape14" transform="matrix(1.0, 0.0, 0.0, 1.0, 30.7, 43.85)">
      <path d="M-8.65 -0.75 Q-1.3 -70.5 30.65 -20.05" fill="none" stroke="#999999" stroke-linecap="square" stroke-linejoin="round" stroke-width="4.0"/>
      <path d="M6.6 -17.4 Q6.6 -15.35 5.4 -13.9 4.2 -12.4 2.55 -12.4 L-19.95 -12.4 Q-21.6 -12.4 -22.8 -13.9 -23.95 -15.35 -23.95 -17.4 -23.95 -19.45 -22.8 -20.95 -21.6 -22.4 -19.95 -22.4 L2.55 -22.4 Q4.2 -22.4 5.4 -20.95 6.6 -19.45 6.6 -17.4" fill="#e2faff" fill-rule="evenodd" stroke="none"/>
      <path d="M6.6 -17.4 Q6.6 -19.45 5.4 -20.95 4.2 -22.4 2.55 -22.4 L-19.95 -22.4 Q-21.6 -22.4 -22.8 -20.95 -23.95 -19.45 -23.95 -17.4 -23.95 -15.35 -22.8 -13.9 -21.6 -12.4 -19.95 -12.4 L2.55 -12.4 Q4.2 -12.4 5.4 -13.9 6.6 -15.35 6.6 -17.4 Z" fill="none" stroke="#333333" stroke-linecap="square" stroke-linejoin="round" stroke-width="0.1"/>
      <path d="M4.3 -16.1 Q13.3 -16.1 13.3 -7.1 L13.3 32.2 Q13.3 41.2 4.3 41.2 L-21.65 41.2 Q-30.65 41.2 -30.65 32.2 L-30.65 -7.1 Q-30.65 -16.1 -21.65 -16.1 L4.3 -16.1" fill="#e2faff" fill-rule="evenodd" stroke="none"/>
      <path d="M4.3 -16.1 L-21.65 -16.1 Q-30.65 -16.1 -30.65 -7.1 L-30.65 32.2 Q-30.65 41.2 -21.65 41.2 L4.3 41.2 Q13.3 41.2 13.3 32.2 L13.3 -7.1 Q13.3 -16.1 4.3 -16.1 Z" fill="none" stroke="#333333" stroke-linecap="square" stroke-linejoin="round" stroke-width="0.1"/>
      <path d="M13.3 32.2 Q13.3 41.2 4.3 41.2 L-21.65 41.2 Q-30.65 41.2 -30.65 32.2 -28.25 15.4 -30.5 3.5 14.95 -0.25 12.9 4.5 14.6 7.45 13.3 32.2" fill="#c9eef7" fill-rule="evenodd" stroke="none"/>
    </g>
    <g id="shape15" transform="matrix(1.0, 0.0, 0.0, 1.0, 31.1, -68.65)">
      <path d="M-17.15 72.3 Q-15.9 72.3 -15.0 71.65 L-14.5 71.6 -13.9 72.0 -14.6 74.1 -14.65 74.3 -14.3 74.65 Q-13.25 74.25 -12.7 73.25 L-13.4 72.2 -12.3 72.3 Q-10.1 72.3 -8.25 70.35 L-7.65 69.65 -7.45 69.7 Q-7.65 71.15 -8.0 72.6 L-5.8 76.75 Q-5.1 77.25 -4.7 77.85 L-4.55 77.55 -5.15 75.3 -6.45 71.2 -6.35 69.85 -2.55 70.35 -1.3 70.3 -0.55 74.35 -0.35 77.5 -0.35 77.85 Q0.35 80.4 0.35 82.9 0.35 86.35 -2.1 86.35 -3.1 86.35 -3.6 85.85 -3.7 87.25 -4.3 88.6 L-4.95 89.7 -4.95 90.55 Q-4.95 93.55 -7.35 93.55 L-7.45 93.55 Q-7.9 95.0 -9.35 95.0 -10.2 95.0 -10.8 94.25 -11.95 95.3 -14.05 95.3 -15.6 95.3 -17.2 93.2 -18.2 96.65 -18.65 96.65 -20.55 96.65 -21.0 95.0 L-21.1 93.25 -21.1 92.55 -21.7 93.2 Q-22.65 94.0 -23.5 94.0 -24.95 94.0 -26.05 92.65 -26.8 93.3 -27.7 93.3 -30.5 93.3 -31.05 87.9 L-31.05 82.5 Q-31.15 78.85 -30.85 75.95 -30.5 72.65 -29.65 72.1 L-29.75 71.75 Q-29.75 70.35 -28.95 69.85 L-29.4 68.95 -29.35 68.65 -23.85 68.7 -23.2 69.9 Q-22.1 70.95 -19.7 71.4 -18.8 72.3 -17.15 72.3 M-22.7 81.65 L-22.2 82.9 -22.15 83.0 -22.05 82.65 -22.7 81.65 M-15.35 85.55 L-15.75 87.6 -13.85 90.65 Q-13.55 89.2 -12.3 88.95 L-12.95 85.5 -13.65 83.95 -15.35 85.55" fill="#d9f0fa" fill-rule="evenodd" stroke="none"/>
    </g>
    <g id="shape16" transform="matrix(1.0, 0.0, 0.0, 1.0, 36.45, -159.2)">
      <path d="M-20.5 169.4 Q-26.55 169.25 -31.15 167.4 -33.15 166.6 -34.3 165.6 -35.45 164.65 -35.45 163.7 -35.45 161.9 -31.0 160.95 L-20.3 160.2 Q-13.55 160.4 -9.35 161.35 -4.65 162.4 -4.7 164.2 -4.7 165.15 -6.0 166.05 -7.25 167.05 -9.5 167.8 -11.75 168.6 -14.5 169.0 L-20.5 169.4" fill="#cccccc" fill-rule="evenodd" stroke="none"/>
      <path d="M-20.5 169.4 Q-26.55 169.25 -31.15 167.4 -33.15 166.6 -34.3 165.6 -35.45 164.65 -35.45 163.7 -35.45 161.9 -31.0 160.95 L-20.3 160.2 Q-13.55 160.4 -9.35 161.35 -4.65 162.4 -4.7 164.2 -4.7 165.15 -6.0 166.05 -7.25 167.05 -9.5 167.8 -11.75 168.6 -14.5 169.0 L-20.5 169.4 Z" fill="none" stroke="#c9d1d4" stroke-linecap="round" stroke-linejoin="round" stroke-width="2.0"/>
    </g>
    <g id="sprite9" transform="matrix(1.0, 0.0, 0.0, 1.0, 0.1, 34.05)">
      <use height="14.25" transform="matrix(1.0, 0.0, 0.0, 1.0, 7.95, 20.75)" width="42.95" xlink:href="#shape17"/>
      <use height="444.7" transform="matrix(0.1434, 0.0038, -0.0029, 0.1435, 1.2069, -31.7855)" width="365.1" xlink:href="#sprite0"/>
      <use height="41.7" transform="matrix(0.1434, 0.0038, -0.0029, 0.1435, 27.2, 23.9)" width="134.4" xlink:href="#sprite1"/>
      <use height="267.05" transform="matrix(0.1434, 0.0038, -0.0029, 0.1435, 40.45, -29.95)" width="78.55" xlink:href="#sprite2"/>
      <use height="269.15" transform="matrix(0.1434, 0.0038, -0.0029, 0.1435, 1.2, -29.95)" width="61.55" xlink:href="#sprite3"/>
      <use height="66.55" transform="matrix(1.0, 0.0, 0.0, 1.0, 1.95, -34.05)" width="51.7" xlink:href="#shape18"/>
    </g>
    <g id="shape17" transform="matrix(1.0, 0.0, 0.0, 1.0, -7.95, -20.75)">
      <path d="M28.9 34.0 Q20.8 33.85 14.75 31.4 12.05 30.3 10.5 29.0 8.95 27.7 8.95 26.45 9.0 24.05 14.95 22.75 20.45 21.6 29.15 21.8 38.1 22.05 43.75 23.3 49.95 24.7 49.9 27.1 49.9 28.35 48.15 29.6 46.5 30.9 43.55 31.95 40.5 33.0 36.85 33.55 L28.9 34.0" fill="#cccccc" fill-rule="evenodd" stroke="none"/>
      <path d="M28.9 34.0 Q20.8 33.85 14.75 31.4 12.05 30.3 10.5 29.0 8.95 27.7 8.95 26.45 9.0 24.05 14.95 22.75 20.45 21.6 29.15 21.8 38.1 22.05 43.75 23.3 49.95 24.7 49.9 27.1 49.9 28.35 48.15 29.6 46.5 30.9 43.55 31.95 40.5 33.0 36.85 33.55 L28.9 34.0 Z" fill="none" stroke="#c9d1d4" stroke-linecap="round" stroke-linejoin="round" stroke-width="2.0"/>
    </g>
    <g id="shape18" transform="matrix(1.0, 0.0, 0.0, 1.0, -1.95, 34.05)">
      <path d="M37.85 -34.0 Q53.05 -33.7 53.6 -31.4 L53.35 -31.0 Q52.6 -30.4 50.75 -29.9 44.95 -28.25 29.65 -27.75 26.15 -27.55 21.5 -27.6 12.25 -27.7 6.65 -28.85 L4.05 -28.6 2.0 -27.3 Q2.75 -28.9 4.35 -30.4 7.65 -33.4 12.1 -33.55 L21.75 -33.9" fill="none" stroke="#cccccc" stroke-linecap="round" stroke-linejoin="round" stroke-width="0.1"/>
      <path d="M7.35 -18.6 Q20.4 -14.6 37.45 -16.75 46.0 -17.8 51.95 -19.7 L51.65 24.85 Q35.8 35.8 20.15 31.05 12.3 28.65 7.65 24.05 L7.35 -18.6" fill="#ffffff" fill-opacity="0.3764706" fill-rule="evenodd" stroke="none"/>
    </g>
    <g id="text0" transform="matrix(1.0, 0.0, 0.0, 1.0, 0.0, -2.0)">
      <g transform="matrix(1.0, 0.0, 0.0, 1.0, 0.0, 0.0)">
        <use fill="#000000" height="8.0" transform="matrix(0.0078, 0.0, 0.0, 0.0078, 0.0, 8.0)" width="5.0" xlink:href="#font_Verdana_8pt_st_00"/>
      </g>
    </g>
    <g id="font_Verdana_8pt_st_00">
      <path d="M256.0 -512.0 L256.0 0.0 512.0 0.0 512.0 -384.0 384.0 -384.0 384.0 -512.0 256.0 -512.0 M640.0 -512.0 L640.0 128.0 128.0 128.0 128.0 -128.0 0.0 -128.0 0.0 -384.0 128.0 -384.0 128.0 -640.0 512.0 -640.0 512.0 -512.0 640.0 -512.0" fill-rule="evenodd" stroke="none"/>
    </g>
    <g id="text1" transform="matrix(1.0, 0.0, 0.0, 1.0, 0.0, -2.0)">
      <g transform="matrix(1.0, 0.0, 0.0, 1.0, 0.0, 0.0)">
        <use fill="#000000" height="8.0" transform="matrix(0.0078, 0.0, 0.0, 0.0078, 0.0, 8.0)" width="26.0" xlink:href="#font_Verdana_8pt_st_00"/>
        <use fill="#000000" height="8.0" transform="matrix(0.0078, 0.0, 0.0, 0.0078, 6.0, 8.0)" width="26.0" xlink:href="#font_Verdana_8pt_st_.0"/>
        <use fill="#000000" height="8.0" transform="matrix(0.0078, 0.0, 0.0, 0.0078, 9.0, 8.0)" width="26.0" xlink:href="#font_Verdana_8pt_st_00"/>
        <use fill="#000000" height="8.0" transform="matrix(0.0078, 0.0, 0.0, 0.0078, 15.0, 8.0)" width="26.0" xlink:href="#font_Verdana_8pt_st_40"/>
        <use fill="#000000" height="8.0" transform="matrix(0.0078, 0.0, 0.0, 0.0078, 21.0, 8.0)" width="26.0" xlink:href="#font_Verdana_8pt_st_00"/>
      </g>
    </g>
    <g id="font_Verdana_8pt_st_.0">
      <path d="M256.0 -128.0 L256.0 128.0 128.0 128.0 128.0 -128.0 256.0 -128.0" fill-rule="evenodd" stroke="none"/>
    </g>
    <g id="font_Verdana_8pt_st_40">
      <path d="M384.0 -640.0 L640.0 -640.0 640.0 128.0 384.0 128.0 384.0 0.0 0.0 0.0 0.0 -256.0 128.0 -256.0 128.0 -384.0 256.0 -384.0 256.0 -128.0 384.0 -128.0 384.0 -384.0 256.0 -384.0 256.0 -512.0 384.0 -512.0 384.0 -640.0" fill-rule="evenodd" stroke="none"/>
    </g>
    <g id="text2" transform="matrix(1.0, 0.0, 0.0, 1.0, 0.0, -2.0)">
      <g transform="matrix(1.0, 0.0, 0.0, 1.0, 0.0, 0.0)">
        <use fill="#000000" height="8.0" transform="matrix(0.0078, 0.0, 0.0, 0.0078, 0.0, 8.0)" width="26.0" xlink:href="#font_Verdana_8pt_st_00"/>
        <use fill="#000000" height="8.0" transform="matrix(0.0078, 0.0, 0.0, 0.0078, 6.0, 8.0)" width="26.0" xlink:href="#font_Verdana_8pt_st_.0"/>
        <use fill="#000000" height="8.0" transform="matrix(0.0078, 0.0, 0.0, 0.0078, 9.0, 8.0)" width="26.0" xlink:href="#font_Verdana_8pt_st_00"/>
        <use fill="#000000" height="8.0" transform="matrix(0.0078, 0.0, 0.0, 0.0078, 15.0, 8.0)" width="26.0" xlink:href="#font_Verdana_8pt_st_70"/>
        <use fill="#000000" height="8.0" transform="matrix(0.0078, 0.0, 0.0, 0.0078, 21.0, 8.0)" width="26.0" xlink:href="#font_Verdana_8pt_st_00"/>
      </g>
    </g>
    <g id="font_Verdana_8pt_st_70">
      <path d="M128.0 -640.0 L640.0 -640.0 640.0 -256.0 512.0 -256.0 512.0 -128.0 384.0 -128.0 384.0 128.0 128.0 128.0 128.0 0.0 256.0 0.0 256.0 -256.0 384.0 -256.0 384.0 -512.0 128.0 -512.0 128.0 -640.0" fill-rule="evenodd" stroke="none"/>
    </g>
    <g id="text3" transform="matrix(1.0, 0.0, 0.0, 1.0, 0.0, -2.0)">
      <g transform="matrix(1.0, 0.0, 0.0, 1.0, 0.0, 0.0)">
        <use fill="#000000" height="8.0" transform="matrix(0.0078, 0.0, 0.0, 0.0078, 0.0, 8.0)" width="26.0" xlink:href="#font_Verdana_8pt_st_00"/>
        <use fill="#000000" height="8.0" transform="matrix(0.0078, 0.0, 0.0, 0.0078, 6.0, 8.0)" width="26.0" xlink:href="#font_Verdana_8pt_st_.0"/>
        <use fill="#000000" height="8.0" transform="matrix(0.0078, 0.0, 0.0, 0.0078, 9.0, 8.0)" width="26.0" xlink:href="#font_Verdana_8pt_st_10"/>
        <use fill="#000000" height="8.0" transform="matrix(0.0078, 0.0, 0.0, 0.0078, 15.0, 8.0)" width="26.0" xlink:href="#font_Verdana_8pt_st_00"/>
        <use fill="#000000" height="8.0" transform="matrix(0.0078, 0.0, 0.0, 0.0078, 21.0, 8.0)" width="26.0" xlink:href="#font_Verdana_8pt_st_00"/>
      </g>
    </g>
    <g id="font_Verdana_8pt_st_10">
      <path d="M256.0 -640.0 L512.0 -640.0 512.0 0.0 640.0 0.0 640.0 128.0 128.0 128.0 128.0 0.0 256.0 0.0 256.0 -384.0 128.0 -384.0 128.0 -512.0 256.0 -512.0 256.0 -640.0" fill-rule="evenodd" stroke="none"/>
    </g>
    <g id="text4" transform="matrix(1.0, 0.0, 0.0, 1.0, 0.0, -2.0)">
      <g transform="matrix(1.0, 0.0, 0.0, 1.0, 0.0, 0.0)">
        <use fill="#000000" height="8.0" transform="matrix(0.0078, 0.0, 0.0, 0.0078, 0.0, 8.0)" width="26.0" xlink:href="#font_Verdana_8pt_st_00"/>
        <use fill="#000000" height="8.0" transform="matrix(0.0078, 0.0, 0.0, 0.0078, 6.0, 8.0)" width="26.0" xlink:href="#font_Verdana_8pt_st_.0"/>
        <use fill="#000000" height="8.0" transform="matrix(0.0078, 0.0, 0.0, 0.0078, 9.0, 8.0)" width="26.0" xlink:href="#font_Verdana_8pt_st_10"/>
        <use fill="#000000" height="8.0" transform="matrix(0.0078, 0.0, 0.0, 0.0078, 15.0, 8.0)" width="26.0" xlink:href="#font_Verdana_8pt_st_50"/>
        <use fill="#000000" height="8.0" transform="matrix(0.0078, 0.0, 0.0, 0.0078, 21.0, 8.0)" width="26.0" xlink:href="#font_Verdana_8pt_st_00"/>
      </g>
    </g>
    <g id="font_Verdana_8pt_st_50">
      <path d="M640.0 -512.0 L256.0 -512.0 256.0 -384.0 512.0 -384.0 512.0 -256.0 640.0 -256.0 640.0 128.0 128.0 128.0 128.0 0.0 512.0 0.0 512.0 -128.0 384.0 -128.0 384.0 -256.0 128.0 -256.0 128.0 -640.0 640.0 -640.0 640.0 -512.0" fill-rule="evenodd" stroke="none"/>
    </g>
    <g id="text5" transform="matrix(1.0, 0.0, 0.0, 1.0, 0.0, -2.0)">
      <g transform="matrix(1.0, 0.0, 0.0, 1.0, 0.0, 0.0)">
        <use fill="#000000" height="8.0" transform="matrix(0.0078, 0.0, 0.0, 0.0078, 0.0, 8.0)" width="26.0" xlink:href="#font_Verdana_8pt_st_00"/>
        <use fill="#000000" height="8.0" transform="matrix(0.0078, 0.0, 0.0, 0.0078, 6.0, 8.0)" width="26.0" xlink:href="#font_Verdana_8pt_st_.0"/>
        <use fill="#000000" height="8.0" transform="matrix(0.0078, 0.0, 0.0, 0.0078, 9.0, 8.0)" width="26.0" xlink:href="#font_Verdana_8pt_st_30"/>
        <use fill="#000000" height="8.0" transform="matrix(0.0078, 0.0, 0.0, 0.0078, 15.0, 8.0)" width="26.0" xlink:href="#font_Verdana_8pt_st_00"/>
        <use fill="#000000" height="8.0" transform="matrix(0.0078, 0.0, 0.0, 0.0078, 21.0, 8.0)" width="26.0" xlink:href="#font_Verdana_8pt_st_00"/>
      </g>
    </g>
    <g id="font_Verdana_8pt_st_30">
      <path d="M640.0 -512.0 L640.0 128.0 128.0 128.0 128.0 0.0 512.0 0.0 512.0 -128.0 384.0 -128.0 384.0 -256.0 256.0 -256.0 256.0 -384.0 384.0 -384.0 384.0 -512.0 128.0 -512.0 128.0 -640.0 512.0 -640.0 512.0 -512.0 640.0 -512.0" fill-rule="evenodd" stroke="none"/>
    </g>
    <g id="text6" transform="matrix(1.0, 0.0, 0.0, 1.0, 0.0, -2.0)">
      <g transform="matrix(1.0, 0.0, 0.0, 1.0, 0.0, 0.0)">
        <use fill="#000000" height="8.0" transform="matrix(0.0078, 0.0, 0.0, 0.0078, 0.0, 8.0)" width="26.0" xlink:href="#font_Verdana_8pt_st_00"/>
        <use fill="#000000" height="8.0" transform="matrix(0.0078, 0.0, 0.0, 0.0078, 6.0, 8.0)" width="26.0" xlink:href="#font_Verdana_8pt_st_.0"/>
        <use fill="#000000" height="8.0" transform="matrix(0.0078, 0.0, 0.0, 0.0078, 9.0, 8.0)" width="26.0" xlink:href="#font_Verdana_8pt_st_30"/>
        <use fill="#000000" height="8.0" transform="matrix(0.0078, 0.0, 0.0, 0.0078, 15.0, 8.0)" width="26.0" xlink:href="#font_Verdana_8pt_st_50"/>
        <use fill="#000000" height="8.0" transform="matrix(0.0078, 0.0, 0.0, 0.0078, 21.0, 8.0)" width="26.0" xlink:href="#font_Verdana_8pt_st_00"/>
      </g>
    </g>
    <g id="text7" transform="matrix(1.0, 0.0, 0.0, 1.0, 0.0, -2.0)">
      <g transform="matrix(1.0, 0.0, 0.0, 1.0, 0.0, 0.0)">
        <use fill="#000000" height="8.0" transform="matrix(0.0078, 0.0, 0.0, 0.0078, 0.0, 8.0)" width="26.0" xlink:href="#font_Verdana_8pt_st_00"/>
        <use fill="#000000" height="8.0" transform="matrix(0.0078, 0.0, 0.0, 0.0078, 6.0, 8.0)" width="26.0" xlink:href="#font_Verdana_8pt_st_.0"/>
        <use fill="#000000" height="8.0" transform="matrix(0.0078, 0.0, 0.0, 0.0078, 9.0, 8.0)" width="26.0" xlink:href="#font_Verdana_8pt_st_40"/>
        <use fill="#000000" height="8.0" transform="matrix(0.0078, 0.0, 0.0, 0.0078, 15.0, 8.0)" width="26.0" xlink:href="#font_Verdana_8pt_st_00"/>
        <use fill="#000000" height="8.0" transform="matrix(0.0078, 0.0, 0.0, 0.0078, 21.0, 8.0)" width="26.0" xlink:href="#font_Verdana_8pt_st_00"/>
      </g>
    </g>
    <g id="text8" transform="matrix(1.0, 0.0, 0.0, 1.0, 0.0, -2.0)">
      <g transform="matrix(1.0, 0.0, 0.0, 1.0, 0.0, 0.0)">
        <use fill="#000000" height="8.0" transform="matrix(0.0078, 0.0, 0.0, 0.0078, 0.0, 8.0)" width="26.0" xlink:href="#font_Verdana_8pt_st_00"/>
        <use fill="#000000" height="8.0" transform="matrix(0.0078, 0.0, 0.0, 0.0078, 6.0, 8.0)" width="26.0" xlink:href="#font_Verdana_8pt_st_.0"/>
        <use fill="#000000" height="8.0" transform="matrix(0.0078, 0.0, 0.0, 0.0078, 9.0, 8.0)" width="26.0" xlink:href="#font_Verdana_8pt_st_50"/>
        <use fill="#000000" height="8.0" transform="matrix(0.0078, 0.0, 0.0, 0.0078, 15.0, 8.0)" width="26.0" xlink:href="#font_Verdana_8pt_st_00"/>
        <use fill="#000000" height="8.0" transform="matrix(0.0078, 0.0, 0.0, 0.0078, 21.0, 8.0)" width="26.0" xlink:href="#font_Verdana_8pt_st_00"/>
      </g>
    </g>
    <g id="text9" transform="matrix(1.0, 0.0, 0.0, 1.0, 0.0, -2.0)">
      <g transform="matrix(1.0, 0.0, 0.0, 1.0, 0.0, 0.0)">
        <use fill="#000000" height="8.0" transform="matrix(0.0078, 0.0, 0.0, 0.0078, 0.0, 8.0)" width="26.0" xlink:href="#font_Verdana_8pt_st_00"/>
        <use fill="#000000" height="8.0" transform="matrix(0.0078, 0.0, 0.0, 0.0078, 6.0, 8.0)" width="26.0" xlink:href="#font_Verdana_8pt_st_.0"/>
        <use fill="#000000" height="8.0" transform="matrix(0.0078, 0.0, 0.0, 0.0078, 9.0, 8.0)" width="26.0" xlink:href="#font_Verdana_8pt_st_60"/>
        <use fill="#000000" height="8.0" transform="matrix(0.0078, 0.0, 0.0, 0.0078, 15.0, 8.0)" width="26.0" xlink:href="#font_Verdana_8pt_st_00"/>
        <use fill="#000000" height="8.0" transform="matrix(0.0078, 0.0, 0.0, 0.0078, 21.0, 8.0)" width="26.0" xlink:href="#font_Verdana_8pt_st_00"/>
      </g>
    </g>
    <g id="font_Verdana_8pt_st_60">
      <path d="M256.0 0.0 L512.0 0.0 512.0 -256.0 256.0 -256.0 256.0 0.0 M640.0 -512.0 L384.0 -512.0 384.0 -384.0 640.0 -384.0 640.0 128.0 128.0 128.0 128.0 -512.0 256.0 -512.0 256.0 -640.0 640.0 -640.0 640.0 -512.0" fill-rule="evenodd" stroke="none"/>
    </g>
    <g id="text10" transform="matrix(1.0, 0.0, 0.0, 1.0, 0.0, -2.0)">
      <g transform="matrix(1.0, 0.0, 0.0, 1.0, 0.0, 0.0)">
        <use fill="#000000" height="8.0" transform="matrix(0.0078, 0.0, 0.0, 0.0078, 0.0, 8.0)" width="26.0" xlink:href="#font_Verdana_8pt_st_00"/>
        <use fill="#000000" height="8.0" transform="matrix(0.0078, 0.0, 0.0, 0.0078, 6.0, 8.0)" width="26.0" xlink:href="#font_Verdana_8pt_st_.0"/>
        <use fill="#000000" height="8.0" transform="matrix(0.0078, 0.0, 0.0, 0.0078, 9.0, 8.0)" width="26.0" xlink:href="#font_Verdana_8pt_st_80"/>
        <use fill="#000000" height="8.0" transform="matrix(0.0078, 0.0, 0.0, 0.0078, 15.0, 8.0)" width="26.0" xlink:href="#font_Verdana_8pt_st_00"/>
        <use fill="#000000" height="8.0" transform="matrix(0.0078, 0.0, 0.0, 0.0078, 21.0, 8.0)" width="26.0" xlink:href="#font_Verdana_8pt_st_00"/>
      </g>
    </g>
    <g id="font_Verdana_8pt_st_80">
      <path d="M512.0 -384.0 L512.0 -512.0 256.0 -512.0 256.0 -384.0 512.0 -384.0 M256.0 -256.0 L256.0 0.0 512.0 0.0 512.0 -128.0 384.0 -128.0 384.0 -256.0 256.0 -256.0 M128.0 -128.0 L128.0 -640.0 640.0 -640.0 640.0 128.0 128.0 128.0 128.0 0.0 0.0 0.0 0.0 -128.0 128.0 -128.0" fill-rule="evenodd" stroke="none"/>
    </g>
    <g id="text11" transform="matrix(1.0, 0.0, 0.0, 1.0, -1.0, -2.0)">
      <g transform="matrix(1.0, 0.0, 0.0, 1.0, 0.0, 0.0)">
        <use fill="#000000" height="8.0" transform="matrix(0.0078, 0.0, 0.0, 0.0078, 0.0, 8.0)" width="25.0" xlink:href="#font_Verdana_8pt_st_10"/>
        <use fill="#000000" height="8.0" transform="matrix(0.0078, 0.0, 0.0, 0.0078, 6.0, 8.0)" width="25.0" xlink:href="#font_Verdana_8pt_st_.0"/>
        <use fill="#000000" height="8.0" transform="matrix(0.0078, 0.0, 0.0, 0.0078, 9.0, 8.0)" width="25.0" xlink:href="#font_Verdana_8pt_st_00"/>
        <use fill="#000000" height="8.0" transform="matrix(0.0078, 0.0, 0.0, 0.0078, 15.0, 8.0)" width="25.0" xlink:href="#font_Verdana_8pt_st_00"/>
        <use fill="#000000" height="8.0" transform="matrix(0.0078, 0.0, 0.0, 0.0078, 21.0, 8.0)" width="25.0" xlink:href="#font_Verdana_8pt_st_00"/>
      </g>
    </g>
    <g id="text12" transform="matrix(1.0, 0.0, 0.0, 1.0, -1.0, -2.0)">
      <g transform="matrix(1.0, 0.0, 0.0, 1.0, 0.0, 0.0)">
        <use fill="#000000" height="8.0" transform="matrix(0.0078, 0.0, 0.0, 0.0078, 0.0, 8.0)" width="25.0" xlink:href="#font_Verdana_8pt_st_10"/>
        <use fill="#000000" height="8.0" transform="matrix(0.0078, 0.0, 0.0, 0.0078, 6.0, 8.0)" width="25.0" xlink:href="#font_Verdana_8pt_st_.0"/>
        <use fill="#000000" height="8.0" transform="matrix(0.0078, 0.0, 0.0, 0.0078, 9.0, 8.0)" width="25.0" xlink:href="#font_Verdana_8pt_st_30"/>
        <use fill="#000000" height="8.0" transform="matrix(0.0078, 0.0, 0.0, 0.0078, 15.0, 8.0)" width="25.0" xlink:href="#font_Verdana_8pt_st_00"/>
        <use fill="#000000" height="8.0" transform="matrix(0.0078, 0.0, 0.0, 0.0078, 21.0, 8.0)" width="25.0" xlink:href="#font_Verdana_8pt_st_00"/>
      </g>
    </g>
    <g id="text13" transform="matrix(1.0, 0.0, 0.0, 1.0, -1.0, -2.0)">
      <g transform="matrix(1.0, 0.0, 0.0, 1.0, 0.0, 0.0)">
        <use fill="#000000" height="8.0" transform="matrix(0.0078, 0.0, 0.0, 0.0078, 0.0, 8.0)" width="25.0" xlink:href="#font_Verdana_8pt_st_10"/>
        <use fill="#000000" height="8.0" transform="matrix(0.0078, 0.0, 0.0, 0.0078, 6.0, 8.0)" width="25.0" xlink:href="#font_Verdana_8pt_st_.0"/>
        <use fill="#000000" height="8.0" transform="matrix(0.0078, 0.0, 0.0, 0.0078, 9.0, 8.0)" width="25.0" xlink:href="#font_Verdana_8pt_st_60"/>
        <use fill="#000000" height="8.0" transform="matrix(0.0078, 0.0, 0.0, 0.0078, 15.0, 8.0)" width="25.0" xlink:href="#font_Verdana_8pt_st_00"/>
        <use fill="#000000" height="8.0" transform="matrix(0.0078, 0.0, 0.0, 0.0078, 21.0, 8.0)" width="25.0" xlink:href="#font_Verdana_8pt_st_00"/>
      </g>
    </g>
    <g id="text14" transform="matrix(1.0, 0.0, 0.0, 1.0, -1.0, -2.0)">
      <g transform="matrix(1.0, 0.0, 0.0, 1.0, 0.0, 0.0)">
        <use fill="#000000" height="8.0" transform="matrix(0.0078, 0.0, 0.0, 0.0078, 0.0, 8.0)" width="25.0" xlink:href="#font_Verdana_8pt_st_20"/>
        <use fill="#000000" height="8.0" transform="matrix(0.0078, 0.0, 0.0, 0.0078, 6.0, 8.0)" width="25.0" xlink:href="#font_Verdana_8pt_st_.0"/>
        <use fill="#000000" height="8.0" transform="matrix(0.0078, 0.0, 0.0, 0.0078, 9.0, 8.0)" width="25.0" xlink:href="#font_Verdana_8pt_st_00"/>
        <use fill="#000000" height="8.0" transform="matrix(0.0078, 0.0, 0.0, 0.0078, 15.0, 8.0)" width="25.0" xlink:href="#font_Verdana_8pt_st_00"/>
        <use fill="#000000" height="8.0" transform="matrix(0.0078, 0.0, 0.0, 0.0078, 21.0, 8.0)" width="25.0" xlink:href="#font_Verdana_8pt_st_00"/>
      </g>
    </g>
    <g id="font_Verdana_8pt_st_20">
      <path d="M384.0 0.0 L640.0 0.0 640.0 128.0 128.0 128.0 128.0 -128.0 384.0 -128.0 384.0 0.0 M640.0 -512.0 L640.0 -256.0 512.0 -256.0 512.0 -128.0 384.0 -128.0 384.0 -512.0 128.0 -512.0 128.0 -640.0 512.0 -640.0 512.0 -512.0 640.0 -512.0" fill-rule="evenodd" stroke="none"/>
    </g>
    <g id="text15" transform="matrix(1.0, 0.0, 0.0, 1.0, -1.0, -2.0)">
      <g transform="matrix(1.0, 0.0, 0.0, 1.0, 0.0, 0.0)">
        <use fill="#000000" height="8.0" transform="matrix(0.0078, 0.0, 0.0, 0.0078, 0.0, 8.0)" width="25.0" xlink:href="#font_Verdana_8pt_st_20"/>
        <use fill="#000000" height="8.0" transform="matrix(0.0078, 0.0, 0.0, 0.0078, 6.0, 8.0)" width="25.0" xlink:href="#font_Verdana_8pt_st_.0"/>
        <use fill="#000000" height="8.0" transform="matrix(0.0078, 0.0, 0.0, 0.0078, 9.0, 8.0)" width="25.0" xlink:href="#font_Verdana_8pt_st_50"/>
        <use fill="#000000" height="8.0" transform="matrix(0.0078, 0.0, 0.0, 0.0078, 15.0, 8.0)" width="25.0" xlink:href="#font_Verdana_8pt_st_00"/>
        <use fill="#000000" height="8.0" transform="matrix(0.0078, 0.0, 0.0, 0.0078, 21.0, 8.0)" width="25.0" xlink:href="#font_Verdana_8pt_st_00"/>
      </g>
    </g>
    <g id="text16" transform="matrix(1.0, 0.0, 0.0, 1.0, -1.0, -2.0)">
      <g transform="matrix(1.0, 0.0, 0.0, 1.0, 0.0, 0.0)">
        <use fill="#000000" height="8.0" transform="matrix(0.0078, 0.0, 0.0, 0.0078, 0.0, 8.0)" width="25.0" xlink:href="#font_Verdana_8pt_st_30"/>
        <use fill="#000000" height="8.0" transform="matrix(0.0078, 0.0, 0.0, 0.0078, 6.0, 8.0)" width="25.0" xlink:href="#font_Verdana_8pt_st_.0"/>
        <use fill="#000000" height="8.0" transform="matrix(0.0078, 0.0, 0.0, 0.0078, 9.0, 8.0)" width="25.0" xlink:href="#font_Verdana_8pt_st_00"/>
        <use fill="#000000" height="8.0" transform="matrix(0.0078, 0.0, 0.0, 0.0078, 15.0, 8.0)" width="25.0" xlink:href="#font_Verdana_8pt_st_00"/>
        <use fill="#000000" height="8.0" transform="matrix(0.0078, 0.0, 0.0, 0.0078, 21.0, 8.0)" width="25.0" xlink:href="#font_Verdana_8pt_st_00"/>
      </g>
    </g>
    <g id="text17" transform="matrix(1.0, 0.0, 0.0, 1.0, 0.0, -2.0)">
      <g transform="matrix(1.0, 0.0, 0.0, 1.0, 0.0, 0.0)">
        <use fill="#000000" height="8.0" transform="matrix(0.0078, 0.0, 0.0, 0.0078, 0.0, 8.0)" width="26.0" xlink:href="#font_Verdana_8pt_st_40"/>
        <use fill="#000000" height="8.0" transform="matrix(0.0078, 0.0, 0.0, 0.0078, 6.0, 8.0)" width="26.0" xlink:href="#font_Verdana_8pt_st_.0"/>
        <use fill="#000000" height="8.0" transform="matrix(0.0078, 0.0, 0.0, 0.0078, 9.0, 8.0)" width="26.0" xlink:href="#font_Verdana_8pt_st_00"/>
        <use fill="#000000" height="8.0" transform="matrix(0.0078, 0.0, 0.0, 0.0078, 15.0, 8.0)" width="26.0" xlink:href="#font_Verdana_8pt_st_00"/>
        <use fill="#000000" height="8.0" transform="matrix(0.0078, 0.0, 0.0, 0.0078, 21.0, 8.0)" width="26.0" xlink:href="#font_Verdana_8pt_st_00"/>
      </g>
    </g>
    <g id="text18" transform="matrix(1.0, 0.0, 0.0, 1.0, -44.0, -1.0)">
      <g transform="matrix(1.0, 0.0, 0.0, 1.0, 43.0, 0.0)">
        <use fill="#000000" height="14.0" transform="matrix(0.0107, 0.0, 0.0, 0.0107, 0.0, 11.0)" width="217.0" xlink:href="#font_Verdana_11pt_st_c0"/>
        <use fill="#000000" height="14.0" transform="matrix(0.0107, 0.0, 0.0, 0.0107, 6.0, 11.0)" width="217.0" xlink:href="#font_Verdana_11pt_st_o0"/>
        <use fill="#000000" height="14.0" transform="matrix(0.0107, 0.0, 0.0, 0.0107, 14.0, 11.0)" width="217.0" xlink:href="#font_Verdana_11pt_st_n0"/>
        <use fill="#000000" height="14.0" transform="matrix(0.0107, 0.0, 0.0, 0.0107, 22.0, 11.0)" width="217.0" xlink:href="#font_Verdana_11pt_st_c0"/>
        <use fill="#000000" height="14.0" transform="matrix(0.0107, 0.0, 0.0, 0.0107, 28.0, 11.0)" width="217.0" xlink:href="#font_Verdana_11pt_st_e0"/>
        <use fill="#000000" height="14.0" transform="matrix(0.0107, 0.0, 0.0, 0.0107, 35.0, 11.0)" width="217.0" xlink:href="#font_Verdana_11pt_st_n0"/>
        <use fill="#000000" height="14.0" transform="matrix(0.0107, 0.0, 0.0, 0.0107, 43.0, 11.0)" width="217.0" xlink:href="#font_Verdana_11pt_st_t0"/>
        <use fill="#000000" height="14.0" transform="matrix(0.0107, 0.0, 0.0, 0.0107, 48.0, 11.0)" width="217.0" xlink:href="#font_Verdana_11pt_st_r0"/>
        <use fill="#000000" height="14.0" transform="matrix(0.0107, 0.0, 0.0, 0.0107, 53.0, 11.0)" width="217.0" xlink:href="#font_Verdana_11pt_st_a0"/>
        <use fill="#000000" height="14.0" transform="matrix(0.0107, 0.0, 0.0, 0.0107, 60.0, 11.0)" width="217.0" xlink:href="#font_Verdana_11pt_st_t0"/>
        <use fill="#000000" height="14.0" transform="matrix(0.0107, 0.0, 0.0, 0.0107, 65.0, 11.0)" width="217.0" xlink:href="#font_Verdana_11pt_st_i0"/>
        <use fill="#000000" height="14.0" transform="matrix(0.0107, 0.0, 0.0, 0.0107, 69.0, 11.0)" width="217.0" xlink:href="#font_Verdana_11pt_st_o0"/>
        <use fill="#000000" height="14.0" transform="matrix(0.0107, 0.0, 0.0, 0.0107, 77.0, 11.0)" width="217.0" xlink:href="#font_Verdana_11pt_st_n0"/>
        <use fill="#000000" height="14.0" transform="matrix(0.0107, 0.0, 0.0, 0.0107, 85.0, 11.0)" width="217.0" xlink:href="#font_Verdana_11pt_st__0"/>
        <use fill="#000000" height="14.0" transform="matrix(0.0107, 0.0, 0.0, 0.0107, 89.0, 11.0)" width="217.0" xlink:href="#font_Verdana_11pt_st_o0"/>
        <use fill="#000000" height="14.0" transform="matrix(0.0107, 0.0, 0.0, 0.0107, 97.0, 11.0)" width="217.0" xlink:href="#font_Verdana_11pt_st_f0"/>
        <use fill="#000000" height="14.0" transform="matrix(0.0107, 0.0, 0.0, 0.0107, 102.0, 11.0)" width="217.0" xlink:href="#font_Verdana_11pt_st__0"/>
        <use fill="#000000" height="14.0" transform="matrix(0.0107, 0.0, 0.0, 0.0107, 106.0, 11.0)" width="217.0" xlink:href="#font_Verdana_11pt_st__0"/>
        <use fill="#000000" height="14.0" transform="matrix(0.0107, 0.0, 0.0, 0.0107, 110.0, 11.0)" width="217.0" xlink:href="#font_Verdana_11pt_st_S0"/>
        <use fill="#000000" height="14.0" transform="matrix(0.0107, 0.0, 0.0, 0.0107, 118.0, 11.0)" width="217.0" xlink:href="#font_Verdana_11pt_st_D0"/>
        <use fill="#000000" height="14.0" transform="matrix(0.0107, 0.0, 0.0, 0.0107, 127.0, 11.0)" width="217.0" xlink:href="#font_Verdana_11pt_st_S0"/>
        <use fill="#000000" height="14.0" transform="matrix(0.0107, 0.0, 0.0, 0.0107, 135.0, 11.0)" width="217.0" xlink:href="#font_Verdana_11pt_st__0"/>
        <use fill="#000000" height="14.0" transform="matrix(0.0107, 0.0, 0.0, 0.0107, 139.0, 11.0)" width="217.0" xlink:href="#font_Verdana_11pt_st__0"/>
        <use fill="#000000" height="14.0" transform="matrix(0.0107, 0.0, 0.0, 0.0107, 143.0, 11.0)" width="217.0" xlink:href="#font_Verdana_11pt_st__1"/>
        <use fill="#000000" height="14.0" transform="matrix(0.0107, 0.0, 0.0, 0.0107, 149.0, 11.0)" width="217.0" xlink:href="#font_Verdana_11pt_st_10"/>
        <use fill="#000000" height="14.0" transform="matrix(0.0107, 0.0, 0.0, 0.0107, 157.0, 11.0)" width="217.0" xlink:href="#font_Verdana_11pt_st_00"/>
      </g>
      <g transform="matrix(1.0, 0.0, 0.0, 1.0, 43.0, 0.0)">
        <use fill="#000000" height="14.0" transform="matrix(0.0068, 0.0, 0.0, 0.0068, 165.0, 7.0)" width="217.0" xlink:href="#font_Verdana_11pt_st_20"/>
      </g>
      <g transform="matrix(1.0, 0.0, 0.0, 1.0, 43.0, 0.0)">
        <use fill="#000000" height="14.0" transform="matrix(0.0107, 0.0, 0.0, 0.0107, 170.0, 11.0)" width="217.0" xlink:href="#font_Verdana_11pt_st__0"/>
        <use fill="#000000" height="14.0" transform="matrix(0.0107, 0.0, 0.0, 0.0107, 174.0, 11.0)" width="217.0" xlink:href="#font_Verdana_11pt_st_m0"/>
        <use fill="#000000" height="14.0" transform="matrix(0.0107, 0.0, 0.0, 0.0107, 186.0, 11.0)" width="217.0" xlink:href="#font_Verdana_11pt_st_o0"/>
        <use fill="#000000" height="14.0" transform="matrix(0.0107, 0.0, 0.0, 0.0107, 194.0, 11.0)" width="217.0" xlink:href="#font_Verdana_11pt_st_l0"/>
        <use fill="#000000" height="14.0" transform="matrix(0.0107, 0.0, 0.0, 0.0107, 198.0, 11.0)" width="217.0" xlink:href="#font_Verdana_11pt_st__2"/>
        <use fill="#000000" height="14.0" transform="matrix(0.0107, 0.0, 0.0, 0.0107, 206.0, 11.0)" width="217.0" xlink:href="#font_Verdana_11pt_st_L0"/>
        <use fill="#000000" height="14.0" transform="matrix(0.0107, 0.0, 0.0, 0.0107, 213.0, 11.0)" width="217.0" xlink:href="#font_Verdana_11pt_st__3"/>
      </g>
    </g>
    <g id="font_Verdana_11pt_st_c0">
      <path d="M558.55 -372.35 L279.25 -372.35 279.25 0.0 558.55 0.0 558.55 93.1 186.2 93.1 186.2 0.0 93.1 0.0 93.1 -372.35 186.2 -372.35 186.2 -465.45 558.55 -465.45 558.55 -372.35" fill-rule="evenodd" stroke="none"/>
    </g>
    <g id="font_Verdana_11pt_st_o0">
      <path d="M465.45 -372.35 L279.25 -372.35 279.25 0.0 465.45 0.0 465.45 -372.35 M558.55 -372.35 L651.65 -372.35 651.65 0.0 558.55 0.0 558.55 93.1 186.2 93.1 186.2 0.0 93.1 0.0 93.1 -372.35 186.2 -372.35 186.2 -465.45 558.55 -465.45 558.55 -372.35" fill-rule="evenodd" stroke="none"/>
    </g>
    <g id="font_Verdana_11pt_st_n0">
      <path d="M558.55 -372.35 L651.65 -372.35 651.65 93.1 465.45 93.1 465.45 -372.35 279.25 -372.35 279.25 93.1 93.1 93.1 93.1 -465.45 558.55 -465.45 558.55 -372.35" fill-rule="evenodd" stroke="none"/>
    </g>
    <g id="font_Verdana_11pt_st_e0">
      <path d="M558.55 -93.1 L651.65 -93.1 651.65 0.0 558.55 0.0 558.55 -93.1 M465.45 -279.25 L465.45 -372.35 279.25 -372.35 279.25 -279.25 465.45 -279.25 M558.55 -372.35 L651.65 -372.35 651.65 -186.2 279.25 -186.2 279.25 0.0 558.55 0.0 558.55 93.1 186.2 93.1 186.2 0.0 93.1 0.0 93.1 -372.35 186.2 -372.35 186.2 -465.45 558.55 -465.45 558.55 -372.35" fill-rule="evenodd" stroke="none"/>
    </g>
    <g id="font_Verdana_11pt_st_t0">
      <path d="M465.45 -372.35 L279.25 -372.35 279.25 0.0 465.45 0.0 465.45 93.1 186.2 93.1 186.2 0.0 93.1 0.0 93.1 -372.35 0.0 -372.35 0.0 -465.45 93.1 -465.45 93.1 -651.65 279.25 -651.65 279.25 -465.45 465.45 -465.45 465.45 -372.35" fill-rule="evenodd" stroke="none"/>
    </g>
    <g id="font_Verdana_11pt_st_r0">
      <path d="M558.55 -465.45 L558.55 -279.25 279.25 -279.25 279.25 93.1 93.1 93.1 93.1 -465.45 279.25 -465.45 279.25 -372.35 372.35 -372.35 372.35 -465.45 558.55 -465.45" fill-rule="evenodd" stroke="none"/>
    </g>
    <g id="font_Verdana_11pt_st_a0">
      <path d="M279.25 0.0 L465.45 0.0 465.45 -186.2 279.25 -186.2 279.25 0.0 M558.55 -372.35 L651.65 -372.35 651.65 93.1 186.2 93.1 186.2 0.0 93.1 0.0 93.1 -186.2 186.2 -186.2 186.2 -279.25 465.45 -279.25 465.45 -372.35 186.2 -372.35 186.2 -465.45 558.55 -465.45 558.55 -372.35" fill-rule="evenodd" stroke="none"/>
    </g>
    <g id="font_Verdana_11pt_st_i0">
      <path d="M279.25 -465.45 L279.25 93.1 93.1 93.1 93.1 -465.45 279.25 -465.45 M279.25 -558.55 L93.1 -558.55 93.1 -651.65 279.25 -651.65 279.25 -558.55" fill-rule="evenodd" stroke="none"/>
    </g>
    <g id="font_Verdana_11pt_st_f0">
      <path d="M465.45 -744.75 L465.45 -651.65 279.25 -651.65 279.25 -465.45 465.45 -465.45 465.45 -372.35 279.25 -372.35 279.25 93.1 93.1 93.1 93.1 -372.35 0.0 -372.35 0.0 -465.45 93.1 -465.45 93.1 -651.65 186.2 -651.65 186.2 -744.75 465.45 -744.75" fill-rule="evenodd" stroke="none"/>
    </g>
    <g id="font_Verdana_11pt_st_S0">
      <path d="M93.1 -93.1 L186.2 -93.1 186.2 0.0 93.1 0.0 93.1 -93.1 M558.55 -558.55 L279.25 -558.55 279.25 -372.35 558.55 -372.35 558.55 -279.25 651.65 -279.25 651.65 0.0 558.55 0.0 558.55 93.1 186.2 93.1 186.2 0.0 465.45 0.0 465.45 -186.2 186.2 -186.2 186.2 -279.25 93.1 -279.25 93.1 -558.55 186.2 -558.55 186.2 -651.65 558.55 -651.65 558.55 -558.55 651.65 -558.55 651.65 -465.45 558.55 -465.45 558.55 -558.55" fill-rule="evenodd" stroke="none"/>
    </g>
    <g id="font_Verdana_11pt_st_D0">
      <path d="M465.45 -465.45 L465.45 -558.55 279.25 -558.55 279.25 0.0 465.45 0.0 465.45 -93.1 558.55 -93.1 558.55 -465.45 465.45 -465.45 M558.55 -558.55 L651.65 -558.55 651.65 -465.45 744.75 -465.45 744.75 -93.1 651.65 -93.1 651.65 0.0 558.55 0.0 558.55 93.1 93.1 93.1 93.1 -651.65 558.55 -651.65 558.55 -558.55" fill-rule="evenodd" stroke="none"/>
    </g>
    <g id="font_Verdana_11pt_st__1">
      <path d="M465.45 -744.75 L465.45 -651.65 372.35 -651.65 372.35 -465.45 279.25 -465.45 279.25 0.0 372.35 0.0 372.35 186.2 465.45 186.2 465.45 279.25 279.25 279.25 279.25 186.2 186.2 186.2 186.2 0.0 93.1 0.0 93.1 -465.45 186.2 -465.45 186.2 -651.65 279.25 -651.65 279.25 -744.75 465.45 -744.75" fill-rule="evenodd" stroke="none"/>
    </g>
    <g id="font_Verdana_11pt_st_10">
      <path d="M186.2 -558.55 L279.25 -558.55 279.25 -651.65 465.45 -651.65 465.45 0.0 558.55 0.0 558.55 93.1 186.2 93.1 186.2 0.0 279.25 0.0 279.25 -465.45 186.2 -465.45 186.2 -558.55" fill-rule="evenodd" stroke="none"/>
    </g>
    <g id="font_Verdana_11pt_st_00">
      <path d="M465.45 -558.55 L279.25 -558.55 279.25 0.0 465.45 0.0 465.45 -558.55 M558.55 -558.55 L651.65 -558.55 651.65 0.0 558.55 0.0 558.55 93.1 186.2 93.1 186.2 0.0 93.1 0.0 93.1 -558.55 186.2 -558.55 186.2 -651.65 558.55 -651.65 558.55 -558.55" fill-rule="evenodd" stroke="none"/>
    </g>
    <g id="font_Verdana_11pt_st_20">
      <path d="M146.3 -585.15 L146.3 -731.45 585.15 -731.45 585.15 -292.55 438.85 -292.55 438.85 -585.15 146.3 -585.15 M438.85 -146.3 L731.45 -146.3 731.45 0.0 146.3 0.0 146.3 -146.3 292.55 -146.3 292.55 -292.55 438.85 -292.55 438.85 -146.3" fill-rule="evenodd" stroke="none"/>
    </g>
    <g id="font_Verdana_11pt_st_m0">
      <path d="M930.9 -372.35 L1024.0 -372.35 1024.0 93.1 837.8 93.1 837.8 -372.35 651.65 -372.35 651.65 -465.45 930.9 -465.45 930.9 -372.35 M558.55 -372.35 L651.65 -372.35 651.65 93.1 465.45 93.1 465.45 -372.35 279.25 -372.35 279.25 93.1 93.1 93.1 93.1 -465.45 558.55 -465.45 558.55 -372.35" fill-rule="evenodd" stroke="none"/>
    </g>
    <g id="font_Verdana_11pt_st_l0">
      <path d="M279.25 -744.75 L279.25 93.1 93.1 93.1 93.1 -744.75 279.25 -744.75" fill-rule="evenodd" stroke="none"/>
    </g>
    <g id="font_Verdana_11pt_st__2">
      <path d="M372.35 -558.55 L465.45 -558.55 465.45 -744.75 651.65 -744.75 651.65 -558.55 558.55 -558.55 558.55 -372.35 465.45 -372.35 465.45 -93.1 372.35 -93.1 372.35 93.1 279.25 93.1 279.25 279.25 93.1 279.25 93.1 93.1 186.2 93.1 186.2 -93.1 279.25 -93.1 279.25 -372.35 372.35 -372.35 372.35 -558.55" fill-rule="evenodd" stroke="none"/>
    </g>
    <g id="font_Verdana_11pt_st_L0">
      <path d="M279.25 -651.65 L279.25 0.0 651.65 0.0 651.65 93.1 93.1 93.1 93.1 -651.65 279.25 -651.65" fill-rule="evenodd" stroke="none"/>
    </g>
    <g id="font_Verdana_11pt_st__3">
      <path d="M279.25 -744.75 L279.25 -651.65 372.35 -651.65 372.35 -465.45 465.45 -465.45 465.45 0.0 372.35 0.0 372.35 186.2 279.25 186.2 279.25 279.25 93.1 279.25 93.1 186.2 186.2 186.2 186.2 0.0 279.25 0.0 279.25 -465.45 186.2 -465.45 186.2 -651.65 93.1 -651.65 93.1 -744.75 279.25 -744.75" fill-rule="evenodd" stroke="none"/>
    </g>
    <g id="sprite10" transform="matrix(1.0, 0.0, 0.0, 1.0, 0.0, 0.0)">
      <use height="22.0" transform="matrix(1.0, 0.0, 0.0, 0.1364, 0.0, 0.0)" width="80.0" xlink:href="#sprite11"/>
    </g>
    <g id="sprite11" transform="matrix(1.0, 0.0, 0.0, 1.0, 0.0, 0.0)">
      <use height="22.0" transform="matrix(1.0, 0.0, 0.0, 1.0, 0.0, 0.0)" width="80.0" xlink:href="#shape19"/>
    </g>
    <g id="shape19" transform="matrix(1.0, 0.0, 0.0, 1.0, 0.0, 0.0)">
      <path d="M80.0 22.0 L0.0 22.0 0.0 0.0 80.0 0.0 80.0 22.0" fill="#ffffff" fill-rule="evenodd" stroke="none"/>
      <path d="M80.0 22.0 L0.0 22.0 0.0 0.0 80.0 0.0 80.0 22.0 Z" fill="none" stroke="#000000" stroke-linecap="round" stroke-linejoin="round" stroke-width="0.05"/>
    </g>
  </defs>
</svg>
