<?xml version="1.0" encoding="UTF-8" standalone="no"?>
<svg xmlns:xlink="http://www.w3.org/1999/xlink" height="272.0px" width="114.05px" xmlns="http://www.w3.org/2000/svg">
  <g transform="matrix(1.0, 0.0, 0.0, 1.0, 0.0, 0.0)">
    <use height="0.0" transform="matrix(1.0, 0.0, 0.0, 1.0031, 10.0, 10.0)" width="0.0" xlink:href="#sprite0"/>
    <use height="13.0" transform="matrix(1.0, 0.0, 0.0, 1.0, 97.0, 121.5)" width="13.0" xlink:href="#sprite1"/>
    <use height="13.0" transform="matrix(1.0, 0.0, 0.0, 1.0, 97.0, 157.75)" width="13.0" xlink:href="#sprite2"/>
    <use height="13.0" transform="matrix(1.0, 0.0, 0.0, 1.0, 97.0, 188.0)" width="13.0" xlink:href="#sprite3"/>
    <use height="13.0" transform="matrix(1.0, 0.0, 0.0, 1.0, 97.0, 220.25)" width="13.0" xlink:href="#sprite4"/>
    <use height="3.0" transform="matrix(1.0, 0.0, 0.0, 1.0, 32.0, 32.0)" width="80.0" xlink:href="#sprite5"/>
    <use height="2.0" transform="matrix(1.0, 0.0, 0.0, 1.0, 100.5, 95.75)" width="1.0" xlink:href="#sprite6"/>
    <use height="3.0" transform="matrix(1.0, 0.0, 0.0, 1.0, 32.0, 64.0)" width="80.0" xlink:href="#sprite7"/>
    <use height="22.0" transform="matrix(1.0, 0.0, 0.0, 1.0, 32.05, 250.0)" width="82.0" xlink:href="#sprite8"/>
  </g>
  <defs>
    <g id="sprite1" transform="matrix(1.0, 0.0, 0.0, 1.0, 6.5, 0.0)">
      <use height="13.0" transform="matrix(1.0, 0.0, 0.0, 1.0, -6.5, 0.0)" width="13.0" xlink:href="#shape0"/>
    </g>
    <g id="shape0" transform="matrix(1.0, 0.0, 0.0, 1.0, 6.5, 0.0)">
      <path d="M5.5 10.0 L1.05 1.0 -1.05 1.0 -5.5 10.0 -3.5 12.0 3.5 12.0 5.5 10.0 M1.1 0.0 L6.5 10.0 4.5 13.0 -4.5 13.0 -6.5 10.0 -1.1 0.0 1.1 0.0" fill="url(#gradient0)" fill-rule="evenodd" stroke="none"/>
      <path d="M5.5 10.0 L3.5 12.0 -3.5 12.0 -5.5 10.0 -1.05 1.0 1.05 1.0 5.5 10.0" fill="url(#gradient1)" fill-rule="evenodd" stroke="none"/>
    </g>
    <linearGradient gradientTransform="matrix(0.0, -0.0079, 0.0079, 0.0, 0.0, 6.5)" gradientUnits="userSpaceOnUse" id="gradient0" spreadMethod="pad" x1="-819.2" x2="819.2">
      <stop offset="0.0" stop-color="#5b5d5e"/>
      <stop offset="1.0" stop-color="#b7babc"/>
    </linearGradient>
    <linearGradient gradientTransform="matrix(0.0, -0.0067, 0.0067, 0.0, 0.0, 6.5)" gradientUnits="userSpaceOnUse" id="gradient1" spreadMethod="pad" x1="-819.2" x2="819.2">
      <stop offset="0.0" stop-color="#cccccc" stop-opacity="0.4"/>
      <stop offset="1.0" stop-color="#ffffff" stop-opacity="0.6"/>
    </linearGradient>
    <g id="sprite2" transform="matrix(1.0, 0.0, 0.0, 1.0, 6.5, 0.0)">
      <use height="13.0" transform="matrix(1.0, 0.0, 0.0, 1.0, -6.5, 0.0)" width="13.0" xlink:href="#shape1"/>
    </g>
    <g id="shape1" transform="matrix(1.0, 0.0, 0.0, 1.0, 6.5, 0.0)">
      <path d="M5.5 10.0 L1.05 1.0 -1.05 1.0 -5.5 10.0 -3.5 12.0 3.5 12.0 5.5 10.0 M1.1 0.0 L6.5 10.0 4.5 13.0 -4.5 13.0 -6.5 10.0 -1.1 0.0 1.1 0.0" fill="url(#gradient2)" fill-rule="evenodd" stroke="none"/>
      <path d="M5.5 10.0 L3.5 12.0 -3.5 12.0 -5.5 10.0 -1.05 1.0 1.05 1.0 5.5 10.0" fill="url(#gradient3)" fill-rule="evenodd" stroke="none"/>
    </g>
    <linearGradient gradientTransform="matrix(0.0, -0.0079, 0.0079, 0.0, 0.0, 6.5)" gradientUnits="userSpaceOnUse" id="gradient2" spreadMethod="pad" x1="-819.2" x2="819.2">
      <stop offset="0.0" stop-color="#0075bf"/>
      <stop offset="0.9921568627450981" stop-color="#009dff"/>
    </linearGradient>
    <linearGradient gradientTransform="matrix(0.0, -0.0067, 0.0067, 0.0, 0.0, 6.5)" gradientUnits="userSpaceOnUse" id="gradient3" spreadMethod="pad" x1="-819.2" x2="819.2">
      <stop offset="0.0" stop-color="#eeeeee" stop-opacity="0.6509804"/>
      <stop offset="1.0" stop-color="#ffffff" stop-opacity="0.7372549"/>
    </linearGradient>
    <g id="sprite3" transform="matrix(1.0, 0.0, 0.0, 1.0, 6.5, 0.0)">
      <use height="13.0" transform="matrix(1.0, 0.0, 0.0, 1.0, -6.5, 0.0)" width="13.0" xlink:href="#shape2"/>
    </g>
    <g id="shape2" transform="matrix(1.0, 0.0, 0.0, 1.0, 6.5, 0.0)">
      <path d="M5.5 10.0 L1.05 1.0 -1.05 1.0 -5.5 10.0 -3.5 12.0 3.5 12.0 5.5 10.0 M1.1 0.0 L6.5 10.0 4.5 13.0 -4.5 13.0 -6.5 10.0 -1.1 0.0 1.1 0.0" fill="url(#gradient4)" fill-rule="evenodd" stroke="none"/>
      <path d="M5.5 10.0 L3.5 12.0 -3.5 12.0 -5.5 10.0 -1.05 1.0 1.05 1.0 5.5 10.0" fill="url(#gradient5)" fill-rule="evenodd" stroke="none"/>
    </g>
    <linearGradient gradientTransform="matrix(0.0, -0.0079, 0.0079, 0.0, 0.0, 6.5)" gradientUnits="userSpaceOnUse" id="gradient4" spreadMethod="pad" x1="-819.2" x2="819.2">
      <stop offset="0.0" stop-color="#0075bf"/>
      <stop offset="0.9921568627450981" stop-color="#009dff"/>
    </linearGradient>
    <linearGradient gradientTransform="matrix(0.0, -0.0067, 0.0067, 0.0, 0.0, 6.5)" gradientUnits="userSpaceOnUse" id="gradient5" spreadMethod="pad" x1="-819.2" x2="819.2">
      <stop offset="0.0" stop-color="#99d7fe"/>
      <stop offset="1.0" stop-color="#d9f0fe"/>
    </linearGradient>
    <g id="sprite4" transform="matrix(1.0, 0.0, 0.0, 1.0, 6.5, 0.0)">
      <use height="13.0" transform="matrix(1.0, 0.0, 0.0, 1.0, -6.5, 0.0)" width="13.0" xlink:href="#shape3"/>
    </g>
    <g id="shape3" transform="matrix(1.0, 0.0, 0.0, 1.0, 6.5, 0.0)">
      <path d="M5.5 10.0 L1.05 1.0 -1.05 1.0 -5.5 10.0 -3.5 12.0 3.5 12.0 5.5 10.0 M1.1 0.0 L6.5 10.0 4.5 13.0 -4.5 13.0 -6.5 10.0 -1.1 0.0 1.1 0.0" fill="url(#gradient6)" fill-rule="evenodd" stroke="none"/>
      <path d="M5.5 10.0 L3.5 12.0 -3.5 12.0 -5.5 10.0 -1.05 1.0 1.05 1.0 5.5 10.0" fill="url(#gradient7)" fill-rule="evenodd" stroke="none"/>
    </g>
    <linearGradient gradientTransform="matrix(0.0, -0.0079, 0.0079, 0.0, 0.0, 6.5)" gradientUnits="userSpaceOnUse" id="gradient6" spreadMethod="pad" x1="-819.2" x2="819.2">
      <stop offset="0.0" stop-color="#5b5d5e" stop-opacity="0.29803923"/>
      <stop offset="1.0" stop-color="#b7babc" stop-opacity="0.29803923"/>
    </linearGradient>
    <linearGradient gradientTransform="matrix(0.0, -0.0067, 0.0067, 0.0, 0.0, 6.5)" gradientUnits="userSpaceOnUse" id="gradient7" spreadMethod="pad" x1="-819.2" x2="819.2">
      <stop offset="0.0" stop-color="#cccccc" stop-opacity="0.2"/>
      <stop offset="1.0" stop-color="#ffffff" stop-opacity="0.29803923"/>
    </linearGradient>
    <g id="sprite5" transform="matrix(1.0, 0.0, 0.0, 1.0, 0.0, 0.0)">
      <use height="3.0" transform="matrix(1.0, 0.0, 0.0, 1.0, 0.0, 0.0)" width="80.0" xlink:href="#shape4"/>
    </g>
    <g id="shape4" transform="matrix(1.0, 0.0, 0.0, 1.0, 0.0, 0.0)">
      <path d="M1.0 1.0 L1.0 0.0 2.2 0.0 78.05 0.0 79.0 0.0 79.0 1.0 78.05 1.0 2.2 1.0 1.0 1.0" fill="#575e62" fill-rule="evenodd" stroke="none"/>
      <path d="M79.0 1.0 L80.0 1.0 80.0 2.0 79.0 2.0 79.0 3.0 78.05 3.0 78.0 3.0 78.0 2.0 78.05 2.0 79.0 2.0 79.0 1.0 M2.0 3.0 L1.0 3.0 1.0 2.0 0.0 2.0 0.0 1.0 1.0 1.0 1.0 2.0 2.0 2.0 2.0 3.0" fill="#8c9295" fill-rule="evenodd" stroke="none"/>
      <path d="M1.0 1.0 L2.2 1.0 78.05 1.0 79.0 1.0 79.0 2.0 78.05 2.0 78.0 2.0 2.2 2.0 2.0 2.0 1.0 2.0 1.0 1.0" fill="#ebebeb" fill-rule="evenodd" stroke="none"/>
      <path d="M78.0 3.0 L2.2 3.0 2.0 3.0 2.0 2.0 2.2 2.0 78.0 2.0 78.0 3.0" fill="#aeb2b4" fill-rule="evenodd" stroke="none"/>
    </g>
    <g id="sprite6" transform="matrix(1.0, 0.0, 0.0, 1.0, 0.5, 0.0)">
      <use height="2.0" transform="matrix(1.0, 0.0, 0.0, 1.0, -0.5, 0.0)" width="1.0" xlink:href="#shape5"/>
    </g>
    <g id="shape5" transform="matrix(1.0, 0.0, 0.0, 1.0, 0.5, 0.0)">
      <path d="M0.5 2.0 L-0.5 2.0 -0.5 0.0 0.5 0.0 0.5 2.0" fill="#919999" fill-rule="evenodd" stroke="none"/>
    </g>
    <g id="sprite7" transform="matrix(1.0, 0.0, 0.0, 1.0, 0.0, 0.0)">
      <use height="3.0" transform="matrix(1.0, 0.0, 0.0, 1.0, 0.0, 0.0)" width="80.0" xlink:href="#shape6"/>
    </g>
    <g id="shape6" transform="matrix(1.0, 0.0, 0.0, 1.0, 0.0, 0.0)">
      <path d="M1.0 1.0 L1.0 0.0 1.95 0.0 78.05 0.0 79.0 0.0 79.0 1.0 78.05 1.0 1.95 1.0 1.0 1.0" fill="#999999" fill-rule="evenodd" stroke="none"/>
      <path d="M79.05 2.0 L79.05 3.0 79.0 3.0 79.0 2.0 79.05 2.0 M78.0 3.0 L2.0 3.0 2.0 2.0 78.0 2.0 78.0 3.0" fill="#cccccc" fill-rule="evenodd" stroke="none"/>
      <path d="M79.0 1.0 L80.0 1.0 80.0 2.0 79.05 2.0 79.0 2.0 79.0 1.0 M79.0 3.0 L78.05 3.0 78.0 3.0 78.0 2.0 78.05 2.0 79.0 2.0 79.0 3.0 M2.0 3.0 L1.95 3.0 1.0 3.0 1.0 2.0 0.0 2.0 0.0 1.0 1.0 1.0 1.0 2.0 1.95 2.0 2.0 2.0 2.0 3.0" fill="#bbbbbb" fill-rule="evenodd" stroke="none"/>
      <path d="M1.0 1.0 L1.95 1.0 78.05 1.0 79.0 1.0 79.0 2.0 78.05 2.0 78.0 2.0 2.0 2.0 1.95 2.0 1.0 2.0 1.0 1.0" fill="#ebebeb" fill-rule="evenodd" stroke="none"/>
    </g>
    <g id="sprite8" transform="matrix(1.0, 0.0, 0.0, 1.0, -0.05, 0.0)">
      <use height="22.0" transform="matrix(1.0, 0.0, 0.0, 1.0, 0.05, 0.0)" width="82.0" xlink:href="#shape7"/>
    </g>
    <g id="shape7" transform="matrix(1.0, 0.0, 0.0, 1.0, -0.05, 0.0)">
      <path d="M4.85 1.0 L3.9 1.0 Q1.0 1.05 1.05 4.0 L1.05 4.9 1.05 17.0 1.05 18.0 Q1.0 20.95 3.9 21.0 L4.85 21.0 77.0 21.0 78.15 21.0 Q81.05 20.95 81.05 18.0 L81.05 17.0 81.05 4.9 81.05 4.0 Q81.05 1.05 78.15 1.0 L77.0 1.0 4.85 1.0 M4.05 0.0 L4.85 0.0 77.0 0.0 78.05 0.0 Q82.05 0.0 82.05 4.0 L82.05 4.9 82.05 17.0 82.05 18.0 Q82.05 22.0 78.05 22.0 L77.0 22.0 4.85 22.0 4.05 22.0 Q0.0 22.0 0.05 18.0 L0.05 17.0 0.05 4.9 0.05 4.0 Q0.0 0.0 4.05 0.0" fill="url(#gradient8)" fill-rule="evenodd" stroke="none"/>
    </g>
    <linearGradient gradientTransform="matrix(0.0, 0.0132, -0.0134, 0.0, 41.05, 11.0)" gradientUnits="userSpaceOnUse" id="gradient8" spreadMethod="pad" x1="-819.2" x2="819.2">
      <stop offset="0.0" stop-color="#0075bf"/>
      <stop offset="1.0" stop-color="#009dff"/>
    </linearGradient>
  </defs>
</svg>
